<svg width="1057" height="882" viewBox="0 0 1057 882" fill="none" xmlns="http://www.w3.org/2000/svg">
<path d="M567.299 130.788L617.13 178.92L667.213 450.248H197.43L567.299 130.788Z" fill="#FFCF2D"/>
<path d="M617.559 178.542L567.576 130.259L575.936 121.565C588.249 108.763 610.433 110.225 623.224 122.522C636.016 134.845 638.257 157.046 625.944 169.848L617.559 178.542Z" fill="white" stroke="#FFCF2D" stroke-width="6" stroke-miterlimit="10" stroke-linecap="round"/>
<path d="M625.918 169.848L575.911 121.565" stroke="#FFCF2D" stroke-width="6" stroke-miterlimit="10" stroke-linecap="round"/>
<path d="M625.969 124.715L631.558 120.431C639.062 114.685 649.839 116.197 655.454 123.833L792.836 291.211L722.509 448.182" stroke="#3FB1B5" stroke-width="6" stroke-miterlimit="10" stroke-linecap="round"/>
<path d="M790.595 299.754C794.851 299.754 798.3 296.301 798.3 292.043C798.3 287.784 794.851 284.332 790.595 284.332C786.34 284.332 782.89 287.784 782.89 292.043C782.89 296.301 786.34 299.754 790.595 299.754Z" fill="white" stroke="#FFCF2D" stroke-width="6" stroke-miterlimit="10" stroke-linecap="round"/>
<path d="M702.969 430.643H740.513C751.315 430.643 760.052 439.413 760.052 450.198V450.753H683.404V450.198C683.429 439.413 692.167 430.643 702.969 430.643Z" fill="white" stroke="#FFCF2D" stroke-width="6" stroke-miterlimit="10" stroke-linecap="round"/>
<path d="M521.094 393.523H283.42C274.481 393.523 267.255 386.291 267.255 377.345V210.975C267.255 202.029 274.481 194.796 283.42 194.796H521.094C530.033 194.796 537.26 202.029 537.26 210.975V377.32C537.285 386.266 530.033 393.523 521.094 393.523Z" fill="white" stroke="#3FB1B5" stroke-width="6" stroke-miterlimit="10" stroke-linecap="round"/>
<path d="M521.245 378.051H285.862C282.362 378.051 279.542 375.203 279.542 371.725V212.562C279.542 209.059 282.388 206.237 285.862 206.237H521.245C524.745 206.237 527.565 209.085 527.565 212.562V371.7C527.59 375.203 524.745 378.051 521.245 378.051Z" fill="#66B0F0" stroke="#66B0F0" stroke-width="6" stroke-miterlimit="10" stroke-linejoin="round"/>
<path d="M294.298 221.105H290.571C289.363 221.105 288.355 220.122 288.355 218.887V215.158C288.355 213.948 289.337 212.94 290.571 212.94H294.298C295.506 212.94 296.514 213.923 296.514 215.158V218.887C296.488 220.122 295.506 221.105 294.298 221.105Z" stroke="white" stroke-width="6" stroke-miterlimit="10" stroke-linecap="round"/>
<path d="M311.244 221.105H307.517C306.308 221.105 305.301 220.122 305.301 218.887V215.158C305.301 213.948 306.283 212.94 307.517 212.94H311.244C312.453 212.94 313.46 213.923 313.46 215.158V218.887C313.46 220.122 312.453 221.105 311.244 221.105Z" stroke="white" stroke-width="6" stroke-miterlimit="10" stroke-linecap="round"/>
<path d="M328.19 221.105H324.463C323.255 221.105 322.248 220.122 322.248 218.887V215.158C322.248 213.948 323.23 212.94 324.463 212.94H328.19C329.399 212.94 330.406 213.923 330.406 215.158V218.887C330.406 220.122 329.424 221.105 328.19 221.105Z" stroke="white" stroke-width="6" stroke-miterlimit="10" stroke-linecap="round"/>
<path d="M452.428 450.249H360.169L378.273 393.523H434.298L452.428 450.249Z" fill="white" stroke="#3FB1B5" stroke-width="6" stroke-miterlimit="10" stroke-linecap="round"/>
<path d="M367.421 427.543L378.273 393.523H434.299L367.421 427.543Z" fill="#3FB1B5"/>
<path d="M507.547 258.426H462.702C458.497 258.426 455.097 255.024 455.097 250.816V221.836C455.097 217.627 458.497 214.225 462.702 214.225H507.547C511.752 214.225 515.152 217.627 515.152 221.836V250.816C515.152 255.024 511.752 258.426 507.547 258.426Z" stroke="white" stroke-width="6" stroke-miterlimit="10" stroke-linecap="round"/>
<path d="M467.914 224.557H502.133" stroke="white" stroke-width="6" stroke-miterlimit="10" stroke-linecap="round"/>
<path d="M467.914 232.369H502.133" stroke="white" stroke-width="6" stroke-miterlimit="10" stroke-linecap="round"/>
<path d="M467.914 240.181H502.133" stroke="white" stroke-width="6" stroke-miterlimit="10" stroke-linecap="round"/>
<path d="M467.914 247.993H502.133" stroke="white" stroke-width="6" stroke-miterlimit="10" stroke-linecap="round"/>
<path d="M519.935 378.051H341.686L331.237 393.045C319.427 409.979 294.474 410.231 282.337 393.523L218.682 305.903C221.351 309.229 233.564 305.525 245.197 297.864C257.006 290.077 264.636 280.275 262.243 276.646L306.384 332.943L319.906 309.053C323.607 302.728 329.751 298.192 336.902 296.529L382.906 286.776H422.564L466.277 296.428C473.881 298.167 480.327 303.131 483.978 310.011L519.935 378.051Z" fill="white" stroke="#3FB1B5" stroke-width="6" stroke-miterlimit="10"/>
<path d="M471.011 377.017L458.346 351.994" stroke="#3FB1B5" stroke-width="6" stroke-miterlimit="10" stroke-linecap="round"/>
<path d="M340.679 379.361L353.219 354.589" stroke="#3FB1B5" stroke-width="6" stroke-miterlimit="10" stroke-linecap="round"/>
<path d="M289.211 311.094L317.942 347.861" stroke="#3FB1B5" stroke-width="6" stroke-miterlimit="10" stroke-linecap="round"/>
<path d="M407.683 298.872L418.259 311.749L441.928 291.64" stroke="#3FB1B5" stroke-width="6" stroke-miterlimit="10" stroke-linecap="round"/>
<path d="M399.601 299.124L389.327 312.253L363.316 291.64" stroke="#3FB1B5" stroke-width="6" stroke-miterlimit="10" stroke-linecap="round"/>
<path d="M271.006 287.91C273.398 291.564 265.744 301.493 253.859 309.38C242.175 317.142 229.787 320.872 227.092 317.52" stroke="#3FB1B5" stroke-width="6" stroke-miterlimit="10" stroke-linecap="round"/>
<path d="M263.1 294.286C264.671 294.286 265.945 293.011 265.945 291.438C265.945 289.866 264.671 288.591 263.1 288.591C261.528 288.591 260.254 289.866 260.254 291.438C260.254 293.011 261.528 294.286 263.1 294.286Z" stroke="#3FB1B5" stroke-width="6" stroke-miterlimit="10" stroke-linecap="round"/>
<path d="M403.604 312.178C405.176 312.178 406.45 310.903 406.45 309.33C406.45 307.757 405.176 306.482 403.604 306.482C402.033 306.482 400.759 307.757 400.759 309.33C400.759 310.903 402.033 312.178 403.604 312.178Z" stroke="#3FB1B5" stroke-width="6" stroke-miterlimit="10" stroke-linecap="round"/>
<path d="M403.604 335.11C405.176 335.11 406.45 333.835 406.45 332.262C406.45 330.689 405.176 329.415 403.604 329.415C402.033 329.415 400.759 330.689 400.759 332.262C400.759 333.835 402.033 335.11 403.604 335.11Z" stroke="#3FB1B5" stroke-width="6" stroke-miterlimit="10" stroke-linecap="round"/>
<path d="M330.33 394.254L341.687 378.051V394.254H330.33Z" fill="#3FB1B5"/>
<path d="M244.92 297.108C233.287 304.769 221.075 308.473 218.406 305.147C218.355 305.097 218.33 305.046 218.28 304.971C217.726 304.139 217.776 303.005 218.28 301.619C220.017 297.058 227.193 290.002 236.308 284.004C243.56 279.216 250.711 275.89 255.672 274.856C258.542 274.277 260.683 274.453 261.715 275.562L261.967 275.864C264.334 279.493 256.729 289.321 244.92 297.108Z" fill="#FE5244"/>
<path d="M244.92 297.108C238.298 301.468 231.474 304.567 226.337 305.777L203.348 273.319C200.15 268.783 201.207 262.509 205.765 259.308L226.463 244.743L214.729 224.759C213.017 221.861 213.999 218.106 216.92 216.418C217.877 215.863 218.909 215.611 219.941 215.611C221.931 215.611 223.895 216.594 225.053 218.409L261.74 275.512L261.992 275.915C264.334 279.493 256.729 289.321 244.92 297.108Z" fill="#E57281"/>
<path d="M226.413 244.969L239.229 264.852C240.413 266.717 239.884 269.186 238.021 270.396L235.175 272.261C233.312 273.496 230.794 272.967 229.585 271.102L217.474 252.958" stroke="#9A3B82" stroke-width="6" stroke-miterlimit="10" stroke-linecap="round"/>
<path d="M229.535 271.051C230.769 272.941 230.215 275.487 228.326 276.696L225.733 278.334C223.869 279.519 221.402 278.989 220.193 277.15" stroke="#9A3B82" stroke-width="6" stroke-miterlimit="10" stroke-linecap="round"/>
<path d="M208.283 259.359L220.143 276.999C221.377 278.889 220.848 281.434 218.909 282.643L216.492 283.979C214.679 285.138 212.287 284.659 211.028 282.895L204.153 273.193" stroke="#9A3B82" stroke-width="6" stroke-miterlimit="10" stroke-linecap="round"/>
<path d="M253.179 262.206L247.161 252.857C245.172 249.757 241.017 248.901 237.97 250.967L223.039 261.097C223.039 261.097 227.37 268.884 237.895 262.71L241.42 268.33C234.218 272.891 232.154 282.492 236.837 289.624L253.179 262.206Z" fill="#E57281"/>
<path d="M252.399 262.458L246.381 253.109C244.391 250.01 240.237 249.153 237.19 251.219L223.039 261.098C223.039 261.098 227.37 268.884 237.895 262.71L241.42 268.33C234.219 272.891 232.154 282.492 236.837 289.624" stroke="#9A3B82" stroke-width="6" stroke-miterlimit="10" stroke-linecap="round"/>
<path d="M244.92 297.108C238.298 301.468 231.474 304.567 226.337 305.777L220.621 297.713C223.819 293.53 229.535 288.49 236.308 284.029C243.56 279.241 250.711 275.915 255.672 274.882C258.542 274.302 260.683 274.479 261.715 275.587L261.967 275.89C261.992 275.94 262.017 275.965 262.042 276.016C262.067 276.041 262.067 276.066 262.093 276.117C262.118 276.167 262.143 276.192 262.168 276.243C263.88 280.098 256.352 289.548 244.92 297.108Z" fill="#9A3B82"/>
<path d="M422.539 264.6V286.751C422.539 293.177 413.625 298.368 402.672 298.368C391.694 298.368 382.805 293.177 382.805 286.751V264.6H422.539Z" fill="#E57281"/>
<path d="M388.622 294.966C385.022 292.874 382.781 289.951 382.781 286.751V264.6H422.54V270.749C422.54 277.124 418.662 282.845 412.77 285.239L388.622 294.966Z" fill="#9A3B82"/>
<path d="M433.619 263.29V263.668C433.619 267.498 430.522 270.598 426.695 270.598H422.137C420.601 276.797 415.011 281.408 408.313 281.408H397.032C390.36 281.408 384.745 276.822 383.234 270.598H378.676C374.849 270.598 371.752 267.498 371.752 263.668V263.29C371.752 259.459 374.849 256.36 378.676 256.36H382.806V250.891C382.806 245.045 387.111 240.206 392.727 239.4C393.96 241.466 397.687 246.406 405.292 246.128C408.867 246.002 412.191 245.322 414.936 244.516C418.234 243.558 421.533 245.574 422.364 248.724C422.49 249.43 422.565 250.135 422.565 250.866V256.334H426.695C430.497 256.334 433.619 259.459 433.619 263.29Z" fill="#E57281"/>
<path d="M425.712 256.334H422.54V250.261C422.54 249.732 422.464 249.203 422.338 248.724C421.507 245.574 418.209 243.558 414.91 244.516C412.165 245.322 408.867 246.002 405.266 246.128C397.662 246.406 393.935 241.466 392.701 239.4C387.086 240.206 382.78 245.045 382.78 250.891V256.36H378.827C378.827 256.36 374.295 239.954 377.694 235.318C381.043 230.756 385.072 232.747 385.072 232.747C385.072 232.747 382.655 219.089 396.151 219.341C409.622 219.593 427.147 235.242 428.432 238.115C430.446 242.525 425.712 256.334 425.712 256.334Z" fill="#9A3B82"/>
<path d="M424.075 264.575C424.075 261.878 426.266 259.711 428.935 259.711" stroke="#9A3B82" stroke-width="5" stroke-miterlimit="10" stroke-linecap="round"/>
<path d="M381.32 264.575C381.32 261.878 379.129 259.711 376.46 259.711" stroke="#9A3B82" stroke-width="5" stroke-miterlimit="10" stroke-linecap="round"/>
<path d="M416.194 250.891C416.194 250.891 412.619 248.27 408.061 250.16" stroke="#9A3B82" stroke-width="5" stroke-miterlimit="10" stroke-linecap="round"/>
<path d="M388.899 250.891C388.899 250.891 392.475 248.27 397.032 250.16" stroke="#9A3B82" stroke-width="5" stroke-miterlimit="10" stroke-linecap="round"/>
<path d="M408.942 269.489C408.942 269.489 407.004 273.672 401.061 271.48" stroke="#9A3B82" stroke-width="5" stroke-miterlimit="10" stroke-linecap="round"/>
<path d="M400.784 267.322C402.32 267.422 404.662 267.322 404.662 267.322" stroke="#9A3B82" stroke-width="5" stroke-miterlimit="10" stroke-linecap="round"/>
<path d="M412.14 261.4C412.836 261.4 413.399 260.452 413.399 259.283C413.399 258.114 412.836 257.166 412.14 257.166C411.445 257.166 410.881 258.114 410.881 259.283C410.881 260.452 411.445 261.4 412.14 261.4Z" fill="#9A3B82"/>
<path d="M394.086 261.4C394.781 261.4 395.345 260.452 395.345 259.283C395.345 258.114 394.781 257.166 394.086 257.166C393.391 257.166 392.827 258.114 392.827 259.283C392.827 260.452 393.391 261.4 394.086 261.4Z" fill="#9A3B82"/>
<path d="M397.083 266.415H389.151C387.615 266.415 386.381 265.18 386.381 263.643V255.705C386.381 254.167 387.615 252.933 389.151 252.933H397.083C398.619 252.933 399.852 254.167 399.852 255.705V263.643C399.878 265.155 398.619 266.415 397.083 266.415Z" stroke="white" stroke-width="5" stroke-miterlimit="10"/>
<path d="M416.496 266.415H408.565C407.029 266.415 405.795 265.18 405.795 263.643V255.705C405.795 254.167 407.029 252.933 408.565 252.933H416.496C418.032 252.933 419.266 254.167 419.266 255.705V263.643C419.266 265.155 418.032 266.415 416.496 266.415Z" stroke="white" stroke-width="5" stroke-miterlimit="10"/>
<path d="M399.878 258.174H405.795" stroke="white" stroke-width="5" stroke-miterlimit="10"/>
<path d="M418.586 368.273H391.065C388.572 368.273 386.532 366.257 386.532 363.737V349.096C386.532 346.601 388.547 344.56 391.065 344.56H418.586C421.079 344.56 423.119 346.576 423.119 349.096V363.737C423.119 366.232 421.104 368.273 418.586 368.273Z" stroke="#66B0F0" stroke-width="6" stroke-miterlimit="10" stroke-linejoin="round"/>
<path d="M405.518 362.376H396.201C394.716 362.376 393.507 361.167 393.507 359.68V353.153C393.507 351.666 394.716 350.457 396.201 350.457H405.518C407.004 350.457 408.212 351.666 408.212 353.153V359.68C408.212 361.167 407.004 362.376 405.518 362.376Z" fill="#66B0F0"/>
<path d="M414.583 362.2L411.712 360.284C410.932 359.755 410.453 358.848 410.453 357.865V354.992C410.453 354.01 410.932 353.102 411.712 352.573L414.583 350.658C415.263 350.204 416.144 350.708 416.144 351.565V361.318C416.169 362.149 415.263 362.653 414.583 362.2Z" fill="#66B0F0"/>
<path d="M786.668 450.752H118.214" stroke="#3FB1B5" stroke-width="6" stroke-miterlimit="10" stroke-linecap="round"/>
<path d="M333.428 455.163V766.282H315.877V707.062C315.877 701.543 311.395 697.057 305.881 697.057H180.258C174.743 697.057 170.261 701.543 170.261 707.062V766.282H152.711V455.163H333.428Z" fill="white" stroke="#3FB1B5" stroke-width="6" stroke-miterlimit="10" stroke-linecap="round"/>
<path d="M333.956 455.163V537.718L152.711 687.078L152.736 455.163H333.956Z" fill="#D0F0E4"/>
<path d="M315.877 478.85V535.273C315.877 540.515 311.647 544.748 306.409 544.748H179.754C174.516 544.748 170.286 540.515 170.286 535.273V478.85C170.286 473.609 174.516 469.375 179.754 469.375H306.409C311.647 469.375 315.877 473.609 315.877 478.85Z" stroke="#3FB1B5" stroke-width="6" stroke-miterlimit="10" stroke-linecap="round"/>
<path d="M275.287 587.488H212.941L210.348 569.621H272.719L275.287 587.488Z" fill="#FFCF2D"/>
<path d="M308.55 559.314C300.769 559.314 294.474 565.614 294.474 573.401V587.488H241.42V573.401C241.42 565.614 247.715 559.314 255.495 559.314H308.55Z" fill="white" stroke="#3FB1B5" stroke-width="6" stroke-miterlimit="10" stroke-linecap="round"/>
<path d="M321.769 569.621H268.715C267.078 563.674 261.614 559.314 255.143 559.314H308.197C314.668 559.314 320.107 563.674 321.769 569.621Z" fill="white" stroke="#3FB1B5" stroke-width="6" stroke-miterlimit="10" stroke-linecap="round"/>
<path d="M315.877 596.963V653.386C315.877 658.627 311.647 662.861 306.409 662.861H179.754C174.516 662.861 170.286 658.627 170.286 653.386V596.963C170.286 591.721 174.516 587.488 179.754 587.488H306.409C311.647 587.488 315.877 591.721 315.877 596.963Z" stroke="#3FB1B5" stroke-width="6" stroke-miterlimit="10" stroke-linecap="round"/>
<path d="M217.146 505.941C217.146 501.455 220.772 497.801 225.28 497.801H260.909C265.391 497.801 269.042 501.43 269.042 505.941" stroke="#3FB1B5" stroke-width="6" stroke-miterlimit="10" stroke-linecap="round"/>
<path d="M217.146 624.053C217.146 619.567 220.772 615.913 225.28 615.913H260.909C265.391 615.913 269.042 619.542 269.042 624.053" stroke="#3FB1B5" stroke-width="6" stroke-miterlimit="10" stroke-linecap="round"/>
<path d="M760.052 455.163H741.344V766.962H760.052V455.163Z" fill="white" stroke="#3FB1B5" stroke-width="6" stroke-miterlimit="10" stroke-linecap="round"/>
<path d="M442.104 766.962H832.546" stroke="#3FB1B5" stroke-width="6" stroke-miterlimit="10" stroke-linecap="round"/>
<path d="M205.84 407.988H194.535C194.535 407.988 178.394 340.679 164.218 338.486C150.042 336.294 149.311 362.199 149.311 362.199C149.311 362.199 149.563 322.812 184.991 328.205C220.445 333.598 205.84 407.988 205.84 407.988Z" fill="white" stroke="#3FB1B5" stroke-width="6" stroke-miterlimit="10" stroke-linecap="round"/>
<path d="M167.114 329.918C167.114 329.918 199.42 317.974 200.88 406.98" stroke="#3FB1B5" stroke-width="6" stroke-miterlimit="10" stroke-linecap="round"/>
<path d="M236.635 406.98H183.531V450.248H236.635V406.98Z" fill="#FE5244"/>
<path d="M247.816 428.627C244.441 430.088 240.413 429.912 236.661 428.274C233.891 427.064 231.272 425.074 229.157 422.352C226.236 418.572 224.272 413.406 224.272 406.98C224.272 391.406 211.884 381.629 206.797 402.242C206.445 403.679 206.117 405.241 205.84 406.98V406.93V406.829C205.84 406.778 205.84 406.703 205.866 406.627V406.526C205.966 405.241 206.344 401.436 207.502 396.85C208.358 393.448 209.643 389.668 211.556 386.165C212.513 384.426 213.621 382.763 214.93 381.276C218.304 377.395 222.938 374.674 229.258 374.674C240.891 374.674 249.402 388.382 252.65 402.041C255.495 413.91 254.337 425.779 247.816 428.627Z" fill="white" stroke="#3FB1B5" stroke-width="6" stroke-miterlimit="10" stroke-linecap="round"/>
<path d="M214.956 381.276C214.956 381.276 238.272 364.669 245.121 429.106" stroke="#3FB1B5" stroke-width="6" stroke-miterlimit="10" stroke-linecap="round"/>
<path d="M148.556 362.199C148.556 366.357 148.077 382.259 163.236 382.989C178.394 383.72 179.905 360.813 179.905 360.813C179.905 360.813 172.452 340.553 164.218 338.486C150.293 334.984 148.556 362.199 148.556 362.199Z" fill="#3FB1B5"/>
<path d="M224.272 406.98H205.84C210.096 380.293 224.272 390.323 224.272 406.98Z" fill="#3FB1B5"/>
<path opacity="0.4" d="M537.285 210.975V377.32C537.285 386.266 530.033 393.498 521.119 393.498H330.884C318.949 409.954 294.348 410.029 282.312 393.498L282.287 393.473C277.503 393.145 273.273 390.701 270.553 387.097L274.934 383.317L386.734 286.751L493.195 194.796H521.119C530.033 194.796 537.285 202.054 537.285 210.975Z" fill="white"/>
<path opacity="0.4" d="M247.816 429.383C244.467 430.895 240.413 430.668 236.661 429.03V450.249H197.456L229.182 422.856L236.686 416.38L242.402 411.441L253.456 402.041C256.679 415.8 254.891 426.132 247.816 429.383Z" fill="white"/>
<path d="M41.4653 218.484C41.1631 218.484 40.861 218.282 40.7602 217.98C40.6343 217.577 40.8358 217.148 41.2135 217.022L43.5804 216.191C43.9833 216.065 44.4113 216.266 44.5372 216.644C44.6631 217.048 44.4617 217.476 44.084 217.602L41.7171 218.434C41.6164 218.459 41.5408 218.484 41.4653 218.484ZM47.4078 216.418C47.1056 216.418 46.8035 216.216 46.7027 215.914C46.5768 215.51 46.7783 215.082 47.156 214.956L49.5229 214.124C49.9258 213.998 50.3538 214.2 50.4797 214.578C50.6056 214.981 50.4042 215.41 50.0265 215.536L47.6596 216.367C47.584 216.392 47.4833 216.418 47.4078 216.418ZM53.3502 214.326C53.0481 214.326 52.7459 214.124 52.6452 213.822C52.5193 213.419 52.7207 212.99 53.0984 212.864L55.4654 212.033C55.8683 211.907 56.2963 212.108 56.4222 212.486C56.5481 212.89 56.3467 213.318 55.969 213.444L53.602 214.276C53.5265 214.326 53.4258 214.326 53.3502 214.326ZM59.2927 212.26C58.9906 212.26 58.6884 212.058 58.5877 211.756C58.4618 211.352 58.6632 210.924 59.0409 210.798L61.4078 209.966C61.8107 209.84 62.2388 210.042 62.3647 210.42C62.4906 210.823 62.2891 211.252 61.9114 211.378L59.5445 212.209C59.469 212.26 59.3934 212.26 59.2927 212.26ZM65.2352 210.193C64.9331 210.193 64.6309 209.992 64.5302 209.689C64.4043 209.286 64.6057 208.858 64.9834 208.732L67.3503 207.9C67.7532 207.774 68.1813 207.976 68.3072 208.354C68.4331 208.757 68.2316 209.185 67.8539 209.311L65.487 210.143C65.4115 210.193 65.3359 210.193 65.2352 210.193ZM71.2029 208.127C70.9007 208.127 70.5985 207.925 70.4978 207.623C70.3719 207.22 70.5734 206.791 70.9511 206.665L73.318 205.834C73.7209 205.708 74.1489 205.909 74.2748 206.287C74.4007 206.69 74.1993 207.119 73.8216 207.245L71.4547 208.076C71.354 208.127 71.2784 208.127 71.2029 208.127ZM77.1453 206.06C76.8432 206.06 76.541 205.859 76.4403 205.556C76.3144 205.153 76.5158 204.725 76.8935 204.599L79.2605 203.767C79.6634 203.641 80.0914 203.843 80.2173 204.221C80.3432 204.624 80.1418 205.052 79.7641 205.178L77.3971 206.01C77.2964 206.035 77.2209 206.06 77.1453 206.06ZM83.0878 203.994C82.7857 203.994 82.4835 203.792 82.3828 203.49C82.2569 203.087 82.4583 202.658 82.836 202.532L85.2029 201.701C85.6058 201.575 86.0339 201.776 86.1598 202.154C86.2857 202.558 86.0842 202.986 85.7065 203.112L83.3396 203.944C83.2389 203.969 83.1634 203.994 83.0878 203.994ZM89.0303 201.928C88.7282 201.928 88.426 201.726 88.3253 201.424C88.1994 201.02 88.4008 200.592 88.7785 200.466L91.1454 199.634C91.5483 199.508 91.9764 199.71 92.1023 200.088C92.2282 200.491 92.0267 200.92 91.649 201.046L89.2821 201.877C89.2066 201.902 89.1059 201.928 89.0303 201.928ZM94.9728 199.861C94.6706 199.861 94.3685 199.66 94.2677 199.357C94.1418 198.954 94.3433 198.526 94.721 198.4L97.0879 197.568C97.4908 197.442 97.9188 197.644 98.0447 198.022C98.1706 198.425 97.9692 198.853 97.5915 198.979L95.2246 199.811C95.1491 199.836 95.0483 199.861 94.9728 199.861ZM100.915 197.795C100.613 197.795 100.311 197.593 100.21 197.291C100.084 196.888 100.286 196.459 100.663 196.333L103.03 195.502C103.433 195.376 103.861 195.577 103.987 195.955C104.113 196.358 103.912 196.787 103.534 196.913L101.167 197.744C101.092 197.77 100.991 197.795 100.915 197.795ZM106.858 195.703C106.556 195.703 106.253 195.502 106.153 195.199C106.027 194.796 106.228 194.368 106.606 194.242L108.973 193.41C109.376 193.284 109.804 193.486 109.93 193.864C110.056 194.267 109.854 194.695 109.476 194.821L107.11 195.653C107.034 195.703 106.958 195.703 106.858 195.703ZM112.8 193.637C112.498 193.637 112.196 193.435 112.095 193.133C111.969 192.73 112.171 192.301 112.548 192.175L114.915 191.344C115.318 191.218 115.746 191.419 115.872 191.797C115.998 192.2 115.797 192.629 115.419 192.755L113.052 193.586C112.976 193.637 112.901 193.637 112.8 193.637ZM118.768 191.57C118.466 191.57 118.164 191.369 118.063 191.066C117.937 190.663 118.138 190.235 118.516 190.109L120.883 189.277C121.286 189.151 121.714 189.353 121.84 189.731C121.966 190.134 121.764 190.562 121.387 190.688L119.02 191.52C118.919 191.57 118.843 191.57 118.768 191.57ZM124.71 189.504C124.408 189.504 124.106 189.302 124.005 189C123.879 188.597 124.081 188.168 124.459 188.042L126.826 187.211C127.228 187.085 127.656 187.286 127.782 187.664C127.908 188.068 127.707 188.496 127.329 188.622L124.962 189.454C124.861 189.504 124.786 189.504 124.71 189.504ZM130.653 187.438C130.351 187.438 130.049 187.236 129.948 186.934C129.822 186.53 130.023 186.102 130.401 185.976L132.768 185.144C133.171 185.018 133.599 185.22 133.725 185.598C133.851 186.001 133.649 186.43 133.272 186.556L130.905 187.387C130.804 187.438 130.728 187.438 130.653 187.438ZM136.595 185.371C136.293 185.371 135.991 185.17 135.89 184.867C135.764 184.464 135.966 184.036 136.344 183.91L138.71 183.078C139.113 182.952 139.541 183.154 139.667 183.532C139.793 183.935 139.592 184.363 139.214 184.489L136.847 185.321C136.772 185.346 136.671 185.371 136.595 185.371ZM142.538 183.305C142.236 183.305 141.933 183.103 141.833 182.801C141.707 182.398 141.908 181.969 142.286 181.843L144.653 181.012C145.056 180.886 145.484 181.087 145.61 181.465C145.736 181.868 145.534 182.297 145.157 182.423L142.79 183.254C142.714 183.28 142.613 183.305 142.538 183.305Z" fill="#FFCF2D"/>
<path d="M68.2569 218.484C67.8289 218.484 67.5015 218.156 67.5015 217.728C67.5015 210.899 65.3864 205.934 61.1813 203.011C58.0338 200.819 54.8359 200.617 54.8108 200.617C54.3827 200.592 54.0805 200.239 54.1057 199.811C54.1309 199.382 54.4834 199.08 54.8863 199.105C55.0374 199.105 58.4871 199.307 61.9871 201.726C67.8037 205.758 69.0123 212.663 69.0123 217.728C69.0123 218.131 68.685 218.484 68.2569 218.484Z" fill="#3FB1B5"/>
<path d="M188.567 218.484H41.4653C41.1884 218.484 40.9114 218.333 40.7855 218.056C40.6596 217.804 40.6848 217.501 40.861 217.274L100.638 137.516C100.764 137.34 100.966 137.239 101.167 137.214C101.369 137.189 101.595 137.264 101.746 137.416L189.096 217.174C189.322 217.375 189.398 217.703 189.297 218.005C189.171 218.282 188.894 218.484 188.567 218.484ZM42.9761 216.972H186.628L101.343 139.079L42.9761 216.972Z" fill="#3FB1B5"/>
<path d="M28.2459 223.726C24.6451 223.726 21.7242 220.803 21.7242 217.199C21.7242 213.595 24.6451 210.672 28.2459 210.672C31.8466 210.672 34.7675 213.595 34.7675 217.199C34.7675 220.803 31.8466 223.726 28.2459 223.726ZM28.2459 212.159C25.4761 212.159 23.235 214.402 23.235 217.174C23.235 219.946 25.4761 222.189 28.2459 222.189C31.0157 222.189 33.2567 219.946 33.2567 217.174C33.2567 214.402 31.0157 212.159 28.2459 212.159Z" fill="#FFCF2D"/>
<path d="M34.7675 217.199H33.2567V222.97H34.7675V217.199Z" fill="#FFCF2D"/>
<path d="M105.699 132.552C102.099 132.552 99.1779 129.629 99.1779 126.025C99.1779 122.422 102.099 119.499 105.699 119.499C109.3 119.499 112.221 122.422 112.221 126.025C112.221 129.604 109.3 132.552 105.699 132.552ZM105.699 120.985C102.93 120.985 100.689 123.228 100.689 126C100.689 128.772 102.93 131.04 105.699 131.04C108.469 131.04 110.71 128.797 110.71 126.025C110.71 123.253 108.469 120.985 105.699 120.985Z" fill="#FFCF2D"/>
<path d="M100.638 115.92H99.1276V131.771H100.638V115.92Z" fill="#FFCF2D"/>
<path d="M200.326 223.575C196.725 223.575 193.805 220.651 193.805 217.048C193.805 213.444 196.725 210.521 200.326 210.521V212.033C197.556 212.033 195.315 214.276 195.315 217.048C195.315 219.82 197.556 222.063 200.326 222.063V223.575Z" fill="#FFCF2D"/>
<path d="M581.677 541.346V681.61H549.296L528.673 623.977L499.137 541.346H581.677Z" fill="#A0505A"/>
<path d="M499.137 541.346H581.677V586.379L508.957 568.789L499.137 541.346Z" fill="#73325A"/>
<path d="M581.677 623.977V681.61H549.296L528.673 623.977C528.673 623.977 545.367 633.2 581.677 623.977Z" stroke="white" stroke-width="6" stroke-miterlimit="10" stroke-linecap="round"/>
<path d="M545.519 637.51C547.549 637.51 549.195 635.863 549.195 633.831C549.195 631.799 547.549 630.151 545.519 630.151C543.488 630.151 541.842 631.799 541.842 633.831C541.842 635.863 543.488 637.51 545.519 637.51Z" stroke="white" stroke-width="6" stroke-miterlimit="10" stroke-linecap="round"/>
<path d="M563.044 649.379C565.074 649.379 566.72 647.732 566.72 645.7C566.72 643.668 565.074 642.021 563.044 642.021C561.014 642.021 559.368 643.668 559.368 645.7C559.368 647.732 561.014 649.379 563.044 649.379Z" stroke="white" stroke-width="6" stroke-miterlimit="10" stroke-linecap="round"/>
<path d="M576.087 636.199C578.117 636.199 579.763 634.552 579.763 632.52C579.763 630.488 578.117 628.841 576.087 628.841C574.056 628.841 572.41 630.488 572.41 632.52C572.41 634.552 574.056 636.199 576.087 636.199Z" stroke="white" stroke-width="6" stroke-miterlimit="10" stroke-linecap="round"/>
<path d="M570.925 663.189C572.956 663.189 574.601 661.541 574.601 659.509C574.601 657.477 572.956 655.83 570.925 655.83C568.895 655.83 567.249 657.477 567.249 659.509C567.249 661.541 568.895 663.189 570.925 663.189Z" stroke="white" stroke-width="6" stroke-miterlimit="10" stroke-linecap="round"/>
<path d="M549.195 656.485C551.225 656.485 552.871 654.838 552.871 652.806C552.871 650.774 551.225 649.127 549.195 649.127C547.164 649.127 545.519 650.774 545.519 652.806C545.519 654.838 547.164 656.485 549.195 656.485Z" stroke="white" stroke-width="6" stroke-miterlimit="10" stroke-linecap="round"/>
<path d="M555.188 676.645C557.218 676.645 558.864 674.998 558.864 672.966C558.864 670.934 557.218 669.287 555.188 669.287C553.157 669.287 551.511 670.934 551.511 672.966C551.511 674.998 553.157 676.645 555.188 676.645Z" stroke="white" stroke-width="6" stroke-miterlimit="10" stroke-linecap="round"/>
<path d="M596.987 707.767L574.778 753.908C571.63 761.342 564.353 766.181 556.27 766.181H527.943C520.691 766.181 516.285 758.822 519.054 752.119L547.533 683.374C549.119 679.19 551.914 675.713 555.414 673.268C558.94 670.824 563.17 669.438 567.627 669.438C573.821 669.438 579.965 673.646 584.044 678.308L593.915 688.968C598.472 694.159 599.656 701.442 596.987 707.767Z" fill="#66B0F0"/>
<path d="M596.987 707.767L574.778 753.908C571.63 761.342 564.353 766.181 556.271 766.181H526.155C523.36 766.181 521.774 764.442 520.842 762.048H527.54C535.623 762.048 542.9 757.21 546.048 749.776L571.656 696.326C574.048 691.337 579.109 688.136 584.648 688.136C591.875 688.136 597.364 693.428 598.372 700.132C598.472 702.702 598.019 705.298 596.987 707.767Z" fill="white" stroke="#66B0F0" stroke-width="6" stroke-miterlimit="10" stroke-linejoin="round"/>
<path d="M591.875 686.75C589.206 685.289 585.983 684.23 583.163 684.23C577.749 684.23 572.738 687.38 570.397 692.269L543.882 747.608C540.508 755.597 532.702 760.763 524.015 760.763H519.13C518.878 760.284 518.702 759.78 518.526 759.251H524.015C532.098 759.251 539.35 754.437 542.497 747.003L542.522 746.978L569.062 691.614C571.656 686.196 577.195 682.718 583.188 682.718C585.102 682.718 587.393 683.348 589.357 684.029L591.875 686.75Z" fill="white"/>
<path d="M499.137 541.346L492.817 623.977L489.997 660.996C489.997 660.996 471.59 681.509 450.64 668.858L440.946 624.002L418.763 521.363C412.77 493.618 431.705 466.628 459.831 462.874L499.137 541.346Z" fill="#A0505A"/>
<path d="M492.817 623.977L489.997 662.003C489.997 662.003 471.59 682.516 450.64 669.866L440.946 624.002C465.295 631.31 492.817 623.977 492.817 623.977Z" stroke="white" stroke-width="6" stroke-miterlimit="10" stroke-linecap="round"/>
<path d="M463.885 646.834C465.915 646.834 467.561 645.186 467.561 643.154C467.561 641.122 465.915 639.475 463.885 639.475C461.855 639.475 460.209 641.122 460.209 643.154C460.209 645.186 461.855 646.834 463.885 646.834Z" stroke="white" stroke-width="6" stroke-miterlimit="10" stroke-linecap="round"/>
<path d="M487.252 641.189C489.282 641.189 490.928 639.541 490.928 637.509C490.928 635.477 489.282 633.83 487.252 633.83C485.222 633.83 483.576 635.477 483.576 637.509C483.576 639.541 485.222 641.189 487.252 641.189Z" stroke="white" stroke-width="6" stroke-miterlimit="10" stroke-linecap="round"/>
<path d="M449.784 636.199C451.814 636.199 453.46 634.552 453.46 632.52C453.46 630.488 451.814 628.841 449.784 628.841C447.754 628.841 446.108 630.488 446.108 632.52C446.108 634.552 447.754 636.199 449.784 636.199Z" stroke="white" stroke-width="6" stroke-miterlimit="10" stroke-linecap="round"/>
<path d="M460.208 666.867C462.239 666.867 463.885 665.22 463.885 663.188C463.885 661.156 462.239 659.509 460.208 659.509C458.178 659.509 456.532 661.156 456.532 663.188C456.532 665.22 458.178 666.867 460.208 666.867Z" stroke="white" stroke-width="6" stroke-miterlimit="10" stroke-linecap="round"/>
<path d="M477.356 659.509C479.386 659.509 481.032 657.862 481.032 655.83C481.032 653.798 479.386 652.151 477.356 652.151C475.326 652.151 473.68 653.798 473.68 655.83C473.68 657.862 475.326 659.509 477.356 659.509Z" stroke="white" stroke-width="6" stroke-miterlimit="10" stroke-linecap="round"/>
<path d="M514.27 669.816L489.997 766.962H482.342C481.99 766.962 481.662 766.937 481.31 766.911C475.518 766.382 470.633 761.493 469.399 755.723L450.615 668.808C471.565 681.484 489.997 660.971 489.997 660.971L514.27 669.816Z" fill="#66B0F0"/>
<path d="M515.504 719.662C520.615 692.647 522.025 672.008 513.213 670.345C504.4 668.682 488.713 686.599 483.601 713.613C478.49 740.628 481.159 764.518 489.972 766.181C498.784 767.869 510.392 746.701 515.504 719.662Z" fill="white" stroke="#66B0F0" stroke-width="6" stroke-miterlimit="10" stroke-linejoin="round"/>
<path d="M480.076 713.185C477.432 727.196 476.651 740.729 477.91 751.313C478.817 758.923 480.731 764.341 483.349 766.962H482.342C481.99 766.962 481.662 766.937 481.31 766.912C478.943 763.787 477.256 758.545 476.4 751.489C475.115 740.779 475.896 727.07 478.59 712.908C481.133 699.502 486.27 686.927 493.094 677.477C497.173 671.832 501.454 667.876 505.357 666.086L507.623 666.842C498.634 669.514 484.986 687.254 480.076 713.185Z" fill="white"/>
<path d="M459.831 462.848L574.702 451.004L689.523 483.235L688.541 498.506C686.979 522.597 666.231 541.346 642.109 541.346H499.162L459.831 462.848Z" fill="#FE5244"/>
<path d="M682.977 482.126C682.977 504 661.171 530.763 637.048 530.763H494.101" stroke="white" stroke-width="6" stroke-miterlimit="10" stroke-linecap="round" stroke-linejoin="round"/>
<path d="M669.354 477.767C665.778 497.296 646.692 518.162 625.792 518.162H488.309" stroke="white" stroke-width="6" stroke-miterlimit="10" stroke-linecap="round" stroke-linejoin="round"/>
<path d="M653.869 473.13C647.825 489.711 631.433 505.31 613.681 505.31H481.008" stroke="white" stroke-width="6" stroke-miterlimit="10" stroke-linecap="round" stroke-linejoin="round"/>
<path d="M641.958 469.879C634.026 481.95 621.008 491.45 607.134 491.45H474.461" stroke="white" stroke-width="6" stroke-miterlimit="10" stroke-linecap="round" stroke-linejoin="round"/>
<path d="M628.663 466.15C621.033 473.836 611.163 478.851 600.839 478.851H468.166" stroke="white" stroke-width="6" stroke-miterlimit="10" stroke-linecap="round" stroke-linejoin="round"/>
<path d="M611.365 461.135C605.976 464.184 600.084 465.998 594.041 465.998H461.367" stroke="white" stroke-width="6" stroke-miterlimit="10" stroke-linecap="round" stroke-linejoin="round"/>
<path d="M498.885 541.346L459.579 462.848" stroke="white" stroke-width="6" stroke-miterlimit="10" stroke-linecap="round" stroke-linejoin="round"/>
<path d="M695.818 378.051C684.991 381.125 674.34 380.218 673.207 376.917C672.149 373.767 676.933 368.374 686.627 364.795C687.106 364.619 687.609 364.443 688.113 364.266C691.034 363.283 693.955 362.653 696.699 362.326C704.833 361.293 711.455 362.754 712.286 365.224C713.419 368.525 707.275 374.8 695.818 378.051Z" fill="white" stroke="#3FB1B5" stroke-width="6" stroke-miterlimit="10" stroke-linejoin="round"/>
<path d="M688.969 451.534H684.814L673.912 377.874V377.824L673.635 375.984C674.163 372.633 679.401 367.895 688.642 364.821C693.25 363.283 697.833 362.603 701.735 362.527L705.714 373.439L706.092 374.472L718.682 409.021C726.236 429.66 710.951 451.534 688.969 451.534Z" fill="#A0505A"/>
<path d="M705.966 374.22C703.322 375.883 699.897 377.421 695.818 378.58C686.451 381.226 676.958 380.142 673.912 377.874V377.824L673.635 375.984C674.163 372.633 679.401 367.895 688.642 364.821C693.25 363.283 697.832 362.603 701.735 362.527L705.966 374.22Z" fill="#73325A"/>
<path d="M554.105 390.928L540.885 423.839C534.364 440.093 518.601 450.752 501.076 450.752H323.381V434.473C323.381 430.542 325.798 427.014 329.474 425.628L347.73 418.698C349.392 418.068 351.129 417.74 352.892 417.74H373.615L490.903 405.896L511.148 359.503L554.105 390.928Z" fill="#A0505A"/>
<path d="M342.517 428.703L328.744 433.919C325.974 434.977 324.136 437.623 324.136 440.597" stroke="#73325A" stroke-width="6" stroke-miterlimit="10" stroke-linecap="round"/>
<path d="M342.517 437.019L328.744 442.235C325.974 443.293 324.136 445.939 324.136 448.913" stroke="#73325A" stroke-width="6" stroke-miterlimit="10" stroke-linecap="round"/>
<path d="M342.517 445.032L328.744 449.997" stroke="#73325A" stroke-width="6" stroke-miterlimit="10" stroke-linecap="round"/>
<path d="M341.082 421.495C341.082 421.495 353.974 388.559 358.104 389.113C362.233 389.668 346.672 419.379 346.672 419.379L341.082 421.495Z" fill="#FE5244"/>
<path d="M511.148 359.528L508.177 366.307L546.224 410.533L554.105 390.928L511.148 359.528Z" fill="#73325A"/>
<path d="M673.912 377.899L689.523 483.235L574.728 451.004L554.105 390.902L500.875 351.968L519.558 329.691C536.227 309.809 560.828 298.317 586.764 298.317H623.652C655.732 298.317 685.268 315.857 700.653 344.03L712.614 364.745C712.614 364.745 709.013 359.453 689.599 364.77C672.502 369.482 673.912 377.899 673.912 377.899Z" fill="#3FB1B5"/>
<path d="M554.105 390.423L560.073 364.518" stroke="white" stroke-width="6" stroke-miterlimit="10" stroke-linecap="round" stroke-linejoin="round"/>
<path d="M686.627 458.64L667.214 337.856" stroke="white" stroke-width="6" stroke-miterlimit="10" stroke-linecap="round" stroke-linejoin="round"/>
<path d="M574.703 450.525L689.271 483.235" stroke="white" stroke-width="6" stroke-miterlimit="10" stroke-linecap="round" stroke-linejoin="round"/>
<path d="M580.897 281.484V298.418L610.76 298.166V268.279L580.897 281.484Z" fill="#A0505A"/>
<path d="M613.177 263.063V263.517C613.177 268.053 609.753 271.732 605.22 271.732H603.458C602.325 276.217 592.253 281.459 585.101 281.459H576.767C567.652 281.459 560.677 273.269 562.163 264.247L562.566 261.803L560.098 260.417C558.688 259.611 558.285 257.771 559.267 256.461L564.605 249.405L565.763 242.449C566.695 236.729 570.447 232.067 575.432 229.774C577.396 251.925 596.936 254.545 602.098 254.848H604.968C609.501 254.848 613.177 258.527 613.177 263.063Z" fill="#A0505A"/>
<path d="M599.958 265.23C599.958 261.652 602.853 258.754 606.429 258.754" stroke="#73325A" stroke-width="6" stroke-miterlimit="10" stroke-linecap="round"/>
<path d="M572.663 255.074C573.372 255.074 573.947 253.743 573.947 252.101C573.947 250.459 573.372 249.127 572.663 249.127C571.953 249.127 571.378 250.459 571.378 252.101C571.378 253.743 571.953 255.074 572.663 255.074Z" fill="#73325A"/>
<path d="M570.699 242.903C570.699 242.903 574.249 242.55 577.9 247.59" stroke="#73325A" stroke-width="6" stroke-miterlimit="10" stroke-linecap="round"/>
<path d="M602.098 254.847H604.969C609.501 254.847 613.177 258.527 613.177 263.063V263.516C613.177 268.052 609.753 271.731 605.221 271.731L603.282 273.092C595.123 278.334 583.843 298.947 586.613 313.538C589.735 329.943 604.012 333.597 617.206 331.077C630.4 328.557 640.019 320.871 636.897 304.441C636.544 302.501 635.965 300.56 635.235 298.645C635.462 298.721 635.663 298.796 635.89 298.872C651.753 303.206 670.386 303.71 675.523 291.312C680.66 278.913 679.501 266.641 664.066 260.24C655.102 256.511 642.915 256.536 633.472 259.106C638.231 242.55 629.771 224.129 614.235 222.289C589.836 219.391 575.836 229.471 575.458 229.748C575.433 232.671 577.422 253.411 602.098 254.847Z" fill="#73325A"/>
<path d="M634.102 258.527C632.113 265.003 628.008 271.933 621.336 276.645C621.336 276.645 633.12 284.432 635.89 298.897" stroke="white" stroke-width="6" stroke-miterlimit="10" stroke-linecap="round" stroke-linejoin="round"/>
<path d="M640.951 257.972H634.279V251.294C634.279 247.792 637.099 244.969 640.599 244.969H640.951C644.452 244.969 647.272 247.792 647.272 251.294V251.647C647.297 255.125 644.452 257.972 640.951 257.972Z" stroke="#FE5244" stroke-width="6" stroke-miterlimit="10" stroke-linejoin="round"/>
<path d="M638.508 264.827L634.228 258.023L641.026 253.739C644.426 251.597 648.933 252.605 651.073 256.007L651.476 256.637C653.616 260.039 652.609 264.55 649.21 266.692L648.58 267.095C645.131 269.237 640.649 268.229 638.508 264.827Z" stroke="#FE5244" stroke-width="6" stroke-miterlimit="10" stroke-linejoin="round"/>
<path d="M599.077 276.973L603.836 272.412L608.494 277.679C610.785 280.325 610.483 284.332 607.839 286.6L607.562 286.826C604.918 289.12 600.915 288.817 598.648 286.171L598.422 285.894C596.13 283.273 596.433 279.266 599.077 276.973Z" stroke="#FE5244" stroke-width="6" stroke-miterlimit="10" stroke-linejoin="round"/>
<path d="M606.026 280.249L603.886 272.513L611.616 270.371C615.494 269.287 619.497 271.555 620.58 275.436L620.781 276.167C621.864 280.048 619.598 284.054 615.72 285.138L614.99 285.34C611.113 286.398 607.109 284.105 606.026 280.249Z" stroke="#FE5244" stroke-width="6" stroke-miterlimit="10" stroke-linejoin="round"/>
<path d="M537.31 560.725L493.446 766.181" stroke="#FFCF2D" stroke-width="6" stroke-miterlimit="10" stroke-linecap="round"/>
<path d="M649.562 560.725L693.426 766.181" stroke="#FFCF2D" stroke-width="6" stroke-miterlimit="10" stroke-linecap="round"/>
<path d="M503.166 720.569H683.102" stroke="#FFCF2D" stroke-width="6" stroke-miterlimit="10" stroke-linecap="round"/>
<path d="M684.085 560.725H502.763C500.472 560.725 498.608 558.86 498.608 556.567V545.504C498.608 543.211 500.472 541.346 502.763 541.346H684.085C686.376 541.346 688.239 543.211 688.239 545.504V556.567C688.239 558.86 686.376 560.725 684.085 560.725Z" fill="white" stroke="#66B0F0" stroke-width="6" stroke-miterlimit="10" stroke-linejoin="round"/>
</svg>
