<svg width="1223" height="876" viewBox="0 0 1223 876" fill="none" xmlns="http://www.w3.org/2000/svg">
<path d="M910.73 793.656H273.462L533.878 175.6H650.314L910.73 793.656Z" fill="#D0F0E4"/>
<path d="M581.053 129.097L592.096 118.06L603.138 129.097" stroke="#FFCF2D" stroke-width="6" stroke-miterlimit="10"/>
<path d="M592.096 118.06V81.0925" stroke="#FFCF2D" stroke-width="6" stroke-miterlimit="10"/>
<path d="M592.096 194.872C601.915 194.872 609.874 186.916 609.874 177.102C609.874 167.288 601.915 159.332 592.096 159.332C582.277 159.332 574.318 167.288 574.318 177.102C574.318 186.916 582.277 194.872 592.096 194.872Z" fill="#FFCF2D" stroke="white" stroke-width="6" stroke-miterlimit="10"/>
<path d="M650.314 175.601H533.903L535.456 168.517C540.564 145.191 564.377 128.271 592.121 128.271C605.993 128.271 618.889 132.501 628.93 139.634C638.996 146.768 646.207 156.829 648.762 168.492L650.314 175.601Z" stroke="#9A3B82" stroke-width="6" stroke-miterlimit="10" stroke-linecap="round"/>
<path d="M771.507 574.206H759.688V648.791H771.507V574.206Z" fill="#66B0F0"/>
<path d="M986.125 648.791H918.843C916.414 648.791 914.536 646.688 914.836 644.286L924.201 565.27C924.452 563.243 926.179 561.716 928.208 561.716H995.49C997.919 561.716 999.797 563.819 999.497 566.221L990.132 645.237C989.881 647.264 988.153 648.791 986.125 648.791Z" fill="#9A3B82"/>
<path d="M949.467 648.791H896.332C893.077 648.791 890.548 645.937 890.924 642.709L897.734 585.168C898.06 582.44 900.389 580.363 903.143 580.363H957.555L949.467 648.791Z" fill="white" stroke="#FFCF2D" stroke-width="6" stroke-miterlimit="10"/>
<path d="M955.426 648.791H904.72C901.465 648.791 898.936 645.937 899.312 642.709L906.123 585.168C906.448 582.44 908.777 580.363 911.531 580.363H962.888C964.516 580.363 965.793 581.789 965.593 583.416L958.131 646.363C957.98 647.764 956.804 648.791 955.426 648.791Z" fill="white" stroke="#FFCF2D" stroke-width="6" stroke-miterlimit="10"/>
<path d="M792.766 585.418H772.259V648.791H792.766V585.418Z" stroke="#9A3B82" stroke-width="6" stroke-miterlimit="10" stroke-linecap="round"/>
<path d="M814.501 585.418H785.63V648.791H814.501V585.418Z" stroke="#9A3B82" stroke-width="6" stroke-miterlimit="10" stroke-linecap="round"/>
<path d="M849.482 648.791H841.494L811.772 578.46H819.76L849.482 648.791Z" stroke="#9A3B82" stroke-width="6" stroke-miterlimit="10" stroke-linecap="round"/>
<path d="M864.706 648.791H849.833L824.242 589.147H839.115L864.706 648.791Z" stroke="#9A3B82" stroke-width="6" stroke-miterlimit="10" stroke-linecap="round"/>
<path d="M758.938 585.418H738.254V648.791H758.938V585.418Z" stroke="#9A3B82" stroke-width="6" stroke-miterlimit="10" stroke-linecap="round"/>
<path d="M834.458 536.838H738.254V549.202H834.458V536.838Z" stroke="#9A3B82" stroke-width="6" stroke-miterlimit="10" stroke-linecap="round"/>
<path d="M860.124 527.377H738.254V537.338H860.124V527.377Z" fill="#FE5244"/>
<path d="M820.511 513.01H738.254V527.127H820.511V513.01Z" fill="#FFCF2D"/>
<path d="M834.458 502.223H738.254V512.76H834.458V502.223Z" stroke="#9A3B82" stroke-width="6" stroke-miterlimit="10" stroke-linecap="round"/>
<path d="M1000.45 474.442L1000.37 474.867L989.005 549.202H883.536L894.905 474.867L895.055 473.816C896.858 470.162 907.875 467.333 921.222 467.333C935.82 467.333 947.639 470.712 947.639 474.867C947.639 470.712 959.458 467.333 974.056 467.333C988.154 467.359 999.647 470.487 1000.45 474.442Z" fill="white" stroke="#FFCF2D" stroke-width="6" stroke-miterlimit="10"/>
<path d="M936.396 549.227L947.664 474.892" stroke="#FFCF2D" stroke-width="6" stroke-miterlimit="10"/>
<path d="M936.396 549.227C936.396 545.072 924.577 541.693 909.979 541.693C895.38 541.693 883.562 545.072 883.562 549.227H936.396Z" fill="#FFCF2D"/>
<path d="M989.23 549.227C989.23 545.072 977.411 541.693 962.813 541.693C948.215 541.693 936.396 545.072 936.396 549.227H989.23Z" fill="#FFCF2D"/>
<path d="M936.797 547.65C936.646 543.496 948.34 539.716 962.938 539.191C972.053 538.865 981.042 540.142 985.775 541.969L997.043 471.163" stroke="#FFCF2D" stroke-width="6" stroke-miterlimit="10" stroke-linecap="round"/>
<path d="M992.035 449.638H897.333V428.564C897.333 426.487 899.011 424.81 901.089 424.81H988.304C990.382 424.81 992.06 426.487 992.06 428.564V449.638H992.035Z" fill="white" stroke="#9A3B82" stroke-width="6" stroke-miterlimit="10" stroke-linecap="round"/>
<path d="M999.597 423.809H917.992C916.715 423.809 915.713 422.782 915.713 421.531V413.146C915.713 411.87 916.74 410.869 917.992 410.869H999.597C1000.87 410.869 1001.88 411.895 1001.88 413.146V421.531C1001.88 422.782 1000.85 423.809 999.597 423.809Z" fill="#FFCF2D"/>
<path d="M1002.78 403.01H905.972V410.869H1002.78V403.01Z" fill="#FE5244"/>
<path d="M1001.02 403.01H927.131C926.155 403.01 925.378 402.209 925.378 401.258V394.926C925.378 393.95 926.18 393.174 927.131 393.174H1001.02C1002 393.174 1002.78 393.975 1002.78 394.926V401.258C1002.78 402.209 1002 403.01 1001.02 403.01Z" fill="white" stroke="#9A3B82" stroke-width="6" stroke-miterlimit="10" stroke-linecap="round"/>
<path d="M797.749 372.325H769.329V449.638H797.749V372.325Z" stroke="#9A3B82" stroke-width="6" stroke-miterlimit="10" stroke-linecap="round"/>
<path d="M769.329 372.325H757.861V449.638H769.329V372.325Z" fill="white" stroke="#9A3B82" stroke-width="6" stroke-miterlimit="10" stroke-linecap="round"/>
<path d="M757.861 372.325H738.58V449.638H757.861V372.325Z" fill="white" stroke="#9A3B82" stroke-width="6" stroke-miterlimit="10" stroke-linecap="round"/>
<path d="M826.42 386.291H801.505V449.663H826.42V386.291Z" stroke="#9A3B82" stroke-width="6" stroke-miterlimit="10" stroke-linecap="round"/>
<path d="M803.308 449.638H793.492C792.541 449.638 791.74 448.862 791.74 447.886V387.993C791.74 387.042 792.516 386.241 793.492 386.241H803.308C804.26 386.241 805.061 387.017 805.061 387.993V447.886C805.036 448.862 804.26 449.638 803.308 449.638Z" fill="white" stroke="#9A3B82" stroke-width="6" stroke-miterlimit="10" stroke-linecap="round"/>
<path d="M826.42 386.291V421.031L812.924 386.291H826.42Z" fill="#9A3B82"/>
<path d="M884.112 449.638H844.249C843.372 449.638 842.571 449.088 842.271 448.287L816.379 381.661C815.828 380.259 816.855 378.757 818.357 378.757H858.221C859.097 378.757 859.899 379.308 860.199 380.109L886.091 446.735C886.641 448.137 885.615 449.638 884.112 449.638Z" fill="white" stroke="#FFCF2D" stroke-width="6" stroke-miterlimit="10"/>
<path d="M890.623 449.638H850.759C849.883 449.638 849.081 449.088 848.781 448.287L822.89 381.661C822.339 380.259 823.365 378.757 824.868 378.757H864.731C865.608 378.757 866.409 379.308 866.71 380.109L892.601 446.735C893.152 448.137 892.125 449.638 890.623 449.638Z" fill="white" stroke="#FFCF2D" stroke-width="6" stroke-miterlimit="10"/>
<path d="M960.634 333.155C956.903 334.206 952.947 334.782 948.891 334.782C925.178 334.782 905.972 315.585 905.972 291.883C905.972 272.336 919.068 255.817 936.972 250.661L960.634 333.155Z" stroke="#FFCF2D" stroke-width="6" stroke-miterlimit="10"/>
<path d="M948.891 334.782V350.074" stroke="#FFCF2D" stroke-width="6" stroke-miterlimit="10"/>
<path d="M948.891 328.225C968.971 328.225 985.249 311.954 985.249 291.883C985.249 271.812 968.971 255.542 948.891 255.542C928.811 255.542 912.533 271.812 912.533 291.883C912.533 311.954 928.811 328.225 948.891 328.225Z" fill="white" stroke="#3FB1B5" stroke-width="6" stroke-miterlimit="10"/>
<path d="M964.09 349.975H933.817L948.841 342.441L964.09 349.975Z" fill="white" stroke="#FFCF2D" stroke-width="6" stroke-miterlimit="10"/>
<path d="M1002.78 350.075V793.656H989.08V761.369C989.08 754.186 983.246 748.354 976.059 748.354H764.822C757.635 748.354 751.801 754.186 751.801 761.369V793.656H738.254V350.075H1002.78Z" stroke="#9A3B82" stroke-width="6" stroke-miterlimit="10" stroke-linecap="round"/>
<path d="M983.772 736.065H756.759C753.879 736.065 751.526 733.738 751.526 730.834V665.535C751.526 662.656 753.854 660.304 756.759 660.304H983.772C986.651 660.304 989.005 662.631 989.005 665.535V730.834C989.005 733.738 986.651 736.065 983.772 736.065Z" stroke="#3FB1B5" stroke-width="6" stroke-miterlimit="10"/>
<path d="M882.234 289.155V350.075H860.9L882.234 289.155Z" fill="#9A3B82"/>
<path d="M882.234 289.155L882.084 289.606L861.026 350.075H763.119L784.178 289.606L784.854 287.679C788.009 283.148 796.748 279.845 807.164 279.669C807.34 279.669 807.49 279.669 807.665 279.669C807.841 279.669 807.991 279.669 808.166 279.669C820.335 279.669 831.178 283.899 833.156 289.456C835.109 283.899 845.476 279.669 857.645 279.669C869.564 279.669 880.006 283.749 882.234 289.155Z" fill="white" stroke="#FFCF2D" stroke-width="6" stroke-miterlimit="10"/>
<path d="M833.131 289.456L811.872 348.823" stroke="#FFCF2D" stroke-width="6" stroke-miterlimit="10" stroke-linecap="round"/>
<path d="M811.822 349.324H763.119C764.922 343.692 775.038 339.363 787.208 339.363C799.427 339.363 810.019 343.692 811.822 349.324Z" fill="#FFCF2D"/>
<path d="M860.9 349.324H812.198C814 343.692 824.117 339.363 836.286 339.363C848.506 339.363 859.097 343.692 860.9 349.324Z" fill="#FFCF2D"/>
<path d="M853.964 679.651C853.964 677.699 855.542 676.097 857.52 676.097H884.087C886.04 676.097 887.643 677.674 887.643 679.651" stroke="#9A3B82" stroke-width="6" stroke-miterlimit="10" stroke-linecap="round"/>
<path d="M738.254 549.227H1002.78" stroke="#9A3B82" stroke-width="6" stroke-miterlimit="10" stroke-linecap="round"/>
<path d="M738.254 449.638H1002.78" stroke="#9A3B82" stroke-width="6" stroke-miterlimit="10" stroke-linecap="round"/>
<path d="M738.254 648.791H1002.78" stroke="#9A3B82" stroke-width="6" stroke-miterlimit="10" stroke-linecap="round"/>
<path d="M770.806 257.068L738.254 350.074H1002.78L1035.33 257.068" stroke="#9A3B82" stroke-width="6" stroke-miterlimit="10" stroke-linecap="round" stroke-linejoin="round"/>
<path d="M1065.03 769.779C1065.03 774.809 1064.1 779.64 1062.4 784.12C1059.92 790.627 1053.63 794.882 1046.65 794.882H993.637C986.676 794.882 980.366 790.627 977.912 784.12C976.209 779.64 975.283 774.809 975.283 769.779C975.283 755.262 982.97 742.447 994.714 734.789V726.329C994.714 730.033 1006.11 733.037 1020.13 733.037C1034.18 733.037 1045.55 730.033 1045.55 726.329V734.814C1057.34 742.447 1065.03 755.262 1065.03 769.779Z" fill="#FE5244"/>
<path d="M1045.6 732.486V734.739C1041.56 737.943 1030.6 739.644 1020.18 739.644C1009.76 739.644 998.796 737.943 994.764 734.739V732.486C995.24 733.563 997.268 734.964 1001.78 736.14C1006.68 737.442 1013.22 738.143 1020.18 738.143C1027.14 738.143 1033.68 737.442 1038.58 736.14C1043.09 734.939 1045.09 733.538 1045.6 732.486Z" fill="white"/>
<path d="M1045.6 726.329C1045.6 730.033 1034.2 733.037 1020.18 733.037C1006.16 733.037 994.764 730.033 994.764 726.329C994.764 725.854 994.939 725.403 995.29 724.953C997.694 721.924 1007.91 719.622 1020.18 719.622C1032.45 719.622 1042.67 721.899 1045.07 724.953C1045.39 725.403 1045.6 725.854 1045.6 726.329Z" fill="#66B0F0"/>
<path d="M986.15 759.142C987.921 759.142 989.356 757.707 989.356 755.938C989.356 754.169 987.921 752.734 986.15 752.734C984.38 752.734 982.945 754.169 982.945 755.938C982.945 757.707 984.38 759.142 986.15 759.142Z" stroke="#FFCF2D" stroke-width="6" stroke-miterlimit="10"/>
<path d="M997.018 767.026C998.788 767.026 1000.22 765.591 1000.22 763.822C1000.22 762.053 998.788 760.618 997.018 760.618C995.247 760.618 993.812 762.053 993.812 763.822C993.812 765.591 995.247 767.026 997.018 767.026Z" stroke="#FFCF2D" stroke-width="6" stroke-miterlimit="10"/>
<path d="M1010.54 757.665C1012.31 757.665 1013.74 756.231 1013.74 754.461C1013.74 752.692 1012.31 751.258 1010.54 751.258C1008.77 751.258 1007.33 752.692 1007.33 754.461C1007.33 756.231 1008.77 757.665 1010.54 757.665Z" stroke="#FFCF2D" stroke-width="6" stroke-miterlimit="10"/>
<path d="M1008.64 778.939C1010.41 778.939 1011.84 777.505 1011.84 775.736C1011.84 773.966 1010.41 772.532 1008.64 772.532C1006.87 772.532 1005.43 773.966 1005.43 775.736C1005.43 777.505 1006.87 778.939 1008.64 778.939Z" stroke="#FFCF2D" stroke-width="6" stroke-miterlimit="10"/>
<path d="M996.617 788.275C998.387 788.275 999.822 786.84 999.822 785.071C999.822 783.302 998.387 781.867 996.617 781.867C994.847 781.867 993.412 783.302 993.412 785.071C993.412 786.84 994.847 788.275 996.617 788.275Z" stroke="#FFCF2D" stroke-width="6" stroke-miterlimit="10"/>
<path d="M984.498 778.939C986.268 778.939 987.703 777.505 987.703 775.736C987.703 773.966 986.268 772.532 984.498 772.532C982.727 772.532 981.292 773.966 981.292 775.736C981.292 777.505 982.727 778.939 984.498 778.939Z" stroke="#FFCF2D" stroke-width="6" stroke-miterlimit="10"/>
<path d="M998.771 747.253C1000.54 747.253 1001.98 745.819 1001.98 744.049C1001.98 742.28 1000.54 740.846 998.771 740.846C997 740.846 995.565 742.28 995.565 744.049C995.565 745.819 997 747.253 998.771 747.253Z" stroke="#FFCF2D" stroke-width="6" stroke-miterlimit="10"/>
<path d="M1024.29 749.681C1026.06 749.681 1027.49 748.246 1027.49 746.477C1027.49 744.708 1026.06 743.273 1024.29 743.273C1022.52 743.273 1021.08 744.708 1021.08 746.477C1021.08 748.246 1022.52 749.681 1024.29 749.681Z" stroke="#FFCF2D" stroke-width="6" stroke-miterlimit="10"/>
<path d="M1021.61 769.103C1023.38 769.103 1024.81 767.669 1024.81 765.899C1024.81 764.13 1023.38 762.696 1021.61 762.696C1019.84 762.696 1018.4 764.13 1018.4 765.899C1018.4 767.669 1019.84 769.103 1021.61 769.103Z" stroke="#FFCF2D" stroke-width="6" stroke-miterlimit="10"/>
<path d="M1030.87 781.868C1032.64 781.868 1034.08 780.433 1034.08 778.664C1034.08 776.895 1032.64 775.46 1030.87 775.46C1029.1 775.46 1027.67 776.895 1027.67 778.664C1027.67 780.433 1029.1 781.868 1030.87 781.868Z" stroke="#FFCF2D" stroke-width="6" stroke-miterlimit="10"/>
<path d="M1018.85 791.478C1020.62 791.478 1022.06 790.044 1022.06 788.275C1022.06 786.505 1020.62 785.071 1018.85 785.071C1017.08 785.071 1015.65 786.505 1015.65 788.275C1015.65 790.044 1017.08 791.478 1018.85 791.478Z" stroke="#FFCF2D" stroke-width="6" stroke-miterlimit="10"/>
<path d="M1034.3 761.444C1036.07 761.444 1037.51 760.01 1037.51 758.241C1037.51 756.471 1036.07 755.037 1034.3 755.037C1032.53 755.037 1031.1 756.471 1031.1 758.241C1031.1 760.01 1032.53 761.444 1034.3 761.444Z" stroke="#FFCF2D" stroke-width="6" stroke-miterlimit="10"/>
<path d="M1043.59 748.304C1045.36 748.304 1046.8 746.87 1046.8 745.101C1046.8 743.331 1045.36 741.897 1043.59 741.897C1041.82 741.897 1040.39 743.331 1040.39 745.101C1040.39 746.87 1041.82 748.304 1043.59 748.304Z" stroke="#FFCF2D" stroke-width="6" stroke-miterlimit="10"/>
<path d="M1054.16 758.941C1055.93 758.941 1057.36 757.507 1057.36 755.738C1057.36 753.968 1055.93 752.534 1054.16 752.534C1052.39 752.534 1050.95 753.968 1050.95 755.738C1050.95 757.507 1052.39 758.941 1054.16 758.941Z" stroke="#FFCF2D" stroke-width="6" stroke-miterlimit="10"/>
<path d="M1042.06 769.428C1043.83 769.428 1045.27 767.994 1045.27 766.225C1045.27 764.455 1043.83 763.021 1042.06 763.021C1040.29 763.021 1038.86 764.455 1038.86 766.225C1038.86 767.994 1040.29 769.428 1042.06 769.428Z" stroke="#FFCF2D" stroke-width="6" stroke-miterlimit="10"/>
<path d="M1056.54 776.136C1058.31 776.136 1059.74 774.702 1059.74 772.932C1059.74 771.163 1058.31 769.729 1056.54 769.729C1054.77 769.729 1053.33 771.163 1053.33 772.932C1053.33 774.702 1054.77 776.136 1056.54 776.136Z" stroke="#FFCF2D" stroke-width="6" stroke-miterlimit="10"/>
<path d="M1046.8 788.45C1048.57 788.45 1050 787.016 1050 785.246C1050 783.477 1048.57 782.043 1046.8 782.043C1045.03 782.043 1043.59 783.477 1043.59 785.246C1043.59 787.016 1045.03 788.45 1046.8 788.45Z" stroke="#FFCF2D" stroke-width="6" stroke-miterlimit="10"/>
<path d="M1076.32 687.335C1076.32 687.335 1100.11 674.495 1104.04 696.92C1108.6 722.825 1077.65 745.626 1077.65 745.626C1077.65 745.626 1070.99 729.132 1053.13 714.916C1037.68 702.627 1050.5 670.04 1076.32 687.335Z" fill="white" stroke="#FFCF2D" stroke-width="6" stroke-miterlimit="10"/>
<path d="M1029.62 658.777C1040.91 658.877 1057.14 635.951 1041.81 610.797C1023.31 580.412 1020.13 562.817 1020.13 562.817C1020.13 562.817 992.911 598.808 997.544 626.415C1002.63 656.649 1029.62 658.777 1029.62 658.777Z" fill="#FFCF2D"/>
<path d="M1031.57 643.51C1048.07 647.865 1063.75 637.828 1064.08 614.952C1064.65 574.506 1072.31 561.341 1072.31 561.341C1072.31 561.341 1020.91 579.837 1013.12 608.57C1005.71 635.951 1031.57 643.51 1031.57 643.51Z" fill="white" stroke="#FFCF2D" stroke-width="6" stroke-miterlimit="10"/>
<path d="M962.613 670.14C962.012 670.19 961.386 670.24 960.71 670.29C925.203 672.943 914.987 705.43 914.987 705.43C914.987 705.43 912.808 703.077 913.259 694.943C914.11 673.969 933.416 652.295 955.451 666.06C957.905 667.612 960.309 668.939 962.613 670.14Z" fill="#FFCF2D"/>
<path d="M1002.88 678.124C996.617 678.525 982.319 680.252 962.613 670.14C960.309 668.964 957.905 667.612 955.451 666.06C933.416 652.295 914.611 673.969 913.76 694.943C913.71 695.97 913.96 696.996 914.01 697.997C911.932 679.776 911.982 634.424 967.145 635.951C1005.06 637.052 1002.88 678.124 1002.88 678.124Z" fill="white" stroke="#FFCF2D" stroke-width="6" stroke-miterlimit="10"/>
<path d="M1011.89 725.002C1011.89 725.002 1018.43 633.974 930.111 645.862" stroke="#FFCF2D" stroke-width="6" stroke-miterlimit="10"/>
<path d="M1072.31 561.341C1016.67 618.156 1027.04 725.003 1027.04 725.003C1021.18 684.131 1057.14 643.51 1076.29 686.258C1082 698.973 1077.62 745.601 1077.62 745.601" stroke="#FFCF2D" stroke-width="6" stroke-miterlimit="10"/>
<path d="M247.896 653.446L240.434 659.979C239.232 658.552 238.155 656.975 237.229 655.248L190.705 568.599C188.751 564.97 191.381 560.59 195.487 560.59H201.998C207.206 560.59 211.964 563.443 214.417 568.024L251.001 636.151C254.156 641.958 252.854 649.141 247.896 653.446Z" fill="#FFCF2D"/>
<path d="M374.548 655.348L266.3 677.574V675.321C266.3 664.534 273.887 655.248 284.454 653.071L354.191 638.754C364.707 636.602 374.548 644.636 374.548 655.348Z" fill="#FFCF2D"/>
<path d="M362.279 793.656V685.257C362.279 676.272 354.041 669.564 345.226 671.366L277.243 685.307C269.155 686.959 262.494 692.616 259.54 700.324L223.657 793.656" stroke="#9A3B82" stroke-width="6" stroke-miterlimit="10" stroke-linecap="round"/>
<path d="M190.429 568.124L243.289 666.561C247.821 674.996 257.336 679.451 266.726 677.524L374.799 655.348" stroke="#9A3B82" stroke-width="6" stroke-miterlimit="10" stroke-linecap="round"/>
<path d="M412.934 574.957H321.463V587.17H412.934V574.957Z" fill="#66B0F0"/>
<path d="M396.258 561.691C397.36 562.717 398.036 564.57 398.036 566.121C398.036 569.225 395.331 572.403 391.976 572.403H308.543C308.543 573.855 309.72 575.031 311.172 575.031H411.858C414.562 575.031 416.991 574.03 418.769 572.378C420.547 570.752 421.623 568.474 421.623 565.971C421.623 560.965 417.241 556.936 411.858 556.936H311.172C309.72 556.936 308.543 558.112 308.543 559.564V560.039H391.976C393.654 560.064 395.156 560.69 396.258 561.691Z" fill="#FE5244"/>
<path d="M314.577 560.064V572.178H308.568V573.179H392.277C393.203 573.179 394.104 573.004 394.906 572.679C395.807 572.328 396.608 571.778 397.26 571.127C398.537 569.851 399.338 568.074 399.338 566.121C399.338 562.217 396.158 559.063 392.277 559.063H308.568V560.064H314.577Z" fill="#FE5244"/>
<path d="M312.249 560.064V572.178H391.976C395.331 572.178 398.036 569.475 398.036 566.121C398.036 564.444 397.36 562.943 396.258 561.842C395.156 560.74 393.654 560.064 391.976 560.064H312.249Z" fill="white"/>
<path d="M312.249 560.064V572.178" stroke="#FE5244" stroke-width="5" stroke-miterlimit="10"/>
<path d="M380.833 568.649V578.761H387.819V569.951C387.819 567.848 389.522 566.146 391.626 566.146H394.731V564.845H384.614C382.561 564.845 380.833 566.547 380.833 568.649Z" fill="#FFCF2D"/>
<path d="M270.106 597.632C270.106 592.301 274.438 587.971 279.771 587.971H469.825C475.158 587.971 479.49 592.301 479.49 597.632" stroke="#9A3B82" stroke-width="6" stroke-miterlimit="10" stroke-linecap="round"/>
<path d="M479.641 793.656L425.981 606.843C423.602 598.583 415.414 592.827 406.049 592.827H343.524C334.159 592.827 325.971 598.583 323.592 606.843L269.956 793.656" stroke="#9A3B82" stroke-width="6" stroke-miterlimit="10" stroke-linecap="round"/>
<path d="M524.688 761.319V788.55C524.688 791.378 526.967 793.656 529.796 793.656H597.905C597.905 793.656 598.306 781.017 587.939 777.488C570.336 771.506 562.123 761.319 562.123 761.319H524.688Z" fill="white" stroke="#FE5244" stroke-width="6" stroke-miterlimit="10"/>
<path d="M562.574 775.26C565.353 774.484 575.369 768.953 571.939 765.524C570.311 763.897 566.405 765.524 566.405 765.524" stroke="#FE5244" stroke-width="6" stroke-miterlimit="10"/>
<path d="M572.84 779.014C575.62 778.239 585.235 772.056 581.454 769.028C578.599 766.725 574.317 771.18 574.317 771.18" stroke="#FE5244" stroke-width="6" stroke-miterlimit="10"/>
<path d="M564.227 763.522L524.688 775.811V761.319H562.148C562.148 761.319 562.824 762.17 564.227 763.522Z" fill="#FE5244"/>
<path d="M610.075 761.319V788.55C610.075 791.378 612.353 793.656 615.183 793.656H683.292C683.292 793.656 683.693 781.017 673.326 777.488C655.723 771.506 647.51 761.319 647.51 761.319H610.075Z" fill="white" stroke="#FE5244" stroke-width="6" stroke-miterlimit="10"/>
<path d="M647.96 775.26C650.74 774.484 660.756 768.953 657.325 765.524C655.698 763.897 651.791 765.524 651.791 765.524" stroke="#FE5244" stroke-width="6" stroke-miterlimit="10"/>
<path d="M658.227 779.014C661.006 778.239 670.621 772.056 666.84 769.028C663.986 766.725 659.704 771.18 659.704 771.18" stroke="#FE5244" stroke-width="6" stroke-miterlimit="10"/>
<path d="M649.613 763.522L610.075 775.811V761.319H647.535C647.535 761.319 648.211 762.17 649.613 763.522Z" fill="#FE5244"/>
<path d="M543.093 490.26L518.428 748.354H570.011L595.927 623.286L606.519 649.942V748.354H660.23V638.003L631.584 490.26H543.093Z" fill="#3FB1B5"/>
<path d="M569.961 552.255L545.972 748.354" stroke="#9A3B82" stroke-width="6" stroke-miterlimit="10"/>
<path d="M632.435 748.354V638.003L598.781 502.774" stroke="#9A3B82" stroke-width="6" stroke-miterlimit="10"/>
<path d="M605.768 649.942L573.616 556.61C572.515 553.407 569.485 551.254 566.079 551.254" stroke="white" stroke-width="6" stroke-miterlimit="10"/>
<path d="M539.011 532.933L543.093 490.26H631.584L634.113 503.374L539.011 532.933Z" fill="#9A3B82"/>
<path d="M660.33 761.319H606.319C604.29 761.319 602.638 759.667 602.638 757.64V752.033C602.638 750.006 604.29 748.354 606.319 748.354H660.33C662.358 748.354 664.011 750.006 664.011 752.033V757.64C663.986 759.667 662.358 761.319 660.33 761.319Z" fill="#9A3B82"/>
<path d="M570.937 761.319H516.926C514.898 761.319 513.245 759.667 513.245 757.64V752.033C513.245 750.006 514.898 748.354 516.926 748.354H570.937C572.965 748.354 574.618 750.006 574.618 752.033V757.64C574.593 759.667 572.965 761.319 570.937 761.319Z" fill="#9A3B82"/>
<path d="M715.092 497.818L732.019 561.116L647.635 583.666L630.683 520.319C630.157 518.342 628.88 516.79 627.252 515.839C625.624 514.888 623.621 514.562 621.643 515.088C617.712 516.139 615.358 520.194 616.41 524.123L633.362 587.471L631.509 587.971L614.582 524.674C613.23 519.643 616.134 514.487 621.092 512.986C621.192 512.961 621.293 512.936 621.393 512.911L703.324 491.011C708.457 489.659 713.715 492.712 715.092 497.818Z" fill="#66B0F0"/>
<path d="M632.561 519.893L649.488 583.191L647.635 583.691L630.683 520.344C630.157 518.367 628.88 516.815 627.252 515.864C625.625 514.913 623.621 514.587 621.643 515.113C617.712 516.164 615.358 520.219 616.41 524.148L633.362 587.496L631.509 587.996L614.582 524.699C613.23 519.668 616.134 514.512 621.092 513.011C626.125 511.834 631.208 514.863 632.561 519.893Z" fill="#9A3B82"/>
<path d="M630.682 520.319L646.583 579.787L632.31 583.591L616.41 524.123C615.358 520.194 617.687 516.139 621.643 515.088C623.621 514.562 625.624 514.888 627.252 515.839C628.88 516.79 630.157 518.342 630.682 520.319Z" fill="white"/>
<path d="M715.343 531.356L676.956 544.572L646.658 490.26H529.22C509.263 490.26 494.34 471.914 498.421 452.391L510.641 393.724C514.472 375.353 530.673 362.188 549.428 362.188H629.731C649.187 362.188 665.764 376.305 668.843 395.501L680.938 452.617L715.343 531.356Z" fill="#FFCF2D" stroke="white" stroke-width="6" stroke-miterlimit="10"/>
<path d="M522.96 489.634C509.138 486.856 498.872 475.092 497.82 461.226C498.872 460.501 500.049 459.875 501.301 459.424C510.39 456.071 520.782 461.577 524.563 471.713C526.892 478.071 526.09 484.728 522.96 489.634Z" fill="white"/>
<path d="M610.4 326.998V362.214H571.513L580.477 338.787L610.4 326.998Z" fill="#E57281"/>
<path d="M619.339 312.181C619.314 312.181 619.264 312.206 619.239 312.206L607.696 315.26C603.564 316.361 600.384 319.415 599.032 323.269H594.6C591.795 323.269 589.517 325.547 589.517 328.35V328.425C589.517 331.078 591.545 333.255 594.149 333.481C594.124 333.506 594.124 333.506 594.124 333.506C594.124 333.506 592.071 343.267 580.077 339.988C580.077 339.988 580.552 314.309 581.053 306.325C581.479 299.742 616.41 287.278 619.64 292.584C622.495 297.289 619.189 299.492 616.385 300.468C621.343 299.417 630.708 298.015 631.659 302.195C632.761 307.051 622.87 311.255 619.339 312.181Z" fill="#9A3B82"/>
<path d="M621.593 330.177H620.366L620.717 336.184C620.967 340.489 617.511 344.143 613.205 344.143H607.796C602.588 344.143 598.356 339.913 598.356 334.707V333.531H594.625C591.82 333.531 589.542 331.253 589.542 328.45V328.375C589.542 325.572 591.82 323.294 594.625 323.294H599.057C600.409 319.44 603.589 316.361 607.721 315.285L619.264 312.231L623.221 328.075C623.621 329.076 622.67 330.177 621.593 330.177Z" fill="#E57281"/>
<path d="M599.533 335.182C599.007 340.689 604.516 344.618 609.724 344.618" stroke="#9A3B82" stroke-width="5" stroke-miterlimit="10" stroke-linecap="round"/>
<path d="M597.505 329.301C597.505 327.349 595.927 325.772 593.974 325.772" stroke="#9A3B82" stroke-width="5" stroke-miterlimit="10" stroke-linecap="round"/>
<path d="M617.336 325.722C617.848 325.722 618.263 324.859 618.263 323.795C618.263 322.73 617.848 321.867 617.336 321.867C616.824 321.867 616.41 322.73 616.41 323.795C616.41 324.859 616.824 325.722 617.336 325.722Z" fill="#9A3B82"/>
<path d="M613.33 319.74C613.33 319.74 616.41 317.387 620.817 317.387" stroke="#9A3B82" stroke-width="5" stroke-miterlimit="10" stroke-linecap="round"/>
<path d="M601.411 506.303C601.411 506.303 632.084 507.629 642.877 483.026L637.168 472.589L620.115 479.147L601.411 506.303Z" fill="white" stroke="#FE5244" stroke-width="6" stroke-miterlimit="10"/>
<path d="M625.975 355.755C624.498 355.881 623.146 356.531 622.144 357.532C621.042 358.634 620.341 360.16 620.341 361.862V485.178C620.341 496.941 610.801 506.477 599.032 506.477H551.731C539.011 506.477 529.195 495.44 530.548 482.9V482.875L547.575 365.817C548.426 360.035 553.359 355.755 559.218 355.755H625.975Z" fill="#FE5244" stroke="#FE5244" stroke-width="6" stroke-miterlimit="10"/>
<path d="M621.217 355.756C619.739 355.881 618.387 356.532 617.386 357.533C616.459 358.459 615.833 359.66 615.658 361.012C615.633 361.287 615.608 361.563 615.608 361.838L614.606 371.274L602.587 485.154C602.587 496.917 593.047 506.453 581.278 506.453H551.756C539.035 506.453 529.22 495.415 530.572 482.876V482.851L538.259 429.941L547.599 365.792C547.674 365.242 547.8 364.691 547.95 364.141C549.402 359.21 553.959 355.731 559.218 355.731H621.217V355.756Z" fill="white" stroke="#FE5244" stroke-width="6" stroke-miterlimit="10"/>
<path d="M610.676 380.309L606.193 413.922C604.716 420.805 599.357 424.484 591.595 425.736L538.51 433.445L546.248 380.284H610.676V380.309Z" fill="#FFCF2D"/>
<path d="M619.315 355.756H617.987C615.584 355.731 613.48 357.433 613.004 359.811L605.192 410.193C603.715 417.076 597.63 422.007 590.594 422.007H541.74C535.831 422.007 531.424 416.55 532.701 410.769L542.116 368.02C543.694 360.862 550.054 355.756 557.391 355.756H619.315Z" fill="#FE5244" stroke="#FE5244" stroke-width="6" stroke-miterlimit="10"/>
<path d="M579.05 436.023L591.495 359.961C591.745 358.434 593.072 357.283 594.625 357.283C596.578 357.283 598.08 359.035 597.755 360.987L585.31 437.049C585.059 438.576 583.732 439.727 582.18 439.727C580.227 439.727 578.724 437.975 579.05 436.023Z" fill="white" stroke="#FE5244" stroke-width="6" stroke-miterlimit="10"/>
<path d="M551.231 436.023L563.675 359.961C563.926 358.434 565.253 357.283 566.805 357.283C568.759 357.283 570.261 359.035 569.935 360.987L557.491 437.049C557.24 438.576 555.913 439.727 554.361 439.727C552.407 439.727 550.905 437.975 551.231 436.023Z" fill="white" stroke="#FE5244" stroke-width="6" stroke-miterlimit="10"/>
<path d="M632.61 362.238L620.366 362.288V361.863C620.366 360.161 621.042 358.634 622.169 357.533C623.17 356.532 624.498 355.881 626 355.756H627.002C630.081 356.006 632.51 358.609 632.61 362.238Z" fill="white" stroke="#FE5244" stroke-width="6" stroke-miterlimit="10"/>
<path d="M710.76 532.933L721.077 559.539C722.73 563.819 720.326 568.574 715.919 569.8L693.257 576.008C691.88 576.383 690.428 576.058 689.351 575.132L687.048 573.129L691.755 571.878C693.833 571.327 695.236 569.4 695.135 567.248L694.61 561.941C694.509 559.564 692.581 557.662 690.203 557.587H690.453C687.573 557.486 684.769 555.709 683.642 553.056L680.036 543.47L710.76 532.933Z" fill="#E57281"/>
<path d="M687.523 573.655L691.229 572.654C693.308 572.103 694.71 570.426 694.61 568.274L694.334 562.467C694.234 560.089 692.306 558.187 689.927 558.112C687.048 558.012 684.494 556.235 683.367 553.582L679.51 544.497" stroke="white" stroke-width="6" stroke-miterlimit="10" stroke-linecap="round"/>
<path d="M699.643 573.605C702.297 572.904 704.1 570.451 703.975 567.698L703.624 560.29" stroke="white" stroke-width="6" stroke-miterlimit="10" stroke-linecap="round"/>
<path d="M709.233 571.127C711.887 570.426 713.69 567.973 713.565 565.22L713.214 557.812" stroke="white" stroke-width="6" stroke-miterlimit="10" stroke-linecap="round"/>
<path d="M623.446 422.007L629.506 453.693C630.532 459.099 632.435 464.33 635.115 469.136L676.932 544.572L715.318 531.357" stroke="white" stroke-width="6" stroke-miterlimit="10"/>
<path d="M648.812 493.864L635.115 469.136C632.811 464.956 631.083 460.501 629.981 455.871C631.284 455.445 632.636 455.145 634.063 455.02C644.88 454.068 654.471 463.154 655.497 475.293C656.098 482.651 653.419 489.434 648.812 493.864Z" fill="white"/>
</svg>
