<svg width="1157" height="888" viewBox="0 0 1157 888" fill="none" xmlns="http://www.w3.org/2000/svg">
<path d="M885.053 776.112H133.958" stroke="#66B0F0" stroke-width="6" stroke-miterlimit="10"/>
<path d="M199.565 789.711H629.68" stroke="#66B0F0" stroke-width="6" stroke-miterlimit="10"/>
<path d="M846.349 607.367H726.225C720.54 607.367 715.921 611.984 715.921 617.668V776.112H856.628V617.668C856.653 611.984 852.034 607.367 846.349 607.367Z" fill="#D0F0E4"/>
<path d="M846.349 607.367H726.225C720.54 607.367 715.921 611.984 715.921 617.668V776.112H856.628V617.668C856.653 611.984 852.034 607.367 846.349 607.367Z" stroke="#FFCF2D" stroke-width="6" stroke-miterlimit="10"/>
<path d="M873.074 429.361H699.729V776.087H873.074V429.361Z" stroke="#FFCF2D" stroke-width="6" stroke-miterlimit="10"/>
<path d="M877.617 385.95H283.141V429.361H911.043" stroke="#FFCF2D" stroke-width="6" stroke-miterlimit="10"/>
<path d="M846.349 510.854H726.454C720.769 510.854 716.149 506.236 716.149 500.553V458.233C716.149 452.55 720.769 447.933 726.454 447.933H846.349C852.034 447.933 856.653 452.55 856.653 458.233V500.578C856.653 506.261 852.034 510.854 846.349 510.854Z" stroke="#FFCF2D" stroke-width="6" stroke-miterlimit="10"/>
<path d="M846.349 587.475H726.454C720.769 587.475 716.149 582.858 716.149 577.175V534.855C716.149 529.172 720.769 524.554 726.454 524.554H846.349C852.034 524.554 856.653 529.172 856.653 534.855V577.175C856.653 582.858 852.034 587.475 846.349 587.475Z" stroke="#FFCF2D" stroke-width="6" stroke-miterlimit="10"/>
<path d="M786.807 487.106C791.363 487.106 795.056 483.414 795.056 478.86C795.056 474.306 791.363 470.615 786.807 470.615C782.252 470.615 778.559 474.306 778.559 478.86C778.559 483.414 782.252 487.106 786.807 487.106Z" stroke="#66B0F0" stroke-width="6" stroke-miterlimit="10"/>
<path d="M786.807 563.956C791.363 563.956 795.056 560.265 795.056 555.711C795.056 551.157 791.363 547.465 786.807 547.465C782.252 547.465 778.559 551.157 778.559 555.711C778.559 560.265 782.252 563.956 786.807 563.956Z" stroke="#66B0F0" stroke-width="6" stroke-miterlimit="10"/>
<path d="M838.303 660.139L838.126 661.23L838.05 661.864L835.41 678.686L835.131 680.487L833.938 688.149L833.506 690.839L832.39 697.943L832.111 699.744L829.395 717.149V717.225L829.116 719.026L828.964 719.838L826.375 736.482L826.096 738.283L824.877 746.123V746.148L824.446 748.838L823.354 755.739L823.075 757.54L820.36 775.021L820.334 775.123L820.207 775.934L820.182 776.112H748.864L748.839 775.909L748.712 775.199L748.687 774.97L745.946 757.515L745.666 755.688L744.6 748.914L744.194 746.199L742.951 738.232L742.672 736.431L740.083 719.914L739.93 718.976L739.651 717.2V717.174L736.91 699.693L736.631 697.892L735.54 690.915L735.134 688.225L733.915 680.436L733.636 678.635L731.022 661.941L730.743 660.139H838.303Z" fill="white"/>
<path d="M820.867 776.898H748.179L747.874 775.021L729.804 659.353H839.217L820.867 776.898ZM749.524 775.325H819.497L837.364 660.951H731.631L749.524 775.325Z" fill="#66B0F0"/>
<path d="M839.293 660.139C839.293 660.494 839.242 660.875 839.116 661.23C838.253 663.894 834.293 666.355 828.075 668.385C827.618 668.537 827.162 668.664 826.705 668.816C822.695 670.009 817.898 671.049 812.492 671.835C811.984 671.912 811.477 671.988 810.944 672.064C806.172 672.723 800.969 673.206 795.462 673.485C794.903 673.51 794.37 673.535 793.812 673.561C790.792 673.688 787.67 673.764 784.498 673.764C782.061 673.764 779.65 673.713 777.29 673.637C776.706 673.612 776.122 673.586 775.538 673.561C769.193 673.307 763.204 672.774 757.772 672.013C757.113 671.912 756.478 671.835 755.843 671.734C746.631 670.339 739.22 668.283 734.677 665.822C732.037 664.402 730.387 662.854 729.854 661.23L729.702 660.165C729.702 652.655 754.219 646.591 784.472 646.591C814.548 646.591 838.963 652.604 839.242 660.063C839.293 660.063 839.293 660.088 839.293 660.139Z" fill="#66B0F0"/>
<path d="M820.385 775.047V776.061L820.207 775.935L820.182 776.087H819.522L811.426 765.634L810.588 764.543L802.441 754.039L801.604 752.948L793.457 742.444L792.619 741.353L784.472 730.85L783.635 729.759L775.488 719.255L774.65 718.164L766.529 707.66L765.691 706.569L757.544 696.065L756.707 694.974L748.585 684.471L747.748 683.38L739.626 672.876L738.788 671.785L730.997 661.738L730.87 661.002C731.377 662.6 733.002 664.123 735.591 665.518L739.601 670.694L740.438 671.785L748.585 682.289L749.423 683.38L757.57 693.883L758.407 694.974L766.554 705.478L767.392 706.569L775.539 717.073L776.376 718.164L784.523 728.668L785.361 729.759L793.508 740.262L794.345 741.353L802.492 751.857L803.33 752.948L811.477 763.452L812.314 764.543L820.411 774.996L820.385 775.047Z" fill="#66B0F0"/>
<path d="M823.354 755.739L823.075 757.54L820.385 754.064L819.547 752.973L811.401 742.47L810.563 741.379L802.416 730.875L801.579 729.784L793.431 719.28L792.594 718.189L784.447 707.685L783.609 706.595L775.539 696.192L774.701 695.101L766.554 684.597L765.717 683.507L757.57 673.003L756.732 671.912L756.377 671.455C756.986 671.557 757.62 671.633 758.255 671.734L758.382 671.912L766.529 682.416L767.366 683.507L775.513 694.01L776.351 695.101L784.498 705.605L785.335 706.696L793.482 717.2L794.32 718.291L802.467 728.795L803.304 729.885L811.451 740.389L812.289 741.48L820.436 751.984L821.273 753.075L823.354 755.739Z" fill="#66B0F0"/>
<path d="M826.375 736.482L826.096 738.284L820.385 730.926L819.548 729.835L811.401 719.331L810.563 718.24L802.416 707.737L801.579 706.646L793.432 696.142L792.594 695.051L784.447 684.547L783.61 683.456L775.666 673.206C776.249 673.231 776.808 673.257 777.391 673.282L784.447 682.365L785.285 683.456L793.432 693.96L794.269 695.051L802.416 705.555L803.254 706.646L811.401 717.149L812.238 718.24L820.385 728.744L821.223 729.835L826.375 736.482Z" fill="#66B0F0"/>
<path d="M829.395 717.225L829.116 719.027L828.532 718.266L820.385 707.762L819.548 706.671L811.401 696.167L810.563 695.076L802.416 684.572L801.579 683.481L793.635 673.231C794.168 673.206 794.726 673.181 795.259 673.155L802.416 682.391L803.254 683.481L811.401 693.985L812.238 695.076L820.385 705.58L821.223 706.671L829.37 717.175L829.395 717.225Z" fill="#66B0F0"/>
<path d="M767.062 775.707L766.554 776.087L766.529 776.113H765.691L757.57 765.66L756.732 764.569L748.61 754.065L747.773 752.999L744.6 748.914L744.194 746.2L748.61 751.908L749.448 752.999L757.57 763.478L758.407 764.569L766.554 775.072L767.062 775.707Z" fill="#66B0F0"/>
<path d="M749.093 775.707L748.839 775.91L748.712 775.199L749.093 775.707Z" fill="#66B0F0"/>
<path d="M785.005 775.706L784.498 776.087L784.472 776.112H783.635L775.539 765.659L774.701 764.568L766.554 754.064L765.717 752.999L757.569 742.495L756.732 741.429V741.404L748.61 730.926L747.773 729.835L740.083 719.914L739.93 718.976L739.651 717.2L740.463 718.265L748.61 728.769L749.448 729.835L757.569 740.338L758.407 741.429L766.554 751.908L767.392 752.999L775.539 763.477L776.376 764.568L784.498 775.072L785.005 775.706Z" fill="#66B0F0"/>
<path d="M802.949 775.707L802.441 776.087L802.416 776.113H801.579L793.482 765.66L792.645 764.569L784.498 754.065L783.66 752.999L775.539 742.496L774.701 741.43L766.554 730.926L765.717 729.835L757.57 719.357L756.732 718.266L748.611 707.762L747.773 706.696L739.626 696.193L738.789 695.127L735.54 690.915L735.134 688.226L739.626 694.036L740.464 695.127L748.611 705.606L749.448 706.696L757.57 717.175L758.407 718.266L766.554 728.77L767.392 729.835L775.539 740.339L776.376 741.43L784.498 751.908L785.335 752.999L793.482 763.478L794.32 764.569L802.441 775.072L802.949 775.707Z" fill="#66B0F0"/>
<path d="M832.39 697.943L832.111 699.745L829.37 696.193L828.532 695.102L820.385 684.598L819.548 683.507L811.401 673.003L810.563 671.912L810.462 671.786C810.969 671.709 811.477 671.633 811.959 671.557L812.238 671.912L820.385 682.416L821.223 683.507L829.37 694.011L830.207 695.102L832.39 697.943Z" fill="#66B0F0"/>
<path d="M835.41 678.686L835.131 680.487L829.37 673.054L828.532 671.963L825.969 668.639C826.426 668.512 826.882 668.36 827.314 668.208L829.37 670.872L830.207 671.963L835.41 678.686Z" fill="#66B0F0"/>
<path d="M839.039 660.545L838.329 661.459L838.126 661.205C838.253 660.85 838.304 660.495 838.304 660.14C838.304 660.089 838.304 660.063 838.304 660.013L838.329 659.987L839.039 660.545Z" fill="#66B0F0"/>
<path d="M833.938 688.149L833.506 690.838L830.207 695.126L829.37 696.192L821.223 706.695L820.385 707.761L812.263 718.265L811.426 719.356L803.279 729.834L802.441 730.925L794.32 741.429L793.482 742.495L785.335 752.998L784.498 754.064L776.376 764.568L775.539 765.659L767.417 776.112H766.579L766.554 776.086L766.072 775.706L766.554 775.071L774.701 764.568L775.539 763.477L783.66 752.998L784.498 751.907L792.645 741.429L793.482 740.338L801.604 729.834L802.441 728.769L810.588 718.265L811.426 717.174L819.547 706.695L820.385 705.604L828.532 695.126L829.37 694.035L833.938 688.149Z" fill="#66B0F0"/>
<path d="M838.049 661.864L830.207 671.987L829.37 673.078L821.223 683.582L820.385 684.673L812.238 695.177L811.4 696.268L803.253 706.772L802.416 707.863L794.32 718.265L793.482 719.356L785.335 729.86L784.498 730.951L776.351 741.454L775.513 742.545L767.366 753.049L766.529 754.14L758.382 764.644L757.544 765.735L749.448 776.188H748.839L748.813 775.985L748.712 775.274L748.61 775.147L748.687 775.046L756.757 764.644L757.595 763.553L765.742 753.049L766.579 751.958L774.726 741.454L775.564 740.363L783.711 729.86L784.548 728.769L792.695 718.265L793.533 717.174L801.68 706.67L802.517 705.579L810.664 695.075L811.502 693.984L819.649 683.481L820.487 682.39L828.608 671.886L829.446 670.795L833.43 665.645C836.044 664.249 837.694 662.727 838.227 661.103L838.049 661.864Z" fill="#66B0F0"/>
<path d="M812.593 671.531L812.238 671.987L811.4 673.078L803.253 683.582L802.416 684.673L794.269 695.177L793.431 696.268L785.284 706.772L784.447 707.863L776.3 718.366L775.462 719.457L767.315 729.961L766.478 731.052L758.331 741.556L757.493 742.647L749.346 753.151L748.509 754.242L745.844 757.667L745.565 755.865L747.671 753.151L748.509 752.06L756.63 741.556L757.468 740.465L765.615 729.961L766.452 728.87L774.574 718.366L775.411 717.275L783.558 706.772L784.396 705.681L792.543 695.177L793.38 694.086L801.527 683.582L802.365 682.491L810.512 671.987L810.639 671.81C811.07 671.759 811.502 671.683 811.908 671.632C812.187 671.581 812.39 671.556 812.593 671.531Z" fill="#66B0F0"/>
<path d="M793.279 673.307L785.335 683.531L784.498 684.622L776.351 695.126L775.513 696.217L767.366 706.721L766.529 707.812L758.382 718.316L757.544 719.407L749.397 729.91L748.56 731.001L742.9 738.308L742.621 736.507L747.722 729.91L748.56 728.819L756.707 718.316L757.544 717.225L765.691 706.721L766.529 705.63L774.676 695.126L775.513 694.035L783.66 683.531L784.498 682.44L791.553 673.357C792.112 673.357 792.695 673.332 793.279 673.307Z" fill="#66B0F0"/>
<path d="M824.877 746.147L824.446 748.837L821.223 752.998L820.385 754.063L812.263 764.567L811.426 765.658L803.304 776.111H802.467L802.441 776.086L801.959 775.705L802.441 775.071L810.588 764.567L811.426 763.476L819.548 752.998L820.385 751.907L824.877 746.147Z" fill="#66B0F0"/>
<path d="M828.963 719.838L821.223 729.834L820.385 730.925L812.263 741.429L811.426 742.494L803.279 752.998L802.441 754.064L794.32 764.568L793.482 765.659L785.361 776.112H784.523L784.498 776.086L784.015 775.706L784.498 775.071L792.645 764.568L793.482 763.477L801.604 752.998L802.441 751.907L810.588 741.429L811.426 740.338L819.547 729.834L820.385 728.768L828.532 718.265L829.37 717.174L829.395 717.148V717.225L829.116 719.026L828.963 719.838Z" fill="#66B0F0"/>
<path d="M775.336 673.282L767.392 683.532L766.554 684.623L758.407 695.127L757.57 696.217L749.423 706.721L748.585 707.812L740.438 718.316L739.905 719.026L739.626 717.276L739.6 717.25L739.626 717.225L747.747 706.747L748.585 705.656L756.707 695.152L757.544 694.061L765.691 683.557L766.529 682.466L773.686 673.231C774.27 673.231 774.803 673.256 775.336 673.282Z" fill="#66B0F0"/>
<path d="M758.534 671.835L758.432 671.987L757.595 673.078L749.448 683.582L748.61 684.673L740.463 695.177L739.626 696.268L736.91 699.769L736.631 697.967L738.788 695.177L739.626 694.086L747.747 683.582L748.585 682.491L756.732 671.987L757.011 671.632C757.417 671.683 757.849 671.759 758.28 671.809L758.534 671.835Z" fill="#66B0F0"/>
<path d="M743.052 668.638L740.463 671.962L739.626 673.053L733.89 680.436L733.611 678.635L738.788 671.962L739.626 670.871L741.707 668.207C742.138 668.359 742.595 668.511 743.052 668.638Z" fill="#66B0F0"/>
<path d="M843.532 645.246H820.106V638.117H834.319C838.76 638.117 842.466 641.161 843.532 645.246Z" fill="white" stroke="#FFCF2D" stroke-width="5" stroke-miterlimit="10"/>
<path d="M834.471 638.117C827.821 638.193 822.009 642.633 820.233 649.052L814.827 668.664C814.065 668.791 813.279 668.918 812.492 669.019C811.984 669.095 811.477 669.171 810.944 669.247C806.172 669.907 800.969 670.389 795.462 670.668C794.903 670.694 794.371 670.719 793.812 670.744C790.792 670.871 787.67 670.947 784.498 670.947C782.061 670.947 779.65 670.897 777.29 670.82C776.706 670.795 776.122 670.77 775.539 670.744C775.31 670.744 775.082 670.719 774.853 670.719L780.843 649.052C782.62 642.582 788.508 638.117 795.233 638.117H834.471Z" fill="white" stroke="#FFCF2D" stroke-width="5" stroke-miterlimit="10"/>
<path d="M818.431 215.353L878.353 385.95H658.917L717.241 215.353H818.431Z" fill="#FFCF2D"/>
<path d="M768.305 195.03C768.305 187.926 774.066 182.167 781.173 182.167H788.609C795.716 182.167 801.477 187.926 801.477 195.03V361.492" stroke="#66B0F0" stroke-width="6" stroke-miterlimit="10"/>
<path d="M818.761 380.521V385.671H764.498V380.521C764.498 376.132 765.996 372.072 768.508 368.85C771.985 364.385 777.442 361.492 783.533 361.492H799.7C799.954 361.492 800.233 361.492 800.487 361.518C810.665 361.923 818.761 370.271 818.761 380.521Z" fill="white" stroke="#FE5244" stroke-width="6" stroke-miterlimit="10"/>
<path d="M830.816 216.063H705.261V212.131C705.261 202.718 712.901 195.106 722.291 195.106H813.786C823.202 195.106 830.816 202.743 830.816 212.131V216.063Z" fill="#FE5244"/>
<path d="M830.816 212.917H705.261" stroke="white" stroke-width="5" stroke-miterlimit="10" stroke-linecap="round"/>
<path d="M817.695 216.063C817.695 220.554 814.903 224.207 811.426 224.207H723.56C720.109 224.207 717.292 220.554 717.292 216.063H817.695Z" fill="white"/>
<path d="M801.477 366.465C801.477 374.609 794.041 381.231 784.878 381.231C776.63 381.231 769.777 375.878 768.508 368.85C771.985 364.385 777.442 361.492 783.533 361.492H799.7C799.954 361.492 800.233 361.492 800.487 361.518C801.147 363.065 801.477 364.74 801.477 366.465Z" fill="white" stroke="#FE5244" stroke-width="6" stroke-miterlimit="10"/>
<path d="M785.335 358.016V365.983C785.335 367.607 783.838 368.926 782.01 368.926C780.183 368.926 778.686 367.607 778.686 365.983V358.016H778.736C779.041 359.412 780.386 360.477 781.985 360.477C783.584 360.477 784.929 359.412 785.234 358.016H785.335Z" fill="#FE5244"/>
<path d="M784.625 357.737C784.625 357.915 784.599 358.092 784.574 358.27C784.345 359.539 783.279 360.477 781.985 360.477C780.716 360.477 779.65 359.539 779.396 358.27C779.371 358.092 779.345 357.915 779.345 357.737C779.345 356.215 780.513 354.997 781.985 354.997C783.432 354.997 784.625 356.24 784.625 357.737Z" fill="white" stroke="#FE5244" stroke-width="6" stroke-miterlimit="10"/>
<path d="M698.18 270.307H689.5V385.95H698.18V270.307Z" fill="#3FB1B5"/>
<path d="M685.871 385.95H670.998C669.425 385.95 668.156 384.682 668.156 383.109V297.15C668.156 295.577 669.425 294.309 670.998 294.309H685.871C687.445 294.309 688.714 295.577 688.714 297.15V383.109C688.714 384.682 687.445 385.95 685.871 385.95Z" fill="white" stroke="#FFCF2D" stroke-width="5" stroke-miterlimit="10"/>
<path d="M733.712 384.098H716.632C715.388 384.098 714.322 383.21 714.094 381.992L698.764 302.377C698.46 300.778 699.678 299.307 701.302 299.307H718.383C719.626 299.307 720.692 300.195 720.921 301.412L736.25 381.028C736.555 382.626 735.337 384.098 733.712 384.098Z" stroke="#66B0F0" stroke-width="6" stroke-miterlimit="10"/>
<path d="M664.755 385.95H584.3C582.422 385.95 580.899 384.428 580.899 382.55V366.084C580.899 364.207 582.422 362.685 584.3 362.685H664.755C666.633 362.685 668.156 364.207 668.156 366.084V382.55C668.156 384.428 666.633 385.95 664.755 385.95Z" fill="#FE5244"/>
<path d="M363.469 103.718V156.186C363.469 166.462 355.119 174.809 344.84 174.809H286.644C296.923 174.809 305.273 166.487 305.273 156.186V103.718H363.469Z" fill="white" stroke="#FFCF2D" stroke-width="5" stroke-miterlimit="10"/>
<path d="M336.592 98.644H331.896V109.833H336.592V98.644Z" fill="#FE5244"/>
<path d="M346.54 123.66C345.881 123.66 345.221 123.407 344.688 122.925L342.733 121.199C342.124 120.667 341.312 120.667 340.703 121.199L338.85 122.849C337.759 123.813 336.236 123.813 335.119 122.849L333.419 121.352C332.81 120.819 331.998 120.819 331.389 121.352L329.815 122.747C328.724 123.711 327.201 123.711 326.084 122.747L324.79 121.605C324.181 121.073 323.368 121.073 322.759 121.605L321.363 122.849C320.272 123.813 318.749 123.813 317.633 122.849L316.338 121.707C315.729 121.174 314.917 121.174 314.308 121.707C314.054 121.935 313.648 121.91 313.42 121.656C313.191 121.402 313.216 120.996 313.47 120.768C314.562 119.804 316.084 119.804 317.201 120.768L318.496 121.91C319.105 122.443 319.917 122.443 320.526 121.91L321.922 120.667C323.013 119.702 324.536 119.702 325.653 120.667L326.947 121.808C327.556 122.341 328.368 122.341 328.977 121.808L330.551 120.413C331.642 119.449 333.165 119.449 334.282 120.413L335.982 121.91C336.591 122.443 337.404 122.443 338.013 121.91L339.865 120.261C340.957 119.297 342.48 119.297 343.596 120.261L345.551 121.986C346.16 122.519 346.972 122.519 347.581 121.986L349.611 120.185C350.703 119.22 352.226 119.22 353.342 120.185C353.596 120.413 353.621 120.819 353.393 121.073C353.165 121.326 352.758 121.352 352.505 121.123C351.896 120.59 351.083 120.59 350.474 121.123L348.444 122.925C347.835 123.407 347.2 123.66 346.54 123.66Z" fill="#FFCF2D"/>
<path d="M346.54 134.088C345.881 134.088 345.221 133.834 344.688 133.352L342.733 131.627C342.124 131.094 341.312 131.094 340.703 131.627L338.85 133.276C337.759 134.24 336.236 134.24 335.119 133.276L333.419 131.779C332.81 131.247 331.998 131.247 331.389 131.779L329.815 133.175C328.724 134.139 327.201 134.139 326.084 133.175L324.79 132.033C324.181 131.5 323.368 131.5 322.759 132.033L321.363 133.276C320.272 134.24 318.749 134.24 317.633 133.276L316.338 132.135C315.729 131.602 314.917 131.602 314.308 132.135C314.054 132.363 313.648 132.338 313.42 132.084C313.191 131.83 313.216 131.424 313.47 131.196C314.562 130.232 316.084 130.232 317.201 131.196L318.496 132.338C319.105 132.87 319.917 132.87 320.526 132.338L321.922 131.094C323.013 130.13 324.536 130.13 325.653 131.094L326.947 132.236C327.556 132.769 328.368 132.769 328.977 132.236L330.551 130.841C331.642 129.876 333.165 129.876 334.282 130.841L335.982 132.338C336.591 132.87 337.404 132.87 338.013 132.338L339.865 130.688C340.957 129.724 342.48 129.724 343.596 130.688L345.551 132.414C346.16 132.946 346.972 132.946 347.581 132.414L349.611 130.612C350.703 129.648 352.226 129.648 353.342 130.612C353.596 130.841 353.621 131.247 353.393 131.5C353.165 131.754 352.758 131.779 352.505 131.551C351.896 131.018 351.083 131.018 350.474 131.551L348.444 133.352C347.835 133.86 347.2 134.088 346.54 134.088Z" fill="#FFCF2D"/>
<path d="M346.54 144.516C345.881 144.516 345.221 144.262 344.688 143.78L342.733 142.055C342.124 141.522 341.312 141.522 340.703 142.055L338.85 143.704C337.759 144.668 336.236 144.668 335.119 143.704L333.419 142.207C332.81 141.674 331.998 141.674 331.389 142.207L329.815 143.603C328.724 144.567 327.201 144.567 326.084 143.603L324.79 142.461C324.181 141.928 323.368 141.928 322.759 142.461L321.363 143.704C320.272 144.668 318.749 144.668 317.633 143.704L316.338 142.562C315.729 142.029 314.917 142.029 314.308 142.562C314.054 142.791 313.648 142.765 313.42 142.512C313.191 142.258 313.216 141.852 313.47 141.624C314.562 140.659 316.084 140.659 317.201 141.624L318.496 142.765C319.105 143.298 319.917 143.298 320.526 142.765L321.922 141.522C323.013 140.558 324.536 140.558 325.653 141.522L326.947 142.664C327.556 143.197 328.368 143.197 328.977 142.664L330.551 141.268C331.642 140.304 333.165 140.304 334.282 141.268L335.982 142.765C336.591 143.298 337.404 143.298 338.013 142.765L339.865 141.116C340.957 140.152 342.48 140.152 343.596 141.116L345.551 142.841C346.16 143.374 346.972 143.374 347.581 142.841L349.611 141.04C350.703 140.076 352.226 140.076 353.342 141.04C353.596 141.268 353.621 141.674 353.393 141.928C353.165 142.182 352.758 142.207 352.505 141.979C351.896 141.446 351.083 141.446 350.474 141.979L348.444 143.78C347.835 144.288 347.2 144.516 346.54 144.516Z" fill="#FFCF2D"/>
<path d="M346.54 154.969C345.881 154.969 345.221 154.715 344.688 154.233L342.733 152.508C342.124 151.975 341.312 151.975 340.703 152.508L338.85 154.157C337.759 155.121 336.236 155.121 335.119 154.157L333.419 152.66C332.81 152.127 331.998 152.127 331.389 152.66L329.815 154.056C328.724 155.02 327.201 155.02 326.084 154.056L324.79 152.914C324.181 152.381 323.368 152.381 322.759 152.914L321.363 154.157C320.272 155.121 318.749 155.121 317.633 154.157L316.338 153.015C315.729 152.483 314.917 152.483 314.308 153.015C314.054 153.244 313.648 153.218 313.42 152.965C313.191 152.711 313.216 152.305 313.47 152.077C314.562 151.113 316.084 151.113 317.201 152.077L318.496 153.218C319.105 153.751 319.917 153.751 320.526 153.218L321.922 151.975C323.013 151.011 324.536 151.011 325.653 151.975L326.947 153.117C327.556 153.65 328.368 153.65 328.977 153.117L330.551 151.721C331.642 150.757 333.165 150.757 334.282 151.721L335.982 153.218C336.591 153.751 337.404 153.751 338.013 153.218L339.865 151.569C340.957 150.605 342.48 150.605 343.596 151.569L345.551 153.294C346.16 153.827 346.972 153.827 347.581 153.294L349.611 151.493C350.703 150.529 352.226 150.529 353.342 151.493C353.596 151.721 353.621 152.127 353.393 152.381C353.165 152.635 352.758 152.66 352.505 152.432C351.896 151.899 351.083 151.899 350.474 152.432L348.444 154.233C347.835 154.715 347.2 154.969 346.54 154.969Z" fill="#FFCF2D"/>
<path d="M423.391 103.718H382.681V144.414H423.391V103.718Z" fill="#66B0F0"/>
<path d="M391.63 101.978L388.679 98.3271L377.92 107.019L380.872 110.67L391.63 101.978Z" fill="#FFCF2D"/>
<path d="M425.503 110.665L428.454 107.014L417.696 98.3222L414.745 101.973L425.503 110.665Z" fill="#FFCF2D"/>
<path d="M414.787 113.359H390.093V114.882H414.787V113.359Z" fill="white"/>
<path d="M414.787 119.931H390.093V121.453H414.787V119.931Z" fill="white"/>
<path d="M414.787 126.527H390.093V128.05H414.787V126.527Z" fill="white"/>
<path d="M414.787 133.099H390.093V134.621H414.787V133.099Z" fill="white"/>
<path d="M578.996 385.951H484.1L502.475 345.356L505.165 339.394H557.931L565.341 355.759L578.996 385.951Z" fill="white" stroke="#66B0F0" stroke-width="6" stroke-miterlimit="10"/>
<path d="M565.341 355.759L502.475 345.356L505.165 339.394H557.93L565.341 355.759Z" fill="#66B0F0"/>
<path d="M643.385 339.394H420.016C411.818 339.394 405.194 332.746 405.194 324.577V178.818C405.194 170.623 411.843 164.001 420.016 164.001H643.385C651.583 164.001 658.207 170.648 658.207 178.818V324.551C658.207 332.746 651.557 339.394 643.385 339.394Z" fill="white" stroke="#66B0F0" stroke-width="6" stroke-miterlimit="10"/>
<path d="M576.458 329.093H486.917C482.552 329.093 479.024 325.567 479.024 321.203V310.369C479.024 306.005 482.552 302.479 486.917 302.479H576.458C580.823 302.479 584.351 306.005 584.351 310.369V321.203C584.351 325.567 580.798 329.093 576.458 329.093Z" fill="#66B0F0"/>
<path d="M552.956 321.862H546.915C545.418 321.862 544.2 320.645 544.2 319.148V314.429C544.2 312.932 545.418 311.714 546.915 311.714H552.956C554.453 311.714 555.672 312.932 555.672 314.429V319.148C555.672 320.645 554.453 321.862 552.956 321.862Z" fill="white"/>
<path d="M560.646 321.076L558.413 319.655C557.804 319.275 557.423 318.59 557.423 317.854V315.723C557.423 314.987 557.804 314.302 558.413 313.921L560.646 312.501C561.179 312.171 561.865 312.551 561.865 313.16V320.391C561.89 321.025 561.179 321.406 560.646 321.076Z" fill="white"/>
<path d="M530.063 319.478H529.505C527.297 319.478 525.495 317.676 525.495 315.469V313.11C525.495 312.907 525.673 312.729 525.876 312.729H533.667C533.87 312.729 534.048 312.907 534.048 313.11V315.469C534.073 317.676 532.271 319.478 530.063 319.478ZM526.256 313.49V315.469C526.256 317.245 527.703 318.717 529.505 318.717H530.063C531.84 318.717 533.312 317.271 533.312 315.469V313.49H526.256Z" fill="white"/>
<path d="M529.784 323.867C529.581 323.867 529.403 323.689 529.403 323.486V320.619C529.403 320.416 529.581 320.239 529.784 320.239C529.987 320.239 530.165 320.416 530.165 320.619V323.486C530.165 323.689 529.987 323.867 529.784 323.867Z" fill="white"/>
<path d="M531.789 323.867H527.805C527.601 323.867 527.424 323.689 527.424 323.486C527.424 323.283 527.601 323.105 527.805 323.105H531.789C531.992 323.105 532.17 323.283 532.17 323.486C532.17 323.689 531.992 323.867 531.789 323.867Z" fill="white"/>
<path d="M529.962 317.702H529.607C528.338 317.702 527.323 316.687 527.323 315.418V310.801C527.323 309.532 528.338 308.517 529.607 308.517H529.962C531.231 308.517 532.246 309.532 532.246 310.801V315.418C532.246 316.687 531.231 317.702 529.962 317.702Z" fill="white"/>
<path d="M506.612 314.834L506.587 314.86C506.104 315.443 506.257 316.331 506.891 316.864L509.226 318.741C509.861 319.249 510.774 319.198 511.257 318.615L511.282 318.589C511.764 318.006 512.678 317.98 513.287 318.513L515.393 320.416C516.053 321.025 516.053 322.04 515.393 322.496C513.185 324.044 510.317 323.486 507.957 321.583L504.404 318.716C502.044 316.788 500.902 314.098 501.942 311.612C502.272 310.851 503.262 310.648 503.973 311.181L506.282 312.855C506.917 313.363 507.069 314.251 506.612 314.834Z" fill="white"/>
<path d="M512.805 316.306C512.602 316.306 512.449 316.154 512.424 315.951C512.297 314.124 510.724 312.729 508.896 312.855C508.693 312.855 508.516 312.703 508.49 312.5C508.465 312.297 508.643 312.12 508.846 312.094C511.104 311.942 513.033 313.667 513.185 315.9C513.211 316.103 513.059 316.281 512.805 316.306C512.83 316.306 512.83 316.306 512.805 316.306Z" fill="white"/>
<path d="M515.191 315.925C514.988 315.925 514.835 315.773 514.81 315.57C514.708 314.048 514.023 312.627 512.856 311.612C511.688 310.597 510.216 310.09 508.693 310.191C508.49 310.191 508.313 310.039 508.287 309.836C508.262 309.633 508.439 309.456 508.643 309.43C510.368 309.329 512.043 309.887 513.363 311.029C514.683 312.17 515.444 313.769 515.571 315.494C515.597 315.748 515.419 315.925 515.191 315.925C515.216 315.925 515.216 315.925 515.191 315.925Z" fill="white"/>
<path d="M601.026 177.727C602.483 177.727 603.665 176.546 603.665 175.088C603.665 173.631 602.483 172.45 601.026 172.45C599.568 172.45 598.386 173.631 598.386 175.088C598.386 176.546 599.568 177.727 601.026 177.727Z" stroke="#FFCF2D" stroke-width="5" stroke-miterlimit="10"/>
<path d="M611.812 177.727C613.27 177.727 614.452 176.546 614.452 175.088C614.452 173.631 613.27 172.45 611.812 172.45C610.355 172.45 609.173 173.631 609.173 175.088C609.173 176.546 610.355 177.727 611.812 177.727Z" stroke="#FFCF2D" stroke-width="5" stroke-miterlimit="10"/>
<path d="M622.624 177.727C624.082 177.727 625.264 176.546 625.264 175.088C625.264 173.631 624.082 172.45 622.624 172.45C621.166 172.45 619.985 173.631 619.985 175.088C619.985 176.546 621.166 177.727 622.624 177.727Z" stroke="#FFCF2D" stroke-width="5" stroke-miterlimit="10"/>
<path d="M522.297 295.983H442.756C440.32 295.983 438.365 294.004 438.365 291.594V249.021C438.365 246.585 440.345 244.631 442.756 244.631H522.297C524.733 244.631 526.688 246.61 526.688 249.021V291.594C526.688 294.004 524.733 295.983 522.297 295.983Z" stroke="#66B0F0" stroke-width="6" stroke-miterlimit="10"/>
<path d="M622.624 295.983H543.083C540.647 295.983 538.693 294.004 538.693 291.594V249.021C538.693 246.585 540.672 244.631 543.083 244.631H622.624C625.061 244.631 627.015 246.61 627.015 249.021V291.594C627.015 294.004 625.061 295.983 622.624 295.983Z" fill="#3FB1B5"/>
<path d="M607.599 295.856H555.621C560.875 289.387 568.895 285.226 577.879 285.226H585.341C594.325 285.251 602.345 289.387 607.599 295.856Z" fill="#FE5244"/>
<path d="M579.986 285.251C579.478 289.082 576.204 292.025 572.245 292.025C569.326 292.025 566.788 290.427 565.443 288.067C569.199 286.266 573.412 285.251 577.854 285.251H579.986Z" fill="white"/>
<path d="M595.341 287.027C594.199 289.945 591.381 292 588.057 292C584.097 292 580.823 289.057 580.316 285.226H585.366C588.869 285.251 592.219 285.86 595.341 287.027Z" fill="white"/>
<path d="M589.63 273.936V285.454C589.63 287.256 586.026 288.702 581.61 288.702C580.798 288.702 580.011 288.651 579.275 288.575C575.976 288.169 573.59 286.926 573.59 285.454V273.936H589.63Z" fill="#A0505A"/>
<path d="M588.564 276.295C588.564 281.293 584.199 287.357 579.275 288.55C575.976 288.144 573.59 286.9 573.59 285.429V273.91H588.31L588.564 276.295Z" fill="#73325A"/>
<path d="M593.742 272.464V272.743C593.742 274.697 592.143 276.295 590.188 276.295H586.788C585.239 279.619 581.864 281.902 577.955 281.902H577.295C572.93 281.902 569.402 278.376 569.402 274.012V265.868C574.453 266.197 580.874 261.783 580.874 261.783C582.981 269.927 588.996 269.825 591.787 269.293C592.929 269.876 593.742 271.094 593.742 272.464Z" fill="#A0505A"/>
<path d="M588.742 273.707C588.539 273.707 588.361 273.529 588.361 273.326C588.361 271.703 589.681 270.383 591.305 270.383C591.508 270.383 591.686 270.561 591.686 270.764C591.686 270.967 591.508 271.144 591.305 271.144C590.112 271.144 589.122 272.109 589.122 273.326C589.122 273.529 588.945 273.707 588.742 273.707Z" fill="#73325A"/>
<path d="M589.63 276.295H590.188C592.143 276.295 593.741 274.697 593.741 272.743V272.464C593.741 271.069 592.955 269.876 591.787 269.293C591.026 269.445 589.985 269.546 588.869 269.47C585.975 269.242 582.397 267.669 580.874 261.783C580.874 261.783 574.453 266.197 569.402 265.867C568.463 265.817 567.575 265.588 566.788 265.132C562.6 262.747 572.727 251.583 584.351 253.258C593.64 254.602 593.437 265.715 593.259 268.354C593.716 268.303 594.173 268.278 594.63 268.278C601.432 268.278 606.939 273.504 606.939 279.974C606.939 284.186 604.604 287.89 601.076 289.945C597.701 287.712 593.818 286.19 589.63 285.556V276.295Z" fill="#FFCF2D"/>
<path d="M574.529 273.986C574.478 273.986 574.428 273.986 574.402 273.961C574.199 273.885 574.098 273.656 574.174 273.479C574.174 273.453 574.935 271.398 573.666 269.191C572.575 267.288 570.164 267.618 570.062 267.643C569.859 267.669 569.656 267.542 569.631 267.313C569.605 267.111 569.732 266.908 569.961 266.882C570.088 266.857 572.981 266.451 574.351 268.81C575.798 271.322 574.935 273.656 574.91 273.732C574.808 273.885 574.681 273.986 574.529 273.986Z" fill="#73325A"/>
<path d="M583.184 269.166C583.107 269.166 583.031 269.14 582.955 269.09C580.747 267.39 577.803 267.593 577.778 267.593C577.575 267.618 577.397 267.44 577.372 267.237C577.346 267.034 577.524 266.857 577.727 266.831C577.854 266.831 580.976 266.603 583.412 268.481C583.59 268.608 583.615 268.836 583.488 269.013C583.387 269.115 583.285 269.166 583.184 269.166Z" fill="#73325A"/>
<path d="M573.209 274.849C573.209 274.849 573.818 278.858 577.955 274.951C577.955 274.951 575.062 275.331 573.209 274.849Z" fill="white"/>
<path d="M579.58 271.474C579.874 271.474 580.113 270.94 580.113 270.282C580.113 269.623 579.874 269.089 579.58 269.089C579.285 269.089 579.047 269.623 579.047 270.282C579.047 270.94 579.285 271.474 579.58 271.474Z" fill="#73325A"/>
<path d="M571.661 271.271C571.913 271.271 572.118 270.828 572.118 270.282C572.118 269.735 571.913 269.292 571.661 269.292C571.409 269.292 571.204 269.735 571.204 270.282C571.204 270.828 571.409 271.271 571.661 271.271Z" fill="#73325A"/>
<path d="M621.634 237.806H542.093C539.657 237.806 537.703 235.827 537.703 233.417V190.844C537.703 188.408 539.682 186.455 542.093 186.455H621.634C624.071 186.455 626.025 188.434 626.025 190.844V233.417C626.025 235.827 624.045 237.806 621.634 237.806Z" fill="#66B0F0"/>
<path d="M605.442 237.806H556.89C561.788 231.286 569.275 227.125 577.676 227.125H584.656C593.056 227.125 600.544 231.286 605.442 237.806Z" fill="#FFCF2D"/>
<path d="M578.59 235.625H579.681C584.427 235.625 588.285 231.768 588.285 227.024V220.909C588.285 220.884 588.26 220.858 588.234 220.858H572.27C572.245 220.858 572.219 220.884 572.219 220.909V229.307C572.245 232.808 575.087 235.625 578.59 235.625Z" fill="white"/>
<path d="M572.245 220.858V229.104C572.245 229.206 572.245 229.332 572.245 229.434C572.473 234.153 584.224 232.301 587.752 220.858H572.245Z" fill="#FFCF2D"/>
<path d="M592.93 217.18C592.93 218.194 592.524 219.108 591.839 219.793C591.179 220.452 590.265 220.858 589.224 220.858H585.747C584.504 224.157 581.306 226.491 577.575 226.491H574.859C571.077 226.491 568.032 223.421 568.032 219.666V209.01C571.94 209.34 575.24 206.194 575.367 206.067C575.316 206.244 573.336 211.826 577.829 212.131C582.296 212.435 583.768 209.213 583.818 209.086C583.818 209.213 583.844 213.526 587.372 213.754H589.224C591.28 213.754 592.93 215.15 592.93 217.18Z" fill="white"/>
<path d="M587.701 213.754H587.625C587.549 213.754 587.473 213.754 587.397 213.754C583.869 213.526 583.844 209.238 583.844 209.086C583.793 209.213 582.295 212.435 577.854 212.131C573.387 211.826 575.341 206.244 575.392 206.067C575.265 206.168 571.966 209.34 568.057 209.01C567.194 208.934 566.331 208.705 565.443 208.223C559.733 205.128 563.413 198.76 569.022 198.684C573.489 198.633 575.392 201.069 575.392 201.069C575.392 201.069 576.357 196.07 581.839 196.933C587.321 197.796 586.331 202.642 586.331 202.642C586.331 202.642 590.925 200.51 593.463 204.443C596.458 209.061 591.965 213.754 587.701 213.754Z" fill="#FE5244"/>
<path d="M572.702 218.397C572.676 218.397 572.651 218.397 572.6 218.397C572.397 218.347 572.27 218.144 572.321 217.941C572.321 217.915 572.93 215.404 571.839 213.349C570.646 211.167 568.59 211.522 568.514 211.522C568.311 211.547 568.108 211.42 568.083 211.217C568.032 211.014 568.184 210.811 568.387 210.786C568.413 210.786 571.077 210.304 572.524 212.993C573.768 215.302 573.108 218.017 573.082 218.118C573.006 218.271 572.854 218.397 572.702 218.397Z" fill="#FFCF2D"/>
<path d="M574.047 221.34C573.514 221.34 573.031 221.264 572.676 221.163C572.473 221.112 572.346 220.909 572.397 220.706C572.448 220.503 572.651 220.376 572.854 220.427C572.981 220.452 575.874 221.213 576.94 218.981C577.041 218.803 577.244 218.702 577.447 218.803C577.65 218.905 577.727 219.107 577.625 219.31C576.889 220.909 575.341 221.34 574.047 221.34Z" fill="#FFCF2D"/>
<path d="M577.727 215.353C578.021 215.353 578.26 214.819 578.26 214.16C578.26 213.502 578.021 212.968 577.727 212.968C577.433 212.968 577.194 213.502 577.194 214.16C577.194 214.819 577.433 215.353 577.727 215.353Z" fill="#FFCF2D"/>
<path d="M569.834 215.15C570.086 215.15 570.291 214.707 570.291 214.16C570.291 213.614 570.086 213.171 569.834 213.171C569.581 213.171 569.377 213.614 569.377 214.16C569.377 214.707 569.581 215.15 569.834 215.15Z" fill="#FFCF2D"/>
<path d="M587.321 218.575C587.117 218.575 586.94 218.397 586.94 218.194C586.94 216.57 588.26 215.251 589.884 215.251C590.087 215.251 590.265 215.429 590.265 215.632C590.265 215.835 590.087 216.012 589.884 216.012C588.691 216.012 587.701 216.976 587.701 218.194C587.701 218.397 587.524 218.575 587.321 218.575Z" fill="#FFCF2D"/>
<path d="M521.282 237.806H441.741C439.304 237.806 437.35 235.827 437.35 233.417V190.844C437.35 188.408 439.33 186.455 441.741 186.455H521.282C523.718 186.455 525.672 188.434 525.672 190.844V233.417C525.698 235.827 523.718 237.806 521.282 237.806Z" fill="#FFCF2D"/>
<path d="M502.069 237.806H452.73C457.705 230.372 465.319 225.628 473.847 225.628H480.953C489.481 225.628 497.069 230.372 502.069 237.806Z" fill="white"/>
<path d="M502.069 237.806H452.73C452.883 237.578 453.035 237.375 453.187 237.146C453.213 237.096 453.238 237.045 453.289 237.02H501.536C501.562 237.07 501.587 237.096 501.638 237.146C501.765 237.349 501.917 237.578 502.069 237.806Z" fill="#FEB040"/>
<path d="M499.988 235.041H454.812C455.04 234.762 455.268 234.508 455.497 234.254H499.303C499.531 234.508 499.76 234.762 499.988 235.041Z" fill="#FEB040"/>
<path d="M497.196 232.148H457.603C457.908 231.869 458.212 231.616 458.517 231.362H496.283C496.587 231.616 496.892 231.869 497.196 232.148Z" fill="#FEB040"/>
<path d="M492.932 228.977H461.842C462.299 228.698 462.781 228.444 463.263 228.19H491.486C491.993 228.444 492.45 228.698 492.932 228.977Z" fill="#FEB040"/>
<path d="M485.268 216.138V227.479C485.268 228.646 481.664 229.585 477.248 229.585C472.933 229.585 469.405 228.697 469.228 227.555C469.228 227.53 469.228 227.505 469.228 227.479V216.138H485.268Z" fill="#E57281"/>
<path d="M485.166 216.139V216.392C485.166 221.974 478.237 228.368 473.237 229.103C472.45 229.23 470.014 228.748 469.252 227.53C469.252 227.505 469.252 227.48 469.252 227.454V216.113H485.166V216.139Z" fill="#9A3B82"/>
<path d="M489.633 212.561V212.815C489.633 214.769 488.034 216.367 486.08 216.367H483.009C482.019 219.919 478.77 222.507 474.913 222.507H471.639C468.009 222.507 465.04 219.564 465.04 215.91V201.474C471.131 203.174 482.019 201.576 482.019 201.576C482.019 201.576 481.029 205.128 482.907 208.984H486.105C488.034 209.009 489.633 210.608 489.633 212.561Z" fill="#E57281"/>
<path d="M485.953 208.553H483.059C480.598 204.392 481.993 201.626 481.993 201.626C481.993 201.626 471.106 203.199 465.014 201.525C462.248 200.764 460.471 199.318 461.131 196.755C463.238 188.535 485.927 197.288 487.501 200.256C489.1 203.225 485.953 208.553 485.953 208.553Z" fill="white" stroke="#FEB040" stroke-width="4" stroke-miterlimit="10"/>
<path d="M474.684 216.342C474.608 216.418 474.532 216.443 474.431 216.443C474.329 216.443 474.228 216.392 474.151 216.316L473.796 215.936C472.705 216.9 471.664 217.382 470.7 217.382C470.598 217.382 470.497 217.382 470.42 217.357C469.355 217.255 468.821 216.545 468.796 216.519C468.669 216.342 468.695 216.113 468.872 215.986C469.05 215.86 469.278 215.885 469.405 216.063C469.431 216.088 469.786 216.545 470.522 216.621C471.334 216.697 472.273 216.266 473.288 215.378L473.085 215.149C472.933 214.997 472.958 214.743 473.111 214.616C473.263 214.464 473.517 214.49 473.644 214.642L474.71 215.809C474.862 215.961 474.837 216.189 474.684 216.342Z" fill="#9A3B82"/>
<path d="M478.542 208.781C478.44 208.781 478.339 208.756 478.263 208.68C476.029 206.498 473.187 206.929 473.161 206.929C472.958 206.955 472.755 206.828 472.73 206.625C472.705 206.422 472.831 206.219 473.035 206.193C473.161 206.168 476.283 205.661 478.796 208.147C478.948 208.299 478.948 208.528 478.796 208.68C478.745 208.756 478.644 208.781 478.542 208.781Z" fill="#9A3B82"/>
<path d="M469.887 214.109C469.862 214.109 469.811 214.109 469.786 214.084C469.583 214.033 469.481 213.805 469.532 213.602C469.532 213.576 470.319 210.988 469.05 208.781C467.958 206.878 465.497 207.462 465.471 207.487C465.268 207.538 465.065 207.411 465.014 207.208C464.964 207.005 465.091 206.802 465.294 206.751C466.334 206.498 468.618 206.498 469.71 208.426C471.156 210.938 470.319 213.728 470.268 213.855C470.192 214.008 470.065 214.109 469.887 214.109Z" fill="#9A3B82"/>
<path d="M467.045 211.141C467.297 211.141 467.502 210.698 467.502 210.152C467.502 209.605 467.297 209.162 467.045 209.162C466.792 209.162 466.588 209.605 466.588 210.152C466.588 210.698 466.792 211.141 467.045 211.141Z" fill="#9A3B82"/>
<path d="M474.938 211.344C475.232 211.344 475.471 210.81 475.471 210.151C475.471 209.493 475.232 208.959 474.938 208.959C474.644 208.959 474.405 209.493 474.405 210.151C474.405 210.81 474.644 211.344 474.938 211.344Z" fill="#9A3B82"/>
<path d="M484.1 213.855C483.897 213.855 483.719 213.678 483.719 213.475C483.719 211.826 485.065 210.481 486.714 210.481C486.917 210.481 487.095 210.659 487.095 210.862C487.095 211.065 486.917 211.242 486.714 211.242C485.471 211.242 484.481 212.232 484.481 213.475C484.481 213.678 484.329 213.855 484.1 213.855Z" fill="#9A3B82"/>
<path d="M614.756 692.487C614.071 692.284 613.69 692.183 613.69 692.183L605.391 719.356L574.148 711.161C573.894 710.932 573.767 710.806 573.767 710.806C573.767 710.806 447.248 611.679 440.598 564.108C433.974 516.537 486.968 471.401 486.968 471.401C486.968 471.401 599.985 684.952 613.969 691.929C614.248 692.082 614.527 692.259 614.756 692.487Z" fill="#A0505A"/>
<path d="M513.718 521.357C509.759 542.542 495.851 585.446 481.46 626.953C460.141 603.992 442.934 580.828 440.599 564.083C436.386 533.942 456.157 504.739 471.182 487.436C476.689 483.021 482.628 478.962 489.049 475.333C492.983 482.717 502.094 499.817 513.718 521.357Z" fill="#73325A"/>
<path d="M685.769 710.78L639.299 740.591L625.822 738.562L613.411 746.427L617.421 754.647L596.99 767.764C569.91 743.128 573.742 711.084 573.742 711.084L605.366 719.381L613.665 692.208C613.665 692.208 642.065 700.504 663.029 699.794C684.044 699.084 685.769 710.78 685.769 710.78Z" fill="white" stroke="#FE5244" stroke-width="6" stroke-miterlimit="10"/>
<path d="M632.954 695.836C632.954 695.836 630.999 675.184 626.101 676.478C621.203 677.797 627.345 698.399 632.852 696.141C638.36 693.883 643.867 679.243 643.867 679.243" stroke="#FE5244" stroke-width="6" stroke-miterlimit="10"/>
<path d="M578.59 740.566L609.731 741.048L625.187 731.813L639.857 734.173L683.841 706.721" stroke="#FE5244" stroke-width="6" stroke-miterlimit="10"/>
<path d="M626.507 694.669L623.614 708.142" stroke="#FE5244" stroke-width="6" stroke-miterlimit="10"/>
<path d="M632.801 696.192L629.908 709.664" stroke="#FE5244" stroke-width="6" stroke-miterlimit="10"/>
<path d="M639.375 697.283L636.481 710.755" stroke="#FE5244" stroke-width="6" stroke-miterlimit="10"/>
<path d="M476.232 461.024C476.232 461.024 494.836 469.701 494.836 501.517C494.836 532.267 423.823 720.574 423.823 720.574L401.97 739.095L379.788 714.814C390.625 704.514 359.51 518.287 476.232 461.024Z" fill="#A0505A"/>
<path d="M474.253 775.174L419.026 775.224L408.772 766.243L394.077 766.167L393.011 775.25L371.362 775.275C359.586 738.639 379.89 714.79 379.89 714.79L401.92 739.045L423.924 720.549C423.924 720.549 443.01 742.926 461.03 753.633C479.1 764.365 474.253 775.174 474.253 775.174Z" fill="white" stroke="#FE5244" stroke-width="6" stroke-miterlimit="10"/>
<path d="M436.513 733.589C436.513 733.589 458.187 719.61 452.02 714.256C445.853 708.903 433.442 732.143 436.817 733.995C440.193 735.847 463.568 728.819 463.568 728.819" stroke="#FE5244" stroke-width="6" stroke-miterlimit="10"/>
<path d="M368.443 742.875L394.356 759.214H412.351L423.746 768.779H474.684" stroke="#FE5244" stroke-width="6" stroke-miterlimit="10"/>
<path d="M431.69 728.312L421.944 738.055" stroke="#FE5244" stroke-width="6" stroke-miterlimit="10"/>
<path d="M436.157 733.006L426.411 742.748" stroke="#FE5244" stroke-width="6" stroke-miterlimit="10"/>
<path d="M441.081 737.471L431.335 747.213" stroke="#FE5244" stroke-width="6" stroke-miterlimit="10"/>
<path d="M476.232 461.024C432.35 482.539 409.356 522.321 397.199 564.108H264.03C229.945 564.108 204.54 532.673 211.722 499.36L221.493 453.996H453.035C461.614 453.996 469.583 456.584 476.232 461.024Z" fill="#FE5244"/>
<path d="M377.352 504.511L425.295 504.409L418.188 516.055L377.352 504.511Z" fill="#A0505A"/>
<path d="M476.486 460.77C454.659 471.477 438.01 486.7 425.269 504.434H303.775C281.872 504.434 265.528 484.315 269.994 462.876L271.847 453.996" stroke="white" stroke-width="6" stroke-miterlimit="10" stroke-linecap="round"/>
<path d="M397.377 564.082C402.224 547.413 408.772 531.049 417.681 516.054L377.352 504.485" stroke="white" stroke-width="6" stroke-miterlimit="10" stroke-linecap="round"/>
<path d="M190.377 332.137L214.767 427.788H169.261C142.764 427.788 125.709 399.651 137.993 376.182L172.941 309.379C182.839 290.477 202.407 278.629 223.752 278.629H232C203.981 278.604 183.449 304.99 190.377 332.137Z" fill="#3FB1B5"/>
<path d="M471.233 307.324C485.572 307.324 497.501 305.421 500.394 302.757L455.903 399.169C447.858 416.624 430.371 427.787 411.158 427.787C405.524 427.787 399.991 426.823 394.763 424.971C389.534 423.119 384.611 420.404 380.22 416.852L352.175 394.221C352.175 394.221 349.383 410.636 329.46 414.823V453.945H221.468L190.377 332.112C183.449 304.964 203.981 278.553 232.001 278.553H307.608C314.283 278.553 320.856 279.39 327.201 281.014C344.561 285.428 360.144 295.628 371.159 310.242L408.112 359.259L441.31 301.26C441.31 301.311 441.284 301.387 441.284 301.438C441.309 304.812 454.736 307.324 471.233 307.324Z" fill="#3FB1B5"/>
<path d="M190.124 332.137L214.006 428.549" stroke="white" stroke-width="6" stroke-miterlimit="10" stroke-linecap="round"/>
<path d="M352.429 395.515L331.211 372.935" stroke="white" stroke-width="6" stroke-miterlimit="10" stroke-linecap="round"/>
<path d="M501.054 301.336L500.394 302.757C497.501 305.446 485.572 307.324 471.232 307.324C454.735 307.324 441.309 304.812 441.309 301.488C441.309 301.438 441.309 301.362 441.335 301.311C441.792 298.063 455.04 295.272 471.258 295.272C487.45 295.272 500.597 298.063 501.054 301.336C501.054 301.311 501.054 301.311 501.054 301.336Z" fill="#FE5244"/>
<path d="M514.353 252.623C514.353 254.069 513.997 255.49 513.337 256.733C512.678 257.976 511.713 259.067 510.52 259.904L509.937 260.31L505.394 284.54C504.658 288.473 502.323 291.949 498.947 294.105L492.729 298.063L487.805 301.209L485.521 306.664C481.283 307.095 476.435 307.349 471.257 307.349C466.029 307.349 461.105 307.095 456.816 306.639V269.064C456.816 267.44 457.172 265.841 457.857 264.37L466.131 246.559C466.131 246.559 475.166 248.792 471.004 259.879C467.222 269.952 475.851 267.364 480.699 265.562C485.039 263.939 503.998 254.297 511.409 250.771C512.779 250.111 514.353 251.126 514.353 252.623Z" fill="#A0505A"/>
<path d="M506.435 275.33C505.698 279.263 503.364 282.713 499.988 284.87L488.846 291.974" stroke="#73325A" stroke-width="5" stroke-miterlimit="10" stroke-linecap="round"/>
<path d="M508.262 265.055C507.526 268.987 505.191 272.438 501.815 274.594L490.674 281.698" stroke="#73325A" stroke-width="5" stroke-miterlimit="10" stroke-linecap="round"/>
<path d="M509.125 260.589L491.207 271.956" stroke="#73325A" stroke-width="5" stroke-miterlimit="10" stroke-linecap="round"/>
<path d="M493.694 297.429L492.704 298.063L487.78 301.209L485.496 306.664C481.258 307.095 476.41 307.349 471.232 307.349C466.004 307.349 461.08 307.095 456.791 306.638V296.084C461.08 295.577 466.004 295.297 471.232 295.297C480.192 295.272 488.212 296.109 493.694 297.429Z" fill="#73325A"/>
<path d="M324.84 280.43C321.16 285.377 307.455 297.023 261.314 297.023C201.951 297.023 239.944 278.654 239.944 278.654L265.121 236.613L292.126 253.181V266.501C292.126 273.224 297.582 278.654 304.283 278.654H306.034C312.328 278.628 318.825 278.907 324.84 280.43Z" fill="#A0505A"/>
<path d="M292.1 253.156V256.556L239.919 278.629L265.096 236.588L292.1 253.156Z" fill="#73325A"/>
<path d="M293.522 254.805H299.257C304.536 254.805 308.826 250.517 308.826 245.24V213.297H274.588V235.878C274.588 246.331 283.065 254.805 293.522 254.805Z" fill="#A0505A"/>
<path d="M308.09 243.388C304.41 243.388 302.938 240.851 302.938 240.851" stroke="#73325A" stroke-width="5" stroke-miterlimit="10" stroke-linecap="round"/>
<path d="M304.765 233.163C305.438 233.163 305.983 232.107 305.983 230.804C305.983 229.501 305.438 228.444 304.765 228.444C304.092 228.444 303.547 229.501 303.547 230.804C303.547 232.107 304.092 233.163 304.765 233.163Z" fill="#73325A"/>
<path d="M281.111 216.621C281.111 216.621 309.359 233.67 318.546 218.828C326.617 205.813 290.857 199.115 278.37 199.064C264.792 199.013 246.797 205.026 247.102 224.993C247.355 241.434 248.041 265.486 238.295 261.3C203.626 246.432 172.814 261.96 172.713 291.543C172.611 321.126 206.95 323.891 207.813 316.254C208.702 308.643 186.494 310.394 189.489 330.158C192.459 349.922 205.707 374.634 235.96 374.634C272.507 374.659 295.781 326.555 273.167 321.659C255.832 317.904 290.831 351.343 301.212 316.584C312.379 279.161 272.025 266.907 271.035 244.301C270.045 221.695 281.111 216.621 281.111 216.621Z" fill="#FFCF2D" stroke="white" stroke-width="5" stroke-miterlimit="10"/>
<path d="M279.131 230.195H299.334" stroke="#FE5244" stroke-width="6" stroke-miterlimit="10"/>
<path d="M305.552 238.314C308.72 238.314 311.288 235.019 311.288 230.956C311.288 226.892 308.72 223.598 305.552 223.598C302.384 223.598 299.816 226.892 299.816 230.956C299.816 235.019 302.384 238.314 305.552 238.314Z" stroke="#FE5244" stroke-width="6" stroke-miterlimit="10"/>
<path d="M268.421 221.137V199.774C268.421 196.578 271.01 193.964 274.233 193.964H280.578C283.776 193.964 286.39 196.552 286.39 199.774" stroke="#66B0F0" stroke-width="6" stroke-miterlimit="10"/>
<path d="M274.537 244.657H262.33C259.208 244.657 256.67 242.119 256.67 238.999V226.795C256.67 223.674 259.208 221.137 262.33 221.137H274.537C277.659 221.137 280.197 223.674 280.197 226.795V238.999C280.172 242.119 277.659 244.657 274.537 244.657Z" fill="white" stroke="#66B0F0" stroke-width="6" stroke-miterlimit="10"/>
<path d="M271.365 240.622H265.401C262.837 240.622 260.731 238.542 260.731 235.954V229.992C260.731 227.429 262.812 225.323 265.401 225.323H271.365C273.928 225.323 276.035 227.404 276.035 229.992V235.954C276.035 238.542 273.954 240.622 271.365 240.622Z" fill="white" stroke="#66B0F0" stroke-width="6" stroke-miterlimit="10"/>
<path d="M273.725 225.932L263.116 240.039" stroke="#66B0F0" stroke-width="6" stroke-miterlimit="10"/>
<path d="M270.223 225.45L261.035 237.628" stroke="#66B0F0" stroke-width="6" stroke-miterlimit="10"/>
<path d="M275.781 228.444L266.594 240.622" stroke="#66B0F0" stroke-width="6" stroke-miterlimit="10"/>
<path d="M276.035 232.986L270.274 240.623" stroke="#66B0F0" stroke-width="6" stroke-miterlimit="10"/>
<path d="M266.492 225.45L260.756 233.036" stroke="#66B0F0" stroke-width="6" stroke-miterlimit="10"/>
<path d="M259.386 578.544V592.524C259.386 599.273 253.903 604.753 247.152 604.753H215.783" stroke="#66B0F0" stroke-width="6" stroke-miterlimit="10"/>
<path d="M271.086 578.697V706.949" stroke="#66B0F0" stroke-width="6" stroke-miterlimit="10"/>
<path d="M214.285 748.077C214.285 725.369 236.848 706.95 264.665 706.95H277.304C305.12 706.95 327.683 725.369 327.683 748.077" stroke="#66B0F0" stroke-width="6" stroke-miterlimit="10"/>
<path d="M393.138 580.65H208.88C199.641 580.65 192.179 573.166 192.179 563.956H397.504L393.138 580.65Z" fill="#FFCF2D"/>
<path d="M213.169 775.275C220.682 775.275 226.772 769.186 226.772 761.676C226.772 754.165 220.682 748.077 213.169 748.077C205.656 748.077 199.565 754.165 199.565 761.676C199.565 769.186 205.656 775.275 213.169 775.275Z" fill="#FFCF2D"/>
<path d="M206.24 608.229H233.549C235.782 608.229 237.584 606.428 237.584 604.195V603.891C237.584 601.658 235.782 599.856 233.549 599.856H206.24C204.006 599.856 202.204 601.658 202.204 603.891V604.195C202.204 606.428 204.006 608.229 206.24 608.229Z" fill="#FFCF2D"/>
<path d="M192.179 564.464H322.912L279.182 441.97C276.136 433.471 268.091 427.788 259.056 427.788H162.942C153.399 427.788 146.749 437.226 149.947 446.207L192.179 564.464Z" stroke="#FFCF2D" stroke-width="6" stroke-miterlimit="10"/>
<path d="M198.651 564.464H312.303L270.045 446.03C267.101 437.809 259.335 432.329 250.604 432.329H153.297" stroke="#FFCF2D" stroke-width="6" stroke-miterlimit="10"/>
<path d="M327.455 775.275C334.968 775.275 341.058 769.186 341.058 761.676C341.058 754.165 334.968 748.077 327.455 748.077C319.942 748.077 313.851 754.165 313.851 761.676C313.851 769.186 319.942 775.275 327.455 775.275Z" fill="#FFCF2D"/>
</svg>
