<svg width="55" height="55" viewBox="0 0 55 55" fill="none" xmlns="http://www.w3.org/2000/svg">
<path d="M54.9981 5.37405C54.9981 2.40604 52.5921 0 49.624 0C46.656 0 44.25 2.40604 44.25 5.37405V49.6259C44.25 52.594 46.656 55 49.624 55C52.5921 55 54.9981 52.594 54.9981 49.6259V5.37405Z" fill="#FE1264"/>
<path d="M49.626 10.7623C52.594 10.7623 55 8.35621 55 5.38821C55 2.4202 52.594 0.0141602 49.626 0.0141602L5.37405 0.0141602C2.40605 0.0141602 3.8147e-06 2.4202 3.8147e-06 5.38821C3.8147e-06 8.35621 2.40605 10.7623 5.37405 10.7623L49.626 10.7623Z" fill="#FE1264"/>
<path d="M24.5482 43.9621C32.5721 43.9621 39.0768 37.4574 39.0768 29.4334C39.0768 21.4095 32.5721 14.9048 24.5482 14.9048C16.5242 14.9048 10.0195 21.4095 10.0195 29.4334C10.0195 37.4574 16.5242 43.9621 24.5482 43.9621Z" fill="#FE1264"/>
</svg>
