<svg width="1159" height="878" viewBox="0 0 1159 878" fill="none" xmlns="http://www.w3.org/2000/svg">
<path d="M509.358 766.444H794.722" stroke="#FFCF2D" stroke-width="6" stroke-miterlimit="10" stroke-linecap="round"/>
<path d="M651.939 514.357V625.989C651.939 660.356 669.775 692.265 699.065 710.302L740.286 735.689" stroke="#66B0F0" stroke-width="6" stroke-miterlimit="10" stroke-linecap="round" stroke-linejoin="round"/>
<path d="M629.608 514.357V625.989C629.608 660.356 611.772 692.265 582.483 710.302L541.261 735.689" stroke="#66B0F0" stroke-width="6" stroke-miterlimit="10" stroke-linecap="round" stroke-linejoin="round"/>
<path d="M614.611 514.357H664.876C669.323 514.357 672.915 510.77 672.915 506.33V493.662H606.573V506.33C606.573 510.77 610.165 514.357 614.611 514.357Z" fill="white" stroke="#66B0F0" stroke-width="6" stroke-miterlimit="10"/>
<path d="M742.145 766.444C731.947 766.444 723.682 758.191 723.682 748.006C723.682 737.821 731.947 729.568 742.145 729.568C752.344 729.568 760.609 737.821 760.609 748.006C760.609 758.191 752.344 766.444 742.145 766.444Z" fill="white" stroke="#FFCF2D" stroke-width="6" stroke-miterlimit="10"/>
<path d="M540.859 766.444C530.66 766.444 522.396 758.191 522.396 748.006C522.396 737.821 530.66 729.568 540.859 729.568C551.058 729.568 559.322 737.821 559.322 748.006C559.322 758.191 551.058 766.444 540.859 766.444Z" fill="white" stroke="#FFCF2D" stroke-width="6" stroke-miterlimit="10"/>
<path d="M540.859 762.555C532.82 762.555 526.289 756.033 526.289 748.006C526.289 739.978 532.82 733.456 540.859 733.456C548.897 733.456 555.428 739.978 555.428 748.006C555.428 756.033 548.897 762.555 540.859 762.555Z" fill="white" stroke="#FFCF2D" stroke-width="6" stroke-miterlimit="10"/>
<path d="M742.07 762.555C734.032 762.555 727.5 756.033 727.5 748.006C727.5 739.978 734.032 733.456 742.07 733.456C750.109 733.456 756.64 739.978 756.64 748.006C756.64 756.033 750.109 762.555 742.07 762.555Z" fill="white" stroke="#FFCF2D" stroke-width="6" stroke-miterlimit="10"/>
<path d="M613.632 679.923C613.632 679.923 637.546 662.413 667.966 679.923" stroke="#66B0F0" stroke-width="6" stroke-miterlimit="10" stroke-linecap="round" stroke-linejoin="round"/>
<path d="M651.362 483.653L628.251 719.784H699.466L758.021 507.308C768.798 472.64 745.612 437.369 709.514 437.294H704.49C677.763 437.219 655.105 457.012 651.362 483.653Z" fill="#31A1A9"/>
<path d="M642.168 719.784H679.697L673.794 739.075C666.384 731.7 656.059 726.382 644.78 725.705C643.725 725.629 642.695 725.604 641.666 725.604L642.168 719.784Z" fill="#E57281"/>
<path d="M685.224 766.293C687.183 748.131 667.991 727.109 644.755 725.68C621.519 724.25 607.176 739.577 606.045 757.789C605.87 760.549 605.618 763.91 606.221 766.369L685.224 766.293Z" fill="white" stroke="#FE5244" stroke-width="6" stroke-miterlimit="10"/>
<path d="M606.724 759.696L685.224 760.624" stroke="#FE5244" stroke-width="6" stroke-miterlimit="10"/>
<path d="M671.608 719.784L731.017 683.661L598.183 461.427C581.377 434.811 538.724 426.583 511.82 442.938C480.797 461.803 474.718 504.223 499.185 531.014L671.608 719.784Z" fill="#3FB1B5"/>
<path d="M671.86 718.781L731.52 683.159L598.434 461.427C581.629 434.811 538.975 426.583 512.072 442.938C481.049 461.803 474.97 504.223 499.436 531.014L671.86 718.781Z" stroke="white" stroke-width="6" stroke-miterlimit="10"/>
<path d="M730.088 682.081C727.45 677.716 712.001 682.156 695.573 692.04C679.144 701.898 668.016 713.789 670.654 718.154C673.292 722.519 688.69 717.727 705.119 707.869C721.522 698.01 732.7 686.471 730.088 682.081Z" fill="#73325A"/>
<path d="M726.471 710.327L698.738 727.737L690.901 718.957L688.514 716.272L678.567 705.134C682.837 700.769 688.69 696.154 695.598 692.04C701.175 688.703 706.676 686.044 711.65 684.238L719.412 697.86L721.12 700.845L726.471 710.327Z" fill="#E57281"/>
<path d="M770.23 729.217L701.15 766.419C699.416 764.562 697.934 762.38 696.754 759.896C695.749 757.814 694.97 755.632 694.367 753.424C690.298 738.172 696.05 720.688 714.413 711.958C730.615 704.256 750.787 708.671 762.442 718.806C765.884 721.841 768.597 725.378 770.23 729.217Z" fill="white" stroke="#FE5244" stroke-width="6" stroke-miterlimit="10"/>
<path d="M766.537 723.572L697.432 760.774" stroke="#FE5244" stroke-width="6" stroke-miterlimit="10" stroke-linecap="round"/>
<path d="M719.361 697.834C715.392 701.146 710.519 704.607 705.068 707.869C699.24 711.381 693.513 714.24 688.464 716.272L678.014 705.134C682.285 700.769 688.64 696.154 695.548 692.04C701.124 688.703 706.626 685.793 711.599 683.987L719.361 697.834Z" fill="#9A3B82"/>
<path d="M728.555 678.217C725.918 673.852 709.238 678.192 692.533 688.227C675.828 698.261 665.228 710.026 667.865 714.391" stroke="white" stroke-width="6" stroke-miterlimit="10"/>
<path d="M959.81 493.662C966.366 493.662 971.692 488.344 971.692 481.796V436.391C971.692 429.844 966.366 424.526 959.81 424.526H299.054C292.497 424.526 287.172 429.844 287.172 436.391V481.796C287.172 488.344 292.497 493.662 299.054 493.662H959.81Z" fill="#9A3B82"/>
<path d="M959.609 414.24H299.229C292.673 414.24 287.348 419.559 287.348 426.106V471.511C287.348 478.058 292.673 483.377 299.229 483.377H959.609C966.166 483.377 971.491 478.058 971.491 471.511V426.106C971.491 419.559 966.166 414.24 959.609 414.24Z" fill="white" stroke="#FFCF2D" stroke-width="6" stroke-miterlimit="10"/>
<path d="M925.22 483.427V766.544" stroke="#FFCF2D" stroke-width="6" stroke-miterlimit="10" stroke-linecap="round"/>
<path d="M348.741 483.427V766.544" stroke="#FFCF2D" stroke-width="6" stroke-miterlimit="10" stroke-linecap="round"/>
<path d="M327.037 696.078L325.982 696.756L287.649 637.779L276.119 638.657C273.657 638.858 271.698 636.625 272.2 634.192C272.728 631.784 275.416 630.529 277.601 631.733L287.071 636.926L280.113 626.19L268.583 627.093C266.121 627.293 264.162 625.036 264.689 622.627C265.217 620.219 267.905 618.965 270.09 620.169L279.56 625.337L272.602 614.6L261.072 615.503C258.61 615.704 256.651 613.446 257.178 611.038C257.706 608.63 260.394 607.375 262.579 608.579L272.05 613.772L267.855 607.325L260.067 600.677C258.183 599.072 258.384 596.112 260.444 594.757C262.529 593.403 265.317 594.431 266.021 596.814L268.91 606.623L273.23 613.27L272.326 602.233C272.125 599.774 274.361 597.818 276.772 598.319C279.184 598.821 280.44 601.53 279.259 603.688L273.682 613.973L280.741 624.835L279.837 613.822C279.636 611.364 281.871 609.407 284.283 609.909C286.694 610.411 287.95 613.12 286.77 615.277L281.193 625.562L288.252 636.424L287.348 625.412C287.147 622.954 289.382 620.972 291.794 621.499C294.205 622 295.461 624.709 294.281 626.867L288.704 637.152L327.037 696.078Z" fill="#9A3B82"/>
<path d="M391.445 675.232C373.032 712.284 348.163 738.047 333.468 736.266C332.262 736.115 331.132 735.789 330.077 735.262C316.11 728.339 320.933 690.233 340.878 650.146C349.419 632.963 359.341 618.237 368.988 607.526C381.874 593.252 394.258 586.153 402.246 590.116C416.213 597.04 411.365 635.145 391.445 675.232Z" fill="#9A3B82"/>
<path d="M368.385 645.957C364.29 692.918 349.243 730.797 333.493 736.266C332.287 736.115 331.157 735.789 330.102 735.262C316.135 728.339 320.958 690.233 340.903 650.146C349.444 632.963 359.367 618.237 369.013 607.526C369.716 619.341 369.565 632.361 368.385 645.957Z" fill="#FFCF2D"/>
<path d="M402.246 590.116L333.493 736.266" stroke="#FFCF2D" stroke-width="6" stroke-miterlimit="10"/>
<path d="M400.94 698.487L391.219 701.748L384.738 706.288L395.74 704.984C398.202 704.683 400.237 706.84 399.835 709.273C399.408 711.707 396.77 713.061 394.535 711.958L384.034 706.765L373.409 714.215L384.411 712.911C386.873 712.61 388.908 714.767 388.506 717.201C388.079 719.634 385.441 720.989 383.205 719.885L372.705 714.692L362.105 722.142L373.107 720.838C375.569 720.537 377.604 722.694 377.177 725.128C376.75 727.561 374.112 728.916 371.876 727.812L361.376 722.619L341.958 736.241H339.773L360.698 721.565L359.392 710.101C359.115 707.643 361.276 705.611 363.712 706.037C366.149 706.464 367.48 709.123 366.375 711.331L361.527 720.989L372.002 713.638L370.696 702.174C370.419 699.716 372.58 697.684 375.016 698.11C377.453 698.537 378.784 701.196 377.679 703.403L372.856 713.036L383.331 705.686L382.025 694.222C381.748 691.764 383.909 689.732 386.345 690.158C388.782 690.585 390.113 693.244 389.008 695.451L384.16 705.109L390.465 700.694L396.82 692.667C398.353 690.735 401.342 690.81 402.749 692.842C404.231 694.874 403.301 697.709 400.94 698.487Z" fill="#FFCF2D"/>
<path d="M322.139 734.309C320.883 734.735 319.552 735.037 318.195 735.212C302.369 737.269 280.515 722.519 267.302 700.117C252.958 675.784 254.265 651.652 270.216 646.183C275.391 644.402 281.495 644.828 287.825 647.036C301.038 651.627 315.356 663.919 325.053 680.35C339.371 704.708 338.065 728.84 322.139 734.309Z" fill="white" stroke="#FFCF2D" stroke-width="6" stroke-miterlimit="10"/>
<path d="M322.139 734.309C320.883 734.736 319.552 735.037 318.195 735.212C303.575 728.59 290.865 700.544 288.177 666.477C287.649 659.754 287.549 653.232 287.825 647.036C301.038 651.627 315.357 663.919 325.053 680.35C339.371 704.708 338.065 728.84 322.139 734.309Z" fill="#FFCF2D"/>
<path d="M264.162 649.72L318.17 735.212" stroke="#FFCF2D" stroke-width="6" stroke-miterlimit="10"/>
<path d="M328.57 737.269C346.05 737.269 360.221 695.163 360.221 643.223C360.221 591.283 346.05 549.177 328.57 549.177C311.089 549.177 296.918 591.283 296.918 643.223C296.918 695.163 311.089 737.269 328.57 737.269Z" fill="white" stroke="#FFCF2D" stroke-width="6" stroke-miterlimit="10"/>
<path d="M328.57 549.151V737.269" stroke="#FFCF2D" stroke-width="6" stroke-miterlimit="10"/>
<path d="M348.741 571.703L328.57 598.696L311.463 564.88" stroke="#FFCF2D" stroke-width="6" stroke-miterlimit="10" stroke-linecap="round"/>
<path d="M355.297 594.582L328.369 631.558L304.153 584.773" stroke="#FFCF2D" stroke-width="6" stroke-miterlimit="10" stroke-linecap="round"/>
<path d="M359.492 620.972L328.117 664.169L299.456 608.981" stroke="#FFCF2D" stroke-width="6" stroke-miterlimit="10" stroke-linecap="round"/>
<path d="M361.452 656.192L328.268 702.551L296.994 643.298" stroke="#FFCF2D" stroke-width="6" stroke-miterlimit="10" stroke-linecap="round"/>
<path d="M375.494 766.544H281.57C274.336 766.544 268.458 760.674 268.458 753.449V749.36C268.458 742.136 274.336 736.266 281.57 736.266H375.494C382.728 736.266 388.606 742.136 388.606 749.36V753.449C388.606 760.699 382.728 766.544 375.494 766.544Z" fill="white" stroke="#66B0F0" stroke-width="6" stroke-miterlimit="10"/>
<path d="M928.435 440.605C928.435 444.343 925.446 447.378 921.778 447.378H819.465C815.772 447.378 812.808 444.343 812.808 440.605C812.808 436.868 815.797 433.832 819.465 433.832H921.778C925.446 433.832 928.435 436.868 928.435 440.605Z" fill="#FE5244"/>
<path d="M885.254 370.064H843.379V399.164H924.265C919.141 381.905 903.265 370.064 885.254 370.064Z" fill="white" stroke="#FFCF2D" stroke-width="6" stroke-miterlimit="10"/>
<path d="M850.915 370.064V399.164L833.582 399.189V370.064H850.915Z" fill="#FFCF2D" stroke="#FFCF2D" stroke-width="6" stroke-miterlimit="10"/>
<path d="M988.397 398.587L924.265 399.164C924.265 399.164 940.317 377.44 984.377 383.184C984.377 383.184 949.913 376.01 914.946 383.184" stroke="#FFCF2D" stroke-width="6" stroke-miterlimit="10"/>
<path d="M924.265 399.164C924.265 399.164 952.374 383.736 986.638 391.212" stroke="#FFCF2D" stroke-width="6" stroke-miterlimit="10"/>
<path d="M931.424 422.97C931.424 425.705 931.851 428.188 932.53 430.019H901.757C900.175 430.019 898.869 428.64 898.869 426.959V419.007C898.869 417.301 900.15 415.946 901.757 415.946H932.53C931.851 417.752 931.424 420.236 931.424 422.97Z" fill="#FFCF2D"/>
<path d="M898.894 419.007V426.959C898.894 428.665 900.275 430.019 901.958 430.019H935.016V430.596C935.016 432.001 933.886 433.13 932.479 433.13H816.852C815.445 433.13 814.315 432.001 814.315 430.596V415.344C814.315 413.939 815.445 412.811 816.852 412.811H932.479C933.886 412.811 935.016 413.939 935.016 415.344V415.921H901.958C900.275 415.946 898.894 417.301 898.894 419.007Z" fill="white"/>
<path d="M898.894 419.007V426.959C898.894 428.665 900.275 430.019 901.958 430.019H935.016V430.596C935.016 432.001 933.886 433.13 932.479 433.13H816.852C815.445 433.13 814.315 432.001 814.315 430.596V415.344C814.315 413.939 815.445 412.811 816.852 412.811H932.479C933.886 412.811 935.016 413.939 935.016 415.344V415.921H901.958C900.275 415.946 898.894 417.301 898.894 419.007Z" stroke="#FFCF2D" stroke-width="6" stroke-miterlimit="10"/>
<path d="M855.813 452.822C854.607 453.951 853.854 456.008 853.854 457.739C853.854 461.176 856.868 464.713 860.586 464.713H953.229C953.229 466.319 951.922 467.648 950.29 467.648H838.48C835.491 467.648 832.778 466.519 830.819 464.713C828.859 462.907 827.628 460.398 827.628 457.614C827.628 452.07 832.477 447.579 838.48 447.579H950.29C951.897 447.579 953.229 448.884 953.229 450.514V451.041H860.586C858.702 451.016 857.019 451.719 855.813 452.822Z" fill="#FFCF2D"/>
<path d="M946.522 451.016V464.462H953.204V465.591H860.259C859.229 465.591 858.225 465.39 857.32 465.014C856.341 464.613 855.436 464.036 854.708 463.283C853.276 461.853 852.397 459.896 852.397 457.739C852.397 453.399 855.914 449.887 860.259 449.887H953.204V451.016H946.522Z" fill="#FE5244"/>
<path d="M949.109 451.016V464.462H860.586C856.868 464.462 853.854 461.452 853.854 457.739C853.854 455.883 854.608 454.202 855.813 452.973C857.019 451.769 858.702 451.016 860.561 451.016H949.109Z" fill="white"/>
<path d="M949.109 451.016V464.462" stroke="#FE5244" stroke-width="5" stroke-miterlimit="10"/>
<path d="M872.92 460.549V471.762H865.158V461.979C865.158 459.646 863.274 457.739 860.913 457.739H857.446V456.309H868.675C871.036 456.309 872.92 458.216 872.92 460.549Z" fill="#FE5244"/>
<path d="M953.58 399.791H821.6C818.184 399.791 815.421 402.55 815.421 405.962C815.446 409.349 818.184 412.108 821.6 412.108H953.58C956.997 412.108 959.76 409.349 959.76 405.937C959.735 402.55 956.972 399.791 953.58 399.791Z" fill="#66B0F0"/>
<path d="M923.637 412.133H922.306C922.456 412.534 922.833 413.538 923.662 413.538C924.165 413.538 926.627 413.162 926.627 405.962C926.627 403.403 926.325 401.447 925.722 400.117C924.994 398.537 924.039 398.361 923.687 398.361C922.833 398.361 922.456 399.39 922.306 399.791H923.637C923.687 399.691 923.738 399.64 923.763 399.615C924.215 399.741 925.421 400.995 925.421 405.962C925.421 410.929 924.215 412.158 923.763 412.309C923.712 412.259 923.662 412.208 923.637 412.133Z" fill="#9A3B82"/>
<path d="M934.54 412.133H933.208C933.359 412.534 933.736 413.538 934.565 413.538C935.067 413.538 937.529 413.162 937.529 405.962C937.529 403.403 937.227 401.447 936.624 400.117C935.896 398.537 934.941 398.361 934.59 398.361C933.736 398.361 933.359 399.39 933.208 399.791H934.54C934.59 399.691 934.64 399.64 934.665 399.615C935.117 399.741 936.323 400.995 936.323 405.962C936.323 410.929 935.117 412.158 934.665 412.309C934.64 412.259 934.59 412.208 934.54 412.133Z" fill="#9A3B82"/>
<path d="M945.467 412.133H944.135C944.286 412.535 944.663 413.538 945.492 413.538C946.195 413.538 948.456 412.986 948.456 405.962C948.456 398.913 946.195 398.386 945.492 398.386C944.638 398.386 944.261 399.415 944.11 399.816H945.441C945.492 399.716 945.542 399.666 945.567 399.641C946.07 399.766 947.225 401.07 947.225 405.987C947.225 408.997 946.798 410.553 946.421 411.356C946.12 412.008 945.793 412.284 945.567 412.334C945.542 412.259 945.517 412.208 945.467 412.133Z" fill="#9A3B82"/>
<path d="M890.856 412.133H889.524C889.675 412.535 890.052 413.538 890.881 413.538C891.383 413.538 893.845 413.162 893.845 405.962C893.845 398.913 891.584 398.386 890.881 398.386C890.027 398.386 889.65 399.415 889.499 399.816H890.831C890.881 399.716 890.931 399.666 890.956 399.641C891.459 399.766 892.614 401.07 892.614 405.987C892.614 410.954 891.408 412.183 890.956 412.334C890.956 412.259 890.906 412.208 890.856 412.133Z" fill="#9A3B82"/>
<path d="M901.783 412.133H900.452C900.602 412.535 900.979 413.538 901.808 413.538C902.285 413.538 903.165 413.337 903.843 411.933C904.446 410.653 904.773 408.646 904.773 405.962C904.773 403.278 904.471 401.271 903.843 399.992C903.165 398.587 902.285 398.386 901.808 398.386C900.954 398.386 900.577 399.415 900.427 399.816H901.758C901.808 399.716 901.858 399.666 901.884 399.641C902.185 399.691 902.486 400.017 902.738 400.544C903.089 401.296 903.542 402.851 903.542 405.987C903.542 409.098 903.114 410.653 902.738 411.431C902.486 411.958 902.16 412.284 901.884 412.334C901.858 412.259 901.833 412.208 901.783 412.133Z" fill="#9A3B82"/>
<path d="M912.71 412.133H911.379C911.529 412.535 911.906 413.538 912.735 413.538C913.438 413.538 915.699 412.986 915.699 405.962C915.699 398.737 913.238 398.386 912.735 398.386C911.881 398.386 911.504 399.415 911.354 399.816H912.685C912.735 399.716 912.785 399.666 912.81 399.641C913.263 399.766 914.468 401.02 914.468 405.987C914.468 410.904 913.313 412.208 912.81 412.334C912.785 412.259 912.76 412.208 912.71 412.133Z" fill="#9A3B82"/>
<path d="M858.099 412.133H856.768C856.918 412.535 857.295 413.538 858.124 413.538C858.501 413.538 859.456 413.362 860.159 411.782C860.762 410.478 861.063 408.496 861.063 405.937C861.063 403.579 860.737 401.597 860.159 400.243C859.631 399.038 858.878 398.336 858.099 398.336C857.245 398.336 856.868 399.365 856.718 399.766H858.049C858.099 399.691 858.124 399.615 858.149 399.59C858.3 399.666 858.652 399.942 859.003 400.744C859.38 401.572 859.807 403.152 859.807 405.912C859.807 410.879 858.602 412.108 858.149 412.259C858.174 412.259 858.149 412.208 858.099 412.133Z" fill="#9A3B82"/>
<path d="M869.026 412.133H867.695C867.846 412.534 868.223 413.538 869.052 413.538C869.428 413.538 870.383 413.362 871.086 411.782C871.689 410.477 871.991 408.496 871.991 405.937C871.991 398.888 869.73 398.361 869.026 398.361C868.172 398.361 867.795 399.39 867.645 399.791H868.976C869.026 399.691 869.077 399.64 869.102 399.615C869.604 399.741 870.76 401.045 870.76 405.962C870.76 410.929 869.554 412.158 869.102 412.309C869.102 412.259 869.077 412.208 869.026 412.133Z" fill="#9A3B82"/>
<path d="M879.954 412.133H878.622C878.773 412.535 879.15 413.538 879.979 413.538C880.682 413.538 882.943 412.986 882.943 405.962C882.943 403.278 882.641 401.271 882.013 399.992C881.335 398.587 880.456 398.386 879.979 398.386C879.125 398.386 878.748 399.415 878.597 399.816H879.929C879.979 399.716 880.029 399.666 880.054 399.641C880.356 399.691 880.657 400.017 880.908 400.544C881.26 401.296 881.712 402.851 881.712 405.987C881.712 410.904 880.557 412.208 880.054 412.334C880.029 412.259 879.979 412.208 879.954 412.133Z" fill="#9A3B82"/>
<path d="M825.343 412.134H824.011C824.162 412.535 824.539 413.538 825.368 413.538C826.147 413.538 826.875 412.836 827.428 411.632C828.031 410.277 828.332 408.321 828.332 405.937C828.332 403.153 827.83 401.397 827.428 400.419C826.875 399.114 826.121 398.362 825.368 398.362C824.514 398.362 824.137 399.39 823.986 399.791H825.318C825.368 399.716 825.393 399.666 825.418 399.616C825.594 399.716 825.971 400.067 826.322 401.021C826.674 401.899 827.076 403.454 827.076 405.937C827.076 408.722 826.649 410.277 826.272 411.13C825.921 411.933 825.569 412.209 825.418 412.284C825.418 412.259 825.368 412.209 825.343 412.134Z" fill="#9A3B82"/>
<path d="M836.245 412.133H834.914C835.064 412.534 835.441 413.538 836.27 413.538C837.049 413.538 837.777 412.836 838.33 411.631C838.933 410.277 839.234 408.32 839.234 405.937C839.234 401.02 837.702 398.361 836.27 398.361C835.416 398.361 835.039 399.39 834.888 399.791H836.22C836.27 399.716 836.295 399.666 836.32 399.615C836.496 399.716 836.848 400.067 837.225 400.97C837.576 401.823 837.978 403.403 837.978 405.937C837.978 408.721 837.551 410.277 837.174 411.13C836.823 411.932 836.471 412.208 836.32 412.284C836.32 412.259 836.295 412.208 836.245 412.133Z" fill="#9A3B82"/>
<path d="M847.172 412.133H845.841C845.991 412.534 846.368 413.538 847.197 413.538C847.574 413.538 848.503 413.362 849.257 411.682C849.86 410.327 850.161 408.395 850.161 405.962C850.161 403.604 849.835 401.622 849.257 400.268C848.729 399.063 847.976 398.361 847.197 398.361C846.343 398.361 845.966 399.39 845.815 399.791H847.147C847.197 399.716 847.222 399.64 847.247 399.615C847.398 399.691 847.75 399.967 848.101 400.769C848.478 401.597 848.905 403.178 848.905 405.937C848.905 408.772 848.478 410.327 848.101 411.155C847.75 411.932 847.398 412.208 847.247 412.259C847.247 412.259 847.222 412.208 847.172 412.133Z" fill="#9A3B82"/>
<path d="M906.958 223.464H818.887C813.788 223.464 809.668 219.35 809.668 214.257V126.307C809.668 121.214 813.788 117.1 818.887 117.1H906.958C912.057 117.1 916.177 121.214 916.177 126.307V214.257C916.177 219.35 912.032 223.464 906.958 223.464Z" fill="#FFCF2D"/>
<path d="M900.527 217.568H810.723C805.624 217.568 801.504 213.454 801.504 208.362V118.681C801.504 113.588 805.624 109.474 810.723 109.474H900.527C905.627 109.474 909.746 113.588 909.746 118.681V208.362C909.746 213.454 905.627 217.568 900.527 217.568Z" fill="white" stroke="#FFCF2D" stroke-width="6" stroke-miterlimit="10"/>
<path d="M855.637 204.9C878.529 204.9 897.086 186.369 897.086 163.509C897.086 140.649 878.529 122.117 855.637 122.117C832.746 122.117 814.189 140.649 814.189 163.509C814.189 186.369 832.746 204.9 855.637 204.9Z" stroke="#FFCF2D" stroke-width="6" stroke-miterlimit="10"/>
<path d="M832.326 145.748L855.638 163.509L849.91 145.974" stroke="#FFCF2D" stroke-width="6" stroke-miterlimit="10" stroke-linecap="round"/>
<path d="M781.835 483.377H710.82L681.003 447.604H750.309L781.835 483.377Z" fill="#FFCF2D"/>
<path d="M820.294 485.233V507.308L764.025 507.534C756.815 507.559 750.962 501.739 750.962 494.54V487.691C750.962 483.126 749.279 478.736 746.265 475.349L727.701 454.528H797.007L814.742 472.013C818.309 475.5 820.294 480.241 820.294 485.233Z" fill="white" stroke="#66B0F0" stroke-width="6" stroke-miterlimit="10"/>
<path d="M845.615 499.532C843.228 504.298 838.305 507.559 832.602 507.559H763.271C768.948 507.559 773.872 504.298 776.283 499.532H845.615Z" fill="white" stroke="#66B0F0" stroke-width="6" stroke-miterlimit="10"/>
<path d="M802.634 362.037L760.332 287.833C750.234 270.098 731.369 259.16 710.946 259.16H552.514L558.066 247.195C557.614 248.173 555.227 248.424 551.585 247.922C546.008 247.169 537.518 244.736 528.475 240.722C523.3 238.44 518.602 236.057 514.709 233.849C507.349 229.66 502.902 225.997 503.631 224.367L422.744 356.844C404.985 382.708 423.523 417.853 454.923 417.853C459.143 417.853 463.313 417.175 467.282 415.846C471.251 414.516 474.994 412.56 478.36 410.026L540.482 363.392C544.225 360.582 549.575 362.764 550.329 367.355L558.443 417.853H770.104C798.816 417.878 816.827 386.922 802.634 362.037ZM708.484 367.832L715.267 352.429C716.422 349.795 720.14 349.745 721.346 352.354L728.706 367.857H708.484V367.832Z" fill="#FE5244"/>
<path d="M577.735 259.11C577.735 246.141 604.538 230.111 637.043 226.022C685.801 219.926 696.352 246.141 696.352 259.11" stroke="#FE5244" stroke-width="6" stroke-miterlimit="10"/>
<path d="M690.725 259.336C690.725 270.951 637.043 294.732 637.043 294.732C637.043 294.732 583.362 270.951 583.362 259.336C583.362 247.721 608.884 234.275 638.299 230.688C680.626 225.521 690.725 247.696 690.725 259.336Z" fill="#FE5244"/>
<path d="M690.725 259.336C690.725 270.951 637.043 294.732 637.043 294.732C637.043 294.732 583.362 270.951 583.362 259.336C583.362 259.286 583.362 259.236 583.362 259.186H690.725C690.725 259.211 690.725 259.261 690.725 259.336Z" fill="white"/>
<path d="M696.326 259.085C696.326 271.904 637.043 301.054 637.043 301.054C637.043 301.054 577.76 271.929 577.76 259.085" stroke="white" stroke-width="6" stroke-miterlimit="10"/>
<path d="M682.787 417.301C686.103 417.301 688.79 406.338 688.79 392.842C688.79 379.346 686.103 368.384 682.787 368.384" stroke="white" stroke-width="5" stroke-miterlimit="10" stroke-linecap="round"/>
<path d="M556.835 252.111L510.338 344.954" stroke="white" stroke-width="5" stroke-miterlimit="10"/>
<path d="M546.737 342.821L554.424 393.344" stroke="white" stroke-width="5" stroke-miterlimit="10" stroke-linecap="round"/>
<path d="M634.531 306.999H639.555" stroke="white" stroke-width="5" stroke-miterlimit="10" stroke-linecap="round"/>
<path d="M634.531 312.969H639.555" stroke="white" stroke-width="5" stroke-miterlimit="10" stroke-linecap="round"/>
<path d="M634.531 318.915H639.555" stroke="white" stroke-width="5" stroke-miterlimit="10" stroke-linecap="round"/>
<path d="M634.531 324.86H639.555" stroke="white" stroke-width="5" stroke-miterlimit="10" stroke-linecap="round"/>
<path d="M634.531 330.805H639.555" stroke="white" stroke-width="5" stroke-miterlimit="10" stroke-linecap="round"/>
<path d="M634.531 336.776H639.555" stroke="white" stroke-width="5" stroke-miterlimit="10" stroke-linecap="round"/>
<path d="M634.531 337.052H639.555" stroke="white" stroke-width="5" stroke-miterlimit="10" stroke-linecap="round"/>
<path d="M634.531 342.997H639.555" stroke="white" stroke-width="5" stroke-miterlimit="10" stroke-linecap="round"/>
<path d="M634.531 348.942H639.555" stroke="white" stroke-width="5" stroke-miterlimit="10" stroke-linecap="round"/>
<path d="M634.531 354.612H639.555" stroke="white" stroke-width="5" stroke-miterlimit="10" stroke-linecap="round"/>
<path d="M634.531 360.582H639.555" stroke="white" stroke-width="5" stroke-miterlimit="10" stroke-linecap="round"/>
<path d="M634.531 366.527H639.555" stroke="white" stroke-width="5" stroke-miterlimit="10" stroke-linecap="round"/>
<path d="M634.531 372.473H639.555" stroke="white" stroke-width="5" stroke-miterlimit="10" stroke-linecap="round"/>
<path d="M634.531 378.418H639.555" stroke="white" stroke-width="5" stroke-miterlimit="10" stroke-linecap="round"/>
<path d="M634.531 384.388H639.555" stroke="white" stroke-width="5" stroke-miterlimit="10" stroke-linecap="round"/>
<path d="M634.531 390.334H639.555" stroke="white" stroke-width="5" stroke-miterlimit="10" stroke-linecap="round"/>
<path d="M634.531 396.279H639.555" stroke="white" stroke-width="5" stroke-miterlimit="10" stroke-linecap="round"/>
<path d="M634.531 402.224H639.555" stroke="white" stroke-width="5" stroke-miterlimit="10" stroke-linecap="round"/>
<path d="M634.531 402.525H639.555" stroke="white" stroke-width="5" stroke-miterlimit="10" stroke-linecap="round"/>
<path d="M634.531 408.471H639.555" stroke="white" stroke-width="5" stroke-miterlimit="10" stroke-linecap="round"/>
<path d="M634.531 414.416H639.555" stroke="white" stroke-width="5" stroke-miterlimit="10" stroke-linecap="round"/>
<path d="M634.004 298.896V393.344" stroke="white" stroke-width="5" stroke-miterlimit="10"/>
<path d="M679.873 368.333H740.286" stroke="white" stroke-width="5" stroke-miterlimit="10" stroke-linecap="round"/>
<path d="M511.77 467.046H704.666L686.53 418.053H532.67L511.77 467.046Z" fill="white" stroke="#66B0F0" stroke-width="6" stroke-miterlimit="10"/>
<path d="M511.77 467.046C511.77 460.122 530.158 447.604 560.025 445.899C592.003 444.092 608.758 464.161 608.281 467.046H511.77Z" fill="#66B0F0"/>
<path d="M608.256 467.046C608.256 467.046 599.765 427.41 525.234 435.488L541.336 396.379C541.336 396.379 602.378 385.291 608.281 418.053L608.256 467.046Z" fill="white" stroke="#66B0F0" stroke-width="6" stroke-miterlimit="10" stroke-linejoin="round"/>
<path d="M703.536 463.96C699.09 457.814 681.958 451.392 656.436 449.937C626.091 448.206 609.461 462.606 608.256 466.519V418.053C608.256 418.053 629.909 393.369 686.53 418.053L703.536 463.96Z" fill="white" stroke="#66B0F0" stroke-width="6" stroke-miterlimit="10" stroke-linejoin="round"/>
<path d="M677.486 443.691C671.156 442.086 663.494 440.882 654.753 440.38C650.407 440.129 646.363 440.254 642.645 440.656C633.426 441.684 626.166 444.444 620.991 447.404" stroke="#66B0F0" stroke-width="6" stroke-miterlimit="10" stroke-linecap="round" stroke-linejoin="round"/>
<path d="M675.251 435.338C669.197 433.908 661.987 432.829 653.848 432.352C649.503 432.101 645.458 432.227 641.741 432.628C632.522 433.657 625.262 436.416 620.087 439.376" stroke="#66B0F0" stroke-width="6" stroke-miterlimit="10" stroke-linecap="round" stroke-linejoin="round"/>
<path d="M673.191 427.009C667.413 425.73 660.706 424.776 653.17 424.325C648.824 424.074 644.78 424.199 641.062 424.601C631.843 425.629 624.584 428.389 619.409 431.349" stroke="#66B0F0" stroke-width="6" stroke-miterlimit="10" stroke-linecap="round" stroke-linejoin="round"/>
<path d="M681.48 415.846L697.457 459.295" stroke="#66B0F0" stroke-width="6" stroke-miterlimit="10"/>
<path d="M704.691 467.046H608.256V466.519C609.461 462.606 626.091 448.207 656.436 449.937C681.958 451.392 699.09 457.814 703.536 463.96L704.691 467.046Z" fill="#66B0F0"/>
<path d="M667.815 259.161C667.815 259.161 649.829 268.518 624.86 264.755C618.655 263.827 611.999 262.071 605.116 259.161V228.957L637.47 208.839L642.318 216.891L667.815 259.161Z" fill="#E57281"/>
<path d="M639.254 211.222C641.188 214.809 641.514 219.074 640.108 222.912L624.86 264.755C618.655 263.826 611.999 262.07 605.116 259.161V228.957L637.621 208.211L639.254 211.222Z" fill="#9A3B82"/>
<path d="M636.465 197.7C636.465 197.7 640.258 164.01 626.769 160.925C616.47 158.567 611.345 166.318 611.345 166.318C611.345 166.318 605.769 158.19 597.127 162.004C588.913 165.616 589.491 176.879 593.184 175.976C596.876 175.073 589.617 167.848 581.855 173.192C573.264 179.087 581.855 188.82 581.855 188.82C581.855 188.82 575.499 185.76 572.56 192.006C568.918 199.758 589.717 216.465 589.717 216.465L636.465 197.7Z" fill="#9A3B82"/>
<path d="M615.917 181.42L594.339 190.074C589.139 192.156 586.602 198.102 588.687 203.269L598.107 226.725C601.574 235.379 611.521 239.594 620.163 236.132L629.13 232.545C637.797 229.083 642.017 219.149 638.551 210.519L629.13 187.064C627.046 181.871 621.092 179.338 615.917 181.42Z" fill="#E57281"/>
<path d="M642.896 208.763L638.551 210.519L633.828 198.779L638.174 197.023C640.761 195.995 643.675 197.249 644.705 199.808L645.685 202.241C646.74 204.8 645.484 207.71 642.896 208.763Z" fill="#E57281"/>
<path d="M593.435 227.628L597.781 225.872L593.385 214.959L589.039 216.715C586.452 217.744 585.221 220.679 586.251 223.238L586.904 224.843C587.934 227.402 590.848 228.656 593.435 227.628Z" fill="#9A3B82"/>
<path d="M637.596 205C636.792 202.968 637.772 200.686 639.806 199.858" stroke="#9A3B82" stroke-width="5" stroke-miterlimit="10" stroke-linecap="round"/>
<path d="M616.47 194.138C616.47 194.138 621.57 196.045 628.05 192.984" stroke="#9A3B82" stroke-width="5" stroke-miterlimit="10" stroke-linecap="round"/>
<path d="M605.694 202.718C605.694 202.718 613.305 201.94 616.068 214.734" stroke="#9A3B82" stroke-width="5" stroke-miterlimit="10" stroke-linecap="round"/>
<path d="M627.297 218.898C627.297 218.898 616.068 215.888 616.47 221.682" stroke="#9A3B82" stroke-width="5" stroke-miterlimit="10" stroke-linecap="round"/>
<path d="M625.726 207.033C626.263 206.843 626.318 205.62 625.85 204.301C625.382 202.982 624.568 202.067 624.032 202.256C623.496 202.446 623.44 203.669 623.908 204.988C624.376 206.307 625.19 207.222 625.726 207.033Z" fill="#9A3B82"/>
<path d="M605.007 215.665C605.543 215.476 605.598 214.253 605.131 212.934C604.663 211.615 603.849 210.699 603.313 210.889C602.776 211.079 602.721 212.302 603.189 213.621C603.657 214.94 604.471 215.855 605.007 215.665Z" fill="#9A3B82"/>
<path d="M625.488 211.849C629.497 211.849 632.748 208.603 632.748 204.599C632.748 200.595 629.497 197.349 625.488 197.349C621.479 197.349 618.229 200.595 618.229 204.599C618.229 208.603 621.479 211.849 625.488 211.849Z" stroke="#FFCF2D" stroke-width="5" stroke-miterlimit="10" stroke-linecap="round"/>
<path d="M604.136 220.127C608.146 220.127 611.396 216.881 611.396 212.877C611.396 208.873 608.146 205.628 604.136 205.628C600.127 205.628 596.876 208.873 596.876 212.877C596.876 216.881 600.127 220.127 604.136 220.127Z" stroke="#FFCF2D" stroke-width="5" stroke-miterlimit="10" stroke-linecap="round"/>
<path d="M610.918 210.268L618.58 206.756" stroke="#FFCF2D" stroke-width="5" stroke-miterlimit="10" stroke-linecap="round"/>
<path d="M559.573 244.435C559.146 245.413 556.734 245.664 553.092 245.163C547.515 244.41 539.025 241.977 529.982 237.963C524.807 235.655 520.11 233.297 516.241 231.089C508.881 226.9 504.435 223.238 505.163 221.607C505.892 220.002 511.544 220.779 519.532 223.363C523.827 224.743 528.776 226.649 534.001 228.982C542.944 232.946 550.706 236.809 555.278 239.794C558.392 241.801 560.025 243.432 559.573 244.435Z" fill="white" stroke="#FE5244" stroke-width="6" stroke-miterlimit="10"/>
<path d="M602.202 193.561L595.369 219.926L589.215 204.624C586.853 198.754 589.692 192.031 595.495 189.573L602.202 193.561Z" fill="#9A3B82"/>
<path d="M602.453 193.085L588.888 216.565C587.331 219.274 584.417 220.955 581.277 220.955H567.26C565.2 220.955 563.366 222.209 562.588 224.091L555.303 239.819L553.168 244.41C547.013 243.582 538.447 240.923 530.258 237.286C527.193 235.931 524.204 234.501 521.441 233.071L525.134 225.37L531.74 211.598C534.905 204.147 540.356 197.876 547.315 193.712L560.98 185.509C562.789 184.43 564.874 183.853 566.984 183.853H590.194C591.476 183.853 592.732 184.129 593.862 184.681L600.845 187.992C602.78 188.92 603.508 191.253 602.453 193.085Z" fill="#E57281"/>
<path d="M569.646 193.837H586.225C587.456 193.837 588.662 194.113 589.767 194.64L596.474 197.851C598.308 198.729 599.012 200.987 598.007 202.743" stroke="#9A3B82" stroke-width="5" stroke-miterlimit="10" stroke-linecap="round"/>
<path d="M565.527 200.962H582.106C583.337 200.962 584.542 201.238 585.648 201.764L592.355 204.975C594.189 205.853 594.892 208.111 593.887 209.867" stroke="#9A3B82" stroke-width="5" stroke-miterlimit="10" stroke-linecap="round"/>
<path d="M560.678 210.268H577.257C578.488 210.268 579.694 210.544 580.799 211.071L587.506 214.282C589.34 215.16 590.044 217.418 589.039 219.174" stroke="#9A3B82" stroke-width="5" stroke-miterlimit="10" stroke-linecap="round"/>
<path d="M553.193 244.41C547.038 243.582 538.472 240.923 530.283 237.286C527.219 235.931 524.229 234.501 521.466 233.071L525.636 224.567C528.424 225.621 531.162 226.825 534.227 228.205C543.17 232.168 550.982 236.307 555.554 239.293L553.193 244.41Z" fill="#9A3B82"/>
<path d="M555.78 220.278H567.536" stroke="#9A3B82" stroke-width="5" stroke-miterlimit="10" stroke-linecap="round"/>
<path d="M679.772 417.853C683.088 417.853 685.776 406.655 685.776 392.842C685.776 379.029 683.088 367.832 679.772 367.832C676.456 367.832 673.768 379.029 673.768 392.842C673.768 406.655 676.456 417.853 679.772 417.853Z" fill="white"/>
<path d="M685.776 392.842C685.776 397.132 685.525 401.171 685.048 404.708C683.49 408.671 680.3 411.807 676.281 413.287C674.648 413.889 672.864 414.24 671.005 414.24H648.222C645.358 414.24 643.022 416.573 643.022 419.433V420.136C643.022 424.325 638.55 427.034 634.833 425.077L624.132 419.483C622.222 418.48 621.017 416.498 621.017 414.341V405.987C621.017 402.851 622.499 399.916 624.986 398.035L641.314 385.768C644.077 383.686 647.443 382.582 650.884 382.582H685.223C685.6 385.718 685.776 389.18 685.776 392.842Z" fill="#E57281"/>
<path d="M645.434 390.66L630.437 401.923C628.151 403.654 626.794 406.363 626.794 409.223V416.899C626.794 418.881 627.9 420.712 629.658 421.616" stroke="#9A3B82" stroke-width="5" stroke-miterlimit="10" stroke-linecap="round"/>
<path d="M653.07 394.021L638.073 405.285C635.787 407.016 634.431 409.725 634.431 412.585V420.261C634.431 422.243 635.536 424.074 637.294 424.977" stroke="#9A3B82" stroke-width="5" stroke-miterlimit="10" stroke-linecap="round"/>
<path d="M685.776 392.842C685.776 397.132 685.525 401.171 685.047 404.708C683.49 408.671 680.3 411.807 676.28 413.287C674.748 408.747 673.743 401.296 673.743 392.842C673.743 389.18 673.944 385.718 674.271 382.582H685.248C685.6 385.718 685.776 389.18 685.776 392.842Z" fill="#9A3B82"/>
<path d="M729.409 429.292C744.448 429.292 756.64 428.27 756.64 427.009C756.64 425.748 744.448 424.726 729.409 424.726C714.371 424.726 702.179 425.748 702.179 427.009C702.179 428.27 714.371 429.292 729.409 429.292Z" fill="#FFCF2D"/>
<path d="M752.068 428.74H740.814C730.364 428.74 721.924 420.286 721.924 409.875V393.846H770.983V409.85C770.983 420.286 762.518 428.74 752.068 428.74Z" fill="white" stroke="#FFCF2D" stroke-width="6" stroke-miterlimit="10"/>
<path d="M777.841 407.568H770.958V395.351H777.841C780.78 395.351 783.191 397.734 783.191 400.694V402.249C783.191 405.184 780.78 407.568 777.841 407.568Z" stroke="#FFCF2D" stroke-width="6" stroke-miterlimit="10"/>
<path d="M746.441 398.612C760.106 398.612 771.184 396.399 771.184 393.67C771.184 390.941 760.106 388.728 746.441 388.728C732.776 388.728 721.698 390.941 721.698 393.67C721.698 396.399 732.776 398.612 746.441 398.612Z" fill="#3FB1B5" stroke="white" stroke-width="5" stroke-miterlimit="10"/>
<path d="M721.949 397.684C721.949 400.418 732.926 402.626 746.441 402.626C759.955 402.626 770.933 400.418 770.933 397.684" stroke="#FFCF2D" stroke-width="6" stroke-miterlimit="10"/>
<path d="M721.949 402.927C721.949 405.661 732.926 407.869 746.441 407.869C759.955 407.869 770.933 405.661 770.933 402.927" stroke="#FFCF2D" stroke-width="6" stroke-miterlimit="10"/>
<path d="M721.949 408.17C721.949 410.904 732.926 413.112 746.441 413.112C759.955 413.112 770.933 410.904 770.933 408.17" stroke="#FFCF2D" stroke-width="6" stroke-miterlimit="10"/>
<path d="M722.326 413.413C722.326 416.147 733.127 418.354 746.441 418.354C759.754 418.354 770.556 416.147 770.556 413.413" stroke="#FFCF2D" stroke-width="6" stroke-miterlimit="10"/>
<path d="M724.209 418.656C724.209 421.39 734.157 423.597 746.441 423.597C758.724 423.597 768.672 421.39 768.672 418.656" stroke="#FFCF2D" stroke-width="6" stroke-miterlimit="10"/>
<path d="M745.461 384.89C743.05 383.235 735.539 367.456 744.833 361.009C751.967 356.042 753.349 368.911 750.058 367.832C744.331 365.95 740.839 340.764 755.785 342.32C762.367 342.997 761.638 352.354 755.785 352.605" stroke="white" stroke-width="5" stroke-miterlimit="10" stroke-linecap="round"/>
<path d="M453.315 458.592H329.851C326.535 458.592 323.571 456.585 322.34 453.525L288.553 370.14C286.946 366.151 289.885 361.786 294.18 361.786H417.645C420.961 361.786 423.925 363.793 425.156 366.853L458.942 450.239C460.575 454.227 457.636 458.592 453.315 458.592Z" fill="white" stroke="#FFCF2D" stroke-width="6" stroke-miterlimit="10"/>
<path d="M447.588 459.194H329.8C326.66 459.194 323.822 457.287 322.641 454.378L290.412 374.831C288.88 371.018 291.668 366.879 295.788 366.879H413.576C416.716 366.879 419.554 368.785 420.735 371.695L452.964 451.242C454.496 455.055 451.683 459.194 447.588 459.194Z" fill="#FFCF2D"/>
<path d="M375.267 423.02C371.801 423.02 368.535 421.666 366.074 419.207C364.064 417.201 362.959 414.541 362.959 411.732C362.959 408.897 364.064 406.238 366.074 404.256C367.706 402.626 369.892 401.723 372.203 401.723C374.514 401.723 376.699 402.626 378.332 404.256C381.12 407.041 381.12 411.556 378.332 414.341C376.021 416.649 372.278 416.649 369.967 414.341C369.565 413.939 369.565 413.312 369.967 412.911C370.369 412.51 370.997 412.51 371.399 412.911C372.931 414.441 375.393 414.441 376.925 412.911C378.935 410.904 378.935 407.668 376.925 405.661C375.669 404.407 373.986 403.704 372.203 403.704C370.419 403.704 368.736 404.407 367.48 405.661C365.848 407.292 364.968 409.424 364.968 411.732C364.968 414.015 365.873 416.172 367.48 417.803C369.565 419.885 372.303 421.014 375.242 421.014C378.181 421.014 380.945 419.885 383.004 417.803C383.406 417.401 384.034 417.401 384.436 417.803C384.838 418.204 384.838 418.831 384.436 419.232C382 421.666 378.734 423.02 375.267 423.02Z" fill="white"/>
<path d="M497.501 467.422H330.001C328.067 467.422 326.51 465.867 326.51 463.935V462.254C326.51 460.323 328.067 458.768 330.001 458.768H497.501C499.436 458.768 500.993 460.323 500.993 462.254V463.935C500.968 465.867 499.411 467.422 497.501 467.422Z" fill="white" stroke="#FFCF2D" stroke-width="6" stroke-miterlimit="10"/>
</svg>
