<svg width="1042" height="782" viewBox="0 0 1042 782" fill="none" xmlns="http://www.w3.org/2000/svg">
<path d="M818.361 576.269C806.182 563.692 796.87 548.638 791.139 532.086C790.943 532.477 790.683 532.868 790.487 533.259C791.985 532.933 793.418 532.672 794.916 532.346C795.762 532.151 795.893 530.978 795.176 530.587C789.575 527.589 788.924 517.945 787.687 512.405C786.059 505.172 784.561 497.938 783.258 490.705C780.523 475.847 778.439 460.859 776.941 445.805C776.42 446.066 775.964 446.392 775.443 446.652C786.319 453.104 796.674 460.337 806.378 468.483C815.104 475.847 823.831 483.732 830.018 493.377C836.661 503.608 839.852 515.99 841.806 527.85C844.02 540.948 844.02 554.308 840.894 567.276C840.568 568.514 842.457 569.035 842.783 567.797C847.667 548.052 845.192 527.003 838.94 507.844C832.884 489.532 819.207 476.303 804.554 464.443C795.697 457.275 786.254 450.758 776.485 444.958C775.899 444.632 774.922 445.023 774.987 445.805C776.55 461.901 778.83 477.867 781.826 493.703C783.323 501.588 784.952 509.473 786.84 517.228C788.078 522.506 788.924 529.414 794.199 532.281C794.264 531.695 794.33 531.108 794.46 530.522C792.962 530.848 791.529 531.108 790.031 531.434C789.51 531.564 789.185 532.151 789.38 532.607C795.241 549.485 804.684 564.799 817.123 577.637C817.905 578.55 819.272 577.181 818.361 576.269Z" fill="#E8E8E8"/>
<path d="M777.137 447.435C800.712 481.582 816.993 520.422 824.808 561.151C825.069 562.389 826.957 561.868 826.697 560.63C818.817 519.705 802.47 480.67 778.765 446.393C778.114 445.415 776.42 446.393 777.137 447.435Z" fill="#E8E8E8"/>
<path d="M784.952 503.609C794.786 505.759 805.14 508.17 811.979 516.186C812.76 517.163 814.193 515.73 813.346 514.817C806.313 506.541 795.632 503.935 785.473 501.719C784.235 501.458 783.714 503.348 784.952 503.609Z" fill="#E8E8E8"/>
<path d="M810.872 503.739C810.155 494.615 811.588 485.557 815.235 477.151C815.756 475.978 814.063 475 813.542 476.173C809.764 484.905 808.136 494.224 808.918 503.739C809.048 504.977 811.002 504.977 810.872 503.739Z" fill="#E8E8E8"/>
<path d="M826.567 485.818C831.256 456.623 851.249 433.945 870.396 412.766C869.875 412.44 869.289 412.114 868.768 411.788C864.274 427.884 874.824 442.808 878.667 457.926C880.751 466.268 881.728 474.87 881.923 483.472C882.053 487.707 881.988 492.008 881.858 496.244C881.793 498.33 881.793 500.48 881.337 502.5C880.686 505.302 877.56 509.669 874.238 506.736C873.848 507.257 873.457 507.779 873.066 508.3C878.797 511.298 876.713 519.9 875.801 524.918C874.629 531.695 872.675 538.146 868.312 543.62C861.995 551.44 852.942 557.24 849.947 567.276C849.556 568.514 851.445 568.97 851.835 567.797C855.547 555.546 868.638 549.681 874.043 538.342C876.843 532.477 878.081 525.569 878.667 519.183C879.123 514.556 878.667 509.017 874.043 506.671C873.131 506.215 871.959 507.453 872.871 508.235C874.89 510.06 877.69 510.06 879.969 508.561C882.509 506.866 883.291 503.738 883.551 500.806C884.593 490.966 884.137 480.604 882.965 470.829C881.793 461.054 879.188 451.866 875.541 442.808C871.698 433.163 867.726 422.932 870.656 412.44C870.917 411.528 869.68 410.746 869.028 411.462C849.686 432.902 829.432 455.906 824.678 485.361C824.483 486.534 826.371 487.056 826.567 485.818Z" fill="#E8E8E8"/>
<path d="M866.554 418.436C853.008 451.866 844.606 487.187 841.611 523.159C841.48 524.397 843.434 524.397 843.564 523.159C846.56 487.382 854.961 452.257 868.442 418.957C868.898 417.849 867.009 417.328 866.554 418.436Z" fill="#E8E8E8"/>
<path d="M680.426 520.813C696.382 524.267 711.947 516.577 727.316 513.514C744.249 510.191 761.702 510.191 778.7 513.253C779.937 513.449 780.458 511.624 779.221 511.364C763.46 508.496 747.375 508.301 731.614 510.777C723.539 512.08 715.724 514.296 707.909 516.512C699.117 518.923 690.065 520.878 681.012 518.923C679.71 518.662 679.189 520.487 680.426 520.813Z" fill="#E8E8E8"/>
<path d="M879.839 514.817C889.087 513.057 898.204 515.273 907.126 517.489C915.853 519.574 924.645 521.464 933.567 523.028C950.76 526.025 968.214 527.785 985.667 528.502C986.905 528.567 986.905 526.612 985.667 526.547C967.107 525.83 948.676 523.81 930.376 520.486C921.519 518.857 912.792 516.837 904.065 514.752C895.925 512.797 887.654 511.363 879.318 512.992C878.146 513.188 878.667 515.078 879.839 514.817Z" fill="#E8E8E8"/>
<path d="M143.731 460.208C166.785 454.864 189.839 448.673 213.219 445.285C236.534 441.961 260.174 441.57 283.685 443.59C328.881 447.5 372.776 459.361 417.061 468.549C441.482 473.632 466.165 477.803 491.108 479.497C492.345 479.562 492.345 477.607 491.108 477.542C445.39 474.414 400.975 462.749 356.299 453.235C311.884 443.851 266.687 437.074 221.23 442.287C194.854 445.35 169.065 452.323 143.21 458.318C141.973 458.579 142.494 460.468 143.731 460.208Z" fill="#E8E8E8"/>
<path d="M328.686 447.435C366.914 444.111 404.361 435.118 441.417 425.474C479.32 415.568 517.223 405.533 555.125 395.497C592.963 385.527 630.736 375.295 668.704 365.586C687.59 360.763 706.671 356.397 726.079 354.572C744.77 352.813 763.656 353.074 782.347 354.833C825.98 358.873 868.442 370.538 910.578 382.138C911.815 382.464 912.336 380.574 911.099 380.248C874.043 370.017 836.791 359.786 798.563 354.703C779.546 352.161 760.269 350.858 741.057 351.64C722.171 352.357 703.545 355.354 685.115 359.525C666.359 363.826 647.798 368.974 629.173 373.927C610.156 378.945 591.14 383.963 572.123 388.98C533.699 399.081 495.21 409.247 456.787 419.348C414.651 430.426 372.254 441.635 328.686 445.415C327.448 445.61 327.448 447.565 328.686 447.435Z" fill="#E8E8E8"/>
<path d="M223.77 564.605C239.66 565.191 255.616 565.778 271.506 566.364C287.006 566.951 302.571 567.863 318.071 567.993C333.18 568.124 347.768 565.191 362.616 562.519C378.116 559.717 393.811 557.697 409.506 556.589C427.025 555.286 444.609 555.09 462.127 555.807C463.365 555.872 463.365 553.917 462.127 553.852C431.388 552.549 400.584 554.308 370.236 559.261C354.736 561.802 339.367 565.712 323.671 566.038C308.302 566.429 292.737 565.256 277.368 564.67C259.523 564.018 241.679 563.366 223.835 562.715C222.532 562.584 222.532 564.539 223.77 564.605Z" fill="#E8E8E8"/>
<path d="M191.793 649.973C192.77 650.69 193.747 651.342 194.724 652.058C195.635 652.71 196.677 651.276 195.896 650.494C192.9 647.366 189.97 644.304 186.974 641.176C185.606 639.742 183.978 638.439 182.871 636.809C181.178 634.333 182.936 633.16 183.327 631.14C183.783 629.055 181.699 627.882 180.526 626.578C177.921 623.776 176.228 620.257 174.926 616.673C169.52 601.88 167.632 585.197 167.111 569.557C166.785 569.883 166.459 570.209 166.134 570.535C182.545 569.036 192.054 584.546 197.524 597.644C203.646 612.176 209.247 627.36 209.963 643.326C210.028 644.564 211.982 644.564 211.917 643.326C211.135 626.252 205.013 609.7 198.11 594.19C192.379 581.222 182.024 567.081 166.069 568.515C165.548 568.58 165.092 568.906 165.092 569.492C165.417 577.899 166.199 586.24 167.567 594.516C168.934 602.597 170.497 610.938 173.493 618.563C174.6 621.365 175.968 624.037 177.791 626.383C179.094 628.012 181.308 629.446 180.526 631.857C180.201 632.834 179.55 633.356 179.615 634.529C179.745 637.396 182.871 639.742 184.629 641.567C187.886 644.955 191.207 648.409 194.463 651.798C194.854 651.276 195.245 650.755 195.635 650.234C194.659 649.517 193.682 648.865 192.705 648.148C191.728 647.562 190.751 649.256 191.793 649.973Z" fill="#E8E8E8"/>
<path d="M203.907 605.594C209.572 590.736 219.537 577.768 232.496 568.579C232.041 568.449 231.585 568.318 231.129 568.253C234.776 576.595 237.251 585.327 238.553 594.32C238.748 593.929 239.009 593.538 239.204 593.147C237.641 593.603 236.078 594.059 234.45 594.515C233.799 594.711 233.604 595.363 233.864 595.949C235.688 600.315 237.706 605.268 235.688 609.895C233.994 613.74 230.347 616.607 227.807 619.8C223.184 625.535 219.602 631.921 216.866 638.698C216.411 639.871 218.299 640.393 218.755 639.22C222.402 630.031 227.873 622.733 234.32 615.369C236.664 612.697 238.423 609.764 238.553 606.115C238.683 602.205 237.055 598.491 235.557 594.972C235.362 595.428 235.167 595.949 234.971 596.405C236.534 595.949 238.097 595.493 239.725 595.037C240.246 594.906 240.507 594.385 240.377 593.864C239.009 584.675 236.469 575.813 232.757 567.276C232.562 566.82 231.845 566.624 231.389 566.95C217.974 576.529 207.749 589.758 201.888 605.138C201.627 606.245 203.451 606.767 203.907 605.594Z" fill="#E8E8E8"/>
<path d="M172.907 580.115C189.514 599.208 200.325 622.994 203.646 648.083C203.841 649.322 205.795 649.322 205.6 648.083C202.148 622.408 191.272 598.231 174.275 578.681C173.428 577.769 172.06 579.137 172.907 580.115Z" fill="#E8E8E8"/>
<path d="M212.763 626.187C215.824 615.37 220.122 605.008 225.658 595.168C226.244 594.06 224.616 593.083 223.965 594.19C218.364 604.161 214.001 614.718 210.875 625.666C210.484 626.904 212.373 627.425 212.763 626.187Z" fill="#E8E8E8"/>
<path d="M173.558 544.599C196.352 540.167 219.667 538.473 242.591 542.839C253.271 544.859 263.821 547.205 274.632 548.444C286.029 549.747 297.556 550.268 309.018 550.724C310.255 550.79 310.255 548.835 309.018 548.769C297.556 548.248 286.029 547.792 274.632 546.489C262.779 545.12 251.187 542.318 239.399 540.298C217.387 536.518 194.789 538.538 173.037 542.774C171.8 542.97 172.321 544.859 173.558 544.599Z" fill="#E8E8E8"/>
<path d="M259.458 622.081C272.483 619.996 285.508 617.846 298.663 617.064C312.014 616.282 324.909 617.389 337.999 619.801C349.982 622.016 361.574 623.059 373.817 622.798C386.517 622.472 399.346 621.886 411.72 625.209C412.958 625.535 413.479 623.645 412.241 623.32C400.258 620.061 387.95 620.452 375.641 620.778C369.128 620.974 362.551 621.039 356.038 620.517C349.331 619.996 342.688 618.628 336.11 617.455C323.476 615.174 310.907 614.327 298.012 615.109C284.922 615.956 271.897 618.041 258.937 620.126C257.7 620.387 258.221 622.277 259.458 622.081Z" fill="#E8E8E8"/>
<path d="M617.45 637.656C641.872 634.137 666.424 632.052 691.107 631.53C715.138 631.009 739.169 631.987 763.2 632.508C764.437 632.508 764.437 630.553 763.2 630.553C738.778 630.031 714.291 629.054 689.804 629.641C665.382 630.227 641.091 632.312 616.929 635.766C615.692 635.962 616.213 637.786 617.45 637.656Z" fill="#E8E8E8"/>
<path d="M725.688 651.667C735.001 647.692 745.03 652.514 754.603 652.058C756.622 651.927 758.706 651.667 760.66 651.015C763.33 650.103 765.805 648.669 768.67 648.539C773.62 648.278 778.244 650.168 783.193 649.386C784.431 649.19 783.91 647.301 782.672 647.496C777.137 648.408 771.731 645.671 766.261 646.91C763.786 647.431 761.572 648.734 759.162 649.451C756.687 650.103 754.147 650.233 751.608 650.168C742.555 649.777 733.503 646.323 724.646 650.103C723.604 650.429 724.581 652.123 725.688 651.667Z" fill="#E8E8E8"/>
<path d="M857.436 579.658C873.847 574.771 890.259 574.901 907.061 576.921C922.886 578.811 938.842 581.288 954.733 578.485C955.97 578.29 955.449 576.4 954.212 576.596C937.67 579.528 921.063 576.53 904.586 574.706C888.37 572.881 872.545 573.077 856.85 577.834C855.743 578.16 856.198 580.049 857.436 579.658Z" fill="#E8E8E8"/>
<path d="M791.985 207.035C779.872 200.518 771.992 187.876 773.815 173.865C775.443 161.027 785.733 149.949 798.302 146.951C811.132 143.954 825.459 150.014 832.428 161.158C839.917 173.083 838.289 188.854 829.106 199.411C818.686 211.401 800.451 213.226 787.296 204.754C786.254 204.037 785.277 205.732 786.319 206.449C798.563 214.399 815.495 213.878 826.827 204.428C838.093 195.044 842.261 178.753 836.661 165.133C831.32 152.165 817.644 143.693 803.642 144.28C789.836 144.931 777.332 154.902 773.164 168C767.954 184.227 776.681 200.909 791.073 208.664C792.115 209.316 793.092 207.622 791.985 207.035Z" fill="#E8E8E8"/>
<path d="M229.891 349.554C236.534 343.624 245.847 347.664 250.797 353.659C253.336 356.722 254.834 360.176 256.788 363.565C258.025 365.846 259.849 368.126 262.584 368.648C264.733 369.039 266.492 368.257 267.924 366.693C268.836 365.65 269.422 364.282 270.334 363.239C272.288 360.958 274.828 361.219 276.912 363.043C281.47 367.019 281.666 376.859 289.676 376.142C290.914 376.012 290.914 374.057 289.676 374.187C281.34 374.969 282.317 360.958 274.307 359.59C271.962 359.199 270.074 360.241 268.641 362.066C267.729 363.239 267.143 364.868 265.971 365.846C262.584 368.648 259.588 364.738 258.221 362.066C254.899 355.94 251.643 349.554 245.066 346.361C239.66 343.754 233.083 344.015 228.524 348.12C227.612 348.967 228.98 350.401 229.891 349.554Z" fill="#E8E8E8"/>
<path d="M668.248 261.84C666.945 258.321 665.382 254.15 667.727 250.696C669.876 247.634 673.523 249.198 676.584 248.22C680.622 246.917 683.096 242.942 684.203 239.097C685.506 234.6 683.943 228.735 686.613 224.76C689.869 219.873 696.903 225.868 701.331 222.87C702.373 222.153 701.396 220.459 700.354 221.176C695.861 224.239 689.739 217.983 685.506 223.001C682.119 226.976 683.682 233.036 682.575 237.728C681.794 240.987 680.035 244.44 676.975 246.004C674.304 247.373 671.243 246.004 668.573 247.373C662.842 250.305 664.666 257.604 666.424 262.361C666.75 263.469 668.638 263.013 668.248 261.84Z" fill="#E8E8E8"/>
<path d="M675.281 216.159C674.044 212.9 674.76 209.186 677.17 206.579C680.166 203.321 683.617 204.624 687.329 203.321C689.544 202.539 690.846 200.649 691.693 198.564C692.214 197.26 692.539 195.892 692.995 194.588C693.386 193.546 693.842 192.373 694.623 191.591C695.796 190.483 698.596 189.571 699.312 192.047C699.703 193.22 701.527 192.764 701.201 191.525C700.354 188.788 697.163 187.811 694.689 189.114C690 191.526 691.693 198.694 687.329 201.105C684.92 202.408 681.924 201.626 679.384 202.669C677.756 203.386 676.323 204.559 675.216 205.927C672.807 208.99 672.025 213.031 673.393 216.68C673.783 217.853 675.672 217.332 675.281 216.159Z" fill="#E8E8E8"/>
<path d="M730.116 285.756C728.163 282.954 728.749 278.979 731.289 276.633C734.219 273.896 738.452 275.134 740.471 278.262C745.095 285.235 734.87 291.36 729.986 285.56C729.139 284.583 727.772 286.017 728.618 286.929C731.419 290.252 736.629 290.643 740.211 288.297C744.248 285.691 744.574 280.412 741.774 276.698C739.038 273.048 733.959 271.81 730.312 274.808C726.86 277.61 725.818 282.954 728.423 286.668C729.139 287.776 730.833 286.799 730.116 285.756Z" fill="#E8E8E8"/>
<path d="M737.475 296.573C735.652 294.032 733.373 290.969 734.154 287.711C735.326 282.888 741.057 284.127 743.662 286.994C745.811 289.405 746.593 293.185 743.858 295.466C741.774 297.225 738.582 297.551 736.694 295.466C735.847 294.553 734.48 295.922 735.326 296.834C737.931 299.636 742.36 299.376 745.16 296.964C748.481 294.097 748.091 289.34 745.486 286.147C742.881 282.888 736.954 280.542 733.698 284.257C730.051 288.428 733.112 293.836 735.782 297.551C736.499 298.594 738.192 297.616 737.475 296.573Z" fill="#E8E8E8"/>
<path d="M299.51 432.381C306.804 434.597 314.228 435.9 321.783 436.161C323.02 436.226 323.02 434.271 321.783 434.206C314.358 433.945 307.064 432.707 300.031 430.491C298.793 430.1 298.272 431.99 299.51 432.381Z" fill="#E8E8E8"/>
<path d="M787.948 380.248C832.233 379.922 873.913 396.475 915.723 408.726C927.706 412.245 939.819 415.438 952.063 417.849C953.3 418.11 953.821 416.22 952.584 415.959C909.145 407.357 868.182 388.915 824.483 381.421C812.435 379.336 800.191 378.163 787.948 378.293C786.71 378.293 786.71 380.248 787.948 380.248Z" fill="#E8E8E8"/>
<path d="M352.587 97.6855C354.866 103.16 357.667 115.281 365.873 109.872C368.608 108.112 372.646 102.964 375.576 107.135C377.335 109.611 377.465 112.869 380.786 113.977C381.958 114.368 382.479 112.478 381.307 112.087C378.246 111.045 378.246 106.353 375.772 104.463C374.143 103.225 372.125 103.29 370.366 104.202C367.761 105.44 365.873 108.243 363.137 109.155C358.253 110.784 355.778 100.292 354.476 97.1642C353.955 96.0564 352.066 96.5125 352.587 97.6855Z" fill="#E8E8E8"/>
<path d="M372.841 98.8583C376.488 96.0561 381.828 97.3595 383.651 101.595C384.759 104.267 385.605 105.831 388.731 106.027C390.229 106.092 391.857 105.57 393.355 105.831C396.481 106.352 396.481 109.089 397.002 111.631C397.523 114.172 398.695 116.388 401.431 116.714C402.668 116.844 402.668 114.889 401.431 114.759C397.849 114.368 399.347 107.004 396.546 104.919C393.55 102.703 389.057 105.636 386.712 102.899C385.605 101.595 385.28 99.8358 384.107 98.5325C383.196 97.4246 381.958 96.6426 380.591 96.1213C377.66 94.9483 374.404 95.3393 371.929 97.2291C370.822 97.946 371.799 99.6403 372.841 98.8583Z" fill="#E8E8E8"/>
<path d="M431.453 160.31C435.556 161.157 439.919 158.551 441.026 154.38C442.068 150.47 439.529 146.756 435.816 145.517C427.155 142.585 422.336 154.51 429.369 159.398C430.411 160.115 431.388 158.42 430.346 157.704C425.396 154.25 428.457 145.583 434.774 147.212C437.51 147.929 439.789 150.405 439.268 153.337C438.682 156.661 435.295 159.072 431.974 158.355C430.737 158.16 430.216 160.05 431.453 160.31Z" fill="#E8E8E8"/>
<path d="M437.771 163.634C436.208 162.395 434.319 161.027 433.668 159.007C432.756 156.27 435.361 153.011 438.422 153.793C440.571 154.38 442.069 156.856 441.548 159.072C440.897 161.548 438.096 162.786 435.752 162.2C434.514 161.874 433.993 163.764 435.231 164.09C438.422 164.872 441.939 163.373 443.241 160.245C444.478 157.182 442.785 153.468 439.789 152.164C436.794 150.926 433.342 152.555 432.04 155.423C430.216 159.398 433.537 162.721 436.468 165.002C437.315 165.784 438.747 164.416 437.771 163.634Z" fill="#E8E8E8"/>
<path d="M307.846 292.338C304.85 289.666 304.264 285.626 307.195 282.628C309.735 280.086 313.512 280.152 315.922 282.823C320.936 288.428 313.707 295.726 307.781 291.882C306.739 291.165 305.762 292.859 306.804 293.576C310.321 295.857 315.14 295.075 317.875 291.947C320.676 288.688 319.829 283.801 316.833 280.934C313.642 277.936 308.888 278.131 305.827 281.194C302.115 284.909 302.701 290.318 306.478 293.706C307.39 294.554 308.758 293.185 307.846 292.338Z" fill="#E8E8E8"/>
<path d="M585.474 108.112C589.251 99.8357 594.526 92.4719 601.039 86.1507C601.95 85.3035 600.583 83.8699 599.671 84.7822C593.028 91.2337 587.688 98.7279 583.78 107.2C583.26 108.242 584.953 109.285 585.474 108.112Z" fill="#E8E8E8"/>
<path d="M593.615 106.808C597.522 101.986 601.885 97.4896 606.574 93.3841C607.551 92.5369 606.119 91.1684 605.207 92.0156C600.518 96.1211 596.22 100.618 592.247 105.44C591.466 106.417 592.833 107.786 593.615 106.808Z" fill="#E8E8E8"/>
<path d="M598.564 112.673C600.322 111.175 602.081 109.741 603.839 108.242C604.816 107.46 603.383 106.026 602.472 106.874C600.713 108.372 598.955 109.806 597.196 111.305C596.22 112.087 597.587 113.455 598.564 112.673Z" fill="#E8E8E8"/>
<path d="M690.716 118.408C695.967 118.408 700.224 114.148 700.224 108.893C700.224 103.639 695.967 99.3789 690.716 99.3789C685.464 99.3789 681.208 103.639 681.208 108.893C681.208 114.148 685.464 118.408 690.716 118.408Z" fill="#5222D0"/>
<path d="M686.352 133.2C689.482 133.2 692.018 130.662 692.018 127.531C692.018 124.4 689.482 121.861 686.352 121.861C683.223 121.861 680.687 124.4 680.687 127.531C680.687 130.662 683.223 133.2 686.352 133.2Z" fill="#5222D0"/>
<path d="M386.191 385.983C390.04 385.983 393.159 382.861 393.159 379.01C393.159 375.159 390.04 372.037 386.191 372.037C382.343 372.037 379.223 375.159 379.223 379.01C379.223 382.861 382.343 385.983 386.191 385.983Z" fill="#5222D0"/>
<path d="M397.523 405.076C399.645 405.076 401.365 403.355 401.365 401.232C401.365 399.108 399.645 397.387 397.523 397.387C395.401 397.387 393.681 399.108 393.681 401.232C393.681 403.355 395.401 405.076 397.523 405.076Z" fill="#5222D0"/>
<path d="M465.383 299.831C465.969 305.501 467.793 310.519 474.24 310.388C476.454 310.388 478.343 309.737 480.036 311.431C481.599 312.995 481.143 314.559 481.795 316.514C482.12 317.492 482.576 318.404 483.488 319.056C484.66 319.903 489.089 319.903 488.698 321.858C488.437 323.096 490.326 323.617 490.587 322.379C491.042 320.163 489.545 318.86 487.461 318.274C484.465 317.426 483.748 316.253 483.293 313.582C483.097 312.343 482.837 311.105 481.99 310.063C480.297 308.042 477.562 308.303 475.217 308.368C472.677 308.499 470.268 308.303 468.9 305.827C467.858 304.002 467.597 301.786 467.402 299.766C467.207 298.593 465.253 298.593 465.383 299.831Z" fill="#707070"/>
<path d="M472.026 323.813C475.412 320.229 479.45 323.878 480.492 327.463C480.948 328.896 481.013 330.265 482.055 331.373C484.399 333.979 488.698 332.546 490.847 335.283C491.628 336.26 492.996 334.892 492.214 333.914C490.782 332.089 488.763 331.829 486.614 331.373C484.595 330.916 483.488 330.2 482.706 328.179C482.185 326.941 482.12 325.638 481.404 324.4C479.189 320.424 473.979 318.86 470.658 322.379C469.746 323.357 471.114 324.725 472.026 323.813Z" fill="#707070"/>
<path d="M703.35 317.232C702.112 314.886 704.717 313.126 706.671 314.56C707.257 314.951 708.169 314.429 708.169 313.713C707.974 311.497 710.188 309.868 712.272 310.65C713.444 311.106 713.965 309.216 712.793 308.76C709.537 307.522 705.955 310.259 706.215 313.713C706.736 313.452 707.192 313.126 707.713 312.865C704.001 310.194 699.638 314.299 701.722 318.209C702.243 319.317 703.936 318.339 703.35 317.232Z" fill="#5222D0"/>
<path d="M714.421 316.189C713.965 315.081 717.091 314.886 717.612 314.886C719.24 314.951 720.803 315.211 722.431 315.342C723.669 315.472 723.669 313.517 722.431 313.387C719.891 313.126 717.026 312.409 714.551 313.452C712.923 314.169 712.011 315.472 712.728 317.166C713.183 318.339 714.877 317.297 714.421 316.189Z" fill="#5222D0"/>
<path d="M375.055 394.389C379.299 394.389 382.74 390.946 382.74 386.699C382.74 382.453 379.299 379.01 375.055 379.01C370.811 379.01 367.37 382.453 367.37 386.699C367.37 390.946 370.811 394.389 375.055 394.389Z" fill="#5222D0"/>
<path d="M447.8 106.157C453.518 106.157 458.155 101.518 458.155 95.7951C458.155 90.0726 453.518 85.4336 447.8 85.4336C442.081 85.4336 437.445 90.0726 437.445 95.7951C437.445 101.518 442.081 106.157 447.8 106.157Z" fill="#5222D0"/>
<path d="M260.109 506.736C267.339 506.736 273.199 500.872 273.199 493.638C273.199 486.403 267.339 480.539 260.109 480.539C252.88 480.539 247.019 486.403 247.019 493.638C247.019 500.872 252.88 506.736 260.109 506.736Z" fill="#5222D0"/>
<path d="M706.932 460.533C710.637 460.533 713.64 457.528 713.64 453.821C713.64 450.114 710.637 447.108 706.932 447.108C703.227 447.108 700.224 450.114 700.224 453.821C700.224 457.528 703.227 460.533 706.932 460.533Z" fill="#5222D0"/>
<path d="M632.299 613.218C646.105 609.895 659.977 606.506 673.783 603.183C682.64 603.834 695.796 604.03 711.426 601.423C726.274 598.947 754.734 591.974 754.538 584.284C754.408 579.201 741.709 575.552 720.738 569.491C706.867 565.516 695.209 563.17 687.46 561.802C678.863 566.038 669.615 570.208 659.651 574.183C646.17 579.592 633.341 583.828 621.423 587.152C625.005 595.884 628.652 604.551 632.299 613.218Z" fill="#161616" stroke="#161616" stroke-width="3" stroke-miterlimit="10"/>
<path d="M598.173 599.99C611.98 596.666 625.851 593.278 639.658 589.954C648.515 590.606 661.67 590.801 677.3 588.195C692.149 585.718 720.608 578.745 720.413 571.056C720.283 565.973 707.583 562.323 686.613 556.263C672.741 552.288 661.084 549.942 653.334 548.573C644.738 552.809 635.49 556.98 625.526 560.955C612.045 566.364 599.215 570.6 587.297 573.923C590.879 582.721 594.526 591.388 598.173 599.99Z" fill="#161616" stroke="#161616" stroke-width="3" stroke-miterlimit="10"/>
<path d="M526.926 479.627C514.618 486.274 504.002 493.638 502.179 494.876C495.927 499.242 481.339 509.473 466.881 524.396C445.52 546.423 427.546 564.93 428.718 588.39C429.76 609.504 445.715 624.167 447.474 625.731C475.933 651.146 536.76 641.892 598.173 602.727C595.959 591.062 593.81 579.462 591.595 567.797C597.066 566.69 609.44 563.366 620.706 552.744C634.708 539.515 637.834 523.484 638.616 518.271C638.551 512.341 637.834 505.368 635.815 497.808C629.628 474.609 614.91 459.947 607.095 453.234C586.841 456.753 556.363 463.857 526.926 479.627Z" fill="white" stroke="#161616" stroke-width="3" stroke-miterlimit="10"/>
<path d="M573.491 491.813C560.987 498.59 549.85 506.28 548.743 507.062C532.592 518.336 521.195 529.153 513.445 536.582C485.767 563.17 466.1 581.221 468.705 603.117C471.244 624.166 492.28 636.874 494.038 637.851C506.347 645.02 518.851 645.215 528.88 644.694C573.947 642.348 624.484 623.124 644.737 614.847C642.523 603.183 640.374 591.583 638.16 579.918C643.63 578.093 659.13 571.968 669.355 555.806C670.918 553.33 676.388 544.272 677.886 531.304C678.342 527.589 678.863 519.769 674.76 503.543C672.22 493.507 667.661 479.496 659.13 463.596C641.156 466.789 606.053 474.218 573.491 491.813Z" fill="white" stroke="#161616" stroke-width="3" stroke-miterlimit="10"/>
<path d="M567.564 592.365C591.726 592.952 615.822 589.302 638.681 581.547C639.853 581.156 639.332 579.266 638.16 579.657C615.431 587.412 591.595 591.062 567.564 590.41C566.327 590.345 566.327 592.3 567.564 592.365Z" fill="#161616"/>
<path d="M561.247 585.522C562.875 588.325 565.35 590.54 568.346 591.779C569.518 592.235 570.495 590.606 569.323 590.084C566.587 588.911 564.438 587.086 562.94 584.545C562.289 583.437 560.596 584.415 561.247 585.522Z" fill="#161616"/>
<path opacity="0.12" d="M602.276 537.234C579.612 549.942 567.89 547.856 545.357 565.451C539.495 570.078 505.24 596.862 509.603 624.036C509.994 626.317 512.013 639.09 521.521 644.107C525.559 646.258 529.531 646.128 535.067 645.737C553.628 644.303 567.955 640.784 569.713 640.328C592.507 634.658 588.665 637.004 604.36 632.768C614.715 629.966 628.717 625.535 644.998 618.692C642.849 607.288 640.635 595.949 638.485 584.545C643.24 582.329 649.752 578.615 656.395 572.62C661.214 568.253 674.955 555.872 678.081 536.322C679.775 525.83 677.691 517.814 674.304 504.846C670.853 491.617 666.033 481.321 662.386 474.479C642.067 510.125 619.274 527.785 602.276 537.234Z" fill="#3D3D3D"/>
<path opacity="0.11" d="M577.919 480.995C577.008 479.431 548.353 492.465 515.595 516.251C475.087 545.641 452.619 563.04 451.642 587.804C450.535 616.672 490.066 640.784 491.759 639.285C492.671 638.438 468.835 621.951 468.444 598.1C468.184 582.525 478.083 570.209 495.536 552.548C540.147 507.388 579.027 482.885 577.919 480.995Z" fill="#3D3D3D"/>
<path opacity="0.12" d="M670.006 495.137C667.01 506.997 660.823 524.527 647.277 541.796C618.427 578.485 577.463 586.957 565.48 588.977C567.499 590.932 569.453 593.147 571.472 595.493C582.283 608.527 587.623 622.472 590.423 633.42C608.137 627.295 625.851 621.104 643.5 614.978C640.765 604.161 638.095 593.278 635.36 582.46C640.96 580.179 650.078 575.552 658.674 566.755C662.256 563.04 670.918 553.982 674.956 539.646C680.817 518.401 672.611 500.285 670.006 495.137Z" fill="#3D3D3D"/>
<path d="M529.205 306.022C534.676 306.804 537.02 323.161 537.802 328.57C540.993 350.531 534.22 360.371 533.178 387.285C532.331 408.66 536.239 409.637 534.481 420.064C531.876 435.313 519.827 454.863 477.04 472.588C473.849 476.042 468.183 481.451 459.978 484.905C442.719 492.204 420.056 488.424 416.995 477.932C415.953 474.413 416.93 469.526 419.34 467.245C423.247 463.465 429.239 468.874 439.138 465.29C439.659 465.094 444.087 463.465 443.957 462.292C443.892 461.575 442.198 461.315 440.18 461.054C430.997 459.751 428.262 460.011 428.066 459.229C427.741 457.926 434.774 453.429 443.892 450.823C450.925 448.803 460.433 447.043 472.156 447.63C482.381 436.095 492.67 424.561 502.895 413.026C501.918 398.168 502.113 376.989 507.714 352.942C511.817 335.478 521.521 304.915 529.205 306.022Z" fill="white" stroke="#161616" stroke-width="3" stroke-miterlimit="10"/>
<path opacity="0.12" d="M529.466 305.697C521.456 305.827 514.227 337.694 512.729 360.307C510.84 388.915 518.33 397.843 512.729 415.372C509.017 426.972 499.639 441.895 474.436 455.45C454.572 472.067 441.352 473.827 432.625 471.742C427.285 470.503 420.642 467.05 417.647 469.982C415.107 472.458 416.279 478.584 418.949 482.755C425.331 492.465 444.543 490.119 455.484 486.274C465.644 482.69 472.352 476.434 476.194 472.198C485.116 469.787 505.956 462.814 523.279 443.133C540.147 423.974 544.119 403.577 546.138 392.499C553.888 350.336 539.235 305.501 529.466 305.697Z" fill="#3D3D3D"/>
<path d="M628.261 268.226C651.445 273.114 669.029 292.729 676.649 310.78C685.05 330.591 680.165 346.1 675.476 378.879C672.285 401.362 668.834 433.749 668.834 474.218C661.8 479.562 628.521 503.934 583.194 497.743C554.409 493.833 534.741 479.562 526.08 472.328C527.512 461.901 528.945 445.74 527.252 426.19C524.777 398.69 518.134 387.937 516.897 366.172C516.116 352.421 517.288 332.155 527.838 306.74C533.764 302.699 542.166 297.356 552.651 291.751C585.213 274.352 605.597 263.469 628.261 268.226Z" fill="#FE1264"/>
<path opacity="0.14" d="M605.727 298.659C611.719 314.69 620.185 344.406 615.692 381.16C608.202 442.221 569.974 479.953 558.121 490.77C567.629 494.55 587.297 500.806 612.37 497.939C640.7 494.68 660.107 481.517 668.247 475.261C667.531 448.151 669.159 425.604 670.983 408.856C676.584 358.417 686.678 340.235 675.932 312.539C673.392 305.958 664.861 283.931 643.305 273.765C637.639 271.093 632.494 269.92 628.912 269.334C627.609 273.961 624.614 282.237 617.32 289.796C613.282 294.097 609.049 296.834 605.727 298.659Z" fill="#3D3D3D"/>
<path opacity="0.21" d="M678.212 321.924C661.084 368.453 643.891 414.917 626.763 461.446C611.849 473.632 596.871 485.818 581.957 498.004C593.093 498.982 610.807 499.047 631.192 493.051C648.124 488.034 660.954 480.605 669.355 474.805C669.159 467.897 669.029 457.731 669.355 445.48C670.267 414.721 670.657 399.342 674.89 380.704C678.798 363.5 684.073 350.402 680.426 330.852C679.71 326.942 678.863 323.879 678.212 321.924Z" fill="#3D3D3D"/>
<path d="M402.277 456.493C410.027 475.261 417.842 494.029 425.592 512.731C457.113 501.783 488.698 490.77 520.219 479.822C512.664 461.771 505.11 443.655 497.62 425.604C465.839 435.9 434.058 446.196 402.277 456.493Z" fill="white" stroke="#161616" stroke-width="3" stroke-miterlimit="10"/>
<path d="M392.118 394.455C402.668 402.144 415.302 412.897 427.741 427.364C437.835 439.094 445.39 450.498 451.056 460.273C463.43 441.049 475.738 421.825 488.112 402.666C473.719 386.635 459.327 370.669 444.934 354.638C427.285 367.932 409.701 381.161 392.118 394.455Z" fill="white" stroke="#161616" stroke-width="3" stroke-miterlimit="10"/>
<path d="M335.068 305.045C335.068 322.64 335.068 340.235 335.068 357.896C348.549 351.249 362.03 344.602 375.511 338.02C384.433 333.654 393.355 329.287 402.277 324.986C399.737 312.149 397.263 299.376 394.723 286.538C374.86 292.664 354.997 298.855 335.068 305.045Z" fill="white" stroke="#161616" stroke-width="3" stroke-miterlimit="10"/>
<path d="M295.798 192.698C302.441 208.468 309.083 224.239 315.661 240.009C339.171 226.52 362.746 213.03 386.256 199.541C376.423 180.773 366.589 162.005 356.755 143.302C350.568 150.47 343.079 158.225 334.156 165.915C320.545 177.775 307.195 186.377 295.798 192.698Z" fill="white" stroke="#161616" stroke-width="3" stroke-miterlimit="10"/>
<path d="M198.436 213.291C196.352 225.412 194.333 237.533 192.249 249.654C216.215 244.18 240.246 238.706 264.212 233.166C263.756 219.872 263.3 206.644 262.845 193.35C241.418 199.997 219.927 206.644 198.436 213.291Z" fill="white" stroke="#161616" stroke-width="3" stroke-miterlimit="10"/>
<path d="M402.994 458.122C425.527 461.445 447.865 465.616 470.007 470.634C471.245 470.895 471.766 469.005 470.528 468.744C448.321 463.726 425.983 459.49 403.515 456.232C402.277 456.102 401.756 457.992 402.994 458.122Z" fill="#161616"/>
<path d="M496.318 426.516C489.089 441.569 480.297 455.841 470.072 469.004C469.291 469.982 470.658 471.35 471.44 470.373C481.795 457.079 490.717 442.677 498.011 427.493C498.532 426.385 496.839 425.408 496.318 426.516Z" fill="#161616"/>
<path d="M408.269 398.364C419.21 386.765 431.388 376.403 444.674 367.54C445.716 366.824 444.739 365.129 443.697 365.846C430.281 374.839 417.972 385.266 406.901 396.996C405.989 397.843 407.422 399.277 408.269 398.364Z" fill="#161616"/>
<path d="M417.712 404.229C425.918 395.17 434.97 386.959 444.739 379.726C445.716 379.009 444.739 377.315 443.762 378.032C433.798 385.395 424.615 393.672 416.344 402.86C415.432 403.772 416.8 405.141 417.712 404.229Z" fill="#161616"/>
<path d="M425.917 415.177C436.533 403.251 448.19 392.238 460.824 382.398C461.801 381.616 460.434 380.247 459.457 381.029C446.888 390.87 435.165 401.818 424.55 413.808C423.703 414.721 425.136 416.089 425.917 415.177Z" fill="#161616"/>
<path d="M439.854 428.406C443.567 422.41 448.516 417.327 453.4 412.244C458.741 406.835 464.081 401.361 469.421 395.953C470.333 395.04 468.9 393.672 468.054 394.584C462.453 400.319 456.852 405.988 451.251 411.723C446.432 416.61 441.808 421.628 438.161 427.428C437.51 428.471 439.203 429.448 439.854 428.406Z" fill="#161616"/>
<path d="M422.987 485.101C424.159 490.445 426.113 495.463 428.783 500.155C429.369 501.263 431.063 500.285 430.476 499.177C427.871 494.551 425.983 489.728 424.876 484.58C424.615 483.342 422.727 483.863 422.987 485.101Z" fill="#161616"/>
<path d="M424.55 486.274C431.062 482.364 438.096 479.953 445.585 478.91C445.195 478.715 444.804 478.454 444.413 478.259C445.716 482.494 446.953 486.665 448.255 490.901C448.646 492.074 450.535 491.618 450.144 490.38C448.842 486.144 447.604 481.973 446.302 477.737C446.106 477.151 445.65 476.955 445.129 477.085C437.445 478.128 430.281 480.67 423.638 484.645C422.466 485.231 423.443 486.926 424.55 486.274Z" fill="#161616"/>
<path d="M430.021 500.936C436.207 498.395 442.264 495.527 448.256 492.464C449.363 491.878 448.386 490.184 447.279 490.77C441.483 493.768 435.556 496.505 429.5 499.046C428.327 499.568 428.848 501.457 430.021 500.936Z" fill="#161616"/>
<path d="M479.841 471.546C487.005 467.701 494.624 465.029 502.57 463.4C503.807 463.139 503.286 461.249 502.049 461.51C493.908 463.139 486.158 465.941 478.864 469.851C477.692 470.438 478.734 472.132 479.841 471.546Z" fill="#161616"/>
<path d="M482.186 477.151C486.549 475.261 490.912 473.371 495.211 471.481C496.383 470.96 495.341 469.266 494.234 469.787C489.87 471.677 485.507 473.567 481.209 475.456C480.036 475.978 481.078 477.607 482.186 477.151Z" fill="#161616"/>
<path d="M340.929 311.888C356.429 306.74 371.929 300.484 388.015 297.356C389.252 297.095 388.731 295.205 387.494 295.466C371.473 298.659 355.908 304.85 340.408 309.998C339.236 310.389 339.757 312.279 340.929 311.888Z" fill="#161616"/>
<path d="M340.669 320.294C355.517 313.452 370.887 307.913 386.647 303.742C387.885 303.416 387.364 301.526 386.126 301.852C370.171 306.088 354.671 311.692 339.692 318.6C338.585 319.121 339.562 320.816 340.669 320.294Z" fill="#161616"/>
<path d="M339.497 328.766C346.009 326.094 352.392 323.227 358.709 320.164C359.816 319.643 358.839 317.948 357.732 318.47C351.545 321.467 345.293 324.269 338.976 326.876C337.869 327.332 338.325 329.222 339.497 328.766Z" fill="#161616"/>
<path d="M343.079 335.804C356.82 328.832 370.887 322.445 385.215 316.776C386.387 316.32 385.866 314.43 384.694 314.886C370.171 320.621 355.973 327.072 342.102 334.11C340.93 334.697 341.972 336.391 343.079 335.804Z" fill="#161616"/>
<path d="M304.069 196.739C322.564 187.746 339.757 176.407 355.387 163.113C356.364 162.265 354.931 160.897 354.019 161.744C338.52 174.973 321.392 186.116 303.092 195.109C301.919 195.631 302.896 197.325 304.069 196.739Z" fill="#161616"/>
<path d="M308.041 205.21C315.791 200.714 323.215 195.761 330.379 190.353C331.356 189.636 330.379 187.876 329.402 188.658C322.238 194.067 314.814 199.02 307.064 203.516C305.957 204.168 306.934 205.862 308.041 205.21Z" fill="#161616"/>
<path d="M312.991 211.14C329.663 202.212 345.683 192.307 361.118 181.359C362.16 180.642 361.183 178.948 360.141 179.664C344.772 190.612 328.686 200.518 312.014 209.446C310.907 210.032 311.884 211.726 312.991 211.14Z" fill="#161616"/>
<path d="M317.159 221.241C335.589 212.9 353.173 202.864 369.715 191.134C370.757 190.417 369.78 188.723 368.738 189.44C352.261 201.17 334.678 211.205 316.182 219.547C315.01 220.068 315.987 221.697 317.159 221.241Z" fill="#161616"/>
<path opacity="0.13" d="M407.748 383.637C414.716 382.073 421.684 380.509 428.653 378.945C438.552 399.798 448.451 420.651 458.35 441.44C468.249 428.602 478.148 415.829 488.047 402.991C473.459 387.286 458.871 371.516 444.348 355.811C432.104 365.129 419.926 374.383 407.748 383.637Z" fill="#3D3D3D"/>
<path opacity="0.21" d="M356.559 300.484C352.912 317.232 349.265 334.045 345.618 350.793C364.244 341.865 382.87 332.872 401.561 323.944C398.825 312.084 396.155 300.158 393.42 288.298C381.111 292.403 368.803 296.444 356.559 300.484Z" fill="#3D3D3D"/>
<path opacity="0.08" d="M440.571 445.219C444.218 454.082 447.865 462.945 451.512 471.807C457.568 473.176 463.56 474.544 469.617 475.848C476.194 480.409 482.707 485.036 489.284 489.598C499.248 486.144 509.278 482.69 519.242 479.301C511.622 462.032 504.068 444.698 496.448 427.429C486.484 430.426 476.455 433.489 466.491 436.487C461.281 444.828 456.071 453.17 450.861 461.511C447.409 456.037 444.022 450.628 440.571 445.219Z" fill="#3D3D3D"/>
<path opacity="0.15" d="M210.68 214.073C207.554 224.955 204.493 235.903 201.367 246.786C222.142 241.964 242.916 237.142 263.691 232.319C262.975 219.807 262.324 207.295 261.607 194.783C244.61 201.235 227.612 207.686 210.68 214.073Z" fill="#3D3D3D"/>
<path opacity="0.11" d="M325.299 176.862C327.709 212.052 329.532 229.582 330.835 229.582C331.226 229.582 331.551 227.822 331.877 224.434C348.94 215.832 366.068 207.23 383.13 198.628C374.534 182.531 365.937 166.5 357.341 150.404C346.595 159.202 335.915 168.064 325.299 176.862Z" fill="#3D3D3D"/>
<path d="M661.801 294.488C670.592 293.315 681.273 318.861 685.832 334.11C693.516 359.916 690.781 382.528 688.176 403.512C685.376 425.864 684.008 437.073 678.668 448.803C661.41 486.73 618.037 501.262 601.039 505.954C596.415 509.343 588.144 514.752 576.747 518.271C552.586 525.7 520.87 522.506 516.507 510.06C515.074 505.889 516.442 500.154 519.763 497.482C525.299 493.051 533.57 499.372 547.506 495.136C548.223 494.941 554.409 492.986 554.214 491.617C554.084 490.77 551.805 490.51 548.939 490.184C536.109 488.685 532.267 488.946 532.007 488.033C531.616 486.469 541.45 481.256 554.149 478.128C564.048 475.717 577.333 473.631 593.745 474.348C609.766 459.621 625.786 444.828 641.807 430.1C641.677 394.128 644.542 364.477 647.473 342.712C653.595 298.529 658.87 294.879 661.801 294.488Z" fill="white" stroke="#161616" stroke-width="3" stroke-miterlimit="10"/>
<path d="M515.53 509.538C518.004 512.21 522.563 512.992 525.884 513.97C530.769 515.338 535.783 516.381 540.863 517.033C542.101 517.228 542.622 515.338 541.384 515.143C537.151 514.556 532.918 513.774 528.75 512.666C525.168 511.754 519.437 510.972 516.897 508.105C516.051 507.258 514.683 508.626 515.53 509.538Z" fill="#161616"/>
<path d="M516.637 503.608C524.777 508.626 533.895 511.428 543.468 511.885C544.706 511.95 544.706 509.995 543.468 509.93C534.221 509.539 525.494 506.802 517.614 501.914C516.572 501.262 515.53 502.957 516.637 503.608Z" fill="#161616"/>
<path d="M520.089 499.046C529.206 503.673 539.105 506.084 549.33 506.084C550.567 506.084 550.567 504.129 549.33 504.129C539.431 504.129 529.857 501.849 521.065 497.352C519.958 496.766 518.981 498.46 520.089 499.046Z" fill="#161616"/>
<path opacity="0.15" d="M658.414 297.356C664.275 310.128 672.025 330.851 674.304 357.374C675.998 377.25 678.798 411.137 658.414 444.893C638.355 478.063 607.942 491.227 596.675 496.049C585.344 500.936 566.327 508.887 541.645 506.28C531.681 505.237 523.605 502.761 518.004 500.611C516.767 503.348 515.595 507.258 516.962 510.842C521.391 522.507 549.004 522.311 563.852 520.03C572.123 518.792 585.865 515.469 601.234 505.237C619.73 499.763 665.708 483.472 679.514 446.653C683.552 435.9 685.962 420.456 687.264 412.049C689.088 400.189 691.758 382.398 690.065 359.46C690.065 359.46 687.59 326.29 669.225 299.115C668.378 297.812 666.424 295.075 663.559 294.879C661.345 294.749 659.391 296.378 658.414 297.356Z" fill="#3D3D3D"/>
<path opacity="0.09" d="M688.762 384.549C686.808 384.223 682.64 405.858 678.212 419.478C670.527 443.068 651.771 474.283 602.016 505.237C613.282 502.696 629.303 497.352 645.389 485.818C653.529 479.953 667.271 470.112 676.779 451.931C683.357 439.354 685.115 428.08 687.329 413.483C689.348 400.645 690.39 384.809 688.762 384.549Z" fill="#3D3D3D"/>
<path d="M508.952 174.777C508.626 189.83 508.3 204.819 507.975 219.872C503.416 238.901 510.515 258.19 525.298 267.965C541.384 278.587 559.358 273.244 561.963 272.397C562.094 276.046 561.963 280.608 560.987 285.756C560.14 290.513 558.772 294.488 557.535 297.616C565.48 305.045 572.839 306.935 576.877 307.521C596.024 310.324 617.906 294.944 629.368 268.356C625.916 264.707 621.292 259.233 616.994 251.999C614.519 247.894 608.788 237.532 605.597 222.74C602.341 207.621 605.532 205.601 603.122 194.522C600.387 181.88 592.507 167.543 581.827 160.31C563.852 148.384 533.634 153.663 508.952 174.777Z" fill="white" stroke="#161616" stroke-width="3" stroke-miterlimit="10"/>
<path d="M506.282 225.803C501.723 228.279 501.397 235.578 500.941 245.222C500.485 254.215 500.03 264.968 506.803 275.72C511.947 283.931 518.916 287.972 521.781 289.601C536.63 298.073 551.739 295.466 556.493 294.423C553.497 293.185 550.436 291.947 547.441 290.709C551.153 290.578 557.405 289.862 563.982 286.408C570.755 282.889 574.598 278.197 577.854 274.091C581.696 269.269 587.753 260.341 591.205 246.852C589.511 243.919 582.999 232.059 586.385 217.461C588.274 209.381 592.377 203.842 594.917 200.909C598.889 201.17 601.039 202.799 601.885 203.581C606.249 207.556 606.769 215.702 602.406 223.392C604.295 222.023 608.788 218.243 610.937 211.596C613.217 204.689 611.393 198.889 610.416 195.565C609.179 191.59 607.356 185.66 601.885 182.728C600.322 181.88 597.847 180.838 594.917 181.098C585.539 182.011 583.585 197.064 572.644 210.945C564.438 221.306 547.571 235.513 530.964 233.623C518.46 232.189 512.468 222.414 506.282 225.803Z" fill="#161616" stroke="#161616" stroke-width="3" stroke-miterlimit="10"/>
<path d="M529.206 199.801C529.987 210.097 530.117 220.458 529.531 230.755C529.466 231.667 530.638 231.993 531.225 231.472C534.481 228.604 537.737 225.737 540.928 222.87C541.84 222.022 540.472 220.654 539.561 221.501C536.304 224.368 533.048 227.236 529.857 230.103C530.443 230.364 530.964 230.559 531.55 230.82C532.136 220.524 532.006 210.162 531.225 199.866C531.094 198.562 529.141 198.562 529.206 199.801Z" fill="#161616"/>
<path d="M515.139 209.837C514.878 209.12 514.032 206.253 515.595 206.253C516.506 206.253 516.506 207.817 516.506 208.403C516.506 208.99 516.506 209.967 516.05 210.488C515.595 211.075 514.943 210.619 514.748 209.967C514.553 209.315 514.683 208.599 514.748 207.947C514.943 206.709 513.055 206.187 512.859 207.426C512.534 209.511 512.794 212.9 515.725 212.704C517.809 212.574 518.395 210.097 518.395 208.338C518.395 206.513 517.613 203.972 515.269 204.232C512.208 204.623 512.403 208.142 513.12 210.293C513.641 211.531 515.529 211.01 515.139 209.837Z" fill="#161616"/>
<path d="M516.506 209.25C516.051 208.728 516.051 207.816 516.506 207.229C515.985 207.164 515.464 207.099 514.943 207.034C515.464 207.751 515.595 208.793 515.009 209.51C515.53 209.575 516.051 209.641 516.572 209.706C516.376 209.38 515.009 207.49 516.116 207.425C515.985 207.425 516.116 207.229 516.051 207.555C516.051 207.816 516.116 208.142 516.116 208.468C516.116 208.663 515.985 209.51 515.66 209.315C514.618 208.598 513.641 210.292 514.683 211.009C515.855 211.791 517.353 211.009 517.809 209.836C518.265 208.728 518.265 206.513 517.093 205.796C516.051 205.144 514.618 205.731 514.032 206.708C513.25 208.077 514.032 209.575 514.813 210.748C515.139 211.205 515.92 211.465 516.376 210.944C517.483 209.575 517.679 207.62 516.637 206.122C516.311 205.665 515.53 205.405 515.074 205.926C513.901 207.36 513.901 209.25 515.074 210.683C515.92 211.53 517.288 210.162 516.506 209.25Z" fill="#161616"/>
<path d="M553.041 207.165C552.39 206.579 551.609 205.21 552.781 204.624C553.953 204.037 554.148 205.601 554.148 206.383C554.148 206.839 554.279 208.664 553.497 208.664C552.781 208.664 552.39 207.165 552.195 206.709C551.869 205.536 549.981 205.992 550.306 207.23C550.827 208.925 552.13 211.205 554.214 210.489C556.232 209.837 556.298 206.839 555.972 205.145C555.581 203.125 553.562 201.821 551.674 202.994C549.59 204.298 550.046 207.035 551.674 208.534C552.585 209.381 553.953 208.012 553.041 207.165Z" fill="#161616"/>
<path d="M554.409 207.686C554.148 206.839 554.083 205.992 554.279 205.145C553.823 205.34 553.302 205.536 552.846 205.731C553.302 205.992 553.302 206.839 552.846 207.1C553.302 207.295 553.823 207.491 554.279 207.686C553.888 206.839 553.562 205.927 553.172 205.079C552.976 204.623 552.52 204.232 551.999 204.428C551.543 204.558 551.088 205.145 551.348 205.601C551.739 206.448 552.064 207.36 552.455 208.207C552.716 208.794 553.302 209.185 553.888 208.794C555.581 207.751 555.581 205.079 553.888 204.037C553.367 203.711 552.585 203.972 552.455 204.623C552.195 205.861 552.26 207.034 552.585 208.207C552.911 209.38 554.735 208.859 554.409 207.686Z" fill="#161616"/>
<path d="M512.338 197.976C514.422 194.131 519.567 193.61 522.172 197.259C522.888 198.302 524.582 197.325 523.865 196.282C520.414 191.525 513.51 191.72 510.645 196.999C510.059 198.107 511.752 199.084 512.338 197.976Z" fill="#161616"/>
<path d="M546.529 197.781C549.329 193.154 555.907 193.545 557.926 198.628C558.381 199.801 560.27 199.28 559.814 198.107C557.144 191.46 548.548 190.613 544.835 196.804C544.184 197.846 545.877 198.824 546.529 197.781Z" fill="#161616"/>
<path d="M484.79 180.577C518.655 182.532 552.455 185.269 586.19 188.788C589.967 189.179 589.902 183.314 586.19 182.923C552.455 179.339 518.655 176.602 484.79 174.712C481.013 174.516 481.013 180.381 484.79 180.577Z" fill="#161616"/>
<path d="M506.738 176.276C507.259 171.258 509.408 158.355 519.763 147.798C533.765 133.526 558.187 128.574 577.464 139.978C592.573 148.971 601.364 166.11 600.322 184.291C569.128 181.685 537.933 178.948 506.738 176.276Z" fill="#5222D0"/>
<path opacity="0.11" d="M601.43 222.675C601.364 223.196 600.518 227.562 596.61 229.517C594.591 230.495 592.703 230.495 591.791 230.364C595.764 235.447 612.045 257.474 606.9 284.453C605.532 291.491 602.993 297.421 600.388 302.113C604.686 299.441 610.287 295.336 615.757 289.275C622.53 281.781 626.372 274.287 628.587 269.073C624.484 263.925 619.99 257.604 615.757 249.98C610.221 240.009 606.705 230.625 604.36 222.935C603.318 222.87 602.406 222.74 601.43 222.675Z" fill="#3D3D3D"/>
<path opacity="0.12" d="M529.141 200.192C526.796 209.185 524.386 218.244 522.042 227.237C524.712 228.279 527.382 229.322 529.987 230.365C529.727 220.264 529.466 210.228 529.141 200.192Z" fill="#3D3D3D"/>
<path opacity="0.69" d="M549.525 136.394C542.817 142.519 546.529 161.027 558.316 180.642C572.253 181.88 586.19 183.183 600.127 184.421C600.583 178.687 600.648 167.543 594.2 156.856C583.194 138.675 557.795 128.9 549.525 136.394Z" fill="#444444"/>
</svg>
