<svg width="1032" height="773" viewBox="0 0 1032 773" fill="none" xmlns="http://www.w3.org/2000/svg">
<path d="M110.166 654.602C101.329 647.388 92.1057 640.495 83.9142 632.572C80.1087 628.9 76.5612 624.906 73.8522 620.333C72.4332 618.014 71.2722 615.501 70.4337 612.925C69.7242 610.799 69.0147 607.514 72.1107 607.192C73.2717 607.063 74.4972 607.32 75.5937 607.643C76.8192 607.965 77.3352 606.097 76.1097 605.774C72.4332 604.873 67.1442 605.13 67.7247 610.284C68.4342 616.081 72.2397 622.007 75.7227 626.452C84.7527 638.047 97.5237 646.743 108.811 655.955C109.779 656.728 111.133 655.375 110.166 654.602Z" fill="#E8E8E8"/>
<path d="M76.4324 606.096C72.6914 601.652 69.7889 596.498 68.1119 590.894C67.3379 588.382 67.0154 585.805 66.2414 583.357C65.7254 581.811 64.7579 580.394 66.1769 579.041C66.8219 578.462 67.7894 578.075 68.4989 577.56C70.6919 576.078 71.9174 574.339 69.2084 572.471C67.6604 571.44 65.7254 571.247 64.0484 570.41C61.7909 569.186 60.0494 567.189 58.7594 565.063C56.0504 560.683 54.5669 555.529 52.9544 550.698C51.0194 544.965 49.1489 539.103 47.4719 533.306C44.1179 521.582 41.3444 509.729 39.0869 497.812C38.8934 498.198 38.6354 498.585 38.4419 498.971C50.5679 494.978 62.6294 505.22 71.2724 512.499C80.1734 519.971 88.1714 528.539 95.2019 537.815C109.714 557.14 119.841 579.428 126.162 602.682C130.032 616.918 132.483 631.541 133.837 646.228C133.966 647.452 135.901 647.452 135.772 646.228C131.064 595.532 112.359 544.192 72.3044 510.76C63.1454 503.159 50.7614 492.916 37.9904 497.103C37.4744 497.297 37.2164 497.748 37.3454 498.263C39.7319 511.017 42.7634 523.643 46.4399 536.14C48.1814 542.002 49.9874 547.799 51.9869 553.532C53.5994 558.17 55.0829 563.13 57.9209 567.189C59.0174 568.735 60.2429 570.152 61.7909 571.247C63.6614 572.6 65.8544 572.729 67.7249 573.888C70.1759 575.37 66.6284 576.529 65.3384 577.431C64.3709 578.14 63.4679 578.977 63.2744 580.265C63.0164 582.198 64.6934 584.452 65.1449 586.256C65.7899 589.026 66.3704 591.731 67.4024 594.437C69.2729 599.204 71.9174 603.584 75.2069 607.513C75.8519 608.415 77.2064 607.063 76.4324 606.096Z" fill="#E8E8E8"/>
<path d="M48.8266 508.183C75.7876 538.588 96.7501 574.082 110.424 612.345C114.23 622.974 117.39 633.796 120.035 644.747C120.357 645.971 122.163 645.455 121.905 644.231C112.359 604.551 95.2021 566.738 71.4661 533.435C64.8871 524.159 57.7921 515.269 50.2456 506.766C49.3426 505.929 47.9881 507.282 48.8266 508.183Z" fill="#E8E8E8"/>
<path d="M53.2125 550.569C56.3085 551.342 59.34 552.373 62.307 553.597C63.468 554.048 63.984 552.18 62.823 551.729C59.856 550.505 56.8245 549.474 53.7285 548.701C52.5675 548.379 52.0515 550.247 53.2125 550.569Z" fill="#E8E8E8"/>
<path d="M75.9161 593.342C80.1086 593.213 83.5916 595.403 87.0101 597.465C90.1061 599.333 93.1376 601.201 96.1046 603.262C102.232 607.514 107.779 612.538 111.456 619.109C112.036 620.204 113.713 619.238 113.133 618.143C109.263 611.314 103.458 606.032 97.0721 601.652C93.7181 599.333 90.1706 597.143 86.6231 595.081C83.2691 593.084 79.8506 591.41 75.8516 591.474C74.6906 591.41 74.6906 593.342 75.9161 593.342Z" fill="#E8E8E8"/>
<path d="M101.587 581.747C99.846 571.312 99.9105 560.747 101.781 550.376C101.974 549.152 100.104 548.637 99.9105 549.861C97.9755 560.619 97.911 571.505 99.717 582.263C99.9105 583.486 101.781 582.971 101.587 581.747Z" fill="#E8E8E8"/>
<path d="M98.2979 537.622C99.6524 524.867 102.361 512.113 106.876 500.131C110.682 490.018 116.358 480.098 126.097 474.687C125.581 474.429 125.13 474.107 124.614 473.849C125.646 491.757 136.159 507.668 136.611 525.64C136.869 525.318 137.062 524.996 137.32 524.738C134.869 525.382 132.418 526.027 129.967 526.671C129.258 526.864 129 527.766 129.516 528.281C132.483 531.115 133.063 535.109 133.192 539.039C133.257 541.1 134.353 551.085 131.967 551.729C131.386 551.922 131.064 552.631 131.386 553.146C138.546 564.612 135.256 578.204 133.257 590.572C131.193 603.327 130.935 616.21 132.418 628.964C132.547 630.188 134.482 630.188 134.353 628.964C132.676 614.599 133.515 600.492 135.966 586.321C137.965 574.854 139.578 562.551 133.128 552.115C132.934 552.566 132.741 553.082 132.547 553.532C134.289 553.082 134.869 551.729 135.127 550.054C135.579 546.962 135.256 543.548 135.192 540.456C135.127 535.56 134.611 530.471 130.87 526.928C130.741 527.444 130.612 528.023 130.419 528.539C132.87 527.895 135.321 527.25 137.772 526.606C138.159 526.477 138.481 526.091 138.481 525.704C138.03 507.668 127.581 491.821 126.484 473.914C126.42 473.205 125.71 472.69 125.001 473.076C115.39 478.423 109.585 487.892 105.586 497.877C100.491 510.567 97.6529 524.158 96.2339 537.75C96.2339 538.845 98.1689 538.845 98.2979 537.622Z" fill="#E8E8E8"/>
<path d="M121.711 483.511C114.81 509.6 111.262 536.526 111.198 563.517C111.198 564.741 113.133 564.741 113.133 563.517C113.197 536.655 116.68 509.987 123.517 484.027C123.904 482.803 122.034 482.287 121.711 483.511Z" fill="#E8E8E8"/>
<path d="M879.006 444.926C883.134 458.196 886.23 471.723 888.165 485.509C889.132 492.466 889.842 499.551 890.164 506.573C890.293 508.377 890.358 510.245 890.422 512.048C890.487 513.143 890.164 514.947 890.551 515.978C890.938 516.944 892.293 517.588 893.067 518.232C894.421 519.327 895.776 520.422 897.066 521.518C897.13 521.002 897.195 520.487 897.259 519.972C895.453 521.067 893.712 521.582 891.583 521.646C891.132 521.646 890.809 521.968 890.68 522.355C888.81 528.152 890.164 534.272 894.357 538.781C894.615 538.201 894.808 537.686 895.066 537.106C888.358 536.849 888.229 544.579 888.874 549.346C889.777 555.98 891.067 562.615 892.938 569.057C896.679 581.683 902.936 593.664 913.191 602.296C914.159 603.069 915.513 601.716 914.546 600.943C905.902 593.664 900.097 583.873 896.356 573.244C894.615 568.22 893.26 563.066 892.228 557.913C891.39 553.597 887.197 538.781 895.066 539.039C895.969 539.103 896.292 538.008 895.776 537.364C892.099 533.37 890.938 527.959 892.615 522.87C892.293 523.128 891.97 523.321 891.712 523.579C894.163 523.579 896.227 522.999 898.356 521.646C898.808 521.324 899.065 520.551 898.549 520.1C896.163 518.168 892.873 516.493 892.486 513.272C892.099 509.858 892.228 506.315 891.97 502.901C891.519 496.524 890.874 490.147 889.906 483.769C887.971 470.435 884.94 457.294 880.941 444.411C880.489 443.187 878.619 443.702 879.006 444.926Z" fill="#E8E8E8"/>
<path d="M882.166 447.825C879.522 444.346 884.488 441.77 887.391 442.478C890.293 443.251 892.68 445.57 894.679 447.632C898.356 451.368 901.258 455.748 903.774 460.322C908.998 469.726 913.384 479.776 917.254 489.76C925.188 510.309 930.67 531.824 933.573 553.597C935.185 565.965 936.024 578.397 936.024 590.83C936.024 592.054 937.959 592.054 937.959 590.83C937.959 564.934 934.411 539.103 927.445 514.238C924.027 502.128 919.834 490.275 914.868 478.68C910.288 467.987 905.386 456.521 897.517 447.76C894.357 444.218 889.003 438.742 883.714 440.61C880.489 441.705 878.361 445.828 880.554 448.791C881.263 449.757 882.94 448.856 882.166 447.825Z" fill="#E8E8E8"/>
<path d="M928.607 518.619C931.896 507.603 935.702 496.846 940.023 486.217C942.281 480.742 944.667 475.266 947.247 469.92C948.473 467.407 949.698 464.831 950.988 462.318C951.827 460.708 954.342 453.622 956.987 454.266C957.761 454.46 958.277 453.815 958.148 453.107C957.503 449.113 962.018 445.699 964.404 443.058C966.533 440.739 968.597 438.42 970.725 436.101C975.111 431.334 979.433 426.567 983.819 421.736C983.303 421.607 982.722 421.478 982.206 421.285C988.85 437.711 987.108 455.684 983.238 472.561C981.239 481.193 978.723 489.76 976.595 498.392C975.111 504.383 973.499 513.465 966.146 514.754C965.63 514.818 965.372 515.462 965.501 515.913C967.371 523.579 962.211 530.665 958.793 537.106C955.568 543.161 952.601 549.41 949.892 555.787C944.603 568.219 940.41 581.038 937.25 594.115C936.927 595.339 938.798 595.854 939.12 594.63C942.603 580.137 947.376 566.029 953.504 552.437C956.406 545.996 959.631 539.683 963.05 533.499C966.146 527.895 968.984 521.968 967.436 515.462C967.242 515.849 966.984 516.235 966.791 516.622C973.047 515.527 975.756 509.214 977.369 503.674C980.013 494.398 982.4 484.864 984.657 475.459C988.979 457.552 991.301 438.291 984.206 420.77C983.948 420.126 983.109 419.739 982.593 420.319C977.111 426.31 971.628 432.365 966.146 438.355C963.566 441.19 960.792 443.895 958.406 446.923C956.858 448.984 956.019 450.917 956.406 453.493C956.793 453.107 957.18 452.72 957.567 452.334C952.923 451.174 950.666 458.776 949.118 461.803C946.022 467.923 943.119 474.107 940.475 480.355C935.186 492.594 930.671 505.22 926.865 517.974C926.349 519.263 928.22 519.778 928.607 518.619Z" fill="#E8E8E8"/>
<path d="M979.046 438.42C958.922 475.911 938.411 514.561 933.573 557.398C933.444 558.622 935.379 558.622 935.508 557.398C940.346 514.883 960.792 476.49 980.722 439.386C981.367 438.291 979.69 437.325 979.046 438.42Z" fill="#E8E8E8"/>
<path d="M895.131 464.187C910.804 505.607 920.157 549.281 922.93 593.471C922.995 594.695 924.93 594.695 924.865 593.471C922.092 549.088 912.739 505.285 897.001 463.672C896.55 462.576 894.679 463.027 895.131 464.187Z" fill="#E8E8E8"/>
<path d="M80.1088 443.444C119.454 436.423 160.089 436.809 199.305 444.604C218.719 448.469 237.747 454.073 256.065 461.417C275.221 469.082 293.604 478.294 312.373 486.797C383.194 518.876 458.982 539.876 536.188 549.023C579.984 554.241 624.231 555.594 668.22 553.146C669.445 553.081 669.445 551.149 668.22 551.213C589.272 555.658 509.743 547.606 433.246 527.572C394.869 517.523 357.265 504.447 320.952 488.536C302.118 480.291 283.735 471.015 264.837 462.963C246.777 455.297 228.136 449.113 209.044 444.733C166.668 435.07 122.421 433.975 79.5928 441.641C78.3673 441.769 78.8833 443.638 80.1088 443.444Z" fill="#E8E8E8"/>
<path d="M430.989 526.155C467.689 528.023 503.1 514.818 537.607 504.254C573.727 493.238 609.976 482.545 646.29 472.11C682.41 461.739 718.53 450.852 755.23 442.542C791.802 434.297 829.083 430.368 866.557 429.273C908.289 427.984 950.02 429.852 991.687 431.785C992.913 431.849 992.913 429.917 991.687 429.852C918.093 426.503 843.531 423.217 770.775 437.325C733.881 444.475 697.761 455.426 661.641 465.668C625.327 476.039 589.078 486.668 552.894 497.554C532.834 503.609 512.839 510.18 492.651 515.72C472.527 521.26 451.887 525.253 430.924 524.223C429.763 524.158 429.763 526.091 430.989 526.155Z" fill="#E8E8E8"/>
<path d="M274.383 460.064C299.861 467.408 326.306 462.319 351.719 457.423C378.938 452.205 406.415 448.662 434.15 447.567C489.104 445.506 543.735 453.365 598.496 455.555C628.811 456.779 659.255 456.07 689.183 451.11C690.408 450.917 689.892 449.049 688.667 449.242C634.809 458.196 580.113 452.849 526.062 448.791C499.037 446.73 471.947 444.991 444.792 445.441C417.896 445.892 390.999 448.469 364.425 453.171C335.013 458.325 304.44 466.828 274.835 458.26C273.674 457.874 273.158 459.742 274.383 460.064Z" fill="#E8E8E8"/>
<path d="M388.548 584.195C396.804 580.781 405.705 579.041 414.67 579.299C422.991 579.557 430.473 582.262 438.535 583.937C444.534 585.225 450.532 585.225 455.37 580.974C457.24 579.364 458.853 577.689 461.562 578.526C463.561 579.106 465.238 580.459 467.109 581.296C469.302 582.327 471.559 582.713 473.881 582.262C479.428 581.167 483.621 576.594 488.458 573.953C496.65 569.572 504.519 575.434 512.517 577.56C529.158 582.005 546.96 580.652 563.988 580.459C584.95 580.265 605.977 580.394 626.811 577.818C628.036 577.689 628.036 575.756 626.811 575.885C608.106 578.14 589.207 578.268 570.373 578.462C552.442 578.655 533.479 580.33 515.806 576.336C511.678 575.434 507.808 574.081 503.874 572.471C500.455 571.054 496.908 569.701 493.167 570.216C487.297 570.989 482.911 575.627 477.945 578.462C475.365 579.943 472.527 580.974 469.56 580.137C466.335 579.17 463.69 576.336 460.143 576.207C456.789 576.143 455.176 578.848 452.725 580.587C449.307 582.971 444.985 583.035 440.986 582.391C432.472 581.038 424.539 577.753 415.831 577.367C406.35 576.916 396.868 578.655 388.032 582.327C386.871 582.778 387.387 584.646 388.548 584.195Z" fill="#E8E8E8"/>
<path d="M429.699 526.736C430.86 526.929 431.957 527.186 433.118 527.38C434.343 527.637 434.795 525.963 433.634 525.512C432.924 525.254 432.215 524.996 431.441 524.739C430.409 524.352 429.699 526.027 430.667 526.478C436.601 529.57 442.793 532.018 449.243 533.757C450.468 534.079 450.984 532.211 449.759 531.889C443.438 530.214 437.439 527.831 431.634 524.803C431.376 525.383 431.118 525.963 430.86 526.542C431.57 526.8 432.279 527.058 433.053 527.315C433.247 526.671 433.376 526.091 433.569 525.447C432.408 525.254 431.312 524.996 430.151 524.803C428.99 524.61 428.474 526.478 429.699 526.736Z" fill="#E8E8E8"/>
<path d="M343.011 616.017C341.592 614.342 340.302 612.602 339.205 610.67C338.689 609.704 338.044 608.673 337.722 607.578C337.27 606.869 337.206 606.032 337.464 605.195C337.27 604.293 337.528 603.584 338.173 603.069C339.141 600.428 337.98 597.658 337.335 594.952C336.367 590.701 335.4 586.449 334.432 582.198C333.916 579.943 333.4 577.753 332.949 575.498C332.691 574.468 332.497 573.502 332.239 572.471C331.852 570.667 331.465 569.83 332.82 568.348C333.465 566.995 334.432 566.738 335.722 567.768C336.303 568.348 336.883 568.928 337.464 569.508C338.109 570.345 338.56 571.311 339.076 572.213C339.979 573.888 340.882 575.563 341.721 577.238C343.72 581.232 345.462 585.354 346.945 589.541C349.783 597.4 351.718 605.517 352.879 613.826C353.202 613.44 353.524 612.989 353.782 612.602C353.911 612.731 353.976 612.925 354.105 613.053C354.427 611.829 352.557 611.314 352.234 612.538C351.976 613.698 352.557 614.535 353.782 614.535C354.492 614.535 354.814 613.955 354.685 613.311C353.202 602.682 350.428 592.311 346.171 582.455C344.172 577.817 342.043 572.664 339.076 568.541C337.464 566.287 334.561 564.226 331.788 565.836C328.627 567.64 330.111 572.084 330.756 574.854C332.046 580.523 333.336 586.192 334.561 591.86C335.142 594.566 336.367 597.593 336.496 600.363C336.561 602.618 334.69 603.649 335.013 605.903C335.658 610.09 338.818 614.342 341.463 617.434C342.43 618.271 343.785 616.918 343.011 616.017Z" fill="#E8E8E8"/>
<path d="M348.945 588.317C347.977 582.52 348.106 576.594 349.461 570.861C349.783 569.379 350.235 567.962 350.751 566.545C351.654 564.097 352.944 564.355 354.234 566.158C355.911 568.542 357.201 571.183 358.168 573.888C362.103 585.097 360.361 597.143 358.684 608.544C358.491 609.768 360.361 610.284 360.555 609.06C362.683 594.695 364.876 578.397 356.169 565.578C355.201 564.161 353.911 561.778 351.912 562.1C349.783 562.486 349.074 565.385 348.493 567.06C346.171 574.081 345.784 581.554 347.01 588.768C347.332 590.057 349.203 589.541 348.945 588.317Z" fill="#E8E8E8"/>
<path d="M352.428 573.502C354.363 583.551 355.073 593.664 354.75 603.842C354.686 605.066 356.621 605.066 356.685 603.842C357.072 593.471 356.234 583.164 354.299 572.986C354.041 571.763 352.235 572.278 352.428 573.502Z" fill="#E8E8E8"/>
<path d="M115.197 436.166C113.326 432.043 109.134 429.144 106.489 425.537C103.587 421.543 101.136 417.227 98.7495 412.976C98.556 413.427 98.3625 413.942 98.169 414.393C111.133 412.074 118.615 424.828 121.131 435.586C121.389 436.81 123.259 436.295 123.001 435.071C120.228 423.154 111.714 410.077 97.653 412.525C97.008 412.654 96.8145 413.427 97.0725 413.942C99.459 418.258 101.845 422.574 104.812 426.503C107.457 430.111 111.714 433.138 113.52 437.132C114.036 438.291 115.713 437.325 115.197 436.166Z" fill="#E8E8E8"/>
<path d="M120.808 425.794C121.776 415.681 131.451 409.368 135.192 400.414C134.74 400.607 134.224 400.801 133.773 400.994C138.094 403.764 134.869 413.813 133.644 417.678C131.838 423.346 128.871 428.5 125.065 433.009C124.291 433.975 125.646 435.328 126.42 434.362C131.193 428.757 134.611 422.251 136.353 415.101C137.449 410.592 139.513 402.411 134.74 399.319C134.16 398.933 133.515 399.383 133.321 399.899C129.451 409.175 119.905 415.23 118.873 425.794C118.744 427.018 120.679 427.018 120.808 425.794Z" fill="#E8E8E8"/>
<path d="M693.568 455.04C692.988 453.558 692.407 452.077 691.827 450.595C691.504 449.886 691.246 449.113 690.924 448.405C690.537 447.889 690.537 447.31 690.859 446.73C691.44 447.245 692.601 446.923 692.536 446.021C692.214 442.801 691.891 439.515 691.569 436.294C691.504 435.521 690.73 432.494 691.182 431.914C693.181 429.144 694.536 433.718 694.729 434.426C696.471 440.353 696.406 447.181 696.342 453.3C696.342 454.524 698.277 454.524 698.277 453.3C698.341 448.276 698.083 443.316 697.374 438.356C696.922 435.199 696.406 430.626 693.31 428.758C691.311 427.534 689.634 428.822 689.247 430.948C688.86 433.009 689.505 435.457 689.698 437.454C689.956 440.288 690.279 443.123 690.537 445.957C691.117 445.699 691.633 445.506 692.214 445.248C691.117 444.218 689.44 444.411 688.795 445.828C688.344 446.794 688.731 447.825 689.053 448.791C689.827 451.046 690.859 453.236 691.698 455.491C692.149 456.715 694.02 456.199 693.568 455.04Z" fill="#E8E8E8"/>
<path d="M697.89 444.54C697.632 435.521 699.502 426.696 703.437 418.515C702.921 418.58 702.405 418.644 701.889 418.709C706.081 422.187 703.308 431.592 702.598 436.101C701.631 442.156 700.405 448.211 698.857 454.138C698.535 455.362 700.405 455.877 700.728 454.653C702.598 447.438 704.017 440.095 705.049 432.687C705.694 427.92 707.565 420.899 703.243 417.291C702.792 416.905 702.018 416.905 701.695 417.485C697.632 425.923 695.632 435.07 695.89 444.475C696.019 445.764 697.954 445.764 697.89 444.54Z" fill="#E8E8E8"/>
<path d="M359.394 641.719C363.458 637.596 369.779 643.136 374.487 642.879C376.745 642.75 378.809 641.912 380.873 641.204C383.646 640.302 386.291 639.98 389.193 640.238C400.674 641.204 411.833 642.041 423.378 641.268C424.604 641.204 424.604 639.271 423.378 639.336C417.122 639.722 410.93 639.851 404.673 639.593C398.352 639.336 391.773 637.79 385.517 638.241C383.001 638.434 380.679 639.271 378.293 640.044C374.81 641.139 372.165 640.946 368.811 639.722C365.135 638.369 361.007 637.274 357.975 640.366C357.137 641.268 358.491 642.621 359.394 641.719Z" fill="#E8E8E8"/>
<path d="M237.553 657.372C242.068 652.476 250.002 652.154 254.775 656.792C254.839 656.277 254.904 655.762 254.968 655.246C251.614 656.857 248.196 657.565 244.519 657.372C243.294 657.308 243.294 659.24 244.519 659.304C248.583 659.498 252.324 658.725 256 656.921C256.581 656.663 256.645 655.826 256.194 655.375C250.647 650.029 241.423 650.286 236.199 655.955C235.36 656.921 236.715 658.274 237.553 657.372Z" fill="#E8E8E8"/>
<path d="M57.7917 674.765C54.5022 674.507 51.2127 675.473 48.6972 677.728C47.1492 679.145 44.9562 681.786 46.9557 683.654C49.2132 685.716 54.6312 684.363 57.2757 684.105C62.1132 683.59 66.8217 682.688 71.5302 681.464C72.7557 681.142 72.2397 679.274 71.0142 679.596C65.3382 681.078 59.5977 682.044 53.7282 682.43C52.5672 682.495 51.3417 682.624 50.1807 682.624C47.2782 682.495 48.6327 680.305 50.0517 679.081C52.1802 677.148 54.9537 676.44 57.7917 676.697C59.0817 676.762 59.0172 674.829 57.7917 674.765Z" fill="#E8E8E8"/>
<path d="M149.962 621.621C150.091 621.105 150.478 620.783 150.994 620.783C151.446 620.719 151.897 620.655 152.284 620.59C153.316 620.461 154.284 620.526 155.316 620.655C157.315 620.912 159.121 621.621 160.863 622.716C160.927 622.136 160.992 621.556 161.121 620.977C158.734 621.814 156.348 622.007 153.832 621.621C152.607 621.428 152.091 623.296 153.316 623.489C156.154 623.94 158.863 623.747 161.637 622.845C162.411 622.587 162.604 621.556 161.895 621.105C158.541 618.98 154.155 617.949 150.22 619.044C148.092 619.624 146.415 622.909 149.446 623.553C150.672 623.747 151.188 621.878 149.962 621.621Z" fill="#E8E8E8"/>
<path d="M203.368 178.628C188.017 173.217 177.052 158.336 175.375 142.232C173.634 125.613 182.986 109.766 197.047 101.263C212.205 92.116 233.748 92.0516 246.196 105.901C252.582 112.923 256.516 122.521 258.838 131.603C261.225 140.944 261.612 151.315 256.258 159.754C250.84 168.192 241.165 172.895 232.071 176.437C222.46 180.238 210.915 183.201 201.498 177.275C200.466 176.631 199.498 178.306 200.53 178.95C208.98 184.232 219.171 182.879 228.201 179.916C237.037 177.017 246.39 172.959 253.227 166.388C268.513 151.766 262.257 127.61 252.711 111.57C247.68 103.067 240.133 96.8184 230.523 94.2418C221.364 91.7939 211.56 92.6313 202.852 96.1743C186.856 102.745 174.343 118.076 173.311 135.597C172.15 154.922 184.599 174.054 202.852 180.496C204.013 180.947 204.529 179.079 203.368 178.628Z" fill="#E8E8E8"/>
<path d="M688.344 552.566C732.333 549.797 776.064 543.87 819.15 534.788C831.598 532.146 843.982 529.248 856.302 526.091C857.527 525.769 857.011 523.901 855.786 524.223C813.087 535.11 769.614 542.968 725.754 547.542C713.305 548.83 700.857 549.861 688.408 550.634C687.118 550.698 687.118 552.631 688.344 552.566Z" fill="#E8E8E8"/>
<path d="M587.53 599.075C593.206 600.041 599.011 599.977 604.623 598.624C608.106 597.787 610.621 596.434 614.233 597.594C616.491 598.302 618.619 598.56 620.941 598.109C623.521 597.594 625.908 596.305 628.101 594.888C630.487 593.278 632.874 591.023 635.776 590.443C639.13 589.799 642.162 592.44 645.387 593.149C647.709 593.664 650.095 593.6 652.417 593.213C653.643 593.02 653.127 591.152 651.901 591.345C647.838 592.054 644.677 591.023 641.001 589.413C639.453 588.704 637.969 588.318 636.228 588.446C631.003 589.026 627.391 593.922 622.554 595.661C619.458 596.756 616.942 596.37 613.911 595.403C611.589 594.695 609.912 595.081 607.654 595.79C601.269 597.787 594.754 598.367 588.175 597.271C586.885 597.014 586.305 598.882 587.53 599.075Z" fill="#E8E8E8"/>
<path d="M267.933 682.881C318.05 682.881 368.166 682.881 418.283 682.881C420.798 682.881 420.798 679.016 418.283 679.016C368.166 679.016 318.05 679.016 267.933 679.016C265.418 679.016 265.418 682.881 267.933 682.881Z" fill="#161616"/>
<path d="M429.054 681.722C434.924 681.722 440.793 681.722 446.663 681.722C449.178 681.722 449.178 677.857 446.663 677.857C440.793 677.857 434.924 677.857 429.054 677.857C426.539 677.857 426.539 681.722 429.054 681.722Z" fill="#161616"/>
<path d="M459.691 681.142C461.562 681.142 463.497 681.142 465.367 681.142C467.883 681.142 467.883 677.277 465.367 677.277C463.497 677.277 461.562 677.277 459.691 677.277C457.176 677.277 457.176 681.142 459.691 681.142Z" fill="#161616"/>
<path d="M106.231 697.053C143.319 697.053 180.342 697.053 217.429 697.053C219.945 697.053 219.945 693.188 217.429 693.188C180.342 693.188 143.319 693.188 106.231 693.188C103.78 693.188 103.78 697.053 106.231 697.053Z" fill="#161616"/>
<path d="M228.201 697.053C237.876 697.053 247.486 697.053 257.161 697.053C259.677 697.053 259.677 693.188 257.161 693.188C247.486 693.188 237.876 693.188 228.201 693.188C225.75 693.188 225.75 697.053 228.201 697.053Z" fill="#161616"/>
<path d="M273.609 695.894C274.189 695.894 274.77 695.894 275.286 695.894C276.318 695.894 277.285 694.992 277.221 693.961C277.156 692.931 276.382 692.029 275.286 692.029C274.705 692.029 274.125 692.029 273.609 692.029C272.577 692.029 271.609 692.931 271.674 693.961C271.738 694.992 272.512 695.894 273.609 695.894Z" fill="#161616"/>
<path d="M85.8495 697.568C87.204 697.568 88.494 697.568 89.8485 697.568C92.364 697.568 92.364 693.703 89.8485 693.703C88.494 693.703 87.204 693.703 85.8495 693.703C83.334 693.703 83.334 697.568 85.8495 697.568Z" fill="#161616"/>
<path d="M596.947 626.774C648.934 626.774 700.921 626.774 752.973 626.774C755.488 626.774 755.488 622.909 752.973 622.909C700.986 622.909 648.999 622.909 596.947 622.909C594.432 622.909 594.432 626.774 596.947 626.774Z" fill="#161616"/>
<path d="M773.355 624.52C820.44 624.52 867.525 624.52 914.61 624.52C917.125 624.52 917.125 620.655 914.61 620.655C867.525 620.655 820.44 620.655 773.355 620.655C770.904 620.655 770.904 624.52 773.355 624.52Z" fill="#161616"/>
<path d="M927.123 623.36C930.928 623.36 934.669 623.36 938.475 623.36C940.99 623.36 940.99 619.495 938.475 619.495C934.669 619.495 930.928 619.495 927.123 619.495C924.607 619.495 924.607 623.36 927.123 623.36Z" fill="#161616"/>
<path d="M877.2 601.845C887.972 601.845 898.743 601.845 909.515 601.845C912.03 601.845 912.03 597.98 909.515 597.98C898.743 597.98 887.972 597.98 877.2 597.98C874.685 597.98 874.685 601.845 877.2 601.845Z" fill="#161616"/>
<path d="M920.286 601.265C922.93 601.265 925.575 601.265 928.219 601.265C930.735 601.265 930.735 597.4 928.219 597.4C925.575 597.4 922.93 597.4 920.286 597.4C917.835 597.4 917.835 601.265 920.286 601.265Z" fill="#161616"/>
<path d="M565.729 638.112C579.532 638.112 593.335 638.112 607.138 638.112C609.654 638.112 609.654 634.247 607.138 634.247C593.335 634.247 579.532 634.247 565.729 634.247C563.278 634.247 563.278 638.112 565.729 638.112Z" fill="#161616"/>
<path d="M621.909 637.532C627.779 637.532 633.648 637.532 639.517 637.532C642.033 637.532 642.033 633.667 639.517 633.667C633.648 633.667 627.779 633.667 621.909 633.667C619.394 633.667 619.394 637.532 621.909 637.532Z" fill="#161616"/>
<path d="M647.451 647.194C651.45 647.194 655.385 647.194 659.384 647.194C661.899 647.194 661.899 643.329 659.384 643.329C655.385 643.329 651.45 643.329 647.451 643.329C644.936 643.329 644.936 647.194 647.451 647.194Z" fill="#161616"/>
<path d="M372.745 324.21C370.423 321.311 379.195 319.507 380.614 318.927C383.388 317.703 385.129 315.449 385.774 312.486C386.419 309.458 385.774 306.237 386.677 303.274C388.032 298.894 393.063 299.151 396.804 299.345C399.319 299.474 399.255 295.609 396.804 295.48C392.547 295.222 387.645 295.351 384.678 298.829C382.033 301.921 382.549 306.108 382.227 309.909C381.969 313.323 380.679 314.998 377.325 315.964C375.39 316.544 373.455 316.866 371.842 318.09C368.875 320.216 367.65 323.952 370.036 326.915C371.52 328.912 374.293 326.142 372.745 324.21Z" fill="#161616"/>
<path d="M386.484 327.43C384.742 325.369 388.741 323.307 390.031 322.534C391.773 321.504 393.256 320.537 394.546 318.991C397.191 315.835 398.933 309.844 403.706 309.586C406.157 309.458 406.221 305.593 403.706 305.721C395.772 306.108 395.127 314.353 389.709 318.218C387.387 319.829 384.613 320.731 383.13 323.307C381.775 325.626 382.033 328.138 383.71 330.135C385.323 332.068 388.096 329.298 386.484 327.43Z" fill="#161616"/>
<path d="M688.731 118.913C688.473 123.036 685.248 127.996 689.118 131.475C692.472 134.438 696.665 132.248 700.47 132.505C704.663 132.827 702.857 136.692 702.341 139.527C701.954 141.653 701.76 143.972 702.728 146.033C704.276 149.254 708.468 151.315 711.564 148.996C713.499 147.514 711.564 144.165 709.629 145.646C706.469 148.03 705.824 142.297 706.146 140.557C706.469 138.689 707.114 136.821 707.178 134.889C707.243 132.183 705.824 130.058 703.308 129.156C700.212 128.061 697.439 129.285 694.343 129.22C688.731 129.091 692.472 122.263 692.666 118.913C692.795 116.401 688.925 116.401 688.731 118.913Z" fill="#161616"/>
<path d="M710.919 123.358C709.306 126.837 707.758 130.959 710.338 134.438C711.306 135.726 712.596 136.499 714.144 136.757C715.176 136.886 716.53 136.435 717.433 136.821C718.917 137.401 719.755 139.14 719.046 140.686C717.949 142.941 721.303 144.873 722.4 142.619C723.754 139.72 723.238 136.37 720.658 134.245C719.239 133.085 717.949 133.085 716.208 132.892C711.499 132.441 712.789 128.512 714.273 125.355C715.305 123.101 711.951 121.104 710.919 123.358Z" fill="#161616"/>
<path d="M916.48 256.958C915.061 253.286 918.48 248.004 922.801 249.357C926.091 250.452 927.574 255.348 925.381 258.053C923.833 259.986 926.542 262.691 928.09 260.759C932.089 255.927 930.09 247.489 923.833 245.621C916.932 243.559 910.288 251.418 912.804 257.924C913.642 260.308 917.383 259.277 916.48 256.958Z" fill="#161616"/>
<path d="M163.507 409.883C163.12 405.31 168.925 402.733 171.376 407.049C173.44 410.785 169.377 414.07 165.829 412.846C163.507 412.009 162.475 415.745 164.797 416.583C171.957 419.159 178.729 411.043 174.408 404.601C169.764 397.708 158.992 401.767 159.702 409.883C159.831 412.331 163.701 412.395 163.507 409.883Z" fill="#161616"/>
<path d="M185.953 229.323C184.47 231.771 184.341 234.927 186.276 237.182C187.243 238.277 188.598 238.986 190.017 239.243C192.016 239.565 193.5 238.47 195.241 239.308C196.983 240.21 196.596 241.305 196.789 243.108C196.854 244.203 196.918 245.234 197.047 246.329C197.176 247.489 197.305 248.648 198.144 249.55C198.918 250.387 199.885 250.71 200.982 250.903C201.756 251.032 202.53 250.967 203.368 250.967C204.013 250.967 204.723 250.967 205.368 251.096C206.593 251.418 207.109 252.256 206.98 253.479C206.013 254.188 206.916 255.863 207.948 255.154C209.883 253.737 209.238 251.547 207.561 250.13C206.787 249.486 205.948 249.164 204.916 249.035C201.562 248.584 199.627 249.872 198.853 245.17C198.466 242.851 199.305 238.019 196.918 236.473C195.822 235.765 194.854 236.087 193.758 236.538C192.016 237.246 190.597 237.826 188.791 236.731C186.34 235.25 186.276 232.351 187.63 230.161C188.275 229.259 186.598 228.293 185.953 229.323Z" fill="#EC615B"/>
<path d="M212.011 236.989C210.721 239.244 209.173 242.658 211.173 244.977C212.463 246.523 214.656 246.329 216.333 247.296C218.977 248.777 220.203 251.869 219.687 254.768C219.493 255.992 221.364 256.507 221.557 255.283C222.073 252.385 221.428 249.55 219.429 247.36C218.59 246.394 217.494 245.685 216.333 245.17C214.978 244.59 212.656 243.882 212.205 242.207C211.882 240.983 213.172 238.922 213.688 237.955C214.269 236.86 212.592 235.894 212.011 236.989Z" fill="#EC615B"/>
<path d="M575.082 440.417C572.889 435.908 577.017 430.626 581.919 432.365C587.014 434.169 586.821 441.126 581.983 443.058C580.822 443.509 581.338 445.377 582.499 444.926C588.756 442.414 589.594 433.46 583.08 430.755C576.372 427.92 570.438 435.199 573.469 441.448C573.985 442.543 575.662 441.512 575.082 440.417Z" fill="#EC615B"/>
<path d="M337.528 425.15C333.4 424.313 340.044 419.868 340.753 419.417C341.785 418.708 342.753 417.935 343.269 416.711C345.01 412.782 341.85 404.923 348.816 404.537C350.041 404.472 350.041 402.54 348.816 402.604C346.107 402.733 344.107 404.215 342.882 406.534C340.882 410.27 343.269 415.359 339.399 417.935C337.206 419.417 334.884 420.383 334.626 423.282C334.497 425.021 335.206 426.567 337.012 426.954C338.238 427.276 338.754 425.408 337.528 425.15Z" fill="#EC615B"/>
<path d="M349.912 419.546C348.106 417.034 349.138 413.491 352.17 412.525C354.234 411.88 355.782 412.203 356.943 410.077C358.104 407.887 357.91 405.31 359.2 403.055C360.813 400.157 363.522 398.16 366.618 397.193C367.779 396.807 367.327 394.939 366.102 395.325C363.199 396.227 360.684 397.838 358.813 400.221C357.846 401.445 357.007 402.862 356.491 404.408C355.782 406.469 356.104 409.239 353.782 410.334C352.363 411.043 350.944 410.657 349.59 411.687C348.687 412.331 348.042 413.298 347.655 414.264C346.752 416.39 346.945 418.644 348.3 420.512C348.945 421.543 350.622 420.577 349.912 419.546Z" fill="#EC615B"/>
<path d="M284.316 123.294C283.155 120.975 288.121 121.812 288.315 121.877C289.024 122.134 289.734 122.714 290.379 123.101C291.411 123.68 292.572 124.26 293.797 124.325C295.41 124.389 296.764 123.68 297.796 122.521C300.763 118.914 299.667 109.573 306.633 112.343C308.697 113.181 311.019 114.404 313.276 113.374C315.082 112.536 315.469 110.733 315.211 108.929C315.082 108.027 314.05 106.224 314.308 105.322C314.824 103.582 316.437 103.454 317.662 104.033C318.243 104.291 318.759 104.678 319.404 104.871C321.339 105.579 323.209 105.451 324.37 103.647C325.015 102.616 323.338 101.65 322.693 102.681C321.403 104.742 316.243 100.49 313.921 101.779C312.051 102.745 312.115 104.678 312.567 106.481C313.083 108.607 314.373 111.699 310.438 111.635C308.697 111.635 307.084 110.153 305.407 109.831C303.408 109.444 301.602 109.96 300.312 111.506C297.087 115.306 298.312 125.226 290.83 121.168C288.637 120.009 286.831 118.849 284.38 119.944C282.51 120.782 281.607 122.392 282.574 124.26C283.219 125.355 284.832 124.389 284.316 123.294Z" fill="#5222D0"/>
<path d="M361.136 175.858C358.233 175.149 357.846 171.413 359.265 169.223C361.265 166.131 365.973 166.324 369.134 166.904C374.423 167.87 379.325 169.931 384.678 167.934C389.838 166.002 393.708 161.815 399.513 161.686C405.576 161.557 411.317 164.198 417.444 164.005C428.151 163.683 437.891 158.401 448.146 155.953C454.209 154.471 460.143 154.342 466.206 155.888C472.011 157.37 477.429 159.753 483.234 161.171C489.297 162.717 495.296 162.459 501.423 161.944C508.131 161.428 515.033 160.913 521.096 164.391C520.967 164.005 520.773 163.683 520.644 163.296C517.419 172.766 506.97 176.631 497.747 177.146C486.201 177.79 474.978 173.603 463.368 174.054C451.629 174.505 441.696 181.655 430.151 182.75C418.347 183.91 407.189 178.305 395.45 178.627C383.517 178.95 367.973 185.456 358.556 174.827C357.717 173.925 356.363 175.278 357.201 176.18C364.619 184.489 376.358 183.008 386.226 181.526C393.515 180.431 400.158 180.367 407.447 181.784C413.639 183.008 419.831 184.683 426.152 184.811C438.923 185.134 449.694 176.888 462.272 176.051C474.978 175.213 487.298 180.302 500.004 178.885C509.486 177.854 519.354 173.41 522.579 163.747C522.708 163.361 522.515 162.845 522.128 162.652C510.776 156.017 497.102 162.266 484.911 159.496C478.203 157.95 471.947 154.987 465.174 153.569C459.305 152.281 453.5 152.603 447.695 154.02C441.503 155.502 435.633 157.95 429.57 159.818C422.604 161.944 415.961 162.588 408.737 161.106C402.996 159.882 397.707 158.916 392.289 161.621C389.774 162.91 387.452 164.649 384.872 165.809C380.486 167.741 376.293 166.582 371.843 165.486C367.134 164.391 360.039 163.618 357.395 168.836C355.718 172.121 356.879 176.824 360.749 177.726C361.845 177.983 362.361 176.115 361.136 175.858Z" fill="#E8E8E8"/>
<path d="M92.5573 275.124C101.329 273.964 109.65 278.474 118.357 277.378C121.905 276.928 125.194 275.382 128.484 274.029C130.032 273.385 131.644 272.805 133.321 272.418C136.482 271.71 139.32 272.547 142.416 273.191C151.059 275.059 160.734 272.998 169.377 271.774C173.634 271.194 177.826 270.55 182.083 269.842C186.921 269.004 191.758 267.716 196.596 267.201C201.691 266.685 207.69 268.94 205.626 275.188C203.884 280.535 197.37 282.081 192.468 282.467C183.954 283.112 175.504 280.664 166.99 282.274C159.057 283.756 151.962 287.878 144.286 290.133C140.029 291.421 135.772 291.937 131.386 291.357C127 290.713 122.872 289.618 118.357 289.94C109.198 290.519 99.4588 295.866 90.2998 293.74C84.6883 292.452 81.7858 287.299 84.4948 281.952C87.1393 276.799 93.2023 275.446 98.4913 275.446C99.7168 275.446 99.7168 273.513 98.4913 273.513C91.0738 273.513 82.3018 276.734 81.5278 285.237C80.8183 293.096 88.5583 296.317 95.2018 296.059C100.039 295.866 104.812 294.449 109.521 293.354C115.648 291.937 121.26 291.421 127.452 292.581C132.031 293.418 136.288 293.869 140.932 292.967C145.705 292.065 150.22 290.133 154.671 288.329C159.186 286.526 163.765 284.658 168.603 283.949C174.279 283.112 179.955 284.013 185.631 284.335C193.048 284.786 204.852 284.464 207.561 275.704C208.528 272.547 207.819 268.875 205.045 266.814C202.336 264.817 198.66 264.946 195.499 265.333C183.889 266.943 172.473 269.584 160.734 270.872C154.155 271.581 147.834 272.418 141.384 270.872C136.159 269.584 132.031 270.486 127.129 272.483C124.549 273.513 122.034 274.673 119.325 275.188C115.971 275.832 112.488 275.382 109.134 274.802C103.651 273.771 98.2978 272.354 92.7508 273.063C91.3318 273.32 91.3318 275.253 92.5573 275.124Z" fill="#E8E8E8"/>
<path d="M878.49 351.715C866.299 355.967 852.045 345.918 843.273 338.317C843.144 338.832 843.015 339.412 842.821 339.927C849.013 337.415 855.528 337.286 862.107 337.672C868.621 337.994 875.136 338.445 881.65 338.639C895.518 339.025 909.45 338.703 923.253 337.672C930.412 337.157 937.507 336.448 944.602 335.611C948.085 335.16 952.278 334.323 955.567 335.933C960.147 338.252 959.76 343.277 955.374 345.209C953.116 346.175 950.665 346.497 948.279 346.948C944.538 347.593 940.797 348.301 937.056 348.945C930.219 350.169 923.382 351.393 916.48 352.617C912.546 353.326 908.611 354.034 904.677 354.743C901 355.387 897.195 356.353 893.389 356.418C886.939 356.482 882.102 350.813 875.652 351.522C874.426 351.651 874.426 353.583 875.652 353.454C879.328 353.004 882.231 355 885.391 356.482C887.971 357.706 890.487 358.35 893.325 358.35C900.742 358.286 908.418 356.031 915.706 354.678C923.575 353.261 931.509 351.844 939.378 350.427C943.119 349.783 946.86 349.074 950.601 348.43C953.116 347.979 955.761 347.399 957.954 345.918C961.63 343.405 961.759 338.767 958.663 335.74C953.826 330.973 945.505 333.485 939.636 334.129C923.769 335.869 907.773 336.771 891.777 336.706C883.005 336.706 874.233 336.384 865.461 335.804C857.656 335.353 849.723 334.967 842.37 337.93C841.789 338.188 841.338 339.025 841.918 339.54C851.206 347.593 866.041 357.964 879.006 353.454C880.167 353.197 879.715 351.329 878.49 351.715Z" fill="#E8E8E8"/>
<path d="M582.693 692.029C582.113 688.357 587.337 688.936 589.401 689.645C591.013 690.16 592.561 690.805 594.238 690.998C598.237 691.513 602.172 690.16 605.913 688.936C609.525 687.713 613.331 686.36 617.201 686.746C621.845 687.197 625.585 690.998 624.876 695.894C624.102 700.982 618.877 703.366 614.233 701.949C611.073 700.982 608.299 698.986 605.01 698.47C598.044 697.44 590.756 703.495 584.048 700.274C582.951 699.758 581.919 701.369 583.08 701.949C587.079 703.881 591.078 702.979 595.142 701.82C597.722 701.111 600.43 700.209 603.139 700.274C606.3 700.338 608.88 701.884 611.653 703.044C615.588 704.719 619.716 705.041 623.199 702.206C626.166 699.823 627.456 696.022 626.553 692.351C623.844 681.722 611.589 685.007 604.236 687.455C600.753 688.614 597.077 689.709 593.336 688.936C590.949 688.421 588.692 686.94 586.112 687.004C583.016 687.068 580.242 689.323 580.758 692.544C581.016 693.768 582.887 693.252 582.693 692.029Z" fill="#E8E8E8"/>
<path d="M508.324 670.578C511.42 667.679 515.677 666.455 519.87 667.357C521.611 667.743 526.449 669.032 523.417 671.351C521.805 672.575 518.257 672.446 516.322 672.446C515.097 672.446 515.097 674.378 516.322 674.378C519.16 674.378 524.127 674.249 526.255 671.995C528.061 670.062 525.997 667.937 524.256 666.97C518.709 663.75 511.549 664.974 506.97 669.225C506.067 670.062 507.421 671.415 508.324 670.578Z" fill="#E8E8E8"/>
<path d="M472.462 713.286C471.946 713.092 471.495 712.899 470.979 712.706C470.914 713.221 470.85 713.737 470.785 714.252C474.72 711.418 479.17 713.479 483.363 714.445C486.91 715.283 490.006 714.896 493.489 714.059C497.811 713.028 502.197 712.384 506.647 712.126C508.711 711.997 510.775 711.933 512.839 711.868C514.774 711.804 519.612 710.838 517.935 714.123C515.935 718.053 510.13 718.181 506.583 717.022C503.551 716.056 500.713 714.638 497.488 715.411C494.134 716.184 491.296 718.31 487.813 719.019C483.169 719.985 478.59 719.534 474.139 717.924C472.978 717.537 472.462 719.341 473.623 719.792C478.009 721.338 482.589 721.853 487.233 721.08C492.457 720.178 497.101 716.12 502.519 717.602C506.389 718.697 509.55 720.436 513.678 719.212C516.322 718.439 520.063 716.12 520.579 713.157C521.224 709.678 516.903 709.807 514.645 709.872C509.421 710 504.132 710.258 498.907 711.031C496.069 711.482 493.36 712.255 490.587 712.77C487.168 713.414 484.395 712.77 481.105 711.868C477.235 710.773 473.236 710.129 469.753 712.577C469.237 712.964 469.108 713.608 469.56 714.123C470.527 715.218 471.559 715.476 472.914 715.218C474.204 714.961 473.688 713.092 472.462 713.286Z" fill="#E8E8E8"/>
<path d="M738.847 676.375C742.588 674.829 746.523 673.992 750.586 674.056C754.779 674.121 758.326 675.731 762.325 676.633C768.195 678.05 772.581 674.443 777.354 671.673C784.9 667.228 792.382 670.127 800.251 671.737C805.863 672.897 811.861 673.09 816.699 669.676C817.731 668.967 816.763 667.292 815.731 668.001C809.668 672.381 802.186 670.256 795.543 668.645C789.286 667.163 783.094 666.326 777.225 669.547C774.645 670.964 772.258 672.832 769.549 674.056C765.421 675.924 762.067 674.443 758.068 673.283C751.554 671.415 744.652 671.93 738.396 674.507C737.17 674.958 737.686 676.826 738.847 676.375Z" fill="#E8E8E8"/>
<path d="M290.379 359.187C296.12 356.997 306.182 368.785 311.148 376.515C318.759 388.175 319.985 398.353 323.726 421.929C325.145 431.076 327.467 445.57 330.627 463.864C336.303 469.404 338.432 474.815 339.27 478.165C340.431 482.481 340.754 488.021 339.27 488.536C337.658 489.116 334.82 483.705 333.659 484.22C332.111 484.929 337.142 493.625 334.11 497.619C331.014 501.677 319.404 501.033 313.341 495.042C307.665 489.438 309.923 482.287 309.02 465.217C308.697 459.42 307.794 443.637 302.957 428.049C297.023 409.046 290.831 408.079 287.348 391.267C284.897 379.414 284.187 361.571 290.379 359.187Z" fill="white" stroke="#161616" stroke-width="2" stroke-miterlimit="10"/>
<path opacity="0.15" d="M298.893 375.807C302.441 375.034 308.633 391.074 309.02 391.975C314.696 406.791 311.987 413.104 314.502 434.941C316.566 452.72 317.727 462.834 323.468 475.331C329.015 487.312 335.465 494.334 333.014 497.554C330.563 500.84 320.952 497.683 313.406 494.656C312.696 493.045 311.664 490.533 310.826 487.441C308.697 479.904 308.826 473.913 308.826 471.015C308.826 469.404 308.762 450.723 305.085 434.426C303.086 425.73 302.183 427.018 299.861 418C294.765 398.417 294.959 376.644 298.893 375.807Z" fill="#6D6C6C"/>
<path opacity="0.17" d="M307.601 406.984C308.31 413.684 309.213 423.668 309.6 435.843C310.181 454.588 309.278 470.177 308.762 470.177C308.31 470.177 308.891 458.969 306.44 443.637C304.827 433.46 302.441 425.214 300.635 419.739C301.86 418.515 303.344 416.84 304.698 414.521C306.375 411.558 307.214 408.852 307.601 406.984Z" fill="#6D6C6C"/>
<path d="M303.15 635.471C301.473 638.563 301.215 641.912 305.085 671.093C305.537 674.7 305.988 677.664 306.246 679.725C316.115 681.271 330.047 682.495 346.559 680.884C356.556 679.918 368.231 678.823 368.876 675.022C369.392 671.93 362.619 666.391 331.659 655.826C330.24 645.52 328.757 635.213 327.338 624.906C309.213 626.13 304.505 633.087 303.15 635.471Z" fill="#161616"/>
<path d="M264.256 451.819C270.319 460.064 278.962 471.917 289.089 486.41C313.083 520.68 325.08 537.815 329.272 549.281C341.656 583.229 338.431 616.21 337.206 627.419C336.496 633.86 335.593 639.142 334.884 642.75C329.982 644.618 322.951 646.679 314.373 647.388C306.697 648.032 300.118 647.323 295.281 646.486C293.797 637.725 292.572 627.869 291.991 617.176C291.153 601.265 291.927 587.029 293.41 574.855C276.834 562.164 266.127 549.088 259.612 540.005C242.197 515.462 237.553 494.205 234.78 480.549C230.845 461.61 233.554 456.457 236.07 453.751C244.455 445.055 262.644 451.303 264.256 451.819Z" fill="white" stroke="#161616" stroke-width="2" stroke-miterlimit="10"/>
<path opacity="0.19" d="M266.127 506.187C272.771 511.791 281.414 520.101 289.799 531.502C292.121 534.723 301.731 548.444 310.181 570.474C321.791 601.008 322.758 629.48 322.242 645.584C319.404 646.615 315.405 647.71 310.632 648.096C304.247 648.547 299.022 647.452 295.668 646.422C293.604 633.86 292.056 619.367 291.927 603.262C291.863 592.827 292.314 583.1 293.153 574.211C291.54 573.309 260.387 555.787 260.774 526.478C260.838 518.297 263.418 511.34 266.127 506.187Z" fill="#6D6C6C"/>
<path opacity="0.15" d="M274.447 555.529C275.866 553.597 293.604 559.008 300.634 572.149C305.923 582.005 301.666 589.606 301.86 603.649C301.989 614.149 304.698 629.093 316.372 647.194C309.6 647.066 302.827 646.937 295.99 646.808C294.12 634.826 292.636 621.17 292.249 606.161C291.927 594.308 292.314 583.357 293.088 573.373C290.572 572.085 287.347 570.088 283.929 567.124C280.123 563.775 273.415 556.947 274.447 555.529Z" fill="#6D6C6C"/>
<path d="M189.178 630.382C184.276 633.538 183.438 637.918 178.987 647.581C175.891 654.28 171.247 663.234 164.088 673.412C168.151 677.986 174.924 684.363 184.857 689.065C198.466 695.507 217.558 698.599 220.525 692.995C223.686 686.94 207.109 672.575 202.143 668.323C203.497 665.295 205.69 660.464 208.399 654.602C215.559 639.271 216.978 637.017 215.817 634.247C213.108 627.676 198.079 624.713 189.178 630.382Z" fill="#161616"/>
<path d="M209.883 437.26C206.013 447.889 202.079 458.518 198.209 469.082C191.823 487.505 194.597 500.26 196.661 506.379C198.918 513.143 202.853 518.941 210.657 530.471C216.72 539.361 222.203 546.511 226.202 551.471C218.204 559.781 209.109 570.538 200.531 584.066C188.985 602.36 182.148 619.559 177.956 633.022C181.761 635.921 187.502 639.593 195.048 642.363C203.498 645.455 210.98 646.163 216.075 646.228C225.041 639.335 237.296 628.578 248.712 612.796C257.678 600.492 269.739 583.937 273.609 560.747C280.188 521.26 258.71 489.116 251.034 477.65C237.167 456.843 220.526 444.217 209.883 437.26Z" fill="white" stroke="#161616" stroke-width="2" stroke-miterlimit="10"/>
<path d="M237.038 460.45C242.004 467.343 246.906 474.3 251.615 481.321C252.195 480.999 252.711 480.677 253.292 480.355C249.099 474.751 245.358 468.76 242.133 462.512C241.682 462.963 241.23 463.414 240.779 463.865C243.423 465.668 244.907 468.374 246.519 471.015C248.39 474.107 250.325 477.199 252.195 480.291C255.872 486.281 259.548 492.337 263.225 498.327C263.805 498.005 264.321 497.683 264.902 497.361C259.29 488.6 253.679 479.84 248.003 471.079C247.358 470.049 245.681 471.015 246.326 472.045C253.292 483.64 260.322 495.171 267.288 506.766C267.933 507.861 269.61 506.895 268.965 505.8C263.87 497.168 258.839 488.472 253.743 479.84C253.227 480.226 252.711 480.613 252.195 480.999C259.484 489.051 260.774 500.775 268.707 508.312C269.61 509.149 270.965 507.797 270.062 506.959C262.128 499.487 260.838 487.699 253.55 479.647C252.776 478.809 251.486 479.904 252.002 480.806C257.097 489.438 262.128 498.134 267.224 506.766C267.804 506.444 268.32 506.122 268.901 505.8C261.935 494.205 254.904 482.674 247.938 471.079C247.358 471.401 246.842 471.723 246.261 472.045C251.873 480.806 257.484 489.567 263.16 498.327C263.805 499.358 265.482 498.392 264.837 497.361C260.709 490.597 256.581 483.834 252.453 477.134C249.422 472.11 246.648 465.604 241.617 462.19C240.779 461.61 239.876 462.705 240.263 463.542C243.488 469.791 247.164 475.717 251.421 481.386C252.131 482.352 253.808 481.45 253.098 480.42C248.39 473.334 243.552 466.377 238.521 459.549C238.005 458.454 236.328 459.42 237.038 460.45Z" fill="white"/>
<path opacity="0.2" d="M241.101 463.285C237.747 468.116 233.103 476.104 231.103 486.604C224.976 518.425 250.776 532.533 245.035 560.425C242.004 575.112 234.328 573.759 217.171 604.293C208.464 619.817 202.917 633.473 199.627 642.749C195.435 641.461 190.855 639.786 186.018 637.596C183.18 636.308 180.535 635.019 178.149 633.667C181.954 621.814 187.695 607.514 196.338 592.182C206.142 574.854 216.913 561.327 226.008 551.342C223.492 548.121 219.751 543.226 215.43 537.106C203.497 520.229 197.434 511.597 195.435 501.677C193.177 490.726 195.048 481.386 196.338 475.073C198.273 465.539 201.562 458.067 204.207 452.978C216.462 456.392 228.781 459.871 241.101 463.285Z" fill="#6D6C6C"/>
<path opacity="0.17" d="M225.943 459.355C218.655 467.665 209.109 481.321 209.883 497.812C211.044 523.643 236.586 533.499 232.909 554.692C231.877 560.554 223.75 569.959 207.432 588.575C198.466 598.817 190.855 606.998 185.631 612.474C189.63 602.682 195.435 590.959 203.82 578.591C211.237 567.64 218.848 558.879 225.621 551.986C223.621 548.959 220.074 543.548 215.623 536.849C200.079 513.53 197.047 509.858 195.306 501.741C193.242 492.208 194.596 484.156 195.628 478.165C197.499 467.021 201.433 458.453 204.4 453.042C211.56 455.104 218.784 457.23 225.943 459.355Z" fill="#6D6C6C"/>
<path d="M259.29 347.27C250.131 352.681 232.716 364.598 219.429 386.5C202.53 414.392 202.53 441.641 203.111 452.205C206.271 453.236 209.496 454.266 212.786 455.233C234.78 461.803 256.065 466.248 276.189 469.082C277.866 463.349 279.672 457.552 281.607 451.561C284.51 442.736 287.541 434.297 290.637 426.245C301.344 420.705 305.085 413.555 306.311 410.592C311.277 398.997 306.569 386.886 301.473 373.81C298.635 366.466 297.152 362.73 293.604 358.736C282.51 346.175 264.192 346.948 259.29 347.27Z" fill="#FE1264"/>
<path opacity="0.27" d="M281.026 362.537C263.418 364.856 254.001 372.844 250.195 376.58C228.717 397.773 236.134 433.524 238.134 443.187C239.94 451.883 242.649 458.84 244.777 463.542C231.168 459.87 217.623 456.134 204.013 452.463C203.175 442.607 202.336 417.291 216.978 390.3C230.587 365.307 250.131 352.488 258.838 347.463C260.064 347.528 261.289 347.657 262.515 347.721C264.385 349.911 266.643 352.23 269.416 354.614C273.544 358.221 277.608 360.733 281.026 362.537Z" fill="#6D6C6C"/>
<path opacity="0.2" d="M224.589 378.706C222.783 388.175 221.3 401.896 223.235 418.129C225.557 437.196 231.684 451.947 236.457 461.223C225.363 458.389 214.205 455.555 203.111 452.785C202.595 443.895 202.853 430.561 207.11 415.23C211.754 398.481 219.236 386.242 224.589 378.706Z" fill="#6D6C6C"/>
<path d="M769.872 591.538C765.808 600.621 766.582 609.124 767.227 613.118C779.934 618.722 791.221 621.299 799.864 622.587C802.702 623.038 837.79 627.998 841.209 618.4C842.047 616.016 840.693 613.569 839.338 611.185C831.792 597.98 812.7 597.207 810.12 597.142C809.41 583.422 800.574 573.244 791.544 572.535C778.773 571.569 770.775 589.541 769.872 591.538Z" fill="#161616"/>
<path d="M786.642 369.945C795.027 381.991 806.315 400.736 814.506 425.601C827.858 466.119 825.665 500.131 824.181 519.391C822.891 536.526 819.408 560.876 809.669 588.961C807.024 590.636 795.349 597.593 780.579 594.437C771.807 592.569 765.873 587.931 763.035 585.354C768.259 573.888 774.58 556.624 776.967 535.109C779.611 511.661 776.386 493.303 772.129 469.726C762.454 416.454 749.103 396.227 760.649 381.347C766.196 374.132 775.677 370.911 786.642 369.945Z" fill="white" stroke="#161616" stroke-width="2" stroke-miterlimit="10"/>
<path opacity="0.16" d="M791.221 399.383C795.607 420.705 799.09 445.184 800.445 472.367C802.767 520.615 797.542 562.229 790.77 594.63C787.867 595.017 780.837 595.468 773.355 591.732C768.904 589.477 765.873 586.514 764.131 584.452C772.194 565.9 775.096 550.118 776.257 539.49C778.063 522.806 776.58 509.407 773.806 484.413C772.194 469.791 770.323 457.809 768.969 449.628C776.386 432.944 783.804 416.132 791.221 399.383Z" fill="#6D6C6C"/>
<path opacity="0.22" d="M777.096 431.463C782.643 445.892 790.963 473.398 788.125 508.376C785.416 542.066 773.548 567.124 766.002 580.394C778.644 543.934 779.289 521.582 777.354 507.732C776.838 504.189 774.645 490.146 772.129 469.469C771.097 460.901 770.323 453.88 769.872 449.371C772.323 443.38 774.709 437.389 777.096 431.463Z" fill="#6D6C6C"/>
<path d="M676.54 563.646C671.187 566.287 669.574 570.603 662.221 584.581C657.319 593.857 653.191 601.265 650.482 606.032C658.738 611.958 671.832 619.753 689.311 623.876C699.631 626.323 721.11 629.738 723.561 623.876C726.27 617.369 704.211 602.36 694.923 596.305C704.469 587.029 704.92 573.566 698.47 566.674C692.988 560.812 683.055 560.425 676.54 563.646Z" fill="#161616"/>
<path d="M770.066 368.592C791.351 387.337 766.454 449.822 746.007 499.809C737.171 521.389 723.368 552.631 703.05 589.155C699.503 589.67 688.86 590.701 677.508 584.581C666.092 578.462 661.125 568.864 659.642 565.707C665.576 555.465 672.735 541.68 679.572 524.867C682.281 518.232 693.956 488.6 700.535 446.73C703.115 430.175 705.437 408.337 705.114 382.377C708.92 378.512 730.14 357.706 755.231 362.473C759.036 363.181 765.293 364.405 770.066 368.592Z" fill="white" stroke="#161616" stroke-width="2" stroke-miterlimit="10"/>
<path d="M776.967 394.359C776.902 396.614 776.838 398.868 776.838 401.123C777.483 401.123 778.128 401.123 778.773 401.123C778.45 397.516 778.644 394.102 779.354 390.559C778.709 390.494 778.063 390.365 777.483 390.301C777.87 397.902 776.128 405.89 774.774 413.362C773.419 420.899 771.613 428.371 769.485 435.715C770.13 435.908 770.71 436.037 771.355 436.23C774.903 422.831 777.87 409.368 780.321 395.712C780.515 394.488 778.644 393.973 778.45 395.197C775.999 408.789 773.032 422.316 769.485 435.715C769.162 436.939 771.033 437.454 771.355 436.23C773.613 428.5 775.419 420.577 776.838 412.654C778.128 405.439 779.805 397.644 779.418 390.301C779.353 389.27 777.741 388.948 777.547 390.043C776.773 393.715 776.58 397.387 776.902 401.123C777.031 402.347 778.837 402.411 778.837 401.123C778.902 398.868 778.966 396.614 778.966 394.359C778.966 393.135 777.031 393.135 776.967 394.359Z" fill="white"/>
<path d="M768.776 431.656C768.84 436.616 768.969 441.576 769.034 446.536C769.034 447.76 770.969 447.76 770.969 446.536C770.904 441.576 770.775 436.616 770.71 431.656C770.646 430.368 768.711 430.368 768.776 431.656Z" fill="white"/>
<path opacity="0.19" d="M741.943 388.626C742.137 401.574 741.427 419.224 737.622 439.708C733.558 461.417 727.366 478.23 718.336 503.545C710.983 524.287 707.436 530.471 699.954 553.468C695.374 567.447 692.149 579.17 690.085 587.029C686.538 586.578 679.185 585.097 671.832 579.621C664.995 574.532 661.512 568.477 659.964 565.321C671.832 544.514 679.378 526.284 684.151 513.015C698.922 471.981 702.405 436.294 704.404 414.328C705.243 405.181 705.694 397.58 705.888 392.62C717.885 391.267 729.946 389.979 741.943 388.626Z" fill="#6D6C6C"/>
<path opacity="0.24" d="M735.3 390.494C730.269 412.589 724.464 429.982 719.885 442.156C716.144 452.205 710.403 465.733 698.987 492.723C694.794 502.708 692.666 507.668 691.634 509.923C685.313 524.094 675.186 543.999 658.997 567.447C673.509 541.422 690.15 504.318 698.987 457.552C703.437 433.975 705.05 412.46 705.243 393.844C705.179 393.779 705.179 393.779 735.3 390.494Z" fill="#6D6C6C"/>
<path d="M755.682 232.094C756.714 234.606 758.52 238.278 761.809 242.014C764.196 244.719 767.227 248.198 771.742 249.55C780.514 252.256 789.028 245.299 790.189 244.333C798.703 249.357 807.217 254.382 815.667 259.406C816.441 269.906 816.505 285.753 812.377 304.24C808.443 321.826 804.637 323.952 801.541 341.022C796.833 366.66 800.316 389.528 799.155 389.592C798.961 389.592 798.703 389.077 798.187 386.307C764.97 388.819 731.752 391.331 698.535 393.844C697.568 373.939 697.697 357.191 698.084 344.823C698.6 325.498 700.147 302.114 706.597 274.995C711.177 255.606 714.789 249.035 720.271 243.882C732.139 232.609 748.393 231.9 755.682 232.094Z" fill="#FE1264"/>
<path opacity="0.3" d="M794.124 246.651C793.028 258.44 790.964 275.961 787.029 296.961C785.868 303.274 782.579 320.666 779.934 329.169C776.709 339.605 764.132 369.43 702.599 393.65C721.368 391.46 740.718 389.528 760.52 387.917C772.904 386.886 785.159 385.985 797.22 385.276C801.477 370.138 805.412 353.003 808.25 334.065C812.571 305.399 813.41 279.504 812.7 257.667C806.508 253.995 800.316 250.323 794.124 246.651Z" fill="#9D093D"/>
<path d="M767.55 193.314C765.293 204.845 764.261 217.599 754.908 231.706C753.618 233.639 752.522 235.12 751.748 236.087C752.522 237.633 760.713 253.479 778.128 255.863C788.061 257.215 795.866 253.415 798.833 251.804C798.381 247.939 798.123 243.301 798.51 238.084C799.026 230.418 800.639 224.041 802.251 219.209C809.733 218.243 817.151 217.277 824.633 216.311C826.116 213.025 827.535 209.74 829.019 206.391C831.083 206.326 833.082 206.262 835.146 206.197C833.598 201.688 831.276 194.538 828.567 185.713C823.536 169.093 823.601 166.71 820.892 162.974C813.41 152.731 796.64 146.225 785.61 151.701C774.968 156.919 771.743 171.799 767.55 193.314Z" fill="white" stroke="#161616" stroke-width="2" stroke-miterlimit="10"/>
<path d="M834.823 205.296C831.147 205.36 827.535 205.103 823.923 204.587C822.697 204.394 822.181 206.262 823.407 206.455C827.212 207.035 830.953 207.293 834.823 207.228C836.113 207.228 836.113 205.296 834.823 205.296Z" fill="#161616"/>
<path d="M837.404 175.728C834.114 173.925 830.18 174.955 828.051 177.983C827.342 179.014 829.019 179.98 829.728 178.949C831.212 176.823 834.179 176.179 836.436 177.403C837.533 177.983 838.5 176.308 837.404 175.728Z" fill="#161616"/>
<path d="M835.727 187.324C836.049 185.842 835.985 184.36 835.275 183.008C834.759 182.041 833.663 180.882 832.437 181.397C831.147 181.913 831.212 183.716 831.47 184.811C831.728 186.164 832.437 187.388 833.469 188.29C834.05 188.805 835.146 188.483 835.146 187.581C835.146 185.971 834.759 184.554 834.05 183.072C833.534 181.977 831.857 182.943 832.373 184.038C832.889 185.133 833.147 186.293 833.211 187.517C833.792 187.259 834.308 187.066 834.888 186.808C833.792 185.906 833.405 184.747 833.34 183.394C833.405 183.265 833.34 183.137 833.147 183.137C833.276 183.201 833.405 183.33 833.469 183.459C833.663 183.716 833.856 184.103 833.921 184.425C834.179 185.198 834.179 185.906 833.985 186.679C833.534 188.032 835.404 188.548 835.727 187.324Z" fill="#161616"/>
<path d="M818.699 178.305C814.958 177.081 811.023 178.627 808.83 181.848C808.121 182.879 809.798 183.845 810.507 182.814C812.184 180.302 815.28 179.271 818.183 180.173C819.344 180.495 819.86 178.691 818.699 178.305Z" fill="#161616"/>
<path d="M819.73 189.063C819.859 187.324 819.15 184.618 817.344 183.91C814.957 182.943 814.957 186.293 815.215 187.71C815.538 189.127 816.699 191.768 818.634 190.673C819.408 190.222 819.537 189.385 819.279 188.612C818.827 187.388 818.118 186.293 817.602 185.134C817.086 185.52 816.57 185.907 816.054 186.293C816.312 186.551 816.505 186.808 816.57 187.195C816.892 188.419 818.763 187.903 818.44 186.68C818.247 185.971 817.924 185.456 817.408 184.94C816.57 184.167 815.409 185.134 815.86 186.1C816.118 186.551 816.312 187.002 816.57 187.517C816.763 187.903 816.957 188.612 817.279 188.934C817.408 189.385 817.537 189.385 817.731 188.934C817.666 188.805 817.537 188.612 817.473 188.483C817.279 188.097 817.15 187.71 817.086 187.259C817.021 186.873 817.086 186.357 816.957 185.971C817.021 185.713 816.957 185.649 816.892 185.971C817.021 186.164 817.215 186.357 817.279 186.551C817.731 187.324 817.86 188.226 817.795 189.127C817.666 190.287 819.601 190.287 819.73 189.063Z" fill="#161616"/>
<path d="M823.472 167.097C822.956 163.683 821.601 158.143 817.989 152.41C816.699 150.413 813.926 146.097 809.54 143.198C801.155 137.658 788.255 138.109 778.838 144.873C769.679 151.508 765.099 163.425 767.099 175.213C785.933 172.508 804.702 169.802 823.472 167.097Z" fill="#EC615B"/>
<path d="M854.302 160.913C825.342 164.584 796.446 168.256 767.485 171.928C763.809 172.379 763.809 178.176 767.485 177.725C796.446 174.054 825.342 170.382 854.302 166.71C857.914 166.259 857.979 160.462 854.302 160.913Z" fill="#161616"/>
<path d="M785.868 174.44C790.964 176.308 793.931 179.851 797.414 184.103C804.702 192.992 802.509 196.277 807.669 201.817C815.796 210.642 824.052 205.425 831.341 214.056C837.533 221.4 836.694 231.32 836.436 233.51C836.178 235.7 835.082 244.526 827.922 250.581C821.73 255.798 813.281 257.022 812.765 255.863C812.571 255.412 813.281 254.381 817.86 251.289C816.506 252.256 814.442 253.415 811.668 253.93C808.508 254.51 805.541 253.93 805.476 253.479C805.476 253.157 807.153 253.157 808.443 251.74C809.217 250.903 809.54 249.937 809.733 249.099C807.218 250.774 803.993 252.191 800.961 251.289C792.705 248.777 791.222 230.289 790.706 224.17C789.158 204.33 794.834 193.508 787.932 186.551C787.352 185.971 784.578 183.136 781.547 183.716C777.677 184.425 774.71 190.48 776 194.474C777.096 197.888 780.966 198.854 780.708 199.498C780.321 200.336 773.807 199.047 768.324 194.667C766.325 193.057 764.712 191.768 763.874 189.385C762.39 185.262 764.132 180.56 766.454 177.79C771.291 171.992 780.321 172.379 785.868 174.44Z" fill="#161616" stroke="#161616" stroke-width="2" stroke-miterlimit="10"/>
<path opacity="0.22" d="M778.193 200.014C779.418 200.142 781.16 200.207 781.289 199.756C781.353 199.563 780.902 199.241 780.902 199.241C780.902 199.241 782.385 201.109 784.191 201.366C785.094 201.495 785.804 201.173 786.32 200.915C783.03 207.808 779.676 216.182 776.903 225.845C774 235.829 772.388 244.976 771.549 252.771C768.711 251.869 763.551 249.808 758.778 245.17C755.295 241.82 753.296 238.277 752.135 235.894C756.005 230.096 758.262 225.007 759.617 221.529C760.842 218.308 761.294 216.182 763.487 208.839C765.293 202.912 766.712 198.017 767.679 194.667C768.195 195.118 768.969 195.826 770.001 196.535C771.485 197.566 774.387 199.563 778.193 200.014Z" fill="#6D6C6C"/>
<path d="M799.026 139.72C791.48 141.201 785.868 147.256 785.03 154.407C783.998 162.91 790.254 168.707 790.835 169.222C782.837 170.189 774.839 171.219 766.841 172.186C766.712 170.317 766.647 167.741 767.099 164.778C768.647 155.244 774.194 149.382 775.355 148.158C777.225 146.226 783.804 139.977 793.544 139.397C795.801 139.269 797.672 139.526 799.026 139.72Z" fill="#B74949"/>
<path d="M813.732 258.762C818.892 257.989 824.181 266.943 826.632 271.065C840.822 295.157 834.888 322.985 833.082 331.102C831.663 337.479 829.018 348.752 820.762 361.184C812.893 373.166 803.605 380.574 797.671 384.632C787.738 388.433 769.678 393.65 747.942 390.107C740.395 388.884 733.816 386.822 728.334 384.632C719.046 385.212 709.758 385.727 700.47 386.307C698.986 386.049 696.922 385.663 694.471 384.761C691.504 383.666 688.666 382.571 688.666 381.54C688.666 380.381 691.891 378.577 707.629 376.129C706.855 376.258 696.535 378.255 689.634 371.04C683.184 364.341 682.797 352.875 687.699 348.365C691.827 344.565 698.535 346.24 710.79 349.525C722.916 352.746 732.655 357.126 739.75 360.862C742.459 362.086 763.551 371.169 782.836 360.089C797.542 351.651 802.444 336.513 803.605 332.326C808.249 315.706 799.8 309.844 802.831 285.817C803.218 281.694 805.992 259.857 813.732 258.762Z" fill="white" stroke="#161616" stroke-width="2" stroke-miterlimit="10"/>
<path d="M685.248 362.73C692.73 363.31 699.89 365.114 706.727 368.206C707.823 368.721 708.855 367.046 707.694 366.531C700.535 363.246 693.053 361.313 685.248 360.733C684.023 360.733 684.023 362.666 685.248 362.73Z" fill="#161616"/>
<path d="M684.796 354.871C693.375 354.614 700.664 359.831 708.662 362.279C709.823 362.666 710.339 360.798 709.178 360.411C701.051 357.899 693.633 352.681 684.796 352.939C683.571 353.003 683.506 354.936 684.796 354.871Z" fill="#161616"/>
<path d="M693.052 348.043C700.083 348.623 706.275 351.973 712.338 355.387C713.435 355.966 714.402 354.356 713.306 353.712C706.92 350.169 700.47 346.755 693.052 346.111C691.762 345.982 691.762 347.914 693.052 348.043Z" fill="#161616"/>
<path opacity="0.18" d="M805.863 270.615C802.058 285.881 812.184 296.188 815.603 313.645C816.183 316.737 820.763 341.795 807.347 359.574C792.383 379.414 762.713 380.123 756.908 380.316C741.75 380.703 736.01 376.258 712.274 377.482C710.016 377.611 689.376 378.77 689.183 381.669C689.118 383.215 694.859 384.954 699.18 385.534C704.856 386.307 707.823 385.019 715.047 384.439C718.143 384.181 722.594 383.988 728.076 384.439C734.655 387.144 743.169 389.786 753.36 390.816C756.134 391.074 764.777 391.847 775.871 390.236C775.871 390.236 785.159 388.948 792.512 386.371C810.765 380.059 828.825 353.455 833.921 324.467C839.661 291.808 826.89 267.201 819.731 261.725C818.763 260.952 815.99 258.826 813.087 259.535C808.379 260.566 806.444 268.231 805.863 270.615Z" fill="#6D6C6C"/>
<path opacity="0.17" d="M833.082 290.004C832.05 290.004 832.05 302.307 829.212 317.767C827.471 327.172 823.923 346.304 815.345 359.638C800.058 383.408 768.84 388.755 756.972 390.172C767.163 391.589 782.837 391.911 798.123 383.795C831.276 366.144 834.501 323.565 835.082 315.835C835.985 302.823 834.114 290.004 833.082 290.004Z" fill="#6D6C6C"/>
<path d="M276.125 533.756C302.828 510.051 329.66 486.475 356.621 463.091C407.447 418.966 458.724 375.42 510.518 332.39C506.454 320.344 501.23 299.473 504.326 274.093C505.293 266.041 513.549 206.713 567.987 176.051C572.502 173.474 635.003 139.72 693.569 176.953C732.204 201.495 752.199 246.265 747.491 290.004C740.525 355 682.733 383.794 679.379 385.405C637.712 405.245 587.595 399.383 550.249 370.396C494.134 416.518 438.148 462.705 382.227 509.02C357.717 529.312 333.271 549.603 308.826 569.959C303.73 567.511 295.281 562.615 287.67 553.661C281.285 546.189 277.931 538.717 276.125 533.756Z" fill="#161616"/>
<path d="M627.198 377.095C683.695 377.095 729.495 333.258 729.495 279.182C729.495 225.106 683.695 181.269 627.198 181.269C570.701 181.269 524.901 225.106 524.901 279.182C524.901 333.258 570.701 377.095 627.198 377.095Z" fill="white" stroke="#161616" stroke-width="2" stroke-miterlimit="10"/>
<path d="M635.519 186.679C616.814 226.231 597.141 265.397 576.566 304.047C570.761 314.933 564.891 325.82 558.957 336.642C558.377 337.737 560.054 338.703 560.634 337.608C581.726 299.215 601.914 260.372 621.135 221.014C626.553 209.934 631.907 198.79 637.26 187.581C637.776 186.551 636.099 185.584 635.519 186.679Z" fill="#E8E8E8"/>
<path d="M667.059 196.278C646.548 228.615 627.069 261.532 608.557 295.028C607.977 296.123 609.654 297.09 610.234 295.995C628.746 262.498 648.225 229.581 668.736 197.244C669.381 196.213 667.704 195.247 667.059 196.278Z" fill="#E8E8E8"/>
<path d="M605.139 306.366C596.625 322.921 587.531 339.218 577.791 355.129C577.146 356.224 578.823 357.191 579.468 356.095C589.143 340.184 598.302 323.887 606.816 307.332C607.397 306.237 605.72 305.206 605.139 306.366Z" fill="#E8E8E8"/>
<path d="M640.936 258.053C630.1 278.409 619.329 298.764 608.493 319.12C607.912 320.215 609.589 321.181 610.17 320.086C621.006 299.731 631.777 279.375 642.613 259.019C643.194 257.924 641.517 256.958 640.936 258.053Z" fill="#E8E8E8"/>
<path opacity="0.08" d="M624.166 180.946C617.007 183.523 569.857 201.173 554.764 248.455C553.023 253.93 547.605 271.581 551.668 292.001C559.473 330.908 598.431 362.408 649.386 372.972C645.516 374.261 640.098 375.807 633.39 376.644C592.884 381.733 561.472 354.163 557.796 350.877C549.798 343.598 525.094 318.862 524.643 279.697C524.578 276.283 524.772 237.633 554.119 209.741C571.212 193.508 591.207 187.581 599.592 185.198C609.396 182.428 617.974 181.397 624.166 180.946Z" fill="#6D6C6C"/>
<path d="M246.713 379.672C251.357 379.092 258.323 379.028 263.418 383.15C274.383 392.04 265.934 411.365 271.352 431.785C274.254 442.736 281.93 457.487 304.247 472.11C313.083 476.555 320.436 479.904 325.532 482.223C332.82 485.508 337.464 487.377 337.4 489.889C337.335 492.401 332.756 494.269 329.466 495.364C333.401 499.036 335.4 503.674 334.046 507.217C333.014 509.987 330.176 511.34 327.015 512.886C323.403 514.689 320.372 515.076 316.889 515.527C310.374 516.364 307.149 516.75 304.182 515.527C299.603 513.594 297.539 509.343 294.507 503.223C292.83 499.873 290.766 494.656 289.67 487.892C282.381 484.542 271.932 478.745 261.548 469.018C257.484 465.217 219.816 429.144 231.684 397.966C233.49 393.586 237.296 386.5 246.713 379.672Z" fill="white" stroke="#161616" stroke-width="2" stroke-miterlimit="10"/>
<path d="M304.376 507.539C305.988 511.082 308.439 514.045 311.6 516.428C312.567 517.201 313.535 515.527 312.567 514.754C309.729 512.628 307.536 509.793 306.053 506.573C305.537 505.477 303.86 506.444 304.376 507.539Z" fill="#161616"/>
<path d="M312.116 506.509C314.051 510.245 316.953 513.337 320.501 515.656C321.533 516.3 322.5 514.625 321.468 513.981C318.179 511.92 315.534 509.021 313.728 505.542C313.212 504.447 311.535 505.413 312.116 506.509Z" fill="#161616"/>
<path d="M320.242 502.128C322.048 505.928 325.144 508.956 328.95 510.76C330.046 511.275 331.078 509.6 329.917 509.085C326.37 507.41 323.596 504.705 321.919 501.162C321.339 500.002 319.726 500.968 320.242 502.128Z" fill="#161616"/>
<path opacity="0.2" d="M248.325 379.801C246.906 386.178 245.358 396.227 246.713 408.337C250.26 439 270.126 459.227 273.416 462.512C289.799 478.745 300.506 476.555 307.02 491.048C308.762 494.913 311.858 503.674 320.243 508.248C323.532 509.987 326.628 510.631 328.692 510.889C327.596 511.791 325.79 513.014 323.403 514.045C319.404 515.784 315.921 515.849 310.439 515.913C306.375 515.978 304.311 515.978 302.505 515.14C298.7 513.401 296.894 509.794 296.184 507.99C293.604 501.033 291.089 494.076 288.509 487.119C275.931 480.677 258.129 469.211 244.068 449.564C238.199 441.383 228.395 427.34 229.233 410.463C229.62 402.798 232.071 397.451 232.652 396.163C237.231 386.693 244.842 381.798 248.325 379.801Z" fill="#6D6C6C"/>
<path opacity="0.32" d="M230.072 414.393C230.459 414.264 232.91 421.994 237.747 431.012C249.551 453.3 266.579 466.957 278.769 476.49C284.316 480.806 289.025 484.027 291.992 486.024C295.604 492.079 297.668 497.297 298.893 501.098C299.925 504.254 300.506 507.088 302.892 510.051C305.343 513.272 308.504 515.076 310.826 516.107C309.084 516.171 306.44 516.042 303.666 514.754C298.377 512.306 296.055 507.217 293.604 501.806C292.185 498.714 290.508 494.076 289.605 488.085C255.936 471.079 243.294 449.629 238.521 439.451C233.619 429.015 229.556 414.65 230.072 414.393Z" fill="#6D6C6C"/>
<path d="M283.478 320.86C278.898 322.663 281.607 331.682 274.254 339.862C270.642 343.921 266.256 345.853 263.225 346.948C265.16 349.847 268.965 354.55 275.222 358.286C279.672 360.991 283.929 362.28 286.896 362.859C287.864 361.12 289.476 358.415 291.476 355.194C298.635 343.921 301.215 342.697 301.602 338.961C302.57 329.813 289.347 318.541 283.478 320.86Z" fill="white" stroke="#161616" stroke-width="2" stroke-miterlimit="10"/>
<path d="M282.639 338.252C285.284 343.534 288.057 348.752 292.443 352.81C293.346 353.648 294.701 352.295 293.798 351.458C289.541 347.528 286.896 342.375 284.316 337.286C283.736 336.191 282.059 337.157 282.639 338.252Z" fill="#161616"/>
<path d="M280.704 334.773C283.671 340.571 286.896 346.304 292.572 349.847C293.539 350.427 294.507 349.138 293.733 348.301C291.862 346.304 289.927 344.307 288.121 342.31C287.67 342.761 287.218 343.212 286.767 343.663C287.863 344.822 289.024 345.917 290.314 346.819C290.766 347.141 292.185 347.786 292.443 348.172C292.83 348.816 292.443 349.847 292.249 350.491C292.894 350.684 293.475 350.813 294.12 351.006C294.184 350.684 294.184 350.362 294.249 350.105C294.378 349.267 293.346 348.365 292.636 349.138C292.636 348.43 292.443 347.721 291.991 347.141C291.411 347.463 290.895 347.786 290.314 348.108C291.024 349.074 291.733 350.04 292.443 351.006C292.959 350.62 293.475 350.233 293.991 349.847C293.41 349.203 292.959 348.559 292.507 347.85C291.927 347.013 290.314 347.528 290.766 348.623C291.153 349.46 291.282 349.782 291.862 350.491C292.636 351.457 293.991 350.105 293.217 349.138C293.023 348.816 292.83 348.494 292.636 348.108C292.056 348.365 291.475 348.623 290.895 348.881C291.475 349.718 292.056 350.491 292.701 351.264C293.41 352.101 294.894 351.006 294.249 350.105C293.539 349.138 292.83 348.172 292.12 347.206C291.411 346.175 289.927 347.077 290.443 348.172C291.088 349.46 292.378 352.488 294.12 350.555C293.604 350.233 293.023 349.911 292.507 349.589C292.443 349.911 292.443 350.233 292.378 350.491C292.185 351.715 293.926 352.23 294.249 351.006C294.7 349.46 295.797 348.752 294.507 347.206C293.926 346.497 292.959 346.175 292.249 345.724C290.766 344.758 289.476 343.598 288.25 342.31C287.412 341.408 286.057 342.761 286.896 343.663C288.766 345.66 290.637 347.657 292.507 349.654C292.894 349.138 293.281 348.623 293.668 348.108C288.315 344.758 285.348 339.218 282.51 333.743C281.8 332.648 280.123 333.678 280.704 334.773Z" fill="#161616"/>
<path d="M342.818 303.789C341.528 309.522 338.883 318.025 332.82 326.786C322.178 342.181 307.73 348.688 301.538 351.071C297.99 349.718 293.346 347.335 288.96 343.277C276.963 332.132 276.06 316.866 275.931 312.936C274.641 312.614 272.771 311.906 271.158 310.36C267.03 306.366 266.063 298.442 269.868 295.157C274.19 291.421 282.446 295.995 283.349 296.446C285.348 297.541 286.767 298.893 287.67 299.924C291.218 289.231 299.732 281.179 309.858 279.504C323.661 277.249 338.754 287.298 342.818 303.789Z" fill="white" stroke="#161616" stroke-width="2" stroke-miterlimit="10"/>
<path d="M327.209 319.185C324.629 324.982 320.823 329.942 315.921 334C314.954 334.773 316.308 336.126 317.276 335.353C322.371 331.23 326.241 326.142 328.886 320.151C329.402 318.991 327.725 318.025 327.209 319.185Z" fill="#161616"/>
<path d="M313.47 329.685C313.212 331.875 313.986 334 315.47 335.611C316.308 336.513 317.663 335.16 316.824 334.258C315.663 332.97 315.212 331.424 315.405 329.685C315.534 328.461 313.599 328.461 313.47 329.685Z" fill="#161616"/>
<path d="M309.536 318.669C311.213 316.35 313.212 314.289 315.47 312.421C314.954 312.099 314.373 311.777 313.857 311.455C313.019 314.031 311.213 316.093 308.826 317.381C309.213 317.896 309.6 318.412 309.987 318.927C311.471 317.123 312.954 315.384 314.438 313.58C315.212 312.614 313.857 311.261 313.083 312.228C311.6 314.031 310.116 315.771 308.633 317.574C307.923 318.412 308.826 319.636 309.794 319.12C312.632 317.574 314.696 315.062 315.728 312.034C316.05 311.004 314.825 310.553 314.115 311.068C311.729 313.001 309.665 315.191 307.923 317.703C307.149 318.734 308.826 319.7 309.536 318.669Z" fill="#161616"/>
<path d="M330.95 324.338C331.788 322.921 332.885 321.697 334.11 320.602C333.594 320.28 333.014 319.957 332.498 319.635C331.917 321.568 330.756 323.307 329.079 324.531C329.531 324.918 330.047 325.24 330.498 325.626C330.885 324.595 331.466 323.629 332.175 322.792C332.949 321.826 331.595 320.473 330.821 321.439C329.918 322.599 329.208 323.758 328.692 325.111C328.37 325.884 329.466 326.721 330.111 326.206C332.175 324.66 333.659 322.663 334.368 320.215C334.691 319.249 333.465 318.669 332.756 319.249C331.401 320.408 330.24 321.826 329.273 323.372C328.563 324.402 330.24 325.368 330.95 324.338Z" fill="#161616"/>
<path d="M302.892 313.902C303.86 316.157 304.376 318.476 304.376 320.859C304.376 321.503 305.343 321.503 305.343 320.859C305.343 318.283 304.763 315.77 303.731 313.387C303.473 312.807 302.634 313.323 302.892 313.902Z" fill="#161616"/>
<path d="M300.183 312.228C300.828 313.258 301.28 314.289 301.667 315.384C301.86 315.964 302.763 315.706 302.57 315.127C302.183 313.903 301.667 312.808 301.022 311.712C300.699 311.197 299.861 311.712 300.183 312.228Z" fill="#161616"/>
<path d="M315.083 306.945C317.469 306.237 319.727 307.847 319.791 310.359C319.791 311.261 321.275 311.326 321.275 310.359C321.146 306.945 318.05 304.626 314.696 305.528C313.793 305.786 314.18 307.203 315.083 306.945Z" fill="#161616"/>
<path d="M332.369 316.415C333.401 315.771 334.626 315.706 335.723 316.35C336.497 316.866 337.271 315.577 336.432 315.127C334.949 314.225 333.078 314.225 331.659 315.191C330.885 315.706 331.595 316.93 332.369 316.415Z" fill="#161616"/>
<path d="M300.893 332.97C302.441 335.74 305.085 337.737 308.181 338.574C309.407 338.896 309.923 337.028 308.697 336.706C306.053 335.997 303.924 334.387 302.57 332.004C301.925 330.909 300.248 331.875 300.893 332.97Z" fill="#161616"/>
<path d="M287.606 302.501C289.025 300.053 292.443 294.835 299.022 291.228C303.537 288.716 307.794 288.007 310.374 287.749C311.793 289.617 314.115 292.065 317.534 293.611C325.596 297.283 332.111 292.452 336.884 295.673C339.399 297.347 341.915 301.406 340.947 312.485C345.204 316.866 348.042 317.123 349.59 316.801C356.04 315.513 360.684 301.019 356.621 290.455C355.395 287.298 353.783 285.495 340.109 274.608C320.823 259.277 318.437 258.375 315.921 257.796C302.634 254.704 290.895 261.403 288.896 262.562C286.316 264.044 285.735 264.753 270.965 280.277C259.484 292.323 258.387 293.418 257.355 296.381C254.646 303.853 255.162 314.675 262.064 322.599C268.578 330.007 277.35 331.102 279.608 331.359C278.64 329.169 277.608 326.077 277.092 322.277C276.447 317.381 277.092 313.323 277.673 310.682C277.221 310.36 274.641 308.234 274.448 304.626C274.319 301.985 275.544 298.636 278.382 297.541C281.543 296.317 285.864 298.185 287.606 302.501Z" fill="#3D3D3D"/>
<path d="M284.832 270.099C282.188 264.882 274.448 264.109 273.093 263.98C262.322 262.885 253.679 272.483 248.583 278.087C239.553 288.072 242.133 291.035 233.361 303.081C221.751 319.056 213.044 319.765 211.238 330.78C211.109 331.617 209.496 342.697 216.849 349.396C223.17 355.194 233.361 355.258 240.069 351.78C249.164 347.077 248.39 337.608 254.969 321.697C267.869 290.648 289.928 280.148 284.832 270.099Z" fill="#3D3D3D"/>
<path opacity="0.12" d="M295.217 293.547C293.153 298.7 290.702 306.881 290.831 317.123C291.024 333.485 297.732 345.467 301.086 350.62C297.41 349.074 291.282 345.789 285.929 339.347C283.736 336.706 278.576 330.458 277.221 320.86C276.576 316.544 276.963 312.936 277.35 310.488C276.963 310.166 274.319 307.783 274.448 304.047C274.512 301.599 275.802 298.314 278.576 297.347C281.672 296.252 285.929 298.249 287.606 302.565C288.251 301.277 289.154 299.666 290.508 297.992C292.185 295.995 293.862 294.578 295.217 293.547Z" fill="#6D6C6C"/>
<path opacity="0.13" d="M283.865 340.7C283.349 341.859 282.768 343.019 282.059 344.178C278.834 349.589 274.641 353.197 271.352 355.387C270.191 354.678 268.643 353.583 267.095 351.908C265.418 350.105 264.386 348.301 263.805 347.013C266.321 346.24 272.577 343.856 276.834 337.608C278.318 335.353 279.221 333.163 279.737 331.359C281.091 334.516 282.446 337.608 283.865 340.7Z" fill="#6D6C6C"/>
<path opacity="0.18" d="M278.189 309.394C278.511 313.838 279.35 319.636 281.543 326.142C284.574 334.967 288.96 341.473 292.314 345.596C288.96 342.89 284.961 338.832 281.736 333.163C279.608 329.363 276.447 323.887 276.834 316.415C276.963 313.516 277.608 311.068 278.189 309.394Z" fill="#6D6C6C"/>
<path opacity="0.32" d="M288.057 264.173C285.348 266.814 268.449 283.82 270.771 307.976C271.739 318.283 275.867 326.077 278.834 330.651C276.77 330.522 272.771 330.071 268.449 327.559C264.128 325.047 261.677 321.761 260.58 320.086C259.742 318.734 258.71 316.544 258.065 313.774C258.065 313.774 256.904 308.363 259.032 301.663C261.29 294.32 271.481 280.019 288.057 264.173Z" fill="black"/>
<path opacity="0.33" d="M253.163 274.608C254.646 275.575 246.455 292.774 237.425 307.783C229.298 321.246 225.299 324.982 224.718 333.228C224.138 341.795 227.75 349.138 230.975 354.099C229.362 354.227 223.299 354.421 218.01 350.234C215.108 347.915 213.56 345.209 212.85 343.534C211.302 339.025 209.948 332.455 212.657 326.271C214.463 322.083 216.591 321.761 223.235 315.062C229.104 309.136 234.909 303.274 239.166 294.578C241.359 290.133 242.133 286.912 245.874 281.887C248.325 278.538 252.324 274.029 253.163 274.608Z" fill="black"/>
</svg>
