<svg width="1054" height="790" viewBox="0 0 1054 790" fill="none" xmlns="http://www.w3.org/2000/svg">
<path d="M680.489 195.92C686.419 195.92 691.227 191.115 691.227 185.189C691.227 179.262 686.419 174.458 680.489 174.458C674.559 174.458 669.751 179.262 669.751 185.189C669.751 191.115 674.559 195.92 680.489 195.92Z" fill="#EC615B"/>
<path d="M691.885 166.163C694.65 166.163 696.891 163.923 696.891 161.16C696.891 158.397 694.65 156.157 691.885 156.157C689.12 156.157 686.878 158.397 686.878 161.16C686.878 163.923 689.12 166.163 691.885 166.163Z" fill="#EC615B"/>
<path d="M363.63 101.054C366.468 101.054 368.768 98.7552 368.768 95.9192C368.768 93.0832 366.468 90.7842 363.63 90.7842C360.792 90.7842 358.492 93.0832 358.492 95.9192C358.492 98.7552 360.792 101.054 363.63 101.054Z" fill="#EC615B"/>
<path d="M699.856 702.046C704.658 702.046 708.551 698.156 708.551 693.356C708.551 688.557 704.658 684.667 699.856 684.667C695.053 684.667 691.16 688.557 691.16 693.356C691.16 698.156 695.053 702.046 699.856 702.046Z" fill="#EC615B"/>
<path d="M304.145 731.803C306.364 731.803 308.163 730.005 308.163 727.787C308.163 725.569 306.364 723.771 304.145 723.771C301.926 723.771 300.126 725.569 300.126 727.787C300.126 730.005 301.926 731.803 304.145 731.803Z" fill="#EC615B"/>
<path d="M354.342 435.158C356.634 435.158 358.492 433.301 358.492 431.011C358.492 428.72 356.634 426.863 354.342 426.863C352.05 426.863 350.191 428.72 350.191 431.011C350.191 433.301 352.05 435.158 354.342 435.158Z" fill="#EC615B"/>
<path d="M362.51 456.291C364.729 456.291 366.528 454.493 366.528 452.275C366.528 450.057 364.729 448.259 362.51 448.259C360.291 448.259 358.492 450.057 358.492 452.275C358.492 454.493 360.291 456.291 362.51 456.291Z" fill="#5222D0"/>
<path d="M357.701 568.208C361.849 568.208 365.211 564.848 365.211 560.703C365.211 556.558 361.849 553.198 357.701 553.198C353.554 553.198 350.191 556.558 350.191 560.703C350.191 564.848 353.554 568.208 357.701 568.208Z" fill="#5222D0"/>
<path d="M674.494 141.673C677.114 141.673 679.237 139.551 679.237 136.933C679.237 134.316 677.114 132.193 674.494 132.193C671.875 132.193 669.751 134.316 669.751 136.933C669.751 139.551 671.875 141.673 674.494 141.673Z" fill="#5222D0"/>
<path d="M494.063 149.968C496.355 149.968 498.213 148.111 498.213 145.821C498.213 143.53 496.355 141.673 494.063 141.673C491.771 141.673 489.913 143.53 489.913 145.821C489.913 148.111 491.771 149.968 494.063 149.968Z" fill="#5222D0"/>
<path d="M124.043 474.395C125.789 474.395 127.205 472.98 127.205 471.235C127.205 469.49 125.789 468.075 124.043 468.075C122.297 468.075 120.881 469.49 120.881 471.235C120.881 472.98 122.297 474.395 124.043 474.395Z" fill="#5222D0"/>
<path d="M688.855 723.772C693.221 723.772 696.76 720.235 696.76 715.872C696.76 711.509 693.221 707.972 688.855 707.972C684.489 707.972 680.95 711.509 680.95 715.872C680.95 720.235 684.489 723.772 688.855 723.772Z" fill="#5222D0"/>
<path d="M773.505 47.4C775.797 47.4 777.655 45.5431 777.655 43.2525C777.655 40.9619 775.797 39.105 773.505 39.105C771.213 39.105 769.354 40.9619 769.354 43.2525C769.354 45.5431 771.213 47.4 773.505 47.4Z" fill="#5222D0"/>
<path d="M370.284 229.693C369.625 225.611 369.032 217.448 375.554 218.106C377.925 218.369 379.243 220.476 381.878 219.554C386.818 217.843 385.698 211.457 387.741 207.77C391.1 201.845 397.622 210.469 402.628 207.638C404.275 206.717 404.67 205.005 404.605 203.228C404.473 196.578 410.336 197.039 415.145 198.356C416.396 198.685 416.923 196.776 415.672 196.447C410.797 195.13 402.694 194.669 402.497 201.713C402.431 203.425 403.353 205.137 400.85 206.19C400.059 206.519 398.742 206.124 398.017 205.927C396.304 205.4 394.789 204.215 393.011 203.754C390.705 203.096 388.465 203.557 386.884 205.4C384.908 207.77 384.974 210.996 384.052 213.761C383.063 216.723 381.153 218.435 377.925 216.987C376.608 216.394 375.422 215.868 373.907 216.065C367.122 216.987 367.451 225.216 368.307 230.219C368.571 231.47 370.481 230.943 370.284 229.693Z" fill="#5222D0"/>
<path d="M378.057 233.511C378.584 229.429 381.877 227.652 385.698 227.652C387.74 227.652 389.782 227.981 391.759 227.257C396.238 225.545 395.382 220.673 396.436 216.855C398.412 209.613 407.569 214.09 412.641 212.905C416.066 212.049 418.965 208.626 417.516 205.005C417.055 203.82 415.144 204.347 415.605 205.532C417.845 210.996 410.204 211.325 406.976 210.93C404.604 210.667 402.298 210.272 399.927 210.864C396.172 211.852 394.723 214.617 394.196 218.172C393.735 221.463 393.801 225.084 389.519 225.611C387.213 225.874 384.908 225.216 382.602 225.742C378.913 226.598 376.541 229.692 376.08 233.379C375.883 234.762 377.859 234.762 378.057 233.511Z" fill="#5222D0"/>
<path d="M514.155 71.8242C511.849 74.7208 509.412 78.2758 510.531 82.16C511.454 85.32 513.957 86.505 516.987 86.3075C518.766 86.1758 520.61 85.715 522.06 87.295C523.179 88.48 522.455 90.9817 522.125 92.2983C521.598 94.3392 520.61 96.3142 520.808 98.4867C521.137 101.449 523.509 103.753 526.539 103.095C527.791 102.832 527.264 100.923 526.012 101.186C520.281 102.503 524.233 92.9567 524.497 90.6525C524.695 88.7433 524.365 86.6367 522.916 85.2542C521.467 83.8717 519.688 84.0033 517.844 84.2008C514.945 84.53 512.244 83.6083 512.112 80.1192C512.047 77.4858 513.891 75.1158 515.472 73.1408C516.394 72.285 514.945 70.8367 514.155 71.8242Z" fill="#5222D0"/>
<path d="M529.701 70.8364C526.605 72.1531 524.629 75.3789 525.419 78.7364C525.814 80.2506 526.737 81.6989 528.054 82.6206C529.635 83.8056 531.48 83.5423 533.061 84.5298C536.025 86.3073 533.654 89.7964 533.785 92.5614C533.851 93.9439 534.181 95.1948 535.366 96.0506C537.145 97.4331 539.78 96.9723 540.505 94.7339C540.9 93.5489 538.989 93.0223 538.594 94.2073C536.091 93.8781 535.235 92.7589 535.959 90.8498C536.091 90.1914 536.223 89.5331 536.354 88.8748C536.486 88.2164 536.552 87.5581 536.552 86.8998C536.552 85.5173 536.157 84.0689 535.103 83.0814C533.522 81.6331 531.084 82.2256 529.372 81.0406C525.88 78.6048 527.132 73.9964 530.689 72.4823C531.875 72.0214 530.821 70.3756 529.701 70.8364Z" fill="#5222D0"/>
<path d="M98.9443 459.977C97.4292 457.607 97.4292 454.711 98.9443 452.275C100.459 449.905 102.567 449.839 105.005 448.917C108.364 447.535 108.43 444.046 108.233 440.886C108.167 439.766 108.101 438.581 108.43 437.462C109.287 434.829 111.526 435.553 113.569 435.882C114.754 436.08 115.874 435.882 116.862 435.224C118.114 434.368 118.904 432.854 119.3 431.406C119.629 430.221 119.695 428.97 119.958 427.785C120.09 426.929 120.354 426.139 120.749 425.415C121.803 423.769 123.055 423.637 124.57 425.086C124.899 426.336 126.809 425.81 126.48 424.559C125.294 420.28 120.024 422.189 118.707 425.217C118.114 426.6 118.048 428.114 117.719 429.562C117.521 430.418 117.389 431.34 116.928 432.13C115.94 433.907 114.096 433.578 112.383 433.381C110.341 433.183 108.76 432.986 107.442 434.895C105.927 437.067 106.322 439.635 106.322 442.136C106.388 445.165 105.729 446.35 102.765 447.337C101.579 447.732 100.591 447.93 99.5372 448.72C95.7165 451.419 94.7284 457.015 97.2316 460.899C97.8904 462.018 99.6031 461.031 98.9443 459.977Z" fill="#EC615B"/>
<path d="M107.179 464.52C104.412 464.125 105.466 461.097 106.718 459.912C107.64 459.056 108.892 458.529 110.077 457.937C111.527 457.213 112.976 456.357 114.03 455.106C116.862 451.551 112.778 446.811 116.731 443.98C120.683 441.215 131.289 439.964 128.193 432.591C127.732 431.406 126.019 432.459 126.48 433.578C128.72 438.911 117.851 440.491 115.084 442.729C114.096 443.519 113.239 444.573 112.844 445.823C112.054 448.588 114.359 451.419 112.317 454.053C109.946 456.949 104.873 456.949 103.687 461.031C102.963 463.335 104.214 466.1 106.718 466.495C107.903 466.627 108.43 464.718 107.179 464.52Z" fill="#EC615B"/>
<path d="M829.301 311.523C828.444 310.009 828.576 308.363 829.498 306.915C830.947 304.808 832.66 305.269 834.9 305.466C836.415 305.598 837.798 305.927 839.248 305.071C841.817 303.491 841.422 300.2 841.883 297.698C842.937 291.839 848.009 297.171 851.435 295.328C852.686 294.67 853.147 293.419 853.411 292.102C853.872 289.535 854.004 281.898 858.944 284.992C859.998 285.651 861.052 283.939 859.932 283.281C855.519 280.581 851.962 285.058 851.566 289.206C851.303 291.576 851.566 293.88 848.404 293.551C847.284 293.419 846.165 292.826 845.045 292.695C843.266 292.497 841.685 293.024 840.697 294.604C839.577 296.447 839.972 298.751 839.511 300.726C838.523 305.203 834.702 302.701 831.606 303.228C827.456 303.952 825.546 308.956 827.522 312.445C828.181 313.63 829.893 312.642 829.301 311.523Z" fill="#EC615B"/>
<path d="M839.116 315.671C837.996 312.643 841.487 309.285 844.517 310.865C844.913 311.063 845.44 311.063 845.703 310.734C847.218 309.088 847.614 307.179 848.272 305.072C849.458 301.254 852.291 300.727 855.716 299.674C859.076 298.62 862.831 295.855 861.447 291.905C860.986 290.72 859.076 291.247 859.537 292.432C861.447 297.633 852.093 298.028 849.326 299.937C845.967 302.307 846.955 306.586 844.386 309.351C844.781 309.285 845.176 309.219 845.571 309.219C841.158 306.915 835.558 311.458 837.271 316.264C837.666 317.383 839.577 316.922 839.116 315.671Z" fill="#EC615B"/>
<path d="M573.047 332.919C573.178 332.919 574.628 336.474 575.22 336.935C576.143 337.659 577.263 337.725 578.382 337.527C580.359 337.198 581.61 335.75 583.323 334.828C587.012 332.721 587.012 336.342 588.461 338.383C590.108 340.819 591.887 339.634 593.797 338.449C595.049 337.659 596.235 337.132 597.354 338.251C597.947 338.844 598.343 339.831 598.804 340.556C599.528 341.609 600.319 342.465 601.505 342.992C602.624 343.518 603.678 341.807 602.493 341.28C599.792 340.095 599.462 335.618 596.235 335.157C594.719 334.96 594.061 335.816 592.875 336.474C591.426 337.33 590.569 337.922 589.647 336.276C589.252 335.618 589.186 334.696 588.725 334.038C586.617 330.549 583.323 332.458 580.688 334.17C580.227 334.499 579.766 334.828 579.239 335.091C578.119 334.762 576.933 334.433 575.813 334.104C575.352 333.643 575.352 332.524 574.957 331.931C574.298 331.01 573.639 330.746 572.585 330.944C571.268 331.207 571.795 333.116 573.047 332.919Z" fill="#EC615B"/>
<path d="M588.528 326.599C590.504 323.505 595.049 329.956 596.894 330.746C598.014 331.207 599.068 331.207 600.253 330.878C600.78 330.746 601.241 330.483 601.703 330.286C603.481 329.561 604.996 330.022 606.446 331.273C608.554 333.051 609.146 335.421 612.177 336.079C613.955 336.474 615.602 335.947 616.393 334.236C616.92 333.116 615.207 332.063 614.68 333.248C612.835 337.198 607.763 329.43 606.446 328.574C604.008 326.994 602.493 328.311 600.056 328.837C596.169 329.627 594.917 325.282 591.69 324.229C589.779 323.571 587.935 323.9 586.881 325.677C586.09 326.731 587.803 327.718 588.528 326.599Z" fill="#EC615B"/>
<path d="M834.702 441.676C869.682 441.676 904.662 441.676 939.707 441.676C940.959 441.676 940.959 439.701 939.707 439.701C904.728 439.701 869.748 439.701 834.702 439.701C833.451 439.701 833.451 441.676 834.702 441.676Z" fill="#E8E8E8"/>
<path d="M863.358 441.215C863.358 451.419 863.358 461.557 863.358 471.762C863.358 473.012 865.334 473.012 865.334 471.762C865.334 461.557 865.334 451.419 865.334 441.215C865.334 439.964 863.358 439.964 863.358 441.215Z" fill="#E8E8E8"/>
<path d="M912.237 440.227C912.237 426.007 912.237 411.787 912.237 397.567C912.237 396.316 910.261 396.316 910.261 397.567C910.261 411.787 910.261 426.007 910.261 440.227C910.261 441.544 912.237 441.544 912.237 440.227Z" fill="#E8E8E8"/>
<path d="M888.983 398.357C902.224 398.357 915.465 398.357 928.706 398.357C929.957 398.357 929.957 396.382 928.706 396.382C915.465 396.382 902.224 396.382 888.983 396.382C887.732 396.382 887.732 398.357 888.983 398.357Z" fill="#E8E8E8"/>
<path d="M862.963 161.291C862.963 173.602 862.963 185.913 862.963 198.158C862.963 199.409 864.939 199.409 864.939 198.158C864.939 185.847 864.939 173.536 864.939 161.291C864.939 160.04 862.963 160.04 862.963 161.291Z" fill="#E8E8E8"/>
<path d="M832.199 200.989C855.98 200.989 879.695 200.989 903.476 200.989C904.727 200.989 904.727 199.014 903.476 199.014C879.695 199.014 855.98 199.014 832.199 199.014C830.882 199.014 830.882 200.989 832.199 200.989Z" fill="#E8E8E8"/>
<path d="M902.817 200.726C902.817 208.889 902.817 217.052 902.817 225.216C902.817 226.467 904.793 226.467 904.793 225.216C904.793 217.052 904.793 208.889 904.793 200.726C904.793 199.475 902.817 199.475 902.817 200.726Z" fill="#E8E8E8"/>
<path d="M241.234 122.911C264.488 122.911 287.808 122.911 311.062 122.911C312.313 122.911 312.313 120.936 311.062 120.936C287.808 120.936 264.488 120.936 241.234 120.936C239.982 120.936 239.917 122.911 241.234 122.911Z" fill="#E8E8E8"/>
<path d="M308.164 122.713C308.164 129.033 308.164 135.353 308.164 141.673C308.164 142.924 310.14 142.924 310.14 141.673C310.14 135.353 310.14 129.033 310.14 122.713C310.14 121.396 308.164 121.396 308.164 122.713Z" fill="#E8E8E8"/>
<path d="M287.017 121.133C287.017 110.995 287.017 100.922 287.017 90.7838C287.017 89.533 285.041 89.533 285.041 90.7838C285.041 100.922 285.041 110.995 285.041 121.133C285.041 122.45 287.017 122.45 287.017 121.133Z" fill="#E8E8E8"/>
<path d="M103.094 325.809C119.168 325.809 135.241 325.809 151.315 325.809C152.567 325.809 152.567 323.834 151.315 323.834C135.241 323.834 119.168 323.834 103.094 323.834C101.843 323.834 101.843 325.809 103.094 325.809Z" fill="#E8E8E8"/>
<path d="M132.541 305.993C132.541 311.918 132.541 317.843 132.541 323.768C132.541 325.019 134.517 325.019 134.517 323.768C134.517 317.843 134.517 311.918 134.517 305.993C134.517 304.742 132.541 304.742 132.541 305.993Z" fill="#E8E8E8"/>
<path d="M120.947 306.981C129.51 306.981 138.074 306.981 146.638 306.981C147.89 306.981 147.89 305.006 146.638 305.006C138.074 305.006 129.51 305.006 120.947 305.006C119.629 305.006 119.629 306.981 120.947 306.981Z" fill="#E8E8E8"/>
<path d="M411.06 722.06C432.535 722.06 454.01 722.06 475.486 722.06C476.737 722.06 476.737 720.085 475.486 720.085C454.01 720.085 432.535 720.085 411.06 720.085C409.742 720.085 409.742 722.06 411.06 722.06Z" fill="#E8E8E8"/>
<path d="M450.717 720.085C450.717 715.476 450.717 710.868 450.717 706.194C450.717 704.943 448.741 704.943 448.741 706.194C448.741 710.802 448.741 715.411 448.741 720.085C448.741 721.401 450.717 721.401 450.717 720.085Z" fill="#E8E8E8"/>
<path d="M444.722 706.26C453.616 706.26 462.575 706.26 471.468 706.26C472.719 706.26 472.719 704.285 471.468 704.285C462.575 704.285 453.616 704.285 444.722 704.285C443.471 704.285 443.471 706.26 444.722 706.26Z" fill="#E8E8E8"/>
<path d="M104.61 687.431C126.085 687.431 147.56 687.431 169.035 687.431C170.287 687.431 170.287 685.456 169.035 685.456C147.56 685.456 126.085 685.456 104.61 685.456C103.358 685.456 103.358 687.431 104.61 687.431Z" fill="#E8E8E8"/>
<path d="M134.385 661.625C134.385 669.195 134.385 676.832 134.385 684.403C134.385 685.654 136.362 685.654 136.362 684.403C136.362 676.832 136.362 669.195 136.362 661.625C136.362 660.374 134.385 660.374 134.385 661.625Z" fill="#E8E8E8"/>
<path d="M134.385 658.662C125.822 658.662 117.192 658.662 108.628 658.662C107.377 658.662 107.377 660.637 108.628 660.637C117.192 660.637 125.822 660.637 134.385 660.637C135.637 660.637 135.637 658.662 134.385 658.662Z" fill="#E8E8E8"/>
<path d="M820.737 629.498C818.563 627.326 819.09 623.112 822.449 622.388C824.228 621.993 825.941 623.112 827.654 623.31C828.971 623.507 830.354 623.376 831.211 622.191C832.528 620.479 831.474 618.504 831.408 616.595C831.277 610.604 838.391 610.999 841.948 613.106C842.739 613.567 843.595 612.777 843.398 611.987C841.685 603.757 851.105 598.096 857.561 603.56C858.549 604.35 859.932 602.967 858.944 602.177C850.973 595.462 839.313 602.309 841.487 612.579C841.948 612.184 842.475 611.855 842.937 611.46C839.906 609.617 836.02 608.695 832.792 610.736C831.606 611.46 830.552 612.579 830.025 613.896C829.63 614.817 829.432 615.673 829.498 616.661C829.564 618.438 830.157 618.307 828.839 620.018C827.39 621.927 827.258 621.072 825.216 620.611C824.492 620.413 823.833 620.282 823.042 620.347C821.395 620.413 819.88 621.203 818.826 622.388C816.521 624.956 817.114 628.577 819.419 630.881C820.276 631.802 821.659 630.42 820.737 629.498Z" fill="#E8E8E8"/>
<path d="M833.583 631.473C832.858 625.482 842.673 625.416 845.44 621.269C846.165 620.216 846.428 619.031 846.889 617.911C847.746 615.87 849.261 614.554 851.5 613.961C855.124 613.04 858.879 614.685 862.172 616.068C863.358 616.529 863.885 614.62 862.699 614.159C856.639 611.657 848.47 609.748 845.111 617.121C843.925 619.755 843.53 621.203 840.763 622.586C839.116 623.376 837.403 623.836 835.822 624.758C833.319 626.206 831.343 628.445 831.672 631.473C831.804 632.724 833.78 632.724 833.583 631.473Z" fill="#E8E8E8"/>
<path d="M550.254 440.03C551.572 443.322 552.889 446.679 554.207 449.971C554.338 449.576 554.536 449.246 554.668 448.851C553.943 449.312 553.218 449.773 552.494 450.3C551.374 447.667 551.835 447.008 553.943 448.193C555.195 448.983 555.788 450.695 556.051 452.077C556.644 455.237 555.985 458.529 554.931 461.557C554.668 462.347 555.458 462.874 556.117 462.742C560.07 461.952 561.651 466.692 560.86 469.655C560.267 471.827 559.081 473.736 557.896 475.646C557.237 476.699 558.95 477.686 559.608 476.633C561.716 473.341 564.154 469.26 562.705 465.178C561.585 462.15 558.818 460.241 555.59 460.833C555.985 461.228 556.38 461.623 556.776 462.018C558.093 458.2 558.95 453.394 557.303 449.51C556.183 446.942 553.614 444.967 550.715 445.823C548.475 446.482 547.356 448.72 548.41 450.892C550.188 454.513 553.284 452.077 555.59 450.563C555.919 450.366 556.183 449.839 556.051 449.444C554.734 446.152 553.416 442.795 552.099 439.503C551.703 438.384 549.793 438.845 550.254 440.03Z" fill="#E8E8E8"/>
<path d="M160.669 128.572C159.417 125.412 163.633 124.557 165.61 125.676C167.125 126.532 168.113 128.046 169.035 129.428C169.892 130.679 170.814 132.062 171.275 133.51C171.802 134.761 171.736 135.946 171.077 137.131C168.772 138.184 167.586 137.921 167.52 136.407C166.927 134.234 169.233 132.786 171.209 132.852C173.251 132.917 175.162 134.102 176.545 135.551C178.916 138.052 179.773 141.344 179.443 144.702C180.036 144.504 180.695 144.372 181.288 144.175C179.97 142.266 181.222 140.225 183.001 139.237C184.516 138.447 186.229 138.645 187.678 139.435C190.049 140.686 191.696 142.99 193.211 145.097C193.936 146.15 195.649 145.162 194.924 144.109C192.421 140.62 188.666 135.748 183.725 136.867C180.102 137.657 177.204 141.871 179.575 145.162C180.168 146.018 181.288 145.623 181.42 144.636C182.013 138.382 177.401 129.823 170.023 130.877C167.388 131.272 165.478 133.115 165.478 135.814C165.478 137.921 166.795 140.093 169.035 140.225C171.67 140.422 173.449 137.855 173.581 135.485C173.778 132.193 171.209 128.638 169.233 126.202C167.388 124.03 164.687 122.187 161.789 123.306C159.417 124.162 157.836 126.532 158.825 128.967C159.22 130.284 161.13 129.757 160.669 128.572Z" fill="#E8E8E8"/>
<path d="M507.699 225.15C504.932 223.504 506.908 218.632 510.004 220.673C512.969 222.648 509.016 226.005 507.106 223.701C506.315 222.714 504.932 224.096 505.723 225.084C507.238 226.927 510.136 226.795 511.849 225.281C513.825 223.504 513.298 220.607 511.256 219.159C509.214 217.71 506.25 217.974 504.998 220.344C503.746 222.582 504.603 225.61 506.777 226.861C507.765 227.454 508.753 225.808 507.699 225.15Z" fill="#E8E8E8"/>
<path d="M717.577 81.1722C716.127 79.1314 718.63 76.0372 720.936 76.9589C720.739 76.8272 720.541 76.6297 720.343 76.4981C721.595 78.6706 719.75 81.6331 717.313 81.5014C717.642 81.7647 717.972 81.9622 718.235 82.2256C717.84 81.1064 717.379 79.9214 716.984 78.8022C716.522 77.6172 714.612 78.1439 715.073 79.3289C715.468 80.4481 715.93 81.6331 716.325 82.7522C716.457 83.2131 716.786 83.4764 717.247 83.4764C719.355 83.6081 721.2 82.2914 722.122 80.4481C722.846 78.9997 723.242 75.9714 721.463 75.0497C717.576 73.1406 713.558 78.9339 715.864 82.1597C716.588 83.2131 718.301 82.2256 717.577 81.1722Z" fill="#E8E8E8"/>
<path d="M771.199 179.067C770.869 177.552 771.989 175.907 773.504 175.577C774.888 175.314 776.139 176.433 776.469 177.684C777.325 180.647 773.439 182.029 771.594 179.988C770.738 179.067 769.354 180.449 770.211 181.371C773.636 185.189 780.224 181.437 778.116 176.565C777.193 174.392 774.888 173.01 772.582 173.734C770.145 174.524 768.696 177.092 769.223 179.593C769.618 180.844 771.528 180.317 771.199 179.067Z" fill="#E8E8E8"/>
<path d="M557.369 723.969C554.865 722.784 555.063 719.36 557.369 718.044C559.608 716.793 561.716 717.912 563.758 718.834C565.471 719.624 567.447 720.348 568.963 718.834C570.346 717.517 570.082 715.476 570.148 713.764C570.412 707.115 576.868 708.432 581.281 710.078C582.467 710.539 582.994 708.629 581.808 708.169C577.922 706.654 572.52 705.206 569.424 709.025C568.501 710.144 568.238 711.46 568.172 712.843C568.106 713.765 568.501 715.805 567.974 716.661C566.525 718.834 564.549 716.859 563.034 716.2C560.135 714.95 555.985 715.279 554.207 718.307C552.691 720.874 553.614 724.364 556.315 725.614C557.5 726.207 558.488 724.495 557.369 723.969Z" fill="#E8E8E8"/>
<path d="M589.252 568.8C587.276 592.961 588.33 617.187 592.414 641.085C592.611 642.336 594.522 641.809 594.324 640.558C590.306 616.858 589.252 592.763 591.228 568.8C591.36 567.549 589.384 567.549 589.252 568.8Z" fill="#E8E8E8"/>
<path d="M590.569 570.314C600.846 573.869 611.451 576.239 622.255 577.424C632.4 578.478 644.06 579.597 653.809 575.778C654.995 575.318 654.468 573.409 653.282 573.869C643.796 577.622 632.268 576.503 622.255 575.449C611.649 574.33 601.175 571.894 591.096 568.405C589.844 567.944 589.383 569.853 590.569 570.314Z" fill="#E8E8E8"/>
<path d="M606.248 573.013C602.822 567.681 599.99 562.019 598.013 555.963C597.091 553.066 596.301 550.169 595.708 547.207C595.378 545.429 595.049 543.652 594.851 541.874C594.851 541.677 594.127 537.003 595.51 537.661C596.169 537.99 597.289 537.398 596.959 536.542C593.336 527.391 591.36 517.779 591.162 507.904C590.833 508.233 590.504 508.563 590.174 508.892C590.701 509.089 591.162 509.287 591.689 509.484C592.348 510.274 593.6 509.419 593.336 508.497C592.019 504.284 591.162 499.938 590.899 495.462C590.833 494.408 591.031 482.558 591.755 482.756C592.546 482.953 593.073 482.229 592.941 481.571C591.689 474.132 591.097 466.561 591.426 459.056C591.558 455.303 591.887 451.617 592.48 447.93C593.007 444.573 593.27 440.491 595.905 438.055C595.378 437.989 594.851 437.923 594.324 437.858C599.858 448.259 602.954 459.649 605.787 470.972C608.553 482.098 610.991 493.355 613.099 504.678C617.381 528.049 620.082 551.683 621.267 575.449C621.333 576.7 623.309 576.7 623.244 575.449C622.058 551.552 619.357 527.72 615.009 504.152C612.835 492.433 610.332 480.781 607.434 469.194C604.601 458.069 601.505 447.008 596.037 436.804C595.708 436.212 594.917 436.212 594.456 436.607C592.216 438.648 591.558 441.347 591.031 444.178C590.306 448.194 589.779 452.341 589.516 456.423C588.989 464.981 589.516 473.539 590.965 482.032C591.36 481.637 591.755 481.242 592.151 480.847C588.33 479.794 588.791 488.023 588.725 489.866C588.462 496.318 589.45 502.769 591.36 508.958C591.887 508.628 592.48 508.299 593.007 507.97C592.151 506.983 591.426 506.653 590.108 506.785C589.581 506.851 589.12 507.18 589.12 507.773C589.318 517.779 591.294 527.588 594.983 536.937C595.444 536.542 595.971 536.213 596.432 535.818C589.845 532.658 593.666 547.536 594.193 549.774C596.169 558.333 599.726 566.496 604.469 573.869C605.26 575.054 606.972 574.067 606.248 573.013Z" fill="#E8E8E8"/>
<path d="M616.722 507.246C616.129 503.032 615.997 498.753 616.524 494.54C616.656 493.487 619.159 481.11 620.411 481.637C621.07 481.966 621.86 481.571 621.926 480.781C622.321 472.354 624.956 464.849 628.052 457.081C631.149 449.378 634.179 441.939 639.317 435.29C638.856 435.29 638.395 435.29 637.934 435.29C641.689 439.569 641.227 446.087 641.425 451.419C641.689 457.41 641.886 463.401 641.952 469.392C642.084 481.176 641.886 492.96 641.359 504.744C640.239 528.839 637.538 552.868 633.454 576.634C633.256 577.885 635.167 578.412 635.365 577.161C639.646 552.407 642.347 527.325 643.467 502.177C643.994 489.537 644.126 476.897 643.862 464.257C643.731 457.937 643.599 451.617 643.138 445.297C642.874 441.149 642.216 437.067 639.317 433.842C638.988 433.447 638.263 433.447 637.934 433.842C632.861 440.425 629.699 447.667 626.669 455.369C623.309 463.664 620.477 471.696 620.016 480.781C620.543 480.517 621.004 480.188 621.531 479.925C617.512 478.147 616.195 486.706 615.668 489.01C614.219 495.198 614.087 501.452 615.009 507.707C614.943 509.023 616.854 508.497 616.722 507.246Z" fill="#E8E8E8"/>
<path d="M593.336 642.731C613.955 649.38 636.286 649.051 656.708 641.809C657.893 641.414 657.366 639.505 656.181 639.9C636.089 647.01 614.152 647.339 593.863 640.822C592.611 640.427 592.084 642.336 593.336 642.731Z" fill="#E8E8E8"/>
<path d="M653.546 575.12C654.336 585.785 655.192 596.45 655.917 607.115C656.642 617.977 656.905 628.971 655.127 639.768C654.929 641.019 656.839 641.546 657.037 640.295C658.816 629.696 658.684 619.031 657.959 608.366C657.235 597.306 656.378 586.18 655.522 575.12C655.456 573.869 653.48 573.869 653.546 575.12Z" fill="#E8E8E8"/>
<path d="M301.971 659.65C315.41 652.474 328.914 645.298 342.353 638.122C348.677 639.176 357.372 640.558 367.78 642.007C388.597 644.903 422.127 649.577 464.551 650.828C506.974 652.079 538.792 649.38 550.913 648.195C580.095 645.43 597.75 641.677 612.177 637.793C625.286 634.238 636.089 630.354 643.797 627.392C650.121 629.498 657.169 632.329 664.679 636.213C668.961 638.452 672.913 640.756 676.405 643.06C664.02 646.615 647.354 651.157 627.525 655.766C585.761 665.509 553.745 670.117 547.026 671.105C508.621 676.569 453.879 684.272 385.04 676.306C363.63 673.738 335.106 669.064 301.971 659.65Z" fill="white"/>
<path d="M301.247 659.716C301.576 662.481 301.971 665.18 302.301 667.945C307.241 669.327 314.487 671.302 323.446 673.277C340.574 677.096 357.965 679.729 380.692 681.507C464.617 688.09 531.677 682.231 531.677 682.231C565.208 679.268 597.75 676.24 639.778 663.995C655.588 659.387 668.5 654.712 677.722 651.092C676.998 647.997 676.273 644.903 675.548 641.809C672.979 642.862 669.158 644.377 664.481 646.088C632.73 657.675 606.577 661.493 583.257 664.324C532.007 670.644 506.381 673.738 468.767 674.331C425.948 675.055 368.505 672.487 301.247 659.716Z" fill="#161616"/>
<path d="M300.785 660.967C300.785 663.074 300.785 665.18 300.785 667.287C300.785 668.538 302.761 668.538 302.761 667.287C302.761 665.18 302.761 663.074 302.761 660.967C302.761 659.65 300.785 659.65 300.785 660.967Z" fill="#161616"/>
<path d="M301.51 669.13C350.719 682.428 402.101 684.14 452.759 684.864C501.441 685.523 550.452 683.416 598.409 674.528C625.417 669.525 652.031 662.218 677.722 652.277C678.908 651.816 678.381 649.907 677.195 650.368C631.873 667.945 583.719 676.898 535.3 680.651C486.487 684.403 437.213 683.548 388.399 680.585C359.217 678.742 330.297 674.923 302.037 667.287C300.785 666.892 300.258 668.801 301.51 669.13Z" fill="#161616"/>
<path d="M677.722 650.894C678.117 648.129 678.249 645.298 677.985 642.533C677.854 641.283 675.878 641.283 676.009 642.533C676.207 645.167 676.207 647.8 675.812 650.368C675.614 651.553 677.524 652.145 677.722 650.894Z" fill="#161616"/>
<path d="M302.366 660.769C316.2 654.186 329.77 647.142 343.077 639.505C344.197 638.847 343.209 637.201 342.089 637.793C328.782 645.364 315.212 652.474 301.378 659.058C300.192 659.584 301.18 661.296 302.366 660.769Z" fill="#161616"/>
<path d="M342.55 638.583C421.139 653.528 502.824 656.293 582.072 644.969C603.152 641.941 624.1 637.267 643.599 628.577C644.785 628.05 643.731 626.338 642.611 626.865C625.088 634.633 606.38 639.176 587.473 642.138C568.238 645.167 548.805 647.01 529.372 648.261C489.913 650.763 450.256 650.104 410.928 646.352C388.136 644.179 365.541 640.888 343.077 636.674C341.826 636.477 341.299 638.386 342.55 638.583Z" fill="#161616"/>
<path d="M643.203 628.248C654.929 632.066 665.93 637.399 676.207 644.179C677.261 644.904 678.249 643.192 677.195 642.468C666.787 635.621 655.588 630.223 643.73 626.339C642.479 625.944 641.952 627.853 643.203 628.248Z" fill="#161616"/>
<path d="M302.498 659.716C325.752 667.55 349.994 671.237 374.368 673.212C399.071 675.187 423.972 675.779 448.741 675.779C497.949 675.779 547.29 672.422 595.774 663.6C623.309 658.597 650.582 651.816 677.129 642.928C678.315 642.533 677.788 640.624 676.602 641.019C629.897 656.556 581.347 665.641 532.336 670.118C483.588 674.594 434.314 674.858 385.435 671.961C357.504 670.249 329.507 666.76 302.893 657.807C301.839 657.412 301.312 659.321 302.498 659.716Z" fill="#161616"/>
<path d="M340.442 283.742C420.941 265.111 503.812 261.029 586.156 260.239C609.475 259.976 632.795 260.042 656.115 260.042C657.367 260.042 657.367 258.067 656.115 258.067C573.508 257.935 490.505 257.869 408.491 269.258C385.435 272.484 362.576 276.566 339.915 281.833C338.663 282.162 339.19 284.071 340.442 283.742Z" fill="#161616"/>
<path d="M660.2 258.264C661.056 288.877 661.583 324.361 661.385 363.795C661.254 386.705 661.056 375.777 659.014 471.103C657.828 526.008 657.499 546.68 653.612 578.412C651.109 599.083 648.079 616.068 645.839 627.589C662.835 632.329 679.04 636.806 693.269 640.756C715.271 646.878 721.134 648.524 729.895 649.775C743.466 651.618 760 651.882 779.104 647.997C786.152 590.327 790.039 541.15 792.279 503.493C800.316 371.168 792.806 310.207 789.907 288.811C785.955 259.976 781.08 236.276 777.325 219.883C763.228 222.582 751.766 225.479 743.729 227.652C716.127 235.222 694.257 244.11 675.944 251.615C669.159 254.446 663.691 256.75 660.2 258.264Z" fill="white"/>
<path d="M206.057 221.068C205.53 226.73 204.937 233.708 204.41 239.765C193.475 364.388 188.008 426.732 186.229 466.824C184.384 509.879 184.253 572.289 193.409 649.907C194.134 651.487 195.451 653.659 197.823 655.437C200.919 657.741 203.752 657.675 209.351 659.255C213.765 660.506 216.07 661.757 218.178 662.547C224.239 664.917 237.809 667.616 255.068 666.958C279.837 665.97 298.875 658.399 312.841 652.672C325.95 647.339 336.424 641.612 343.67 637.267C339.586 600.598 336.556 561.888 334.843 521.268C331.352 434.895 334.843 355.566 342.023 284.861C338.993 283.676 334.579 282.03 329.375 279.923C320.416 276.303 298.941 267.547 261.129 249.113C246.175 241.872 227.467 232.458 206.057 221.068Z" fill="white"/>
<path d="M776.93 219.62C777.72 223.965 778.774 229.956 779.96 237.132C781.607 247.336 785.296 271.497 787.997 303.228C790.763 336.277 791.422 364.717 791.488 387.363C791.686 433.315 789.973 467.022 785.493 545.627C784.11 570.117 782.068 605.996 779.499 649.775C782.2 649.578 784.835 649.446 787.536 649.248C788.853 638.32 790.632 622.059 792.015 602.178C793.069 587.826 793.53 577.358 793.991 566.101C796.297 514.488 796.692 515.08 797.483 494.013C799.064 452.473 798.734 420.543 798.471 391.84C798.273 372.024 797.68 353.262 796.495 315.737C795.638 290.193 794.782 267.547 788.985 238.119C787.47 230.614 786.02 224.36 784.966 220.081C782.266 219.949 779.631 219.818 776.93 219.62Z" fill="#161616"/>
<path d="M195.978 222.253C195.517 224.558 194.793 228.113 194.068 232.458C191.96 245.032 191.433 254.512 191.235 257.606C189.786 279.989 186.888 290.918 182.672 340.622C181.881 349.707 181.288 357.673 180.102 373.67C177.665 406.323 176.479 422.65 175.623 441.083C174.701 461.689 174.569 476.238 174.371 505.337C174.174 530.485 174.042 548.655 174.701 572.421C175.228 591.381 176.282 617.122 178.851 647.8C184.187 649.38 189.457 650.96 194.793 652.54C194.727 649.578 194.529 644.245 194.134 637.596C192.553 608.037 189.984 596.055 189.391 571.434C189.193 563.863 189.325 558.859 189.391 551.684C190.115 500.202 189.259 476.699 189.72 443.256C190.511 388.68 194.2 346.02 197.362 309.68C200.326 275.315 203.686 245.888 206.584 222.846C202.961 222.648 199.47 222.451 195.978 222.253Z" fill="#161616"/>
<path d="M658.618 259.383C661.056 307.705 660.726 356.158 660.067 404.48C659.343 451.748 659.013 499.148 655.39 546.351C653.348 573.211 650.12 600.005 645.114 626.536C644.85 627.787 646.761 628.313 647.024 627.063C655.786 580.65 659.013 533.448 660.463 486.311C661.978 438.187 662.637 389.931 662.571 341.741C662.505 314.288 662.044 286.836 660.66 259.383C660.529 258.133 658.552 258.133 658.618 259.383Z" fill="#161616"/>
<path d="M661.056 259.384C697.617 241.279 736.417 228.244 776.469 220.542C777.72 220.279 777.194 218.369 775.942 218.633C735.758 226.401 696.76 239.568 660.068 257.672C658.948 258.264 659.936 259.976 661.056 259.384Z" fill="#161616"/>
<path d="M775.81 219.949C786.679 274.657 789.973 330.549 789.907 386.244C789.776 441.939 786.482 497.502 783.781 553.132C782.2 585.192 780.619 617.187 779.038 649.248C778.972 650.499 780.948 650.499 781.014 649.248C783.847 592.5 786.811 535.752 789.38 478.937C791.884 423.242 793.465 367.416 789.71 311.787C787.602 280.779 783.847 249.903 777.786 219.488C777.457 218.172 775.547 218.698 775.81 219.949Z" fill="#161616"/>
<path d="M645.443 626.931C648.407 630.354 653.677 631.013 657.828 632.264C663.493 633.975 669.224 635.687 674.889 637.399C686.351 640.822 697.748 644.443 709.342 647.339C732.003 652.869 755.257 653.989 778.247 650.039C779.499 649.841 778.972 647.932 777.72 648.129C755.059 652.014 732.135 650.894 709.869 645.43C699.263 642.863 688.855 639.571 678.446 636.411C673.176 634.831 667.906 633.251 662.636 631.671C660.001 630.881 657.366 630.091 654.731 629.301C651.965 628.445 648.869 627.853 646.892 625.549C645.97 624.627 644.587 626.009 645.443 626.931Z" fill="#161616"/>
<path d="M777.127 220.015C779.565 220.608 782.002 221.2 784.505 221.793C785.757 222.122 786.284 220.213 785.032 219.883C782.595 219.291 780.158 218.698 777.654 218.106C776.403 217.843 775.876 219.752 777.127 220.015Z" fill="#161616"/>
<path d="M784.374 221.134C790.961 247.731 792.74 275.512 794.651 302.833C796.627 330.747 797.681 358.726 798.142 386.771C798.932 442.4 797.022 498.029 793.86 553.593C792.081 585.061 789.842 616.529 787.536 647.998C787.47 649.248 789.446 649.248 789.512 647.998C793.662 592.039 797.417 536.081 799.196 479.991C800.974 424.033 800.843 367.943 797.286 311.984C795.375 281.569 793.662 250.364 786.35 220.673C785.955 219.357 784.045 219.883 784.374 221.134Z" fill="#161616"/>
<path d="M780.092 650.367C782.99 650.104 785.823 649.841 788.721 649.577C789.973 649.446 789.973 647.471 788.721 647.602C785.823 647.866 782.99 648.129 780.092 648.392C778.84 648.524 778.84 650.499 780.092 650.367Z" fill="#161616"/>
<path d="M340.376 284.334C335.963 329.957 333.328 375.711 332.471 421.531C331.615 467.548 332.537 513.632 335.304 559.583C336.819 585.39 338.993 611.131 341.628 636.806C341.76 638.057 343.736 638.057 343.604 636.806C338.861 591.249 335.897 545.495 334.711 499.675C333.525 453.657 334.118 407.574 336.556 361.622C337.939 335.816 339.849 310.075 342.287 284.334C342.484 283.083 340.508 283.083 340.376 284.334Z" fill="#161616"/>
<path d="M207.309 222.648C250.061 246.414 294.461 267.217 340.047 284.927C341.232 285.387 341.759 283.478 340.574 283.017C295.12 265.374 250.918 244.637 208.297 220.937C207.177 220.278 206.189 221.99 207.309 222.648Z" fill="#161616"/>
<path d="M205.266 222.188C197.954 277.883 192.882 333.907 190.115 390.063C187.348 446.218 186.953 502.44 188.798 558.596C189.852 590.13 191.63 621.664 194.134 653.133C194.265 654.383 196.242 654.383 196.11 653.133C191.63 597.108 189.522 540.887 189.654 484.731C189.786 428.509 192.289 372.353 197.032 316.329C199.733 284.861 203.158 253.524 207.243 222.188C207.374 220.937 205.398 220.937 205.266 222.188Z" fill="#161616"/>
<path d="M194.068 654.383C230.76 674.331 274.699 670.052 311.984 654.252C323.183 649.512 333.987 643.784 344.395 637.53C345.449 636.872 344.461 635.16 343.407 635.818C308.691 656.819 267.98 671.5 226.94 663.863C215.807 661.823 205.003 658.07 195.056 652.672C194.002 652.079 192.948 653.791 194.068 654.383Z" fill="#161616"/>
<path d="M179.509 648.919C184.121 651.092 188.864 652.935 193.673 654.581C194.858 654.976 195.385 653.067 194.2 652.672C189.522 651.092 184.977 649.314 180.498 647.207C179.312 646.681 178.324 648.392 179.509 648.919Z" fill="#161616"/>
<path d="M194.661 222.649C187.546 277.817 181.617 333.117 177.731 388.614C173.91 443.849 172.066 499.214 173.251 554.58C173.91 585.917 175.491 617.254 178.192 648.459C178.324 649.709 180.3 649.709 180.168 648.459C175.425 593.093 174.042 537.529 175.359 481.966C176.611 426.6 180.432 371.3 185.899 316.132C188.995 284.927 192.619 253.722 196.637 222.583C196.835 221.398 194.858 221.398 194.661 222.649Z" fill="#161616"/>
<path d="M195.781 224.031C199.602 223.241 203.422 222.978 207.375 223.175C208.626 223.241 208.626 221.266 207.375 221.2C203.291 221.003 199.272 221.332 195.254 222.122C194.002 222.385 194.529 224.294 195.781 224.031Z" fill="#161616"/>
<path d="M683.849 263.86C686.615 340.227 686.484 416.659 683.322 493.026C682.465 514.422 681.345 535.752 679.962 557.147C679.896 558.398 681.872 558.398 681.938 557.147C686.747 480.913 688.592 404.48 687.472 328.048C687.142 306.652 686.615 285.256 685.825 263.86C685.759 262.609 683.783 262.609 683.849 263.86Z" fill="#161616"/>
<path d="M715.798 236.473C718.433 289.601 719.75 342.86 719.684 396.053C719.684 449.247 718.367 502.506 715.732 555.633C714.283 585.719 712.372 615.739 710.067 645.759C710.001 647.01 711.977 647.01 712.043 645.759C716.127 592.697 718.894 539.57 720.409 486.377C721.858 433.183 722.056 379.924 720.936 326.731C720.277 296.645 719.223 266.559 717.774 236.473C717.708 235.222 715.732 235.222 715.798 236.473Z" fill="#161616"/>
<path d="M754.137 224.755C757.826 279.989 760.066 335.355 760.659 390.787C761.251 446.416 760.329 501.979 757.826 557.543C756.443 588.682 754.532 619.821 752.095 650.894C752.029 652.145 754.005 652.145 754.071 650.894C758.287 595.66 761.054 540.294 762.174 484.928C763.294 429.365 762.898 373.736 760.922 318.107C759.802 286.968 758.221 255.828 756.113 224.689C756.047 223.438 754.071 223.439 754.137 224.755Z" fill="#161616"/>
<path d="M677.063 581.835C675.548 599.083 672.781 616.2 668.763 633.053C668.499 634.304 670.344 634.831 670.673 633.58C674.758 616.529 677.524 599.281 679.039 581.835C679.171 580.584 677.195 580.584 677.063 581.835Z" fill="#161616"/>
<path d="M228.916 235.486C221.011 290.72 217.651 346.547 217.124 402.308C216.663 458.398 218.969 514.422 222.394 570.38C224.304 602.046 226.544 633.646 228.784 665.312C228.85 666.563 230.826 666.563 230.76 665.312C226.808 609.551 222.855 553.79 220.681 497.964C218.507 442.269 218.178 386.442 221.406 330.747C223.25 299.081 226.281 267.415 230.76 236.013C231.024 234.828 229.113 234.235 228.916 235.486Z" fill="#161616"/>
<path d="M266.794 253.919C261.787 307.31 258.428 360.898 257.308 414.553C256.254 468.141 257.505 521.729 261.919 575.186C264.356 604.877 267.782 634.436 272.261 663.864C272.459 665.114 274.369 664.588 274.172 663.337C266.135 610.275 261.524 556.687 259.811 503.033C258.098 450.103 259.086 397.041 261.985 344.177C263.632 314.091 265.937 284.005 268.77 253.985C268.902 252.668 266.926 252.668 266.794 253.919Z" fill="#161616"/>
<path d="M304.738 269.654C298.282 319.489 294.527 369.654 293.539 419.885C292.551 470.116 294.264 520.413 298.677 570.446C301.181 598.359 304.474 626.141 308.625 653.857C308.822 655.108 310.733 654.581 310.535 653.33C303.091 603.692 298.348 553.724 296.306 503.625C294.264 453.658 294.988 403.559 298.348 353.591C300.258 325.546 303.025 297.501 306.648 269.588C306.912 268.403 304.936 268.403 304.738 269.654Z" fill="#161616"/>
<path opacity="0.12" d="M739.381 229.232C746.693 259.054 752.622 294.012 754.598 333.183C759.539 432.854 736.087 514.29 715.666 566.562C701.24 589.669 686.879 612.777 672.452 635.884C686.484 641.941 707.3 648.985 733.255 651.092C751.173 652.54 766.719 651.223 778.84 649.248C778.972 646.352 781.146 602.309 781.278 599.413C788.458 451.88 788.919 441.808 789.183 431.669C790.368 390.392 790.171 331.142 783.122 257.211C780.685 244.637 778.247 232.063 775.81 219.554C763.755 222.714 751.568 225.94 739.381 229.232Z" fill="#3F3F3F"/>
<path opacity="0.13" d="M279.64 261.424C277.927 268.6 275.358 279.331 272.327 292.432C258.889 350.892 249.008 393.881 243.738 433.447C234.383 503.164 225.359 570.709 263.83 626.141C275.028 642.27 287.281 653.133 295.45 659.584C287.545 662.678 277.729 665.509 266.267 666.892C234.383 670.644 208.824 660.308 196.308 654.12C191.565 610.473 188.271 563.731 187.217 514.29C184.845 404.875 193.739 306.52 207.309 221.924C231.353 235.091 255.463 248.258 279.64 261.424Z" fill="#3F3F3F"/>
<path d="M210.536 190.587C209.68 191.246 210.339 193.813 211.525 198.224C211.986 199.936 212.447 201.252 212.71 202.108C212.183 205.663 211.722 209.218 211.195 212.773C210.141 212.905 207.44 213.497 204.937 215.67C202.632 217.711 201.709 220.081 201.38 221.134C203.488 221.332 206.057 221.792 208.824 222.648C212.842 223.899 216.004 225.611 218.31 227.059C218.31 227.849 218.441 229.363 219.495 230.482C220.418 231.404 221.538 231.536 222.196 231.667C224.568 232.062 227.4 232.589 231.024 233.379C232.605 234.301 235.24 235.815 238.467 237.592C249.403 243.517 253.355 244.505 264.29 250.298C271.339 254.051 270.746 254.182 275.687 256.552C283.262 260.239 289.784 262.412 294.198 263.662C296.042 261.622 299.007 257.672 300.653 251.944C301.971 247.402 301.905 243.452 301.642 240.884C302.761 241.477 304.54 242.135 306.582 241.872C311.852 241.279 315.212 235.288 316.266 231.009C317.188 227.257 316.332 224.887 315.607 220.476C313.96 210.601 312.511 201.779 316.595 196.183C320.021 191.509 327.069 189.337 332.735 183.082C333.262 182.49 334.25 181.371 333.92 180.844C333.327 179.857 328.716 181.568 326.476 182.556C325.027 183.214 314.158 188.217 310.864 199.541C310.337 201.318 310.271 206.453 310.205 216.657C310.139 224.097 310.271 228.31 307.307 230.746C305.792 231.997 303.552 232.721 301.51 232.26C298.48 231.602 297.03 228.639 295.713 226.664C292.287 221.463 287.413 219.291 281.418 216.328C276.741 214.024 272.722 213.168 264.62 211.391C256.978 209.745 254.673 209.942 251.379 207.507C247.69 204.742 245.648 200.857 244.594 198.685C243.54 196.644 241.893 193.418 241.168 188.81C240.773 186.111 240.839 184.202 240.18 184.07C238.994 183.807 238.402 189.271 234.383 191.18C231.946 192.365 230.365 191.246 226.083 191.377C223.316 191.443 220.154 192.036 216.597 193.616C215.411 192.76 211.722 189.732 210.536 190.587Z" fill="black"/>
<path d="M212.513 212.247C211.129 201.384 221.011 191.509 231.946 192.628C242.288 193.682 249.139 206.256 248.81 215.67C248.744 216.921 250.72 216.921 250.786 215.67C251.115 205.268 243.342 191.575 231.946 190.653C219.957 189.666 209.021 200.265 210.536 212.247C210.734 213.432 212.71 213.497 212.513 212.247Z" fill="black"/>
<path d="M212.315 219.093C216.333 226.928 224.963 232.458 233.988 231.273C242.222 230.153 249.205 223.504 250.456 215.275C250.654 214.024 248.744 213.498 248.546 214.748C247.426 222.253 241.234 228.31 233.724 229.298C225.49 230.417 217.717 225.282 214.028 218.106C213.435 216.987 211.722 217.974 212.315 219.093Z" fill="black"/>
<path d="M219.43 228.639C219.232 226.137 226.346 225.084 228.125 224.689C231.353 223.965 234.647 223.57 237.94 223.57C244.067 223.57 249.93 225.15 255.134 228.376C256.188 229.034 257.242 227.322 256.122 226.664C249.403 222.517 241.564 221.068 233.79 221.792C229.706 222.187 225.688 223.043 221.801 224.36C219.693 225.084 217.19 226.006 217.387 228.639C217.519 229.89 219.561 229.89 219.43 228.639Z" fill="black"/>
<path d="M247.756 205.861C251.906 210.864 258.625 212.049 264.62 213.366C272.591 215.209 280.825 216.855 287.808 221.266C302.234 230.351 304.935 250.167 293.539 262.873C292.682 263.794 294.066 265.243 294.922 264.255C305.067 252.998 305.33 235.749 294.856 224.558C289.323 218.633 281.418 215.538 273.71 213.498C265.871 211.457 254.607 211.128 249.073 204.413C248.349 203.491 246.965 204.873 247.756 205.861Z" fill="black"/>
<path d="M293.868 240.291C290.575 235.946 284.778 234.432 279.705 236.539C273.447 239.106 273.118 246.809 273.842 252.668C273.974 253.919 275.95 253.919 275.819 252.668C275.226 248.06 275.16 240.95 279.903 238.646C283.987 236.605 289.323 237.658 292.09 241.345C292.88 242.332 294.593 241.345 293.868 240.291Z" fill="black"/>
<path d="M275.555 251.747C271.932 248.982 268.177 246.612 263.5 247.863C262.973 247.994 262.709 248.587 262.841 249.048C264.027 253.656 271.273 255.565 275.094 257.211C280.957 259.778 286.951 261.951 293.012 263.86C294.198 264.255 294.725 262.346 293.539 261.951C288.664 260.437 283.921 258.791 279.178 256.816C276.609 255.763 274.106 254.643 271.603 253.458C269.363 252.405 265.344 251.154 264.686 248.521C264.488 248.916 264.225 249.311 264.027 249.706C268.111 248.587 271.471 251.023 274.501 253.393C275.555 254.248 276.543 252.537 275.555 251.747Z" fill="black"/>
<path d="M217.651 228.442C220.22 232.655 225.424 233.379 229.969 234.038C236.689 235.025 243.408 235.025 250.127 234.301C251.379 234.169 251.379 232.194 250.127 232.326C244.725 232.918 239.324 233.05 233.922 232.523C229.377 232.063 222.064 231.799 219.298 227.454C218.705 226.335 216.992 227.323 217.651 228.442Z" fill="black"/>
<path d="M202.302 221.726C203.158 217.118 207.177 214.748 211.656 214.551C211.327 214.287 210.997 214.09 210.734 213.827C211.063 215.407 211.524 216.921 212.183 218.369C212.644 219.554 214.555 219.027 214.094 217.842C213.501 216.328 213.04 214.88 212.644 213.3C212.578 212.905 212.117 212.576 211.722 212.576C206.452 212.839 201.446 215.736 200.458 221.2C200.194 222.451 202.104 222.977 202.302 221.726Z" fill="black"/>
<path d="M213.764 201.318C212.776 198.487 212.052 195.525 211.788 192.497C211.788 192.233 211.722 191.97 211.722 191.707C211.656 191.114 211.722 191.18 211.986 191.904C212.579 192.299 213.171 192.76 213.764 193.221C214.752 194.077 215.675 194.998 216.465 195.986C217.322 196.973 218.705 195.525 217.849 194.603C216.729 193.287 212.052 187.888 210.075 189.995C209.087 191.048 209.812 193.484 210.009 194.669C210.339 197.105 210.998 199.541 211.788 201.845C212.315 203.03 214.225 202.569 213.764 201.318Z" fill="black"/>
<path d="M236.03 192.101C236.623 191.048 237.216 189.995 237.874 188.941C238.138 188.481 238.401 188.086 238.599 187.625C238.994 186.966 238.994 186.374 239.785 186.571C240.707 186.769 240.378 188.941 240.378 189.731C240.378 190.982 240.443 192.233 240.443 193.484C240.443 194.735 242.42 194.735 242.42 193.484C242.42 191.443 242.486 189.402 242.354 187.361C242.288 186.045 241.827 184.596 240.378 184.136C239.06 183.741 238.138 184.596 237.479 185.584C236.359 187.361 235.371 189.271 234.317 191.048C233.658 192.233 235.371 193.221 236.03 192.101Z" fill="black"/>
<path d="M299.138 235.157C299.534 240.16 305.133 241.806 309.02 239.37C314.751 235.815 316.002 227.783 315.278 221.727C314.29 213.432 312.313 205.729 315.146 197.5C317.847 189.666 324.566 183.28 333.064 182.753C334.316 182.688 334.316 180.713 333.064 180.778C321.47 181.503 313.565 191.378 311.918 202.306C310.93 208.823 312.379 214.88 313.236 221.266C313.763 225.479 313.499 229.495 311.589 233.379C310.732 235.025 309.547 236.671 307.966 237.724C305.528 239.238 301.312 238.778 301.049 235.223C301.049 233.906 299.072 233.84 299.138 235.157Z" fill="black"/>
<path d="M300.192 238.712C302.234 244.176 309.349 241.74 312.445 238.58C317.517 233.445 316.398 224.887 316.002 218.369C315.936 217.118 313.96 217.118 314.026 218.369C314.29 222.517 314.685 226.993 313.96 231.141C313.631 233.116 312.906 234.959 311.589 236.539C310.139 238.317 303.815 242.793 302.103 238.185C301.642 237 299.731 237.527 300.192 238.712Z" fill="black"/>
<path d="M333.13 180.712C325.62 183.609 318.044 187.691 315.014 195.591C311.523 204.676 314.026 214.551 313.828 223.965C313.828 225.216 315.805 225.216 315.805 223.965C316.002 215.736 314.026 207.309 316.002 199.146C318.176 190.192 325.62 185.716 333.657 182.621C334.843 182.161 334.316 180.251 333.13 180.712Z" fill="black"/>
<path d="M331.615 181.831C324.698 184.991 318.374 190.521 315.146 197.566C313.433 201.252 313.697 205.334 313.697 209.35C313.697 214.485 313.894 219.686 314.29 224.821C314.355 226.071 316.332 226.071 316.266 224.821C316.002 220.673 315.805 216.591 315.739 212.444C315.673 208.099 315.08 202.964 316.727 198.882C319.56 191.97 325.949 186.637 332.603 183.543C333.789 183.016 332.8 181.305 331.615 181.831Z" fill="black"/>
<path d="M216.399 205.663C218.244 208.889 222.921 207.77 223.382 204.215C223.448 203.557 222.46 203.622 222.394 204.215C222.065 206.914 218.639 207.441 217.256 205.202C216.926 204.61 216.07 205.137 216.399 205.663Z" fill="white"/>
<path d="M230.365 203.096C232.407 206.585 237.611 205.202 237.677 201.187C237.677 200.528 236.689 200.528 236.689 201.187C236.623 204.281 232.802 205.268 231.221 202.635C230.892 202.042 230.035 202.503 230.365 203.096Z" fill="white"/>
<path d="M226.412 207.441C226.873 209.35 226.478 211.259 225.292 212.839C224.897 213.366 225.753 213.826 226.149 213.366C227.466 211.588 227.861 209.35 227.4 207.177C227.203 206.585 226.214 206.848 226.412 207.441Z" fill="white"/>
<path d="M226.807 207.375C226.61 209.876 227.993 212.246 230.299 213.3C230.892 213.563 231.353 212.707 230.826 212.444C228.849 211.522 227.598 209.547 227.795 207.375C227.795 206.716 226.807 206.716 226.807 207.375Z" fill="white"/>
<path d="M210.734 213.234C216.531 212.773 220.22 217.513 224.107 221.002C224.568 221.397 225.293 220.739 224.831 220.278C220.747 216.591 216.795 211.786 210.734 212.181C210.141 212.246 210.141 213.234 210.734 213.234Z" fill="white"/>
<path d="M221.537 224.821C228.981 220.081 237.809 218.501 246.438 220.41C247.031 220.542 247.295 219.62 246.702 219.488C237.809 217.579 228.718 219.159 221.076 224.031C220.483 224.294 221.01 225.15 221.537 224.821Z" fill="white"/>
<path d="M240.246 233.84C246.372 234.235 252.169 232.325 256.846 228.31C257.308 227.915 256.649 227.191 256.122 227.586C251.642 231.404 246.109 233.247 240.246 232.852C239.653 232.852 239.653 233.84 240.246 233.84Z" fill="white"/>
<path d="M238.467 187.098C237.018 189.534 236.689 192.365 237.545 195.064C237.743 195.656 238.665 195.393 238.467 194.801C237.677 192.365 237.94 189.797 239.258 187.625C239.653 187.032 238.797 186.506 238.467 187.098Z" fill="white"/>
<path d="M212.381 193.221C213.962 194.208 214.95 195.723 215.345 197.5C215.477 198.093 216.399 197.829 216.267 197.237C215.806 195.196 214.62 193.484 212.842 192.365C212.315 192.036 211.854 192.892 212.381 193.221Z" fill="white"/>
<path d="M247.229 203.754C248.48 205.268 249.93 206.585 251.576 207.572C252.103 207.902 252.63 207.046 252.103 206.717C250.522 205.729 249.073 204.478 247.953 203.03C247.492 202.569 246.833 203.293 247.229 203.754Z" fill="white"/>
<path d="M287.873 236.078C286.49 232.589 279.837 234.959 277.663 236.342C273.776 238.909 272.063 243.715 273.513 248.126C273.71 248.718 274.633 248.455 274.435 247.863C273.315 244.373 274.237 240.621 277.004 238.053C278.19 236.934 279.771 236.144 281.352 235.749C282.472 235.42 286.292 234.696 286.885 236.276C287.149 236.934 288.071 236.671 287.873 236.078Z" fill="white"/>
<path d="M274.303 248.191C269.165 246.019 263.697 245.821 258.362 247.467C257.769 247.665 258.032 248.586 258.625 248.389C263.829 246.743 269.033 247.006 274.04 249.113C274.633 249.376 274.896 248.389 274.303 248.191Z" fill="white"/>
<path d="M455.262 521.992C452.561 528.444 452.561 533.25 452.166 545.627C451.705 560.9 450.388 576.107 450.256 591.315C450.124 604.152 449.926 623.573 449.399 648.853C470.479 650.038 493.799 650.302 519.095 649.051C543.205 647.866 565.471 645.43 585.563 642.402C576.077 610.341 569.819 586.97 565.339 568.866C562.968 559.188 559.477 544.705 549.859 527.786C544.589 518.503 539.121 511.525 535.103 506.851C534.049 505.929 510.795 486.377 483.918 495.593C482.6 496.12 463.036 503.23 455.262 521.992Z" fill="#FE1264"/>
<path d="M494.063 560.373C498.476 568.208 502.89 576.042 507.238 583.876C507.831 584.995 509.543 584.008 508.951 582.888C504.537 575.054 500.123 567.22 495.776 559.386C495.183 558.267 493.47 559.254 494.063 560.373Z" fill="#C64F4F"/>
<path d="M493.535 559.978C503.68 572.618 509.543 587.036 512.705 602.836C515.669 617.78 517.58 632.922 518.7 648.129C518.766 649.38 520.742 649.38 520.676 648.129C519.49 632.527 517.514 616.924 514.484 601.585C511.322 585.719 505.129 571.236 494.985 558.596C494.194 557.542 492.745 558.991 493.535 559.978Z" fill="#C64F4F"/>
<path opacity="0.19" d="M509.412 494.079C511.717 498.687 515.011 505.468 518.7 513.632C529.438 537.463 540.57 562.612 546.499 593.553C548.937 606.062 551.242 624.166 550.254 646.747C555.788 646.483 561.651 646.022 567.777 645.364C573.903 644.706 579.766 643.916 585.3 642.994C583.587 637.201 580.82 627.984 577.724 616.595C569.094 584.732 567.909 574.791 560.531 553.79C555.063 538.187 549.991 527.588 542.678 517.45C536.091 508.299 529.899 502.572 522.06 498.556C517.185 496.054 512.639 494.803 509.412 494.079Z" fill="#3F3F3F"/>
<path opacity="0.11" d="M493.667 560.703C496.237 570.314 498.476 581.769 499.53 594.673C501.375 616.99 499.003 636.016 496.105 650.236C503.68 649.775 511.19 649.314 518.766 648.854C517.975 633.909 516.263 621.335 514.616 611.789C510.466 587.497 506.118 578.478 502.626 572.684C499.333 567.352 496.039 563.336 493.667 560.703Z" fill="#3F3F3F"/>
<path d="M409.282 409.812C407.108 411.26 405.791 414.025 403.221 419.49C401.113 423.966 400.125 427.455 398.544 432.656C394.197 447.403 394.658 444.901 393.143 450.497C391.166 457.936 387.609 470.971 385.633 488.154C383.722 504.81 384.118 517.647 384.184 520.741C384.908 540.294 388.334 554.843 390.639 564.191C394.724 580.979 400.191 594.935 411.061 622.783C413.432 628.774 415.408 633.711 416.792 637.135C415.804 637.266 414.223 637.464 412.312 637.727C402.365 638.912 400.982 638.649 396.963 639.505C391.825 640.624 387.214 641.743 385.435 645.627C384.645 647.405 384.315 649.906 385.303 650.762C386.555 651.815 388.992 649.445 393.208 648.063C396.766 646.944 399.928 647.01 402.102 647.339C400.389 650.696 399.401 653.725 398.808 655.897C397.359 660.9 396.239 664.982 398.083 667.879C399.005 669.327 400.784 670.644 402.233 670.249C403.024 670.051 403.748 669.327 405.725 664.126C407.635 658.925 407.767 657.28 409.348 655.239C410.731 653.527 412.312 652.605 413.366 652.079C412.839 653.725 412.246 656.16 411.983 659.123C411.851 660.9 411.653 662.546 411.983 664.653C412.246 666.562 412.839 670.644 415.869 672.882C416.396 673.277 418.57 674.923 419.888 674.067C421.008 673.409 420.678 671.565 421.139 665.64C421.535 660.637 421.93 659.255 422.259 658.465C423.116 656.16 424.433 654.515 425.421 653.527C425.092 658.267 425.158 662.217 425.29 665.114C425.553 669.788 426.014 671.895 427.529 673.211C428.386 673.935 429.835 674.66 431.021 674.133C432.206 673.606 432.602 671.96 432.931 669.92C434.38 662.217 433.524 659.979 435.171 656.095C435.83 654.58 436.554 652.737 438.333 651.42C442.088 648.655 447.424 650.301 448.148 650.499C451.31 651.486 452.496 653.198 454.077 652.474C455.394 651.881 456.119 649.972 456.185 648.392C456.251 644.508 451.969 641.545 448.28 639.11C446.435 637.859 443.669 636.213 439.98 634.896C436.752 628.51 432.668 619.228 429.308 607.444C427.068 599.544 426.014 593.487 425.026 587.76C421.535 567.68 422.786 559.978 418.9 540.03C417.977 535.225 417.055 531.406 416.528 529.234C416.792 525.942 417.253 520.807 417.912 514.553C420.085 494.145 421.535 481.373 425.948 466.363C429.44 454.579 432.997 444.901 432.997 444.901C437.476 432.854 438.926 431.208 438.399 427.324C436.554 415.079 417.385 404.414 409.282 409.812Z" fill="white"/>
<path d="M404.209 416.066C392.484 443.124 385.106 472.025 383.525 501.518C381.878 531.604 387.082 561.031 396.831 589.471C402.365 605.732 409.084 621.532 415.935 637.332C416.462 638.517 418.109 637.464 417.648 636.345C405.79 608.958 394.196 581.176 388.663 551.815C383.195 522.848 384.315 492.894 390.639 464.125C394.196 447.996 399.335 432.261 405.922 417.12C406.383 415.935 404.736 414.881 404.209 416.066Z" fill="#161616"/>
<path d="M428.781 453.657C420.481 478.74 416.133 505.007 415.672 531.406C415.672 532.657 417.648 532.657 417.648 531.406C418.109 505.139 422.457 479.135 430.691 454.184C431.087 452.999 429.176 452.472 428.781 453.657Z" fill="#161616"/>
<path d="M408.755 519.424C414.618 527.588 416.989 537.331 418.372 547.074C419.822 557.015 420.48 567.088 421.93 577.029C424.828 597.239 429.571 617.384 439.123 635.489C439.716 636.608 441.429 635.62 440.836 634.501C430.889 615.673 426.212 594.672 423.445 573.737C421.007 555.369 421.732 534.105 410.467 518.437C409.743 517.449 408.03 518.437 408.755 519.424Z" fill="#161616"/>
<path d="M415.672 636.41C409.545 636.739 403.419 637.332 397.424 638.451C393.142 639.307 388.597 640.689 385.633 644.113C383.92 646.154 381.746 651.025 385.501 652.408C387.148 653 388.597 651.881 389.98 651.091C393.406 649.116 396.963 647.075 401.047 648.194C402.299 648.524 402.826 646.614 401.574 646.285C398.215 645.364 395.185 646.154 392.154 647.668C391.232 648.129 390.376 648.589 389.519 649.116C388.992 649.379 388.531 649.709 388.004 650.038C387.411 648.984 386.753 647.931 386.16 646.878C386.291 645.232 389.585 643.323 390.771 642.664C393.999 640.953 397.754 640.36 401.311 639.834C406.12 639.109 410.929 638.649 415.738 638.385C416.989 638.319 416.989 636.344 415.672 636.41Z" fill="#161616"/>
<path d="M410.27 642.27C405.066 643.126 400.784 646.681 398.808 651.486C396.7 656.49 394.921 663.929 397.359 669.064C399.203 672.948 403.748 674.33 405.461 669.59C406.515 666.628 406.318 663.402 407.372 660.44C408.689 656.753 410.929 653.593 414.222 651.421C415.276 650.696 414.288 648.985 413.234 649.709C410.138 651.75 407.833 654.515 406.317 657.872C405.527 659.584 404.934 661.361 404.539 663.205C404.209 664.719 404.012 672.355 400.389 670.117C398.347 668.866 398.149 664.85 398.215 662.81C398.347 659.781 399.137 656.292 400.125 653.396C401.772 648.524 405.659 645.035 410.731 644.179C412.049 643.981 411.522 642.072 410.27 642.27Z" fill="#161616"/>
<path d="M416.462 647.141C412.378 649.775 410.929 655.502 410.533 660.11C410.138 665.048 411.522 670.38 415.211 673.87C417.384 675.91 420.744 676.964 421.337 673.145C422.325 666.76 419.756 657.74 426.739 653.922C427.859 653.33 426.87 651.618 425.751 652.21C423.247 653.593 421.666 655.831 420.678 658.53C419.295 662.48 420.085 666.496 419.492 670.578C419.229 672.421 418.702 674.396 416.66 672.487C415.935 671.829 415.276 670.973 414.749 670.117C413.498 668.142 412.773 665.904 412.576 663.6C412.114 658.991 413.3 651.618 417.516 648.853C418.504 648.129 417.516 646.417 416.462 647.141Z" fill="#161616"/>
<path d="M425.817 652.408C424.565 657.148 423.379 662.085 424.17 667.023C424.499 669.393 425.882 675.186 428.913 675.779C432.338 676.437 433.722 670.38 434.051 668.142C434.776 663.27 433.853 657.411 437.674 653.658C438.596 652.737 437.213 651.354 436.291 652.276C431.68 656.818 433.26 663.402 431.877 669.195C431.416 671.302 430.098 674.462 427.925 672.026C426.739 670.775 426.41 668.339 426.146 666.694C425.487 662.085 426.607 657.477 427.793 653C428.056 651.749 426.146 651.223 425.817 652.408Z" fill="#161616"/>
<path d="M440.045 636.608C443.932 638.188 447.95 639.9 450.981 642.928C452.364 644.311 454.077 646.417 454.472 648.392C455.46 653.856 451.376 650.367 449.861 649.709C445.711 647.866 437.476 649.182 435.105 653.396C434.512 654.515 436.225 655.502 436.818 654.383C438.069 652.079 441.495 651.486 443.866 651.157C445.315 650.96 446.962 650.828 448.346 651.223C449.927 651.684 450.915 653.066 452.43 653.527C454.604 654.186 456.251 652.671 456.58 650.565C457.173 647.141 454.209 643.323 451.903 641.085C448.675 637.991 444.525 636.279 440.441 634.633C439.387 634.238 438.926 636.147 440.045 636.608Z" fill="#161616"/>
<path opacity="0.13" d="M426.739 432.393C419.163 432.854 414.618 452.209 412.114 462.94C409.282 474.987 406.713 491.577 407.24 515.738C407.701 537.332 410.467 553.79 411.39 559.517C415.54 584.139 422.061 604.811 428.451 621.006C430.559 626.931 432.601 632.856 434.709 638.715C433.524 643.587 432.338 648.59 431.218 653.791C429.769 660.637 428.451 667.352 427.397 673.804C428.649 673.936 430.362 673.87 431.547 672.685C433.063 671.171 432.865 668.735 432.931 666.628C432.997 664.653 433.194 655.107 437.476 651.552C440.111 649.38 444.327 649.38 447.226 650.433C450.19 651.552 451.508 653.725 453.484 653.067C454.999 652.606 456.053 650.762 456.25 649.314C456.909 644.508 447.687 639.571 446.172 638.781C443.207 637.201 441.824 637.003 439.914 635.028C437.542 632.527 436.752 629.564 436.422 628.247C430.955 607.444 428.254 608.761 424.565 584.863C421.798 566.825 423.577 567.878 420.744 553.527C418.768 543.388 417.121 539.241 416.594 530.485C416.001 520.873 417.121 513.368 418.307 506.719C423.247 479.53 432.733 446.613 435.039 438.779C432.931 435.487 430.032 432.196 426.739 432.393Z" fill="#3F3F3F"/>
<path d="M561.189 161.752C559.147 161.687 557.566 165.373 557.171 166.361C556.578 167.809 555.656 170.64 556.314 174.656C556.314 174.656 556.71 177.421 558.027 194.142C558.356 197.895 558.422 203.359 557.434 210.206C554.799 217.447 552.296 223.109 550.583 226.796C544.786 239.172 540.9 244.11 532.797 259.778C529.767 265.637 529.503 266.559 525.946 273.801C517.053 291.773 510.531 303.031 503.878 315.078C498.015 325.612 489.781 341.082 480.097 360.964C479.636 362.676 477.33 371.827 482.666 379.858C488.331 388.351 500.189 392.169 511.651 388.482C513.43 385.981 515.933 382.097 518.239 377.027C520.478 372.09 521.532 368.272 522.257 365.836C522.982 363.4 525.88 355.171 531.743 338.581C533.588 333.446 535.827 327.323 540.373 315.342C547.29 296.974 550.715 287.823 553.021 282.096C558.225 269.061 562.177 260.042 569.951 242.53C574.035 233.313 579.041 222.187 584.838 209.547C588.198 207.638 592.809 204.676 597.75 200.397C604.864 194.274 608.422 189.073 615.273 179.198C619.686 172.747 623.046 167.085 622.124 161.423C621.992 160.633 621.662 158.329 620.411 158C618.83 157.539 616.854 160.699 614.68 163.464C612.44 166.295 609.08 169.982 604.074 173.8C605.787 169.06 607.499 165.373 608.685 162.937C611.386 157.407 613.626 153.852 615.009 147.73C616.524 141.212 615.141 140.027 614.746 139.698C612.967 138.382 609.937 140.883 608.158 139.435C606.577 138.052 607.96 135.024 606.709 134.3C605.457 133.576 602.69 135.748 600.714 138.052C597.289 142.002 596.498 145.821 595.247 149.507C594.061 153.128 591.887 158.066 587.803 163.53C586.815 163.662 585.497 163.727 584.904 162.937C584.245 162.016 585.168 160.502 586.024 158.066C586.222 157.473 586.09 157.802 587.473 151.746C588 149.442 588.988 145.162 589.779 141.739C590.899 136.802 591.426 134.761 590.372 132.588C590.174 132.127 589.318 130.35 588.066 130.284C586.617 130.218 585.497 132.522 584.641 134.3C581.149 141.476 579.371 145.097 578.91 146.347C576.604 152.602 573.508 162.147 573.047 165.439C572.981 165.834 572.849 167.217 572.19 168.994C571.861 169.85 571.663 170.179 571.466 170.706C569.819 174.392 571.202 176.828 569.489 178.145C569.292 178.277 568.304 179.001 567.513 178.737C566.657 178.474 566.262 177.355 565.8 173.602C565.142 168.467 565.537 166.953 564.351 164.715C563.561 163.727 562.573 161.818 561.189 161.752Z" fill="white"/>
<path d="M558.027 192.233C558.488 187.428 557.764 182.753 557.5 177.948C557.368 175.643 557.368 173.273 557.698 170.969C557.895 169.653 558.159 168.336 558.554 167.085C559.213 165.176 559.279 163.596 561.387 163.53C563.363 163.464 563.231 164.649 563.561 166.295C563.89 167.743 563.956 169.258 564.022 170.706C564.153 172.747 564.219 174.853 564.68 176.828C565.142 178.869 566.393 180.581 568.699 179.857C569.885 179.462 569.423 177.553 568.172 177.948C565.866 178.606 566.064 170.838 565.932 169.521C565.734 167.414 565.537 165.242 564.746 163.267C563.626 160.502 561.057 159.119 558.884 161.687C556.051 164.978 555.458 170.903 555.458 174.985C555.458 180.778 556.578 186.44 556.051 192.233C555.985 193.484 557.961 193.484 558.027 192.233Z" fill="#161616"/>
<path d="M569.489 179.067C572.783 172.681 573.771 165.439 575.682 158.592C577.724 151.219 580.293 143.977 584.114 137.394C584.97 135.946 585.826 133.905 587.078 132.786C589.515 130.547 589.515 134.827 589.318 136.67C588.923 140.752 587.869 144.899 586.946 148.915C586.09 152.602 584.904 156.157 584.048 159.843C583.587 161.884 583.587 163.662 585.036 165.242C585.892 166.163 587.276 164.781 586.419 163.859C584.772 162.082 586.485 158.527 587.012 156.617C587.605 154.445 588.198 152.272 588.659 150.1C589.581 146.084 590.504 142.002 591.096 137.855C591.426 135.682 591.887 131.864 589.977 130.218C588.33 128.836 586.683 130.152 585.563 131.469C580.754 137.46 577.79 145.36 575.418 152.602C572.717 160.962 571.861 170.311 567.777 178.145C567.184 179.198 568.897 180.186 569.489 179.067Z" fill="#161616"/>
<path d="M585.497 165.439C587.473 165.636 588.198 164.188 589.12 162.608C590.569 160.106 591.887 157.473 593.139 154.906C595.576 149.902 597.289 144.438 600.253 139.764C600.912 138.711 601.702 137.394 602.756 136.604C603.613 135.616 604.733 135.287 606.182 135.748C606.38 136.67 606.511 137.591 606.511 138.513C606.577 141.739 605.523 144.965 604.403 147.993C602.163 153.984 599.66 159.909 597.223 165.9C596.762 167.085 598.672 167.611 599.133 166.426C600.517 163.003 614.746 132.983 605.457 132.786C603.613 132.72 601.505 135.024 600.451 136.275C598.606 138.447 597.289 140.949 596.103 143.516C594.72 146.611 593.468 149.705 592.019 152.733C591.162 154.576 590.174 156.486 589.252 158.263C588.659 159.448 587.21 163.53 585.563 163.398C584.245 163.332 584.245 165.307 585.497 165.439Z" fill="#161616"/>
<path d="M608.817 141.212C609.542 137.394 613.692 140.027 614.219 142.463C614.68 144.504 613.889 146.545 613.231 148.454C612.243 151.351 611.123 154.182 609.937 156.947C607.631 162.345 604.93 167.48 601.9 172.549C601.241 173.668 602.954 174.656 603.613 173.537C606.446 168.862 608.949 163.991 611.189 159.053C613.099 154.774 615.405 150.034 616.129 145.36C616.59 142.397 615.734 138.579 612.44 137.526C610.003 136.736 607.368 138.25 606.907 140.752C606.709 141.937 608.619 142.463 608.817 141.212Z" fill="#161616"/>
<path d="M604.996 174.326C607.499 171.496 609.937 168.665 612.44 165.834C613.758 164.32 614.943 162.674 616.393 161.357C616.854 160.962 617.315 160.633 617.71 160.238C618.83 160.633 619.95 161.028 621.136 161.423C621.465 162.016 620.674 163.727 620.477 164.254C618.435 170.508 615.47 176.433 611.979 181.963C604.93 193.089 595.247 202.437 583.916 209.218C582.796 209.876 583.85 211.588 584.904 210.93C599.002 202.503 610.596 190.126 617.908 175.446C619.686 171.891 621.399 168.138 622.519 164.32C623.178 162.081 623.573 159.053 621.004 157.868C618.501 156.683 615.866 158.987 614.285 160.633C610.53 164.517 607.104 168.862 603.547 172.944C602.756 173.866 604.14 175.248 604.996 174.326Z" fill="#161616"/>
<path d="M556.314 190.193C556.776 196.249 557.237 202.438 556.249 208.494C555.26 214.485 552.757 220.015 549.99 225.413C544.391 236.342 538.528 247.138 532.797 258.001C521.335 279.726 509.873 301.385 498.41 323.11C491.823 335.553 485.235 348.061 478.648 360.503C478.055 361.622 479.768 362.61 480.361 361.491C504.01 316.658 528.12 272.023 551.374 226.928C554.141 221.595 556.71 216.131 557.83 210.272C559.147 203.623 558.686 196.908 558.159 190.193C558.225 188.942 556.249 188.942 556.314 190.193Z" fill="#161616"/>
<path d="M583.784 208.757C562.704 253.261 544.325 298.817 528.12 345.296C523.377 358.792 518.634 372.287 512.903 385.388C512.376 386.573 514.089 387.561 514.616 386.376C524.431 364.058 531.611 340.687 540.043 317.909C548.673 294.472 558.027 271.233 567.974 248.323C573.64 235.354 579.437 222.517 585.497 209.745C586.024 208.626 584.311 207.638 583.784 208.757Z" fill="#161616"/>
<path opacity="0.1" d="M613.56 140.422C610.859 140.027 607.236 151.087 605.128 156.617C598.738 173.602 593.336 175.577 579.634 198.619C574.562 207.112 567.579 219.883 560.531 236.539C539.451 280.911 518.436 325.348 497.356 369.72C502.495 375.974 507.567 382.294 512.705 388.548C515.274 381.241 519.029 370.51 523.706 357.541C532.204 334.17 543.205 304.084 558.752 267.481C564.944 252.997 573.508 233.445 584.509 210.469C587.539 208.56 591.755 205.597 596.367 201.516C602.559 196.117 610.727 188.81 616.327 176.894C618.105 173.207 620.345 167.546 621.531 160.107C620.674 159.712 619.423 159.251 618.039 159.514C615.668 159.975 614.416 162.279 613.428 163.859C609.607 169.718 604.008 173.602 603.283 173.142C602.888 172.812 604.008 170.903 607.038 164.715C613.231 152.009 610.661 155.367 613.099 151.087C614.482 148.652 615.866 146.545 615.404 143.846C615.404 142.661 614.68 140.62 613.56 140.422Z" fill="#3F3F3F"/>
<path opacity="0.13" d="M609.541 185.321C606.248 187.427 601.571 190.522 596.235 194.603C590.108 199.212 583.521 204.215 577.987 210.535C570.478 219.093 567.184 227.586 565.208 232.523C547.092 278.738 525.551 328.903 519.424 342.86C516.065 350.497 510.795 362.017 503.812 375.842C506.974 379.99 510.202 384.137 513.364 388.285C522.455 360.569 532.929 331.537 544.918 301.451C557.83 269.127 571.202 238.909 584.641 210.798C588.264 208.362 592.348 205.268 596.498 201.252C602.361 195.657 606.577 189.995 609.541 185.321Z" fill="#3F3F3F"/>
<path d="M434.38 375.908C431.943 377.554 426.475 381.372 420.876 387.561C415.079 393.947 411.719 399.937 408.952 405.007C406.778 408.891 405.198 412.314 404.078 414.816C405.79 418.107 408.557 423.177 412.378 429.233C419.163 439.964 424.433 445.757 433.524 457.41C437.344 462.282 442.878 469.589 449.465 478.806C450.519 483.743 451.442 488.944 452.232 494.408C453.813 505.6 454.406 516.002 454.406 525.35C456.843 527.983 461.059 531.802 467.252 534.501C477.528 539.043 486.882 537.727 491.757 536.937C502.561 535.291 509.939 530.485 515.011 527.128C524.234 521.071 530.492 513.829 534.642 507.838C533.785 497.568 532.666 486.969 531.282 475.975C530.096 466.627 528.779 457.542 527.33 448.72C527.198 441.807 526.539 432.393 524.299 421.465C522.455 412.314 520.215 401.649 513.562 389.009C505.262 373.275 494.919 363.729 490.901 360.24C487.344 357.146 484.116 354.842 481.744 353.196C472.126 359.318 463.826 363.137 458.161 365.441C447.621 369.786 442.68 370.444 434.38 375.908Z" fill="white"/>
<path d="M405.132 415.079C407.174 407.311 412.839 400.069 417.714 393.749C422.852 387.166 428.649 381.175 435.566 376.369C436.62 375.645 435.632 373.933 434.578 374.657C427.463 379.595 421.469 385.717 416.199 392.498C411.126 399.016 405.395 406.389 403.287 414.487C402.958 415.803 404.868 416.264 405.132 415.079Z" fill="#161616"/>
<path d="M403.682 415.737C417.253 439.437 433.326 461.689 451.574 482.031C452.43 482.953 453.813 481.57 452.957 480.649C434.841 460.438 418.9 438.318 405.395 414.75C404.736 413.63 403.024 414.618 403.682 415.737Z" fill="#161616"/>
<path d="M459.413 366.362C466.791 361.162 474.893 357.277 483.523 354.776C484.775 354.447 484.248 352.537 482.996 352.867C474.169 355.434 465.934 359.384 458.425 364.651C457.371 365.375 458.359 367.087 459.413 366.362Z" fill="#161616"/>
<path d="M481.876 355.302C513.364 377.225 526.869 415.671 525.354 452.867C525.288 454.118 527.264 454.118 527.33 452.867C528.911 414.881 514.945 375.908 482.864 353.59C481.876 352.866 480.888 354.578 481.876 355.302Z" fill="#161616"/>
<path d="M447.291 478.148C450.717 485.192 451.112 493.948 451.837 501.584C452.627 509.353 452.891 517.187 452.891 525.021C452.891 526.272 454.867 526.272 454.867 525.021C454.933 516.331 454.538 507.641 453.55 499.017C452.759 491.709 452.232 483.809 449.004 477.094C448.411 475.975 446.764 476.963 447.291 478.148Z" fill="#161616"/>
<path d="M454.142 525.416C464.024 537.529 480.888 540.953 495.578 537.2C503.746 535.093 511.322 531.078 518.107 526.074C524.892 521.071 531.348 515.278 535.169 507.641C535.762 506.522 534.049 505.534 533.456 506.653C529.767 513.961 523.575 519.557 517.053 524.363C510.729 529.037 503.68 532.855 496.039 535.028C481.678 539.043 465.144 535.949 455.46 524.033C454.735 523.046 453.352 524.428 454.142 525.416Z" fill="#161616"/>
<path d="M526.078 449.905C529.306 469.194 532.468 488.483 533.588 507.97C533.654 509.221 535.63 509.221 535.564 507.97C534.379 488.286 531.217 468.799 527.989 449.378C527.791 448.127 525.881 448.654 526.078 449.905Z" fill="#161616"/>
<path opacity="0.13" d="M461.916 363.729C469.228 372.353 479.241 385.783 487.607 403.953C499.86 430.55 502.297 453.526 504.142 473.078C505.591 487.957 506.382 508.694 503.483 533.447C509.082 531.012 516.988 526.798 524.629 519.491C528.845 515.409 532.007 511.327 534.379 507.772C532.205 489.405 530.031 470.972 527.857 452.604C528.252 437.463 525.881 425.217 523.641 416.922C516.724 391.247 503.417 374.723 498.938 369.522C492.811 362.347 486.817 357.08 482.403 353.591C475.552 357.014 468.767 360.372 461.916 363.729Z" fill="#3F3F3F"/>
<path opacity="0.14" d="M510.992 386.771C509.807 387.1 512.573 397.831 515.208 413.696C515.208 413.696 519.227 437.791 520.083 461.096C520.676 476.501 519.886 499.016 512.969 526.996C516.131 525.416 520.017 523.111 524.036 519.886C528.91 515.936 532.402 511.788 534.773 508.496C533.917 481.966 531.677 468.206 529.569 460.438C529.174 458.924 528.12 455.369 527.264 450.366C525.683 441.017 526.473 437.001 525.617 429.233C524.958 423.045 523.706 418.963 521.401 411.392C517.909 400.003 512.31 386.376 510.992 386.771Z" fill="#3F3F3F"/>
<path d="M433.459 267.612C429.111 270.048 423.577 273.735 418.242 279.331C407.175 291.115 403.617 304.282 402.366 310.799C401.378 310.667 398.677 310.47 396.503 312.182C393.275 314.683 393.209 319.621 394.461 322.517C394.922 323.571 395.581 324.427 396.964 326.138C398.611 328.179 399.665 329.43 401.378 330.154C402.102 330.483 403.749 330.944 406.121 330.417C406.845 332.59 408.031 335.618 409.81 339.107C412.115 343.584 415.607 350.233 422.589 356.027C424.631 357.738 427.793 359.977 432.075 362.017C433.656 364.058 436.555 368.337 436.884 374.131C437.543 384.335 430.099 392.827 423.05 396.58C410.798 403.097 397.491 396.58 392.616 394.144C389.981 392.827 376.74 385.981 371.207 370.971C364.488 352.867 373.249 334.762 378.453 323.966C383.723 313.103 386.16 313.827 390.179 303.228C395.515 289.206 392.682 284.268 398.808 273.537C401.18 269.324 405.989 260.897 416.068 256.947C424.697 253.59 432.668 255.302 436.094 256.289C438.926 254.577 443.933 252.142 450.257 252.142C465.276 252.142 474.894 266.362 477.2 269.785C484.051 279.857 480.428 282.952 486.554 297.106C494.261 314.947 501.771 313.893 508.688 330.615C512.048 338.778 517.647 352.274 511.455 365.177C505.065 378.476 490.506 382.36 488.662 382.821C485.302 383.677 476.277 385.915 467.253 381.109C466.396 380.648 455.066 374.46 454.143 363.861C453.814 359.977 454.934 356.356 455.197 355.566C456.581 351.287 458.952 348.522 459.677 347.6C462.51 344.111 465.935 337.659 468.307 324.822C469.426 324.756 471.271 324.492 473.115 323.439C477.002 321.201 478.847 316.658 478.649 312.708C478.583 311.787 478.32 306.52 474.499 304.742C472.918 304.018 471.271 304.216 470.349 304.413C458.096 292.037 445.777 279.857 433.459 267.612Z" fill="#3D3D3D"/>
<path d="M433.458 267.546C426.146 271.826 421.073 276.566 417.846 280.055C407.108 291.707 403.682 303.886 402.958 306.717C402.497 308.495 402.167 309.943 402.036 310.996C401.311 310.733 399.664 310.272 398.017 310.996C395.514 312.116 394.987 315.144 394.723 316.658C394.065 320.147 395.382 322.912 395.909 323.966C396.634 325.48 397.82 327.916 400.652 329.166C402.958 330.22 405.132 329.825 406.054 329.627C406.976 331.997 408.294 335.289 410.336 339.041C413.432 344.966 416.33 350.431 421.93 355.302C424.104 357.211 427.661 359.845 432.799 361.886C433.853 363.531 435.302 366.099 436.093 369.456C436.752 372.09 436.883 374.328 436.818 376.04C438.53 376.896 441.758 378.212 445.777 378.146C453.484 378.015 458.556 373.209 459.742 372.024C458.49 368.271 457.371 363.663 456.909 358.331C456.712 355.895 456.646 353.591 456.646 351.484C458.688 349.311 461.191 346.217 463.233 342.07C466.857 334.894 467.449 328.245 467.515 324.361C468.438 324.492 470.282 324.69 472.258 323.9C475.025 322.781 476.277 320.345 477.001 318.962C477.199 318.633 479.966 312.971 477.462 307.376C476.87 306.125 475.881 303.821 473.905 303.623C472.456 303.491 471.27 304.611 470.809 305.071C468.108 301.846 463.036 295.855 455.921 287.626C449.795 280.45 445.908 275.973 439.387 271.365C437.015 269.653 434.907 268.402 433.458 267.546Z" fill="white"/>
<path d="M424.367 337.396C423.708 338.91 426.804 341.609 428.254 342.728C431.284 344.967 434.512 345.296 435.698 345.362C437.081 345.493 441.626 345.822 445.776 342.86C446.765 342.136 449.531 340.227 450.585 336.672C451.31 334.104 451.112 330.549 449.729 329.957C448.675 329.562 447.687 330.878 445.447 332.458C441.495 335.157 437.41 335.816 433.919 336.342C427.99 337.264 425.026 336.079 424.367 337.396Z" fill="black"/>
<path d="M403.484 322.188C405.856 332.063 409.677 341.741 416.001 349.773C421.6 356.948 429.9 363.861 439.584 362.939C448.543 362.083 455.855 355.105 460.598 347.995C466.197 339.7 468.898 329.759 468.635 319.753C468.569 318.502 466.593 318.502 466.658 319.753C466.922 328.903 464.55 337.857 459.742 345.625C455.196 352.933 447.686 360.635 438.53 361.03C428.846 361.425 420.875 353.525 415.737 346.152C410.599 338.778 407.437 330.286 405.329 321.596C405.065 320.411 403.155 320.938 403.484 322.188Z" fill="#161616"/>
<path d="M431.481 362.017C434.248 366.231 435.631 370.839 435.631 375.908C435.631 377.159 437.608 377.159 437.608 375.908C437.608 370.576 436.092 365.507 433.194 361.03C432.535 359.911 430.822 360.898 431.481 362.017Z" fill="#161616"/>
<path d="M436.554 376.698C444.591 381.307 454.999 379.068 460.467 371.695C461.257 370.707 459.545 369.72 458.754 370.707C453.879 377.225 444.525 379.068 437.542 374.987C436.422 374.394 435.434 376.106 436.554 376.698Z" fill="#161616"/>
<path d="M455.526 353.196C455.592 359.187 456.514 365.112 458.424 370.839C458.82 372.024 460.73 371.498 460.335 370.313C458.556 364.717 457.568 359.055 457.502 353.196C457.502 351.879 455.526 351.879 455.526 353.196Z" fill="#161616"/>
<path d="M405.461 328.442C404.604 329.364 402.496 329.035 401.508 328.508C400.718 328.113 399.993 327.521 399.4 326.928C398.083 325.677 397.029 324.163 396.37 322.517C395.053 319.423 394.46 310.536 400.323 312.116C401.574 312.445 402.101 310.536 400.85 310.206C393.603 308.297 392.483 317.909 394.328 322.715C395.777 326.599 402.431 334.631 406.91 329.825C407.701 328.903 406.317 327.521 405.461 328.442Z" fill="#161616"/>
<path d="M471.665 305.401C472.456 302.767 475.881 307.836 476.276 308.758C477.067 310.865 477.33 313.169 477.001 315.407C476.474 319.884 472.917 324.163 467.976 322.912C466.724 322.583 466.197 324.492 467.449 324.821C475.42 326.862 479.702 318.567 478.977 311.786C478.648 308.824 477.462 305.006 474.629 303.426C472.785 302.438 470.413 302.701 469.755 304.808C469.359 306.125 471.27 306.586 471.665 305.401Z" fill="#161616"/>
<path d="M412.51 291.444C414.683 287.297 418.504 284.597 423.115 283.939C424.367 283.742 423.84 281.832 422.588 282.03C417.516 282.754 413.168 285.914 410.797 290.457C410.204 291.576 411.917 292.563 412.51 291.444Z" fill="#161616"/>
<path d="M442.944 281.306C448.477 279.989 454.011 282.754 456.514 287.757C457.107 288.877 458.754 287.889 458.227 286.77C455.328 280.911 448.741 277.882 442.417 279.397C441.165 279.726 441.692 281.635 442.944 281.306Z" fill="#161616"/>
<path d="M428.583 289.403C429.835 296.382 430.164 303.557 429.44 310.667C429.176 312.84 428.122 315.934 429.11 318.107C430.164 320.477 432.997 322.517 434.775 324.361C435.632 325.282 437.081 323.9 436.159 322.978C434.973 321.727 433.787 320.542 432.602 319.292C430.757 317.382 430.559 316.79 430.955 314.025C431.284 311.523 431.613 308.956 431.745 306.388C432.009 300.529 431.548 294.67 430.494 288.942C430.296 287.626 428.386 288.152 428.583 289.403Z" fill="#161616"/>
<path d="M420.283 306.322C419.295 304.742 418.833 303.031 418.965 301.187C418.965 300.792 419.229 299.081 419.558 299.015C419.756 299.015 420.085 301.319 420.151 301.582C420.283 302.438 420.349 303.36 420.349 304.216C420.349 304.479 420.283 306.652 420.283 305.335C420.217 303.426 420.349 301.517 420.415 299.607C419.756 299.673 419.097 299.805 418.504 299.871C418.833 301.912 419.031 303.952 419.031 306.059C419.69 306.059 420.349 306.059 421.007 306.059C421.007 305.796 421.007 305.532 421.007 305.269C421.007 304.018 419.031 304.018 419.031 305.269C419.031 305.532 419.031 305.796 419.031 306.059C419.031 307.31 421.007 307.31 421.007 306.059C421.007 303.821 420.81 301.582 420.415 299.344C420.217 298.225 418.504 298.554 418.504 299.607C418.438 301.714 418.175 304.018 418.438 306.125C418.57 307.112 419.031 308.034 420.151 308.232C423.445 308.89 422.457 302.438 422.193 300.858C421.996 299.607 421.798 297.698 420.612 296.974C419.624 296.382 418.57 296.974 417.977 297.896C416.33 300.661 417.252 304.742 418.768 307.244C419.229 308.363 420.942 307.376 420.283 306.322Z" fill="#161616"/>
<path d="M450.717 302.833C449.729 301.253 449.268 299.542 449.399 297.698C449.399 297.303 449.663 295.592 449.992 295.526C450.19 295.526 450.519 297.83 450.585 298.093C450.717 298.949 450.783 299.871 450.783 300.727C450.783 300.99 450.717 303.162 450.717 301.846C450.651 299.937 450.783 298.027 450.849 296.118C450.19 296.184 449.531 296.316 448.938 296.382C449.268 298.422 449.465 300.463 449.465 302.57C450.124 302.57 450.783 302.57 451.441 302.57C451.441 302.307 451.441 302.043 451.441 301.78C451.441 300.529 449.465 300.529 449.465 301.78C449.465 302.043 449.465 302.307 449.465 302.57C449.465 303.821 451.441 303.821 451.441 302.57C451.441 300.332 451.244 298.093 450.849 295.855C450.651 294.736 448.938 295.065 448.938 296.118C448.872 298.225 448.609 300.529 448.872 302.636C449.004 303.623 449.465 304.545 450.585 304.742C453.879 305.401 452.891 298.949 452.627 297.369C452.43 296.118 452.232 294.209 451.046 293.485C450.058 292.892 449.004 293.485 448.411 294.407C446.764 297.172 447.687 301.253 449.202 303.755C449.663 304.94 451.376 303.952 450.717 302.833Z" fill="#161616"/>
<path d="M410.533 312.379C411.785 312.379 411.785 310.404 410.533 310.404C409.282 310.404 409.282 312.379 410.533 312.379Z" fill="#161616"/>
<path d="M418.306 313.828C418.372 313.828 418.438 313.828 418.57 313.828C419.097 313.828 419.558 313.367 419.558 312.84C419.558 312.313 419.097 311.853 418.57 311.853C418.504 311.853 418.438 311.853 418.306 311.853C417.779 311.853 417.318 312.313 417.318 312.84C417.318 313.367 417.714 313.828 418.306 313.828Z" fill="#161616"/>
<path d="M413.695 319.884C414.947 319.884 414.947 317.909 413.695 317.909C412.443 317.909 412.378 319.884 413.695 319.884Z" fill="#161616"/>
<path d="M451.112 311.392C451.178 311.392 451.244 311.392 451.376 311.392C451.903 311.392 452.364 310.931 452.364 310.404C452.364 309.877 451.903 309.417 451.376 309.417C451.31 309.417 451.244 309.417 451.112 309.417C450.585 309.417 450.124 309.877 450.124 310.404C450.124 310.931 450.519 311.392 451.112 311.392Z" fill="#161616"/>
<path d="M458.359 306.52C459.61 306.52 459.61 304.545 458.359 304.545C457.107 304.545 457.107 306.52 458.359 306.52Z" fill="#161616"/>
<path d="M457.37 311.852C457.436 311.852 457.502 311.852 457.634 311.852C458.161 311.852 458.622 311.392 458.622 310.865C458.622 310.338 458.161 309.877 457.634 309.877C457.568 309.877 457.502 309.877 457.37 309.877C456.843 309.877 456.382 310.338 456.382 310.865C456.448 311.392 456.843 311.852 457.37 311.852Z" fill="#161616"/>
<path d="M426.014 338.91C424.96 337.396 423.247 335.223 423.972 333.248C424.828 331.01 427.529 331.339 429.308 331.602C431.481 331.931 433.26 332.326 435.368 331.668C437.081 331.141 438.596 330.022 440.177 329.166C443.932 327.06 448.345 326.862 449.531 331.8C452.891 345.296 429.044 349.114 425.355 337.264C424.96 336.079 423.049 336.54 423.445 337.791C427.99 352.34 456.185 346.941 451.244 330.812C450.388 328.113 448.345 325.809 445.447 325.48C440.704 325.019 437.608 329.759 433.062 330.088C429.703 330.351 425.619 327.784 422.918 330.944C420.48 333.775 422.457 337.396 424.235 339.897C425.026 340.951 426.738 339.963 426.014 338.91Z" fill="#161616"/>
<path d="M422.193 335.157C423.642 339.173 430.889 337.922 434.051 337.461C440.111 336.54 445.645 333.907 450.322 330.022C451.31 329.232 449.927 327.784 448.939 328.64C445.513 331.537 441.561 333.643 437.213 334.828C435.302 335.355 425.223 337.593 424.169 334.697C423.642 333.446 421.732 333.972 422.193 335.157Z" fill="#161616"/>
<path d="M433.919 364.058C441.626 366.033 451.903 361.162 456.25 354.776C456.975 353.722 455.262 352.735 454.538 353.788C450.717 359.384 441.165 363.861 434.446 362.149C433.194 361.82 432.667 363.729 433.919 364.058Z" fill="#161616"/>
<path d="M434.644 364.651C441.494 368.93 452.759 362.873 456.053 356.356C456.646 355.237 454.933 354.249 454.34 355.368C451.573 360.898 441.494 366.626 435.632 363.005C434.512 362.281 433.524 363.993 434.644 364.651Z" fill="#161616"/>
<path opacity="0.2" d="M461.981 294.868C462.443 297.238 463.035 300.99 463.431 305.533C464.353 317.646 465.934 337.923 453.681 351.419C451.046 354.315 445.447 359.45 435.104 362.347C438.398 362.215 442.417 361.82 446.764 360.701C448.938 360.174 450.914 359.516 452.693 358.792C452.957 364.651 453.154 370.51 453.418 376.369C455.657 374.921 457.831 373.539 460.071 372.09C457.041 365.375 457.041 360.174 457.436 356.883C458.029 352.274 459.742 348.522 461.454 344.769C462.97 341.478 464.551 338.844 465.802 337.001C465.934 338.384 466.263 339.832 467.186 341.214C471.204 347.205 483.786 347.798 491.691 342.663C499.003 337.923 502.56 328.311 500.716 318.436C501.968 319.489 503.285 320.74 504.537 322.254C505.525 323.439 508.094 326.863 511.651 338.91C512.771 342.663 513.298 344.572 513.627 346.481C514.023 349.114 514.747 354.118 513.364 359.779C510.992 369.523 503.944 375.119 501.836 376.699C500.321 377.818 495.709 381.175 488.793 382.755C485.499 383.479 475.618 385.849 466.329 380.451C462.838 378.41 460.927 376.896 459.873 375.053C458.754 373.012 458.622 371.103 458.49 369.654C457.897 360.635 457.634 356.093 458.227 352.999C460.005 344.045 464.024 343.124 466.263 332.919C467.054 329.233 467.252 326.139 467.317 324.164C468.174 324.295 469.491 324.427 471.072 324.032C474.366 323.176 476.013 320.477 476.606 319.489C478.977 315.737 480.031 309.022 476.342 305.928C475.815 305.467 473.971 304.084 470.413 304.348C467.713 301.188 464.88 298.028 461.981 294.868Z" fill="#3F3F3F"/>
<path opacity="0.13" d="M430.757 316.197C434.116 317.185 437.542 318.238 440.902 319.226C440.045 320.016 439.189 320.74 438.267 321.53C437.41 322.254 436.62 322.846 435.763 323.505C434.709 322.715 433.194 321.332 432.008 319.226C431.35 318.106 430.954 317.053 430.757 316.197Z" fill="#3F3F3F"/>
<path opacity="0.16" d="M377.925 324.427C370.745 349.772 376.081 370.247 386.818 374.723C395.25 378.213 410.467 373.275 413.3 364.651C413.695 363.532 414.09 361.557 412.575 355.5C411.258 350.168 408.557 342.136 402.496 332.985C401.442 332.327 400.059 331.273 398.742 329.693C396.436 326.862 395.777 323.834 395.58 322.386C397.49 324.361 400.257 326.862 402.035 326.072C403.748 325.282 404.802 322.912 404.209 320.542C404.802 323.571 405.724 327.718 407.437 332.524C409.677 338.91 411.917 345.098 417.121 350.957C419.492 353.657 424.169 358.068 432.074 361.228C433.392 362.873 435.829 366.428 436.62 371.629C436.751 372.419 437.213 376.04 436.027 380.583C435.763 381.636 434.182 387.363 428.978 392.301C422.918 398.094 415.671 399.148 413.3 399.477C395.448 401.847 381.614 386.244 379.177 383.545C376.739 380.78 372.721 376.172 370.415 369.062C366.726 357.738 369.559 347.534 371.601 340.095C373.511 333.117 376.081 327.85 377.925 324.427Z" fill="#3F3F3F"/>
</svg>
